<?xml version="1.0" encoding="UTF-8"?>
<svg id="Layer_1" data-name="Layer 1" xmlns="http://www.w3.org/2000/svg" viewBox="0 0 864 864">
  <path d="M76.17,840.91c17.69,5.05,35.26,6.38,53.03,6.07,37.83-.67,72.07-12.59,103.83-32.54,22.89-14.38,45.48-29.26,70.3-40.26,.53-.24,.93-.78,2.42-2.06-16.29,3.63-30.6,8.95-44.52,15.43-27.69,12.88-54.63,27.48-84.36,35.57-31.64,8.61-63.45,12.4-95.28,1.89-32.82-10.83-55.52-32.21-64.25-66.43-7.01-27.48,5.91-56.33,28.94-66.12,21.84-9.28,43.91-.22,50.37,20.69,5.08,16.44-4.71,32.77-20.78,34.67-7.93,.94-13.44-1.82-17.23-9.02,4.76,.49,9.28,2.06,13.62-.7,4.07-2.59,6.65-5.99,7.64-10.65,1.64-7.73-3.59-16.67-11.78-19.8-6.35-2.43-12.59-1.72-18.54,1.44-18.62,9.89-19.48,36.92-1.5,50.18,13.24,9.76,28.06,10.52,43.46,6.87,15.04-3.57,28.02-11.32,40.49-20.13,20.5-14.49,41.98-26.83,67.52-29.95,20.45-2.5,40.22,.15,59.45,8.41-44.86-.45-85.33,11.45-119.98,40.84,57.18-28.38,117.57-33.96,181.82-25-13.26-10.33-25.95-17.39-39.43-23.18-26.72-11.49-55.02-17.49-83.09-24.33-45.06-10.98-80.47-35.98-106.96-73.9-5.7-8.16-11.04-16.63-18.68-23.24-7.44-6.43-15.84-9.47-25.65-6.68-9.16,2.62-14.46,10.84-12.31,18.75,1.8,6.6,6.99,9.1,13.06,6.44,2.14-.93,3.91-4.17,6.82-1.46,2.95,2.75,4.44,6.12,3.87,10.19-1.27,9.15-11.13,15.63-20.88,13.48-12.91-2.85-19.16-12.15-22.62-24.01-.43-1.47,.4-3.38-1.51-4.35-5.5,15.5,4.65,34.47,24.7,44.84-3.64,.65-6.03-.22-8.52-1.15-29.39-11.02-37.56-45.15-17.11-72.01,14.09-18.51,33.25-26.76,56.14-27.11,10.95-.17,10.95-.08,13.02-10.44,4.64-23.15,29.42-46.75,51.66-48.53-12.47,9.61-22.43,20.54-28.05,34.85-.78,1.98-1.5,4-2.03,6.06-4.62,17.8-3.86,19.75,12.34,27.39,14.69,6.92,28.05,15.94,40.87,25.72,17.16,13.08,35.82,23.38,56.28,29.85,34.26,10.83,59.06,33.25,79.09,62,4.6,6.61,9.35,13.12,14.17,19.89,1.39-2.42-.51-3.7-1.26-5.09-6.54-12.1-13.59-23.88-21.31-35.28-18.1-26.73-41.59-46.34-72.2-57.49-18.91-6.89-36.04-17.05-49.25-32.72-11.53-13.67-19.45-28.65-16.17-47.43,2.73-15.6,15.75-25.93,32.07-25.36,14.13,.5,26.02,11.92,27.83,26.73,1.27,10.44-3.82,19.17-12.76,22.06-3.07,.99-5.9,1.28-8.38-1.42,9.78-3.65,13.24-9.91,10.5-18.79-2.87-9.29-12.03-14.79-21.02-12.62-8.93,2.16-15.42,12.3-13.4,21.44,3.15,14.2,12.31,23.79,24.56,30.72,9.96,5.63,20.68,9.73,31.72,12.34,49.54,11.69,82.78,43.02,106.3,86.58,5.41,10.01,11.57,19.61,17.32,29.44,21.03,36.01,52.71,58.09,91.58,71.45,35.72,12.28,72.3,19.69,110.02,19.76,50.2,.08,97.81-10.9,141.25-37.02,8.97-5.39,17.13-11.98,24.13-19.81,10.76-12.02,8.46-21.9-6.38-28.21-14.12-6-29.11-6.12-44.06-6.42-24.21-.48-48.34,2.67-72.56,1.7-32.81-1.32-65.17-4.37-95.44-19.1-59.2-28.81-68.15-95.51-31.76-143.01,11.86-15.49,27.23-26.98,42.8-38.29,3.83-2.78,7.54-5.74,11.32-8.6,15.83-12.02,23.74-27.95,23.38-49.83,2.77,6.01,5.01,10.22,6.7,14.65,10.29,26.84,27.15,48.8,49.63,66.45,4.09,3.21,4.42,5.61,1.81,9.74-2.52,3.99-4.31,8.43-6.4,12.69-2.19,4.45-1.08,6.44,4.12,7.4,21.91,4.07,43.48,9.56,64.5,17.08,8.95,3.2,17.89,6.67,25.73,11.93,18.1,12.13,38.46,16.15,59.49,19.53,42.66,6.85,77.62,27.96,102.8,62.92,29.62,41.12,24.78,90.55-10.24,128.22-23.41,25.19-53.11,39.41-85.28,49.05-49.83,14.93-100.7,16.77-152.13,10.97-66.2-7.46-128.69-27.33-188.82-55.46-10.3-4.82-21.04-8.6-32.32-10.66-19.77-3.6-36.9,3.12-53.03,13.56-16.77,10.85-31.47,24.44-47.66,36.06-36.11,25.91-76.68,36.39-120.71,34.61-25.41-1.03-49.88-5.85-72.24-18.73-1.23-.71-2.45-1.43-3.6-2.24-.34-.24-.47-.79-1.09-1.93Zm28.57-257.56c2.12,3.09,4.34,6.13,6.35,9.29,20.8,32.61,49.69,53.9,87.26,63.81,22.45,5.93,44.22,13.97,64.55,25.46,3.92,2.21,7.88,4.35,11.76,6.62,3.61,2.11,7.13,4.36,10.69,6.55-19.67-24.26-44.49-40.98-74.14-49.22-29.52-8.2-54.8-22.87-77.2-43.4-8.5-7.79-17.73-14.91-29.27-19.12Zm211.52,169.92c-19.92-1.06-39.77-.6-59.5,2.83-29.24,5.09-57.38,14.59-86.21,21.34-30.05,7.04-59.82,16.4-92.74,11.09,6.24,3.95,11.89,5.47,17.65,6.69,28.92,6.11,57.05,1.79,84.89-6.44,44.88-13.26,88.54-31.19,135.9-35.51Z"/>
  <path d="M473.03,295.13c-19.71,13.64-43.01,15.06-65.28,19.92-33.48,7.3-53.26,31.38-53.77,65.69-.19,12.56,.47,25.14,.43,37.71-.04,12.66-5.08,23.59-13.09,33.07-21.62,25.6-49.08,38.25-82.77,35.92-13.84-.96-25.89-6.25-33.65-18.45-5.36-8.42-5.8-17.5-.76-26.28,4.38-7.64,11.33-11.26,20.15-10.89,5.65,.24,10.16,2.89,12.45,8.09,1.91,4.34,1.46,8.7-2.2,12.26-2.39-.65-1.24-2.44-1.64-3.59-1.36-3.89-3.54-7.28-8.13-6.16-4.77,1.16-5.98,5.14-4.82,9.59,1.9,7.28,7.58,10.67,14.21,12.54,11.73,3.3,23.17,1.05,34.03-3.4,22.41-9.19,45.17-30.7,44.5-68.12-.23-12.79-.83-25.66,1.89-38.29,6.46-29.96,26.15-47.29,54.27-56.55,12.25-4.03,25.17-4.38,37.63-7.24,2.96-.68,5.94-1.28,10.89-2.35-37.07-6.65-66.84,3.35-91.77,28.42-16.63,16.73-26.19,36.35-24.7,60.62,.57,9.21,.42,18.49-1.01,27.7-2.53,16.37-15.72,29.27-30.69,29.72-16.65,.5-26.7-13.99-20.4-29.44,.59-1.46,1.29-2.87,1.95-4.33,2.2,.87,1.13,2.5,1.2,3.71,.56,9.13,5.41,15.39,13.33,17.05,8.82,1.85,16.75-1.82,20.68-10.04,3.56-7.45,4.14-15.4,3.38-23.61-1.84-19.76-5.64-39.4-1.66-59.44,10.14-51.11,45.57-81,97.65-82.24,14.59-.35,29.21-1.3,43.52-5.25-16.96-2.81-33.87-5.89-50.88-8.38-35.36-5.19-72.54,16.9-88.56,51.65-8.02,17.4-9.63,36.04-12.27,54.55-5.93,41.52-44.49,75.47-84.96,74.85-23.32-.35-40.5-12.05-46.52-31.66-5.24-17.09,2.74-35.02,18.28-40.54,7.55-2.68,14.96-2.46,21.41,3.08,7.12,6.11,7.08,15.42-.1,21.99,.81-6.22-2.58-9.61-8.04-10.1-6.05-.54-8.94,3.8-9.76,9.22-1.79,11.82,9.69,22.6,22.53,21.45,11.65-1.05,20.03-7,25.12-17.31,2.18-4.42,3.93-9.22,4.86-14.05,5.76-29.78,22.39-52.34,46-70.39,1.32-1.01,2.61-2.04,3.88-3.1,.35-.29,.57-.74,1.22-1.62-10.79,4.66-20.95,9.49-31.42,13.49-22.73,8.68-46.03,12.36-69.4,3.14-19.69-7.76-30.28-23.5-32.27-44.13-1.69-17.45,3.85-32.87,18.39-43.9,10.59-8.03,22.09-8.62,34.19-3.29-13.11-11.55-28.68-14.66-45.33-13.19-12.27,1.08-23.66,5.16-32.96,13.61-11.45,10.41-15.25,23.56-10.87,38.17,4.42,14.76,15.59,22.03,30.86,23.43-13.62,8.31-35.24,3.24-45.63-10.57-13.85-18.4-12.15-48.52,3.82-67.49,17.79-21.14,47.31-28.61,75.17-19.6,20.31,6.57,35.8,20.09,51.21,33.9,3.36,3.01,6.79,5.93,10.17,8.91,13.8,12.18,29.15,14.37,46.27,7.87,17.61-6.68,32.56-18.11,49.09-27.23-6.43,.56-12.85,1.17-19.28,1.67-22.11,1.71-44.11,1.6-65.61-4.75-11.08-3.28-20.94-8.82-29.05-17.22-11.75-12.17-15.75-30.49-9.33-44.93,2.04,14.88,6.31,28.19,18.58,37.11,11.94,8.68,25.97,10.77,40.48,11.77-18.39-8.61-29.35-24.19-39.91-40.43-9.27-14.24-21.47-24.16-40.07-21.81-10.38,1.31-18.04,8.97-18.34,18.54-.04,1.41,.05,2.86,.32,4.25,.84,4.29,3.13,7.47,7.61,8.38,2.9,.59,5.23-.83,6.38-3.44,1.84-4.17-.03-7.32-3.74-9.99,3.76-1.54,5.51,.67,6.92,3.13,2.05,3.58,.96,6.91-1.47,9.85-4.97,6.02-16.64,5.29-22.91-1.36-5.56-5.9-6.64-14.86-2.51-23.25,5.75-11.68,15.74-17.42,28.25-18.95,15.6-1.91,29.65,2.02,41.7,12.31,3.96,3.38,8.03,6.75,11.46,10.64,23.71,26.87,54.24,41.9,88.39,49.88,24.9,5.82,49.89,11.2,74.68,17.49,10.86,2.76,22.01,3.5,32.94-.41,4.18-1.49,8.35-3,11.84-6.44-39.95,1.62-76.22-14.12-114.08-21.34-7.18-1.37-13.96-4.64-19.83-9.3-10.39-8.25-12.57-17.27-7.59-29.59,3.2-7.9,8.52-14.79,10.57-23.25,2.53-10.47-1.84-20.43-11.31-24.92-10.11-4.79-23.28-2.17-29.14,5.81-6.22,8.48-2.03,19.98,8.1,21.4,3.62,.51,6.65,.88,7.39,4.97,.81,4.52-2.27,7.14-5.46,9.18-13.45,8.64-32.37-1.1-34.13-17.71-1.5-14.15,3.6-26.18,13.54-36.03,23.45-23.23,68.26-18.37,86.34,9.19,6.95,10.6,9.39,22.51,7.61,34.69-3.81,26.04,9.31,38.88,32.32,46.36-10.94-7.61-17.55-16.13-19.48-27.56-1.89-11.21,.42-21.9,4.55-32.3,.72,7.31-.37,14.62,1.15,21.86,5.35,25.47,26.26,44.25,53.71,47.84,41.34,5.42,73.44-8.82,95.09-45.05,4.86-8.14,9.34-16.54,14.73-24.32,16.09-23.19,39.1-29.18,65.72-25.43,1.82,.26,3.53,1.23,5.48,.47-27.17-15.8-64.64-5.55-81.92,22.37-6.36,10.28-11.3,21.37-18.42,31.23-20.9,28.95-61.38,39.35-92.75,23.42-14.09-7.15-23.84-17.9-26.02-34.21-2.69-20.1,17.04-37.84,36.06-32.49,10.33,2.91,16.03,13.93,11.8,22.78-1.51,3.17-3.84,5.55-7.27,6.3-3.34,.72-6.54,1.06-4.02-4.36,1.67-3.59,.82-7.4-3.23-8.89-4.29-1.57-7.91,0-10.03,4.3-2.98,6.05-.06,14.01,6.98,19.04,18.05,12.9,42.08,8.22,54.91-10.68,3.89-5.72,6.72-11.99,9.4-18.31,2.98-7.04,6.44-13.77,11.83-19.28,2.38-2.43,3.27-4.11-.39-6.35-4.27-2.61-7.64-6.5-13.52-2.57-3.02,2.02-6.54-.23-8.23-3.51-1.92-3.72-1.62-7.4,1.81-10.28,3.15-2.64,8.04-3.14,9.64-.22,6.12,11.15,17.07,7.57,26.1,9.77,.42,.1,.89-.05,1.93-.12-1.48-4.18-4.62-7.04-6.77-10.5-1.62-2.61-3.06-.57-4.7-.45-3.86,.3-6.39-1.84-7.13-5.51-.65-3.22,1.13-5.65,4.12-6.6,3.19-1.02,7.29-.4,7.79,2.9,1.05,7.04,7.17,6.51,11.84,10.01,.64-9.33,.02-17.66-.96-25.99-.25-2.15-1.59-2.31-3.28-2.88-5.54-1.86-8.25-5.93-6.17-11.54,1.82-4.9,6.17-6.48,11.12-4.75,5.51,1.91,7.15,5.99,4.88,11.3-.82,1.92-1.35,3.14,.35,4.96,6.13,6.55,12.05,13.31,18.99,19.29,2.01-6.58,5.85-11.92,1.07-17.99-1.69-2.15-.78-5.65,2.2-7.38,2.44-1.42,4.96-1.6,7.22,.49,2.17,2,3.34,4.95,1.19,6.92-7.28,6.69-.1,12.31-.14,20.33,6.12-8.12,10.2-14.93,13.92-22.03,1.32-2.51,.34-3.59-1.06-5.46-3.31-4.41-3.28-9,1.53-12.39,4.01-2.83,8.33-2.54,11.39,1.47,3.59,4.71,2.15,9.33-2.54,12.14-3.93,2.35-2.84,5.64-2.94,8.73-.19,5.93-2.13,13.12,.51,17.44,2.66,4.36,10.53,1.37,16.07,2.29,8.11,1.34,15.63,3.94,22.55,8.18,3.06,1.88,5.73,2.17,9.31,1.38,30.41-6.74,59.29,8.77,67.85,36.15,6.38,20.42-2.09,38.84-21.73,47.17-2.57,1.09-5.23,1.97-8.28,2.65,11.43-9.75,17.49-21.04,10.94-35.89-4.77-10.81-16.58-18.58-29.15-18.81,9.98,3.15,17.26,7.92,21.14,16.84,4.96,11.4,2.57,20.94-8.01,31.26-9.47,9.23-10.07,26.23-1.48,36.09,2.73,3.14,6.71,4.31,9.79,6.91-1.35,2.9-4.07,3.98-6.36,5.54-4.3,2.94-8.87,5.74-3.44,11.59,.39,.43,.65,1.69,.41,1.88-3.7,2.99-3.84,8.63-6.24,11.13-3.86,4.01-5.33,7.76-5.88,12.84-.81,7.4-3.7,9.73-11.42,9.31-8.6-.47-16.82-2.98-24.75-6.15-5.22-2.08-8.53-.69-11.46,3.66-6.11,9.07-8.36,19-6.97,29.77,.94,7.3,5.26,11.57,12.42,12.66,6.79,1.03,13.65,1.54,20.46,2.46,11.72,1.59,18.84,8.9,21.94,19.68,4.05,14.12,4.37,28.77,4.92,45.35-7.14-9.98-13.46-18.09-17.86-27.54-.55,13.33,7.48,22.94,15.01,33.77-17.6,4.92-26.2,18.51-33.46,34.41-3.96-4.63-7.38-8.93-11.1-12.95-12.68-13.69-28.04-20-46.73-16.12-3.63,.76-4.94-.06-6.05-3.54-2.66-8.31-5.57-16.57-11.95-23.48,2.67,10.69,5.25,21.41,8.04,32.07,8.09,30.93,15.62,62.01,25.12,92.56,2.75,8.82,7.01,16.5,13.77,22.85,20.97,19.69,39.1,42.05,59.07,62.69,8.07,8.34,16.52,16.16,27.68,20.95-18.59-33.98-40.18-66.42-49.04-105.92-5.25,9.38-10.09,17.73-14.62,26.24-2.47,4.65-4.32,5.41-8.59,1.29-19.32-18.59-26.89-33.24-31.76-63.9,3.54,.65,6.9,1.31,10.28,1.86,12.93,2.14,23.36-2.47,31.5-12.32,2.45-2.97,3.37-4.48,7.19-1.06,10.24,9.19,21.98,7.71,36.13-3.86,2.61,6.86,1.97,14.03,2.65,20.87,1.6,15.97,5.31,31.18,11.86,45.85,12.66,28.36,23.29,57.55,34.25,86.58,2.6,6.89,5.89,10.52,14.14,10.85,34.1,1.37,54.13,23.42,71.98,49.97-3.48,.64-5.07-.95-6.82-1.87-17.74-9.36-36.33-16.43-56.3-18.9-29.46-3.63-55.12-16.82-80.33-31.13-30.9-17.54-59.64-37.95-83.59-64.54-14.67-16.29-23.98-35.72-32.78-55.49-14.17-31.84-28.38-63.68-36.66-97.71-3.34-13.71-4.9-27.52-.97-41.48,2.32-8.23,6.97-14.41,14.57-18.34,4.84-2.5,9.82-4.77,14.51-7.53,22.86-13.46,30.11-34.98,30.66-59.98-11.63,20.35-28.78,35.71-45.88,50.92-26.22,23.3-32.97,51.31-22.93,84.35,3.85,12.67,7.27,25.48,6.57,39.05-1.63,31.46-31.69,55.5-60.77,48.32-15.72-3.88-23.47-19-17.08-33.33,4.46,15.64,18.23,22.7,35.74,18.32,16.8-4.2,24.41-17.07,20.2-34.79-1.25-5.27-3.39-10.34-5.32-15.43-2.34-6.2-4.99-12.29-7.33-18.49-2.24-5.94-2.72-12.23-2.7-20.14-5.1,7.84-6.6,14.73-4.8,22.2,1.83,7.59,4.4,15.04,5.74,22.71,2.83,16.16-13.3,30.28-28.64,25.43-4.22-1.33-8.05-3.24-8.94-8.15-.9-5.01,1.42-8.58,5.24-11.47,2.14,1.35,.29,2.04-.16,2.69-1.8,2.65-1.11,4.94,.88,7.02,2.31,2.41,4.95,2.44,7.77,.89,4.46-2.44,6.31-6.3,5.97-11.22-.43-6.23-3.56-10.69-9.31-13.2-11.48-5.02-27.03,2.9-31.95,16.32-3.22,8.78-2.56,17.74-.79,26.67,2.4,12.07,7.04,23.54,8.61,35.88,4.68,36.76-29.73,69.79-65.17,62.19-13.28-2.85-21.9-13.17-21.25-25.46,.54-10.31,8.73-18.16,20.35-18.65-4.96,2.81-7.59,6.03-6.19,11.51,1.42,5.6,5.29,8.28,10.32,9.61,13.66,3.61,26.99-7.49,28.38-23.45,.85-9.72-1.63-18.8-5.11-27.73-6.08-15.58-10.18-31.44-9.26-48.48,1.73-32.02,20.68-54.63,52.32-61.28,12.06-2.53,24.24-4.48,35.04-11.06,7.45-4.54,14.05-9.9,18.92-17.43Zm38.14-113.92c-1.02,1.85-1.97,3.75-3.08,5.55-1.12,1.81-2.27,3.63-3.63,5.25-19.88,23.6-45.04,30.94-74.77,24.19-21.45-4.87-43-7.74-64.77-2.18-18.23,4.65-33.89,14.42-49.18,24.96-12.95,8.93-26.54,16.68-42.26,19.61-26.55,4.95-42.45-3.19-49.71-24.63-4.7-13.89-17.78-16.33-29.11-6.84-16.56,13.87-12.99,40.93,6.95,51.46,17.87,9.43,36.25,7.17,54.63,1.7,23.53-7,44.04-19.64,63.5-34.21,13.15-9.84,26.87-18.69,42.76-23.52,23.63-7.19,46.84-4.76,69.82,3.17,9.4,3.25,18.85,6.41,29.04,5.86,22.59-1.21,42.99-22.05,49.8-50.36Zm-71.02,89.26c10.71,2.19,20.77,1.84,30.41-1.63,25.35-9.14,47.26-23.86,66.03-43.04,10.02-10.23,15.85-25.73,15.51-36.82-23.66,45.19-64.65,67.11-111.95,81.49Zm116.6-125.34c9.87-9.92,22.24-14.19,35.48-16.84,8.35-1.67,16.68-3.53,24.54-6.99,14.41-6.34,24.02-18.51,24.25-31.2-10.93,14.74-25.97,22.17-42.71,27.03-7.94,2.31-15.95,4.61-23.32,8.49-8.24,4.35-15.59,9.66-18.23,19.5Z"/>
  <path d="M462.21,737.27c18.3,1.8,34.15-4.68,49.68-12.86,15.62-8.24,31.58-15.22,50.09-12.12,11.5,1.93,21.25,7.74,31.36,12.87,7.81,3.96,15.56,8.21,24.8,7.39,6.42-.57,10.35-4.22,9.74-8.98-.19-1.47-.63-2.83-2.06-3.51-1.79-.85-2.58,.52-3.27,1.76-.99,1.77-2.08,3.53-4.33,1.87-1.89-1.4-2.42-3.51-1.43-5.72,2.02-4.51,5.69-5.39,10.02-4.06,8.55,2.61,11.06,14.47,4.31,21.76-6.84,7.38-15.8,9.11-25.43,7.84-8.02-1.06-15.84-3.22-23.13-6.67-19.61-9.3-39.33-8.92-59.35-1.62-13.89,5.06-28.08,8.56-43.07,7.51-6.37-.45-12.48-1.58-17.94-5.44Z"/>
  <path d="M484.55,699.07c-16.43,16.33-35.1,27.25-59.07,21.98-19.59-4.31-29.71-21.81-23.98-39.76,4.82-15.1,22.05-23.36,35.97-17.36,5.36,2.31,8.43,6.18,8.51,11.96,.08,5.64-3.38,7.65-8.5,5.28-7.16-3.32-13.47,.59-13.77,8.54-.3,7.74,5.48,14.85,14.37,17.2,14.04,3.71,27.21-.25,40.22-5.03,2.14-.79,4.17-1.86,6.25-2.8Z"/>
  <path d="M360.41,561.31c-3.06-5.86-6.95-9.96-13.45-9.56-6.53,.4-9.99,5.25-12.24,10.58-5.3,12.55-4.57,25.42-.83,38.22,3.73,12.75,10.59,23.69,20.86,33.92-5.62-1.15-9.36-3.61-12.65-6.41-19.87-16.93-30.99-38.03-29.37-64.66,1.31-21.52,17.73-35.55,36.72-31.77,7.7,1.53,13.54,5.56,16.01,13.4,1.98,6.27,.58,11.63-5.06,16.28Z"/>
  <path d="M424.49,626.89c-26.3,25.96-64.27,16.95-73.89-16.2-2.3-7.92-2.1-15.94,1.88-23.45,3.08-5.83,8.22-8.41,14.64-8.07,4.21,.22,7.84,2,9.49,6.3,1.6,4.17-1.11,6.44-3.8,9-7.93,7.53-5.64,21.94,4.91,29.47,11.63,8.3,24.61,8.69,37.99,5.43,2.47-.6,4.91-1.37,8.77-2.47Z"/>
  <path d="M189.23,704.89c-46.7,8.41-85.02-17.02-88.06-58.28,24.41,27.06,51.9,48.22,88.06,58.28Z"/>
  <path d="M568.91,364.18c18.13-10.99,40.17-5.64,52.64,12.98-8.46-5.45-16.71-9.08-25.76-11.07-8.73-1.91-17.62-.89-26.89-1.91Z"/>
  <path d="M230.34,315.22c-9.79,3.82-17.66,6.82-25.46,9.97-2.87,1.16-5.44,1.41-7.79-.96-1.66-1.67-2.1-3.67-1.35-5.86,1.07-3.1,3.76-4.53,6.61-4.48,5.4,.09,10.78,.94,16.17,1.28,3.29,.21,6.59,.04,11.82,.04Z"/>
  <path d="M577.75,383.13c17.22-7.38,31.95-6.84,43.66,1.37-14.66,.99-28.34,.08-43.66-1.37Z"/>
  <path d="M165.9,322.3c-4.82-.5-7.49-3.46-7.57-8.31-.08-5.19,3.19-7.63,8.11-7.67,5.15-.04,8.06,3.05,7.8,7.93-.24,4.61-2.96,7.82-8.34,8.04Z"/>
  <path d="M560.76,740.97c2.28,.13,5.64,1.69,5.75,6.41,.12,4.79-2.98,7.51-7.45,7.82-4.82,.33-7.64-2.69-7.57-7.39,.06-4.36,2.67-6.92,9.26-6.84Z"/>
  <path d="M634.51,376.24c5.27-10.18,12.79-17.76,24.41-20.34,2.07-.46,4.5-1.54,5.48,1.19,1.11,3.09-1.93,3.16-3.71,3.94-9.26,4.05-18.61,7.93-26.18,15.21Z"/>
  <path d="M629.48,385.53c13.46,4.28,24.77,2.24,36.72-1.21-8.28,12.1-22.92,12.81-36.72,1.21Z"/>
  <path d="M128.32,240.65c-5-14.39,1.7-26.74,15.2-29.71-7.85,8.41-14.58,16.49-15.2,29.71Z"/>
  <path d="M293.15,394.38c-.32,3.72-2.2,6.18-6.09,6.5-3.91,.32-6.39-1.62-6.72-5.58-.34-4.1,2.2-6.14,5.93-6.47,3.8-.34,6.31,1.47,6.87,5.55Z"/>
  <path d="M595.47,402.74c9.02-4.39,17.76-9.23,27.6-11.43-7.11,8.79-17.26,10.44-27.6,11.43Z"/>
  <path d="M665.96,372.89c-7.89,5.63-17.19,6.33-26.33,7.6,7.98-5.32,16.65-8.22,26.33-7.6Z"/>
</svg>