<?xml version="1.0" encoding="UTF-8"?>
<svg id="Layer_1" data-name="Layer 1" xmlns="http://www.w3.org/2000/svg" viewBox="0 0 864 864">
  <path d="M537.89,300.97c-5.97,11.74-9.75,22.84-13.63,33.86-8.83,25.06-17.04,50.34-26.21,75.27-7.92,21.56-21.26,40.25-33.52,59.46-11.15,17.46-22.53,34.78-31.21,53.69-3.81,8.31-9.78,14.72-18.01,18.62-9.44,4.48-18.16,9.9-25.86,17-1.68,1.55-4.31,4.13-6.15,2.67-2.15-1.71-.15-4.79,.9-7.05,2.85-6.11,7.04-11.35,12.07-16.88-5.47-.81-9.15,.83-12.54,3.67-5.16,4.31-7.99,10.36-11.89,15.61-1.81,2.44-4.03,6.82-6.59,5.46-2.85-1.51,.2-5.41,1.01-8.22,.46-1.62,1.07-3.2,2.01-6.01-4.07,3.85-7.14,7.13-11.64,8.16-.8,.18-1.64,.9-2.37,.09-.85-.94-.39-2.04,.23-2.83,8.59-10.99,15.98-23.08,27.83-31.13,4.4-2.99,9.68-3.51,14.66-4.81,5.01-1.31,9.98-2.7,14.71-4.87,7.36-3.37,12.77-8.55,16.31-15.91,9.33-19.38,15.27-39.97,21.26-60.48,6.43-22.03,14.31-43.21,28.48-61.65,14.22-18.5,19.41-40.5,23.69-62.84,4.01-20.89,4.48-42.19,7.85-63.16,2.36-14.7,9.52-26.48,21.56-34.61,18.6-12.56,27.96-30.63,32.62-51.61,2.12-9.51,5.13-16.89,14.59-22.21,12.54-7.05,20.34-19.44,27.7-31.66,2.02-3.35,3.99-6.74,5.98-10.1-.54-.5-1.07-.99-1.61-1.49-5.63,6.14-10.78,12.84-16.99,18.33-22.5,19.9-48.82,30.17-79.06,29.69-19.38-.31-36.66-7.5-53.52-16.21-14.26-7.37-28.39-15.37-44.26-18.67-40.13-8.36-95.33,5.29-110.74,67.53-1.16,4.68-1.81,9.48-2.74,14.22-.37,1.86-.58,3.69-3.34,3.7-17.95,.06-34.82-3.54-48.53-15.9-10.66-9.62-16.84-21.55-13.95-36.44,2.55-13.12,16.8-20.55,27.69-14.84,6.27,3.28,7.83,9.8,3.51,14.62-2.4-7.94-9.79-9.52-16.08-3.44-9.33,9.02-5.17,27.1,7.48,32.47,12.92,5.49,28.41,.35,35.79-11.61,2.3-3.73,1.73-7.14,.33-10.83-4.76-12.62-5.2-25.25,.19-37.83,3.75-8.74,10.18-15.18,18.04-20.14,3.8-2.4,4.39-4.81,2.68-8.87-3.17-7.51-4.12-15.67-6.02-23.55-1.92-7.97-4.7-15.59-9.83-22.08-11.18-14.15-32.55-15.85-43.16-3.46-5.01,5.85-5.59,12.44-2.43,19.33,2.83,6.17,8.91,9.75,15.37,9.33,7.67-.51,12.05-6.31,10.43-13.89-.21-.96-1.16-2.15-.01-2.74,1.08-.56,2.24,.23,3.24,1.06,5.59,4.61,4.8,14.51-1.59,19.5-7.52,5.86-19.14,6.31-27.72,.61-11.78-7.82-17.92-18.78-15.76-33.07,2.4-15.86,11.36-26.97,26.9-31.66,26.21-7.91,51.74,6.51,61.03,34,3.27,9.67,4.62,19.79,7.04,29.66,6.52,26.66,29.66,37.35,55.04,25.19-5.57-6.58-10.78-13.33-12.82-21.87-4.14-17.37-.62-32.96,12.67-45.01,13.53-12.27,29.69-15.6,47.21-9.56,10.77,3.71,17.88,13.76,17.5,23.85-.31,8.16-5.41,13.33-14.75,13.77,3.8-1.92,5.41-4.46,6.11-7.53,.72-3.18,.08-6.2-1.64-8.94-3.79-6.03-11.8-8.68-18.72-5.89-8.32,3.35-12.6,9.98-13.62,18.66-2.57,21.92,7.15,38.06,24.46,50.25,28.63,20.17,81.38,23.14,111.98-14.76,8.65-10.71,17.15-21.71,28.9-29.5,9.97-6.62,20.92-10.33,33.12-11.5-3.87-1.55-10.97-1.5-18.7,.05-17.29,3.46-31.8,12.08-44.51,24.04-8.56,8.05-17.02,16.22-27.14,22.37-25.4,15.44-56.65,13.44-78.82-5.08-6.79-5.68-12.82-15.11-15.5-24.65,6.3,7.01,12.79,12.68,21.61,15.08,20.69,5.63,37.68-1.33,52.47-15.41,4.87-4.63,9.27-9.78,13.73-14.83,21.15-23.92,48-28.93,77.85-23.11,16.93,3.3,31.36,11.42,42.55,24.78,1.96,2.34,4.62,2.86,7.25,3.56,17.97,4.77,35.09,11.48,50.33,22.37,18.57,13.27,31.81,30.24,35.25,53.34,4.39,29.44-10.65,57.13-41.92,66.15-1.46,.42-3.05,.37-4.97,.2,19.74-10.88,29.66-27.01,27.73-49.73-1.9-22.31-14.56-37.32-33.01-48.75,7.77,15.71,12.3,31.41,.81,47.21-5.48,7.54-13.5,12.52-20.23,12.9,22.74-20.82,12.86-52.37-7.5-73.43,1.09,3.53,2.2,6.57,2.96,9.69,2.23,9.21,1.58,18.24-2.78,26.72-4.37,8.49-4.12,16.57,1.34,24.41,2.5,3.59,2.98,6.61-1.92,8.41-3.45,1.27-4.59,3.61-4.12,7.22,.45,3.44,.16,6.76-4.6,6.95-.7,.03-1.67,.47-1.45,1.13,2.47,7.37-6.67,10.19-6.52,17.08,.08,3.59-4.28,4.84-8.19,4.14-5.04-.91-9.3-3.59-13.77-5.83-11.22-5.63-16.36-3.95-21.73,7.43-6.83,14.48-4.96,28.25,4.16,41.1,10.31,14.51,24.64,24.5,39.14,34.27,2.72,1.83,5.42,3.71,7.97,5.77,12.25,9.91,13.16,24.27,2.17,35.62-1.58,1.63-2.75,2.99-2.01,5.33,7.01,21.91,3.78,43.62-.82,65.44-4.62,21.92-10.37,43.68-10.55,66.34-.16,20.08,5.89,37.97,18.24,53.81,20.43,26.22,39.28,53.42,52.41,84.19,14.4,33.75,23.4,68.68,21.25,105.63-4.82,82.7-57.03,159.7-151.11,176.02-38.25,6.63-75.57,2.45-112.02-11.09-27.17-10.09-52.14-24.57-77.87-37.55-15.51-7.83-31.51-14.21-49.15-15.03-23.02-1.07-44.93,3.6-65.95,12.94-14.67,6.52-29.41,12.97-45.23,16.28-25.27,5.27-49.11,.88-71.6-11.28-31.2-16.88-54.05-41.45-67.35-74.53-1.88-4.69-3.67-9.52-3.55-15.89,5.31,7.89,10.61,14.43,17.9,18.96,22.37,13.92,42.72,10.87,61.79-9.17,6.07-6.38,11.7-13.18,18.36-18.99,18.63-16.25,40.21-20.64,63.85-15.06,33.34,7.87,58.84,27.86,80.62,53.35,.86,1.01,1.36,2.4,3.66,3.11-4.05-9.23-9.24-17.04-14.95-24.53-16.54-21.68-39.14-35.05-63.41-46.15-20.16-9.22-39.97-19.09-55.93-34.99-26.95-26.84-42.92-59.78-52.93-95.98-6.25-22.63-9.29-45.7-8.99-69.15,.24-19.23,2.94-38.15,8.76-56.55,.41-1.28,.97-2.52,1.96-3.74-.26,7.27-.59,14.48,.12,21.72,3.5,36.02,23.07,60.46,54.81,75.95,16.68,8.14,34.84,10.89,53.09,12.66,39.74,3.87,74.25,18.32,100.22,49.65,19.62,23.69,28.55,51.25,27.87,81.97-.27,12.11-1.82,24.12-3.66,36.04-5.27,34.32,7.24,61.17,33.86,82.22,22.74,17.99,48.06,30.99,76.99,34.58,36.9,4.57,71.66-1.59,101.45-25.84,25.3-20.6,34.39-48,32.19-79.66-2.19-31.56-17.14-57.03-38.89-79.11-15.06-15.28-32.21-28.25-47.53-43.24-13.54-13.25-25.62-27.58-33.14-45.28-12.74-29.98-8.66-58.32,8.1-85.46,12.2-19.76,30.6-33.06,48.84-46.5,6.12-4.51,11.92-9.41,17.24-14.87,10.62-10.89,13.45-23.27,7.72-37.56-5.88-14.68-14.03-28.09-22.51-41.34-4.27-6.67-8.71-13.23-13.73-20.85Zm-386.64,243.57c7,17.86,18.94,31.58,34.4,42.37,15.95,11.13,34.02,17.62,52.46,22.84,39.21,11.1,68.03,34.15,84.96,71.53,5.11,11.28,9.97,22.64,12.89,34.76,.3-7.83-1.08-15.4-2.63-22.96-10.93-53.3-47.51-89.13-100.91-98.82-20.61-3.74-40.11-10.19-57.03-23.07-9.74-7.41-17.71-16.36-24.14-26.64Zm40.73,1.32c8.65,7.06,18.92,10.65,29.17,14.18,16.46,5.68,32.88,11.25,47.83,20.63,37.7,23.67,60.98,57.15,69.65,100.76,3.65,18.33,5.68,36.9,7.68,55.62,.27-.43,.54-.69,.6-.98,.27-1.35,.59-2.71,.68-4.08,1.52-22.46,1.66-44.84-3.76-66.91-10.39-42.26-33.8-74.15-73.47-93.54-24.97-12.2-53.09-14.53-78.37-25.67Zm-53.6,227.55c3.25,1.45,5.47,1.26,7.62,1.2,9-.25,17.85-1.73,26.59-3.76,17.62-4.09,35.11-8.92,53.23-10.39,33.62-2.73,65.04,4.98,94.77,20.4,2.04,1.06,4.04,2.18,6.06,3.27-5.72-6.08-12.67-10.25-19.6-14.35-32.06-18.98-66.17-25.34-102.91-17.05-22.18,5-41.82,17.6-65.77,20.69ZM500.57,127.19c.63,.17,1.26,.41,1.9,.51,32.52,4.7,60.84-3.13,83.78-27.64,9.62-10.28,16.16-22.79,25.07-33.57,2.41-2.91,4.89-5.76,7.91-9.31-15.37,4.96-25.8,14.97-35.85,25.52-13.66,14.34-28.35,27.21-46.92,35.06-11.53,4.87-23.43,7.92-35.89,9.44ZM181.65,798.31c10.94-.42,21.25-3.81,31.48-7.36,25.53-8.84,51.56-12.59,78.39-7.82,6.4,1.14,12.66,3.1,19.46,4.8-.82-.69-1.17-1.11-1.62-1.33-30.68-15.7-61.81-17.86-93.59-3.29-11.26,5.16-22.11,11.29-34.13,15Zm13.26-62.32c42.95-6.3,81.63,5.84,118.79,27.2-29.03-27.68-78.36-43.72-118.79-27.2Zm115.92-47.74c-10.81-28.65-37.07-39.15-71.34-39.44,27.25,6.87,54.25,14.21,71.34,39.44Zm25.55-582.91c-10.88-5.12-12.96-4.69-20.7,4-7.48,8.4-11.56,20.76-9.54,28.84,4.26-16,15.86-25.33,30.24-32.84Zm3.14,653.3c-4-25.32-21.11-53.59-46.62-65.72,20.8,17.57,35.37,39.61,46.62,65.72ZM519.57,60.42c-15.47,12.94-31.36,25-52.85,28.18,18.41,6.78,41.67-10.38,52.85-28.18Zm88.69,604.34c5.03,6.29,10.58,8.6,17.25,7.08,4.83-1.1,7.81-4.24,9.32-9.23-8.46,2.56-9.74,2.32-14.14-3.58-1.06-1.42-1.56-.81-2.27-.12-2.87,2.76-6.55,4.2-10.16,5.86Zm-31.39-41.32c5.22,3.87,10,6.5,15.82,3.41,4.26-2.26,6.27-5.88,6.07-11.03-3.9,2.71-7.39,5.58-11.69,1.51-.95-.9-1.49,.02-2.02,.69-1.97,2.48-4.83,3.7-8.18,5.41Zm41.87,61.78c6.09,8.96,17.1,8.77,21.97-.76-3.39,1.29-7.27,1.22-8.83-1.14-3.09-4.68-5.24-2.36-8.11-.29-1.44,1.04-3.33,1.47-5.03,2.18Zm-26.21-43.41c6.89,8.03,16.98,7.15,21.25-1.74-4.13,.84-7.98,.89-10.96-2.51-.98-1.12-1.81-.34-2.62,.28-2.27,1.76-4.79,3.09-7.67,3.97Zm-63.5-100.02c-4.18,1.16-7.75,1.61-10.51-.91-3.9-3.56-6.33,1.77-9.71,1.28-.58-.08-.27,1.48,.22,2.18,2.45,3.45,5.68,5.74,10.03,5.2,4.41-.55,7.87-2.74,9.97-7.75Zm55.77,258.51c.35,8.06,2.76,11.12,8.03,11.12,5.38,0,9.45-3.97,9.57-9.33-6.01,3.81-11.69,2.61-17.6-1.78Zm-85.31-285.6c1.38,7.69,4.68,10.83,9.9,10.05,4.49-.67,6.92-4.22,6.57-9.91-5.37,4.28-10.72,3.96-16.47-.15Zm136.09,224c-6.3,2.32-11.2,.39-15.84-3.27-.62,6.87,1.12,10.02,5.68,11.1,3.9,.92,7.69-1.77,10.16-7.82Zm-11.44-118.84c-6.43,4.84-12.4,3.45-18.54,1.73,.26,5.25,2.91,7.55,7.39,7.95,5.47,.49,8.8-2.09,11.15-9.68Zm-43.15-22.09c-3.06,2.82-6.01,5.06-10.11,4.88-1.27-.06-3.54-1.12-3.77,1.16-.18,1.83,.9,3.55,2.97,4.33,3,1.13,5.83,.66,8.24-1.15,2.82-2.12,3.63-5.15,2.65-9.22Zm-26.29,230.88c-.19,4.81,2.14,7.81,6.33,8.37,5.07,.68,7.88-1.47,9.4-7.75-5.59,3.56-10.71,2.24-15.73-.62Zm-79.23,7.39c.99,4.73,2.22,8.08,7.02,8.23,4.63,.15,6.65-2.73,7.97-6.65-5.18,2.97-9.73,1.11-14.99-1.58Zm41.29-277.6c1.31,5.37,3.7,8.04,8.59,6.91,4.21-.98,5.52-4.11,5.83-9.36-4.58,4.9-9,4.71-14.42,2.45Zm36.71,263.43c-4.51,2.14-8.26,2.4-12.06,.7-.8-.36-1.79-1.45-2.66-.24-.65,.9-.29,2.03,.17,2.93,1.08,2.11,2.72,3.37,5.25,3.46,4.35,.15,6.98-2.13,9.3-6.85Zm-5.82-221.82c1.56,4.1,4.14,5.97,7.75,5.16,3.6-.8,6.54-2.81,6.51-8.07-4.36,3.99-9.05,3.84-14.26,2.91Zm-28.13-144.3c-.58,4.06-1.28,8.23,3.29,10.31,3.19,1.45,6.3,1.24,8.94-2.22-5.66-.47-10.05-2.53-12.23-8.09Zm-4.3,21.94c-.74,3.62,.81,5.71,3.74,6.46,3.61,.93,6.54-.25,8.34-4.38-4.51,1.06-8.46,.95-12.08-2.07Zm27.37,104.29c-3.03,1.84-6.01-.24-9.05,.22,3.05,5.34,5.51,5.38,9.05-.22Z"/>
  <path d="M341.3,309.79c7.16-9.92,15.71-16.82,25.7-22.03,14.51-7.57,30.21-9.45,46.24-8.98,30.47,.89,50.83-13.39,62.48-40.98,2.4-5.69,4.43-11.55,5.91-17.74-2.5,3.7-4.94,7.43-7.5,11.08-14.26,20.34-34.03,30.69-58.62,32.34-19.34,1.3-38.53,3.27-56.2,12.35-8.03,4.13-15.4,9.24-22.71,14.45-20.73,14.75-43.63,23.69-69.04,25.63-31.56,2.42-64.22-8.23-81.35-43.36-4.62-9.46-8.69-19.23-14.6-28.01-8.39-12.47-18.94-22.13-34.48-24.26-10.64-1.46-20.34,.9-27.58,9.58-5,6-5.28,14.07-.87,19.01,4,4.48,10.63,5.28,14.37,1.74,3.02-2.86,2.35-6.39-2.13-11.3,8.56-2.38,13.67,8.4,12.03,15.1-1.89,7.74-8.53,13.19-17.78,14.26-20.37,2.35-37.87-17.28-34.37-38.54,4.24-25.73,25.69-43.02,53.08-42.84,26.74,.17,45.12,13.92,58.27,35.98,4.68,7.85,8.68,16.11,13.31,23.99,17.16,29.19,43.3,41.9,76.56,41.08,18.83-.46,35.02-8.23,50.04-18.89,7.32-5.19,14.53-10.54,21.8-15.81,13.82-10.02,29.4-15.99,46.02-19.1,21.41-4,40.86-12.26,58.57-24.92,12.19-8.71,24.44-17.34,37.38-24.98-.15-.42-.29-.84-.44-1.26-2.48,.61-4.99,1.09-7.42,1.84-11.39,3.52-22.57,7.65-33.42,12.58-19.19,8.72-38.51,17.09-58.73,23.19-20.34,6.13-38.48,16.9-57.08,26.76-19.43,10.31-40.16,13.85-61.71,8.86-23.94-5.54-41.26-19.96-52.72-41.65-9.54-18.06-14.3-37.7-19.52-57.2-3.87-14.48-8.76-28.38-20.44-38.81-13.73-12.26-31.82-15.2-45.89-6.93-8.4,4.94-13.76,11.98-13.51,22.27,.09,3.77,1.63,7.06,4.02,9.86,3.39,3.97,9.29,5.61,13.61,4.13,5.33-1.83,5.89-5.98,4.86-10.96,6.83,3.7,6.62,12.15,.04,17.01-7.3,5.4-19.06,4.54-26.43-1.93-9.16-8.05-11.6-21.05-6.2-34.86,7.32-18.72,21.77-28.85,41.12-31.22,20.25-2.48,36.86,4.96,49.04,21.69,5.6,7.69,8.45,16.55,11.11,25.49,3.7,12.42,7.68,24.75,14.24,36.01,15.01,25.8,38.84,36.6,67.4,39.01,25.92,2.19,49.42-5.26,71.64-18.04,22.39-12.88,46.61-18.84,72.42-18.03,6.45,.2,12.88,1.16,19.38,1.44-8.23-3.56-16.92-5.31-25.67-6.91-25.95-4.76-50.33,.32-74.13,10.83-15.92,7.03-31.9,14.19-49.41,16.61-.63,.09-1.28,.11-2.33,.2,.96-5.46,2.72-10.26,4.88-14.89,8.52-18.27,19.63-34.58,36.78-45.86,23.92-15.74,49.29-15.99,75.29-6.04,15.02,5.75,28.65,14.45,43.39,20.81,26.95,11.63,54.38,15.06,82.59,4.86,4.25-1.54,5.26-1.1,4.25,3.81-3.53,17.26-11.62,31.63-25.31,42.78-2.28,1.85-4.47,3.83-6.85,5.54-17.81,12.71-26.47,30.36-28.52,51.79-1.68,17.54-1.56,35.21-4.02,52.7-3.17,22.55-9.2,43.91-24.2,61.8-15.45,18.43-35.54,25.11-59.03,23.93-12.39-.62-24.86-.94-36.87,3.36-15.05,5.4-20.15,15.12-15.61,30.31,2.52,8.45,5.33,16.75,3.02,25.83-1.96,7.72-6.2,13.48-13.41,16.74-5.34,2.41-10.86,4.43-16.39,6.39-10.86,3.83-19.46,10.3-24.95,20.61-.31,.59-.8,1.09-1.24,1.61-.07,.08-.33-.02-.97-.08,.55-8.98,4.14-16.37,10.78-22.39,5.18-4.7,11.4-7.75,17.44-11.09,9.94-5.5,12.37-10.68,9.77-21.68-1.23-5.2-2.98-10.28-4.28-15.47-6.45-25.78,7.62-48.47,33.44-54.61,9.39-2.23,18.84-2.04,28.31-2.17,13.74-.2,27.2-1.7,39.8-7.73,21.36-10.22,33.82-27.77,40.78-49.75,4.69-14.81,5.8-30.12,5.9-45.54,.01-1.82,.38-3.81-1.25-5.85-2.79,12.3-6.56,23.94-11.76,35.02-15.95,33.99-42.16,53.87-79.99,57.44-13.13,1.24-26.06,3.25-38.14,8.85-21.46,9.94-31.49,27.99-35.41,50.3-1.28,7.3-2.38,14.62-5.18,21.57-6.78,16.82-26.72,28.09-44.52,25.08-12.33-2.09-20.96-13.54-18.8-24.95,1.43-7.53,7.54-11.58,15.05-9.96-6.52,3.95-8.52,8-7,14.17,1.71,6.93,6.94,11.24,14.04,11.58,14.57,.69,26.47-11.01,26.6-26.35,.07-8.22-2.43-16.01-4.6-23.82-3.23-11.62-5.06-23.31-2.22-35.28,6.29-26.44,23.69-41.64,49.27-48.44,16.27-4.32,32.79-4.01,49.38-2.55,15.71,1.39,31.44,2.57,46.2-4.9,5.81-2.94,11.11-6.6,15.3-11.9-10.96,5.89-22.61,8.41-34.85,7.74-7.75-.42-15.48-1.42-23.21-2.21-17.26-1.77-34.37-1.43-52.03,4.09Zm-33.66,63.48c8.83-15.4,20.89-25.35,37.1-29.81,15.68-4.31,31.7-3.86,47.77-3.02-13.38-5.48-27.07-8.69-41.7-7.64-21.8,1.55-39.47,17.49-43.16,40.48Zm43.88-212.14c21.2-17.26,44.72-20.28,69.88-17.22-22.16-14.09-52.08-9.22-69.88,17.22Z"/>
  <path d="M302.75,317.36c-10.94,11.89-24.12,19.7-39.47,23.76-8.17,2.16-16.51,3.66-24.5,6.48-15.83,5.59-26.11,20.95-23.66,35.37,1.91,11.2,11.49,19.52,21.37,18.62,4.35-.4,7.52-2.27,9.04-6.54,1.47-4.14-.57-6.85-3.83-9.05,5.71-3.63,11.9,1.9,12.95,7.21,1.36,6.89-1.89,13.99-8.72,18.51-14.07,9.32-33.79,5.89-45.27-7.86-16.3-19.53-12.85-50.22,7.38-65.65,2.56-1.95,5.11-3.91,8.8-6.72-16.92,1.34-31.07-3.7-45.15-9.46-10.82-4.42-21.93-6.41-32.95-.28-8.08,4.49-11.59,11.73-11.38,20.63,.19,7.77,5.68,14.38,12.7,16.64,4.12,1.33,7.93,.96,11.06-2.1,3.09-3.02,3.1-6.74,1.49-10.53-.32-.75-1.24-1.4-.48-2.27,.93-1.08,1.94-.16,2.81,.18,3.87,1.47,5.38,4.86,5.91,8.49,.7,4.79-1.24,8.8-5.02,11.82-12.44,9.92-32.19,4.03-38.23-11.37-6.69-17.06,2.51-38.15,20.32-46.18,14.12-6.37,28.51-6.22,42.8-.67,8.68,3.38,16.94,7.9,25.72,10.93,30.44,10.51,61.14,11.51,91.94,1.27,1.43-.48,2.91-.83,4.37-1.24Z"/>
  <path d="M744.05,462.13c8.9,2.57,16.31,5.76,22.53,11.19,1.34,1.17,3.81,2.33,2.72,4.38-.77,1.46-3.17,.52-4.85,.43-2.8-.15-5.44-1.06-7.89-2.29-7.69-3.86-15.76-4.87-24.15-3.45-7.16,1.21-13.7-.32-19.88-3.91-24.91-14.5-49.77-29.08-74.79-43.39-4.37-2.5-5.47-5.61-4.58-10.13,1.4-7.09,2.87-14.17,3.97-21.31,.58-3.74,1.62-3.88,4.36-1.64,16.73,13.61,33.52,27.15,50.33,40.66,4.98,4,10.14,7.76,15.11,11.77,8.23,6.63,17.48,7.48,27.39,5.24,9.41-2.13,18.81-2.07,28.18,.38,8.96,2.34,17.95,4.59,27.29,6.97-3.37,4.2-8.36,3.22-13.45,4.65,3.5,2.05,6.44,3.7,9.3,5.49,1.25,.78,3.23,1.43,2.78,3.28-.41,1.7-2.44,1.83-3.9,2.1-3.42,.64-6.44-.77-9.31-2.4-4.8-2.71-9.57-5.5-14.33-8.28-5.22-3.05-10.44-2.86-16.84,.26Z"/>
  <path d="M303.45,273.15c-20.74,7.12-40.16,5.86-58.66-4.89-22.01-12.79-34.09-33.09-41.96-56.46-3.25-9.64-5.75-19.54-9.88-28.89-4.08-9.25-9.37-17.67-16.32-25.05-.77-.82-1.89-1.48-1.85-3.42,7.18,3.68,11.86,9.57,16.29,15.57,6.94,9.42,11.07,20.24,14.78,31.24,4.47,13.26,9.07,26.47,17.48,37.92,18.67,25.41,43.82,36.35,75.1,33.72,1.4-.12,2.87-.95,5.02,.27Z"/>
</svg>