<?xml version="1.0" encoding="UTF-8"?>
<svg id="Layer_1" data-name="Layer 1" xmlns="http://www.w3.org/2000/svg" viewBox="0 0 864 864">
  <path d="M503.02,133.6c11.83,5.44,24.63,6.78,37.44,8.01,11.52,1.1,22.92,2.83,33.81,6.9,25.55,9.54,39.21,33.94,34.12,60.68-.68,3.59-1.42,7.18-1.93,10.8-1.76,12.42-1.97,25,9.38,33.08,11.71,8.34,25.06,7.56,37.82,1.97,5.6-2.45,10.42-6.62,15.71-9.82,8.9-5.39,18.2-7.07,28.19-2.92,10.45,4.35,15.26,12.09,14.38,24.6-4.37-9.17-8.61-17.94-19.56-19.13-14.03-1.52-22.49,8.24-33.23,17.01,18.35,.92,33.93,5.01,43.37,20.99,5.2,8.79,6.28,18.18,4.51,28.12-4.26-12.87-10.52-24.11-22.44-31.19-11.62-6.91-24.54-8.31-37.58-7.01-15.57,1.56-30.77,1.35-47.36-6.04,9.14,9.11,18.35,12.65,28.56,14.15,14.17,2.08,28.59,2.64,42.09,8.32,35.71,15.02,43.84,55.93,15.86,80.7-7.42,6.57-15.86,10.63-26.19,8.78-.66-2.16,1.18-2.22,2.19-2.85,10.66-6.62,15.01-15.75,12.8-27-2.04-10.35-11.64-19.11-22.99-20.79-13.71-2.03-26.15,2.04-38.19,8.07-13.8,6.91-27.08,14.91-42.54,18.08-26.14,5.36-44-3.44-53.9-28.3-5.49-13.79-14.45-21.77-29.37-22.64-34.36-1.99-55.25-23.18-57.8-62.4-.81-12.37-1.32-24.73-3.39-37-2.84-16.82-11.75-28.7-26.89-36.54-27.48-14.23-29.86-17.25-39.5-45.7-3.3,10.98-.12,35,5.84,44.11,2.74,4.18,6.56,6.95,11.3,8.36,2.42,.72,4.93,1.15,7.41,1.64,17.71,3.5,24.47,10.23,28.09,27.93,3.91,19.09,4.48,38.57,6.49,57.87,2.84,27.31,7.73,53.98,20.33,78.78,13.67,26.93,20.96,56.43,33.47,83.84,2.22,4.86,4.61,9.64,7.04,14.4,7.1,13.9,18.29,22.29,33.54,25.94,16.23,3.88,32.77,26.04,32.58,42.65-.02,1.34,.4,2.94-1.39,3.51-1.52,.48-2.83-.28-3.72-1.39-2.83-3.5-5.52-7.1-8.29-10.65-5.31-6.81-11.3-12.5-20.38-13.91-5.21-.81-6.27,1.03-4.26,5.51,.12,.26,.28,.5,.36,.76,1.27,4.11,6.84,9.12,3.21,11.92-3.89,3.01-8.07-3.06-11.76-5.65-12.49-8.77-21.14-20.27-27.54-34.4-11.42-25.22-29.36-46.65-43.4-70.4-5.16-8.73-10.2-17.54-15.73-26.03-12.91-19.85-18.74-41.72-21.21-65.12-2.06-19.53-6.71-38.72-14.05-59.7-10.16,26.91-26.66,48.71-31.74,75.59-2.55,13.52,.17,25.92,7.85,36.94,8.37,12,17.85,23.22,26.4,35.11,29.17,40.61,30.26,79.29,2.02,120.52-14.78,21.58-31.78,41.62-47.4,62.64-13.34,17.94-24.65,37-29.22,59.34-9.23,45.15,18.76,82.67,46.81,100.02,21.05,13.02,43.71,19.07,68.55,14.74,10.86-1.89,17.68-8.14,20.25-18.87,3.6-15.03,6.96-30.12,10.71-45.12,17.45-69.73,63.38-112.07,129.82-134.55,29.02-9.82,58.68-15.82,89.51-13.96,5.85,.35,11.73,1.46,17.42,2.9,3.93,1,9.36,2.26,9.05,7.31-.3,4.9-5.95,4.55-9.52,5.13-18.97,3.08-31.7,13.61-38.63,31.35-3.53,9.04-4.6,18.5-4.61,28.16,0,15.48,1.16,31-1.63,46.38-7.39,40.78-31.88,67.9-68.3,85.47-1.72,.83-3.79,1.03-5.07,3.67,28.1-4.53,53.87,2.81,79.31,12.77,9.93,3.89,20.3,6.53,30.94,8.13,22.04,3.31,35.93-5.36,41.99-26.59,.46-1.62,.94-3.25,1.51-4.83,.76-2.08,1.23-4.65,4.07-4.76,3.03-.12,4.55,2.16,5.39,4.6,2.62,7.6,3.61,15.49,1.13,23.22-13.63,42.4-41.58,72.61-81.59,90.8-57.41,26.1-119.45,13.43-168.29-32.57-10.7-10.08-20.67-20.82-29.4-32.62-6.58-8.9-14.16-12.26-25.47-10.02-36.67,7.26-73.28,7.78-109.34-3.92-62.89-20.41-102.65-72.23-107.85-138.22-4.06-51.58,6.13-100.83,21.45-149.42,11.16-35.39,24.36-70.13,33.59-106.14,3.39-13.21,5.33-26.44,5.07-40.06-.36-18.32-.65-36.64-.75-54.96-.02-4.62-.98-7.48-5.8-9.71-6.91-3.19-12.46-8.63-16.74-15.11-8.28-12.52-5.77-27.05,7.31-34.2,9.12-4.99,14.79-11.13,16.75-21.44,1.48-7.78,7.34-12.43,14.75-14.87,2.93-.97,5.97-1.7,9.01-2.25,22.92-4.08,28.68-16.43,28-40.64-.19-6.83-3.17-9.58-10.37-7.23-6.11,1.99-12.24,4.23-18.84,4.44-5.93,.19-9-2.43-11.01-8.16-3.61-10.33-4.22-21.58-9.87-31.26-2.43-4.17,1.49-5.2,3.87-6.91,11.58-8.28,12.44-24.24,.7-31.95-17.37-11.41-13.12-30.82,.66-41.8,9.37-7.46,20.45-10.55,32.31-10.44,4.9,.05,9.33-.72,13.87-2.71,43.32-19.01,82.62-5.49,105.21,36.12,7.37,13.58,13.28,28,23.71,39.77,17.22,19.44,39.17,25.15,64.13,22.48,21.49-2.29,42.78-8.11,64.63-4.17,37.92,6.84,67.37,25.24,81.7,62.57,9.46,24.65-1.04,50.57-23.15,59.79-6.51,2.71-13.13,4.48-19.98-.83,10.85-2.03,17.45-9.77,18.02-21.37,1.26-25.43-11.35-43.55-31.52-57-13.94-9.29-29.71-12.9-46.51-12.99-19.97-.11-39.91,3.22-60.15,.78Zm106.61,471.03c-16.45,65.37-60.33,106.76-121.12,135.94,54.07-8.55,113.58-48.49,121.12-135.94Zm-122.75,185.43c43.63,33.67,110.26,29.84,145.15-7.03-48.51,26.97-96.29,27.96-145.15,7.03Zm72.54-181.2c-29.58,38.2-45.88,85.97-85.56,116.9,2.16,1.6,3.16,.13,4.23-.52,17.75-10.83,32.78-24.5,44.79-41.61,16.11-22.95,21.69-51.02,36.54-74.77Zm95.9,198.29c-34.93,24.1-73.84,26.72-114.28,21.42,39.4,17.42,83.98,9.29,114.28-21.42Zm-145.31-178.5c-12.2,29.2-21.72,59.45-39.55,85.92,26.91-22.34,35.14-53.33,39.55-85.92Zm-2.87,142.68c19.86,2.88,39.37,2.78,57.76-6.76-19.06,3.91-38.51,4.52-57.76,6.76Z"/>
  <path d="M158.04,503.06c-.94-6.69,1.8-10.46,3.63-14.46,2.04-4.48,.69-5.4-3.87-4.53-9.15,1.75-14.57,7.63-19.04,15.25-2.39,4.08-4.1,12.06-9.16,10.1-4.12-1.59-.58-8.98,.52-13.69,4.45-18.98,14.18-31.82,35.61-33.23,16.72-1.1,28.86-10.01,35.89-25.55,17.57-38.86,39.06-76.04,50.91-117.34,3.55-12.38,5.41-25.26,8.05-37.9,.27-1.28,0-2.91,2.47-3.18,3.87,40.44,6.77,81.3-12.67,118.5-21.92,41.93-51.46,78.22-92.34,106.03Z"/>
  <path d="M684.51,399.16c-13.8,11.58-35.1,13.39-47.95,4.36-10.24-7.2-15.34-17.03-14.01-29.74,1.27-12.13,7.91-20.13,19.2-24.43,2.83-1.08,5.67-2.17,8.96-2.8-6.06,6.08-9.94,13.06-11.11,21.43-1.18,8.43,.14,16.45,5.26,23.28,10.72,14.32,24.89,12.58,39.66,7.89Z"/>
</svg>