<svg id="Layer_1" data-name="Layer 1" xmlns="http://www.w3.org/2000/svg" viewBox="0 0 511.19 987.44"><defs><style>.cls-1{fill:#1b1b1b;}.cls-1,.cls-2{fill-rule:evenodd;}.cls-2{fill:#fff;}</style></defs><path class="cls-1" d="M1085.09,1352.1c-38,47.51,131.5,89.6,164.92,28.38,25.41-46.56,24.72-98.75,8.46-148,12.3,45.44,5.55,89.91-15.07,125.26,21.81-78.73,10.23-167.59-89.56-260.21,32.27,21.94,56.75,46.24,74.39,71.42a341.39,341.39,0,0,0-22.32-31.46c-90.89-113.79-227.57-85.25-345.42-116-25.25-6.59-105.33-41.39-42.8-124-55.92,80.89,17.35,112.39,43.58,118.39,17.13,3.91,34.74,6.68,52.53,8.92a42.81,42.81,0,0,0,7.71,1.18c.78,0,1.61.07,2.48.06,8,.93,16,1.78,24,2.6,5.38,2.85,12.64,4.17,16.74,4.66,4.41.54,12.62,1,18.44-1,18.65,2.06,37,4.46,54.72,7.93-19.64-11.1-37.1-3.49-50.26-20-4.48-5.6-15.73-9.23-21.22-9.73-19.67-1.83-21.22-5.35-25.8-8.93a33.41,33.41,0,0,0-18-6.2c-8-.13-10.76,4.07-11.41-3.42-1-11.21-11.12-19.23-23-19.72-4.18-1.1-3.41-3.11-1.28-5.33a27.37,27.37,0,0,0,8.35-14.59,26.42,26.42,0,0,0,.26-9.26c12.32-16.6,22.48-8.29,31.08-24.76A26.89,26.89,0,0,0,929.55,908c14.86-12.28,27.36-7,35.6-22.84a26.33,26.33,0,0,0,1.49-3.46c16.05-10.24,33.42-9.48,40.83-23.71.27-.51.52-1,.75-1.56,17.76-10.5,34.59-7.11,42.74-22.75a24.83,24.83,0,0,0,1.53-3.55q7.4-4.47,14.69-9c10.87,3.8,22.46-3.62,27.42-13.15a26.67,26.67,0,0,0,2.32-6.29c15.49-10.68,30.09-8.33,37.68-22.87a26.92,26.92,0,0,0,2.73-8.54c14.36-13,28.36-10,33.16-27a24.55,24.55,0,0,0,.06-13.2c6.78-12.7,20-8.64,18.21-31.82-.55-7.09-4-16.92-11.67-19.28-2.66-9.69,6.63-12.87-2.9-29-3.93-6.69-12.38-14.8-21-12-7.7-8.49,3.93-14.18-13.25-25.86-4.89-4.44-14.43-3.33-30.36-10-24.43-10.19-54.47-25.43-56.62-26.22-45.94-17-110.78-59-98.24-97.73,4.54-14,25-32.11,48.42-36.17,22.08-3.82,38.43,1.89,48,12,13.65,14.32,29.42,10.13,10.89-10.68-9.87-11.08-34.11-21-57-19.67-1.26.07-2.52.18-3.79.3a83.3,83.3,0,0,1,40.46,11.46c-32.48-16.78-89.15-7.09-116.26,45.08,8.35-18.54,19-32.09,30.92-41.26-15.08,9.05-27.2,21.22-32.63,34.34-18.28,44.15,9.39,103,94.4,140.11,60.51,26.42,79.91,51,86.62,70.68,16.14-17.54,39.16-48.7-48.06-101.59,111.77,59.35,59.75,100.94,48.49,113.17-21.11,22.94-168,112.88-243.18,158.77-58.8,35.88-134.47,109.35-89.58,186.18,22.1,37.82,59.26,47.58,97.71,59.08,88.12,26.35,167.46,50.07,210.26,119.21C1109.56,1266.37,1113.93,1316,1085.09,1352.1Z" transform="translate(-758.81 -423.56)"/><path class="cls-2" d="M1126.49,695.55a27.63,27.63,0,0,1-.51-12.75,29.11,29.11,0,0,0-.52,14.08c2.18,10.22,9.44,15.65,16.22,12.12.32-.17.64-.36,1-.56a14.06,14.06,0,0,1-2.42,2.58,10.15,10.15,0,0,1-1.81,1.23c-8.09,4.21-13.82-5.25-15.2-11.74-2.7-12.23,2-25,10.33-29.93,6.69-4,14.39.84,17.19,10.69s-.35,21-7,25-14.39-.85-17.19-10.71Zm20.87-12.62c-4.88-16.68-19.74-13.33-19.08,8.38,3.27-18.8,12.29-21.23,19.08-8.38Zm-12.82-.4a12.55,12.55,0,0,0-.63,8.68c1.32,4.66,4.95,6.92,8.11,5.06s4.65-7.15,3.33-11.8-5-6.91-8.12-5.05l-.43.28c2.72-1.16,5.7.87,6.82,4.82,1,3.54.21,7.48-1.77,9.64a13.65,13.65,0,0,0-.12-6.28C1140.87,684.86,1138.13,681.32,1134.54,682.53Z" transform="translate(-758.81 -423.56)"/><path class="cls-2" d="M1098.28,719.82a20.74,20.74,0,0,1,6.16-9.92,21.41,21.41,0,0,0-7.73,10.16c-3.41,9.24,0,18.57,7.71,20.83.36.11.74.2,1.11.28a12.47,12.47,0,0,1-3.42.18,10.16,10.16,0,0,1-2.2-.4c-9.14-2.71-9.19-14-7-19.81,4-11.11,14.6-17.3,24.38-14.92,7.8,1.9,12,11.07,9.29,20.48s-11.18,15.5-19,13.6-12-11.08-9.28-20.48Zm24.51,5.68c4.41-16-10.12-24.29-20.77-7.56,12.53-11.7,21.56-7,20.77,7.56ZM1112,715.91a9.27,9.27,0,0,0-5,6c-1.27,4.45.7,8.78,4.39,9.68s7.7-2,9-6.43-.7-8.77-4.39-9.66a4.35,4.35,0,0,0-.52-.1c3,1.1,4.47,4.78,3.39,8.54-1,3.39-3.68,5.75-6.5,5.94a10.2,10.2,0,0,0,3.13-4.79C1116.2,722.24,1115.67,717.6,1112,715.91Z" transform="translate(-758.81 -423.56)"/><path class="cls-2" d="M1063.41,745.72a23,23,0,0,1,8.8-9.3,23.63,23.63,0,0,0-10.53,9.22c-5.69,9.17-4.07,19.88,3.62,23.94a10.41,10.41,0,0,0,1.13.52,13.25,13.25,0,0,1-3.69-.52,12.38,12.38,0,0,1-2.26-.9c-9.19-4.85-6.75-16.89-3.14-22.69,6.74-11,19.47-15.4,29.4-10.77,7.93,3.69,10.35,14.38,5.39,23.88s-15.4,14.2-23.33,10.51-10.34-14.4-5.39-23.89Zm25,11.3c8.28-16.21-5.44-28.14-20.55-12.51,16-9.86,24.62-2.89,20.55,12.51Zm-9.48-12.58a10.26,10.26,0,0,0-6.72,5.39c-2.35,4.49-1.2,9.54,2.54,11.28s8.68-.47,11-5,1.19-9.54-2.55-11.28a5,5,0,0,0-.53-.23c2.91,1.81,3.71,6.07,1.73,9.88-1.78,3.41-5.22,5.36-8.28,5a11.34,11.34,0,0,0,4.42-4.45C1082.05,752.13,1082.51,747.05,1078.9,744.44Z" transform="translate(-758.81 -423.56)"/><path class="cls-2" d="M1022.55,771.45a22.94,22.94,0,0,1,8.79-9.3,23.76,23.76,0,0,0-10.53,9.23c-5.69,9.16-4.07,19.88,3.63,23.94.37.19.74.36,1.13.52a13.72,13.72,0,0,1-3.7-.53,11.33,11.33,0,0,1-2.26-.9c-9.19-4.84-6.74-16.88-3.13-22.69,6.74-11,19.46-15.39,29.39-10.77,7.94,3.69,10.35,14.39,5.4,23.88s-15.4,14.2-23.33,10.51-10.35-14.39-5.39-23.89Zm25,11.31c8.27-16.21-5.44-28.15-20.55-12.52,16-9.85,24.62-2.88,20.55,12.52ZM1038,770.18a10.21,10.21,0,0,0-6.73,5.39c-2.34,4.49-1.2,9.54,2.55,11.28s8.68-.47,11-5,1.2-9.54-2.55-11.28l-.53-.22c2.92,1.8,3.72,6.07,1.73,9.87-1.78,3.41-5.22,5.37-8.28,5a11.33,11.33,0,0,0,4.43-4.46C1041.19,777.86,1041.65,772.79,1038,770.18Z" transform="translate(-758.81 -423.56)"/><path class="cls-2" d="M977,797.76a23,23,0,0,1,8.79-9.3,23.71,23.71,0,0,0-10.52,9.22c-5.7,9.17-4.07,19.88,3.62,23.94a10.41,10.41,0,0,0,1.13.52,13.63,13.63,0,0,1-3.69-.52,11.71,11.71,0,0,1-2.26-.9c-9.2-4.84-6.75-16.88-3.14-22.69,6.74-11,19.46-15.4,29.4-10.77,7.93,3.69,10.34,14.39,5.39,23.88s-15.4,14.2-23.33,10.51-10.34-14.39-5.39-23.89Zm25,11.31c8.28-16.21-5.44-28.15-20.54-12.52,16-9.85,24.61-2.89,20.54,12.52Zm-9.48-12.59a10.24,10.24,0,0,0-6.72,5.4c-2.35,4.48-1.2,9.53,2.54,11.28s8.68-.48,11-5,1.19-9.54-2.55-11.28l-.53-.23c2.91,1.81,3.71,6.08,1.72,9.88-1.77,3.41-5.21,5.37-8.27,5a11.28,11.28,0,0,0,4.42-4.45C995.65,804.17,996.11,799.1,992.5,796.48Z" transform="translate(-758.81 -423.56)"/><path class="cls-2" d="M930.31,829.21a22.94,22.94,0,0,1,8.79-9.3,23.62,23.62,0,0,0-10.52,9.23c-5.7,9.16-4.08,19.88,3.62,23.94.37.19.75.36,1.13.52a13.67,13.67,0,0,1-3.7-.53,11.1,11.1,0,0,1-2.26-.9c-9.19-4.84-6.74-16.88-3.13-22.69,6.74-11,19.46-15.4,29.4-10.77,7.93,3.69,10.34,14.39,5.39,23.88s-15.4,14.21-23.33,10.52-10.34-14.4-5.39-23.9Zm25,11.31c8.28-16.21-5.43-28.15-20.54-12.52,16-9.85,24.62-2.88,20.54,12.52Zm-9.47-12.58a10.23,10.23,0,0,0-6.72,5.39c-2.35,4.49-1.21,9.54,2.54,11.28s8.68-.47,11-5,1.2-9.54-2.55-11.28c-.16-.08-.34-.15-.52-.22,2.91,1.81,3.71,6.07,1.72,9.87-1.77,3.41-5.21,5.37-8.27,5a11.36,11.36,0,0,0,4.42-4.46C949,835.63,949.41,830.55,945.8,827.94Z" transform="translate(-758.81 -423.56)"/><path class="cls-2" d="M886.52,860.09a23,23,0,0,1,8.8-9.3A23.71,23.71,0,0,0,884.79,860c-5.69,9.16-4.07,19.88,3.63,23.94.37.19.74.37,1.12.52a13.65,13.65,0,0,1-3.69-.53,11.1,11.1,0,0,1-2.26-.9c-9.19-4.84-6.74-16.88-3.13-22.69,6.73-11,19.46-15.39,29.39-10.77,7.94,3.7,10.35,14.39,5.39,23.89s-15.39,14.2-23.32,10.51-10.35-14.4-5.4-23.9Zm25,11.31c8.28-16.21-5.44-28.15-20.54-12.52,16-9.85,24.61-2.88,20.54,12.52ZM902,858.82a10.25,10.25,0,0,0-6.73,5.39c-2.34,4.49-1.2,9.54,2.55,11.28s8.67-.47,11-5,1.2-9.54-2.55-11.29l-.53-.22c2.91,1.8,3.71,6.07,1.73,9.87-1.78,3.41-5.22,5.37-8.28,5a11.3,11.3,0,0,0,4.42-4.46C905.17,866.5,905.62,861.43,902,858.82Z" transform="translate(-758.81 -423.56)"/><path class="cls-2" d="M843.32,885.25a23.06,23.06,0,0,1,8.8-9.29,23.74,23.74,0,0,0-10.53,9.22c-5.69,9.16-4.07,19.89,3.63,23.94.37.19.74.37,1.12.52a13.63,13.63,0,0,1-3.69-.52,11.74,11.74,0,0,1-2.26-.91c-9.19-4.83-6.74-16.87-3.13-22.68,6.74-11,19.46-15.4,29.39-10.77,7.93,3.69,10.35,14.39,5.39,23.88s-15.4,14.2-23.33,10.51-10.34-14.39-5.39-23.9Zm25,11.31c8.28-16.2-5.44-28.15-20.54-12.51,16-9.86,24.61-2.89,20.54,12.51ZM858.82,884a10.19,10.19,0,0,0-6.73,5.39c-2.34,4.48-1.2,9.53,2.54,11.28s8.68-.48,11-5,1.19-9.54-2.55-11.29c-.17-.07-.35-.15-.53-.21,2.91,1.8,3.71,6.06,1.73,9.87-1.78,3.41-5.22,5.37-8.28,5a11.23,11.23,0,0,0,4.42-4.46C862,891.67,862.42,886.59,858.82,884Z" transform="translate(-758.81 -423.56)"/><path class="cls-2" d="M814.16,938.8a25.53,25.53,0,0,1,2.46-14.32,26.32,26.32,0,0,0-4.17,15.31c.42,12.29,8.85,21.56,18.83,20.7.47,0,1-.11,1.41-.19a15.19,15.19,0,0,1-3.87,1.77,13.64,13.64,0,0,1-2.75.53c-11.9,1-17.28-12-17.55-19.8-.63-14.73,8.76-26.74,21.25-28.41,10-1.35,19.14,7.41,20.49,19.55s-5.65,23.08-15.61,24.42-19.14-7.42-20.49-19.56Zm31.17-4.54c-2.47-20.62-23.27-23.62-27.71.66,9-19.29,21.73-17.92,27.71-.66Zm-17.15-6.21a11.37,11.37,0,0,0-3,9.29c.63,5.75,5,9.88,9.67,9.25s8-5.8,7.37-11.53-5-9.88-9.68-9.24l-.65.12c4-.07,7.45,3.52,8,8.39.49,4.36-1.55,8.35-4.75,9.84a12.4,12.4,0,0,0,1.38-7C836.13,933.46,833.31,928.32,828.18,928.05Z" transform="translate(-758.81 -423.56)"/><path class="cls-2" d="M843.24,1000.16a26.13,26.13,0,0,1-12.58-3.71,28.05,28.05,0,0,0,13.54,5.25c10.65,1.07,18.22-4.9,16.92-13.33a11.59,11.59,0,0,0-.25-1.2,15.71,15.71,0,0,1,1.76,3.44,12,12,0,0,1,.61,2.35c1.56,10.07-9.46,13-16.21,12.37-12.76-1.18-23.72-10.42-25.89-21-1.73-8.48,5.37-15.13,15.84-14.84s20.37,7.38,22.1,15.86-5.37,15.13-15.84,14.85Zm-5.7-26.56c-17.78-.33-19.21,16.7,2.13,23.21-17.27-9.76-16.79-20.22-2.13-23.21Zm-4.44,13.6a12.26,12.26,0,0,0,8.26,3.57c4.95.14,8.29-3,7.48-7s-5.49-7.36-10.44-7.5-8.29,3-7.48,7c0,.18.09.37.14.56-.28-3.31,2.64-5.81,6.84-5.71a10.51,10.51,0,0,1,8.82,5.11,12.8,12.8,0,0,0-6.14-2C837.36,981.19,833.06,983,833.1,987.2Z" transform="translate(-758.81 -423.56)"/><path class="cls-2" d="M932.5,869.82a22.94,22.94,0,0,1,8.79-9.3,23.74,23.74,0,0,0-10.53,9.22c-5.69,9.17-4.07,19.88,3.63,24,.37.18.74.36,1.12.51a13.25,13.25,0,0,1-3.69-.52,12.38,12.38,0,0,1-2.26-.9c-9.19-4.85-6.74-16.89-3.13-22.69,6.74-11.05,19.46-15.4,29.39-10.77,7.94,3.69,10.35,14.38,5.4,23.88s-15.4,14.2-23.33,10.51-10.34-14.4-5.39-23.89Zm25,11.3c8.27-16.21-5.44-28.14-20.55-12.51,16-9.85,24.61-2.89,20.55,12.51ZM948,868.54a10.25,10.25,0,0,0-6.73,5.39c-2.34,4.49-1.2,9.54,2.55,11.28s8.68-.46,11-5,1.2-9.54-2.55-11.28l-.53-.23c2.92,1.81,3.72,6.07,1.73,9.88-1.78,3.41-5.22,5.36-8.28,5a11.3,11.3,0,0,0,4.43-4.45C951.14,876.23,951.59,871.15,948,868.54Z" transform="translate(-758.81 -423.56)"/><path class="cls-2" d="M894,903a23,23,0,0,1,8.79-9.29,23.7,23.7,0,0,0-10.53,9.23c-5.69,9.16-4.07,19.87,3.63,23.93.37.19.74.37,1.12.52a13.32,13.32,0,0,1-3.69-.53,10.55,10.55,0,0,1-2.26-.9c-9.19-4.84-6.74-16.87-3.13-22.68,6.74-11,19.46-15.4,29.39-10.78,7.94,3.7,10.35,14.4,5.4,23.89s-15.4,14.21-23.33,10.51S889,912.49,894,903Zm25,11.31c8.27-16.2-5.44-28.15-20.55-12.51,16-9.86,24.62-2.89,20.55,12.51Zm-9.48-12.57a10.21,10.21,0,0,0-6.73,5.39c-2.34,4.48-1.2,9.53,2.55,11.28s8.68-.48,11-5,1.2-9.54-2.55-11.29c-.17-.07-.34-.15-.53-.21,2.92,1.8,3.72,6.07,1.73,9.87-1.78,3.41-5.22,5.37-8.28,5a11.26,11.26,0,0,0,4.43-4.46C912.61,909.4,913.06,904.32,909.46,901.72Z" transform="translate(-758.81 -423.56)"/><path class="cls-2" d="M974.82,842.65a23.14,23.14,0,0,1,8.79-9.3,23.74,23.74,0,0,0-10.52,9.23c-5.7,9.16-4.07,19.88,3.62,23.93.37.2.75.37,1.13.53a13.34,13.34,0,0,1-3.7-.53,11.58,11.58,0,0,1-2.26-.9c-9.18-4.84-6.74-16.88-3.13-22.69,6.74-11,19.47-15.4,29.4-10.77,7.93,3.69,10.34,14.39,5.39,23.89s-15.4,14.2-23.33,10.5-10.34-14.39-5.39-23.89Zm25,11.3c8.28-16.2-5.44-28.14-20.55-12.5,16-9.86,24.62-2.89,20.55,12.5Zm-9.47-12.57a10.22,10.22,0,0,0-6.73,5.39c-2.35,4.48-1.2,9.54,2.54,11.28s8.68-.48,11-5,1.19-9.53-2.55-11.28l-.53-.22c2.91,1.8,3.71,6.07,1.73,9.87-1.78,3.41-5.22,5.37-8.28,5a11.3,11.3,0,0,0,4.42-4.46C993.47,849.06,993.92,844,990.32,841.38Z" transform="translate(-758.81 -423.56)"/><path class="cls-2" d="M1018.31,818.34a23.06,23.06,0,0,1,8.8-9.29,23.68,23.68,0,0,0-10.53,9.22c-5.69,9.16-4.07,19.88,3.62,23.94.38.19.75.37,1.13.52a13.25,13.25,0,0,1-3.69-.52,11.74,11.74,0,0,1-2.26-.91c-9.19-4.84-6.74-16.88-3.13-22.68,6.74-11,19.46-15.4,29.39-10.77,7.94,3.69,10.35,14.39,5.39,23.88s-15.39,14.2-23.32,10.51-10.35-14.39-5.4-23.9Zm25,11.31c8.28-16.2-5.44-28.15-20.54-12.51,16-9.86,24.61-2.89,20.54,12.51Zm-9.47-12.57a10.21,10.21,0,0,0-6.73,5.38c-2.34,4.49-1.2,9.54,2.54,11.29s8.69-.48,11-5,1.2-9.53-2.55-11.28c-.17-.07-.35-.15-.53-.21,2.92,1.8,3.71,6.06,1.73,9.87-1.78,3.41-5.22,5.37-8.28,5a11.23,11.23,0,0,0,4.42-4.46C1037,824.76,1037.41,819.68,1033.81,817.08Z" transform="translate(-758.81 -423.56)"/><path class="cls-2" d="M1062,792.61a23.09,23.09,0,0,1,8.8-9.3,23.65,23.65,0,0,0-10.53,9.23c-5.69,9.16-4.07,19.88,3.63,23.93a11.45,11.45,0,0,0,1.12.53,13.27,13.27,0,0,1-3.69-.53,11.71,11.71,0,0,1-2.26-.9c-9.19-4.84-6.75-16.88-3.14-22.69,6.74-11,19.47-15.4,29.4-10.77,7.93,3.69,10.35,14.39,5.39,23.88s-15.39,14.21-23.33,10.51S1057,802.11,1062,792.61Zm25,11.31c8.28-16.21-5.44-28.15-20.54-12.52,16-9.85,24.61-2.89,20.54,12.52Zm-9.48-12.58a10.23,10.23,0,0,0-6.72,5.39c-2.34,4.49-1.2,9.54,2.54,11.28s8.68-.47,11-5,1.19-9.54-2.55-11.28l-.53-.22c2.91,1.8,3.71,6.07,1.73,9.87-1.78,3.41-5.22,5.37-8.28,5a11.23,11.23,0,0,0,4.42-4.46C1080.59,799,1081.05,794,1077.44,791.34Z" transform="translate(-758.81 -423.56)"/><path class="cls-2" d="M1101.94,763.45a23.12,23.12,0,0,1,8.8-9.31,23.71,23.71,0,0,0-10.53,9.23c-5.69,9.17-4.07,19.88,3.63,23.94.36.19.74.36,1.12.52a13.25,13.25,0,0,1-3.69-.52,12.48,12.48,0,0,1-2.27-.9c-9.18-4.85-6.74-16.89-3.13-22.69,6.74-11.05,19.47-15.4,29.4-10.77,7.93,3.69,10.35,14.38,5.4,23.88s-15.41,14.2-23.33,10.51-10.35-14.4-5.4-23.89Zm25,11.3c8.28-16.21-5.44-28.14-20.55-12.51,16-9.86,24.62-2.89,20.55,12.51Zm-9.47-12.58a10.25,10.25,0,0,0-6.73,5.39c-2.35,4.49-1.2,9.54,2.54,11.28s8.68-.47,11-5,1.19-9.53-2.55-11.27a5,5,0,0,0-.53-.23c2.92,1.81,3.71,6.07,1.73,9.88-1.78,3.4-5.22,5.36-8.28,5a11.28,11.28,0,0,0,4.42-4.45C1120.59,769.86,1121,764.78,1117.44,762.17Z" transform="translate(-758.81 -423.56)"/><path class="cls-2" d="M1138,735.26a20.88,20.88,0,0,1,6.17-9.92,21.4,21.4,0,0,0-7.73,10.16c-3.41,9.24,0,18.57,7.71,20.84a8.37,8.37,0,0,0,1.1.26,12,12,0,0,1-3.41.19,10.8,10.8,0,0,1-2.2-.4c-9.15-2.71-9.19-13.95-7-19.81,4-11.12,14.6-17.29,24.38-14.91,7.81,1.9,12,11.06,9.28,20.47s-11.17,15.49-19,13.6-12-11.07-9.29-20.48Zm24.52,5.68c4.41-16-10.12-24.29-20.77-7.56,12.53-11.7,21.56-7,20.77,7.56Zm-10.85-9.59a9.25,9.25,0,0,0-5,6c-1.27,4.44.7,8.78,4.38,9.67s7.71-2,9-6.42-.71-8.77-4.39-9.67l-.52-.11c3,1.1,4.46,4.79,3.39,8.56-1,3.37-3.68,5.75-6.5,5.93a10.18,10.18,0,0,0,3.14-4.79C1155.9,737.68,1155.36,733.05,1151.64,731.35Z" transform="translate(-758.81 -423.56)"/><path class="cls-2" d="M1163.62,702.4a27.46,27.46,0,0,1,1.43-11.44,27.48,27.48,0,0,0-2.42,12.24c.22,9.82,5,17.25,10.78,16.59a5.27,5.27,0,0,0,.81-.15,7.87,7.87,0,0,1-2.23,1.41,5.87,5.87,0,0,1-1.57.41c-6.85.78-9.91-9.65-10.06-15.87-.33-11.78,5.09-21.36,12.27-22.67,5.73-1,11,6,11.73,15.69s-3.28,18.44-9,19.49-11-6-11.73-15.7Zm17.91-3.55c-1.38-16.49-13.32-18.94-15.92.46,5.21-15.4,12.52-14.27,15.92-.46Zm-9.84-5a11.52,11.52,0,0,0-1.73,7.43c.35,4.59,2.83,7.91,5.54,7.41s4.61-4.61,4.26-9.2-2.84-7.9-5.55-7.41l-.37.09c2.27,0,4.27,2.84,4.57,6.73.28,3.49-.91,6.67-2.74,7.87a13.38,13.38,0,0,0,.8-5.59C1176.25,698.19,1174.63,694.08,1171.69,693.84Z" transform="translate(-758.81 -423.56)"/><path class="cls-2" d="M1153.35,664.36a27.81,27.81,0,0,1-3.76-10.93,27.62,27.62,0,0,0,3.22,12.06c4.55,8.76,12.18,13.41,17.06,10.39a8,8,0,0,0,.66-.48,7.5,7.5,0,0,1-1.39,2.21,5.76,5.76,0,0,1-1.23,1c-5.82,3.61-13.2-4.49-16.08-10-5.51-10.48-4.86-21.41,1-25.63,4.7-3.38,12.54.72,17.51,9.15s5.2,18,.5,21.39-12.54-.72-17.52-9.16Zm14.58-10.8c-8.54-14.28-20.38-11.42-14.15,7.17-2.11-16.1,5-18.17,14.15-7.17Zm-11.09-.34a11.47,11.47,0,0,0,1.73,7.42c2.35,4,6,5.93,8.27,4.33s2.12-6.11-.23-10.09-6.06-5.92-8.28-4.33l-.29.24c2-1,5.1.75,7.1,4.13,1.78,3,2.13,6.4,1,8.25a13.4,13.4,0,0,0-1.75-5.37C1162.87,655.2,1159.6,652.18,1156.84,653.22Z" transform="translate(-758.81 -423.56)"/><path class="cls-2" d="M1128.88,631a23.91,23.91,0,0,1-6.88-7,23.6,23.6,0,0,0,6.88,8.06c6.68,5.08,14.2,5.94,16.82,1.92.12-.19.23-.4.33-.6a6.42,6.42,0,0,1-.25,2.18,4.89,4.89,0,0,1-.56,1.23c-3.12,4.8-11.72,1.21-16-2-8-6-11.55-14.61-8.61-19.91,2.35-4.23,9.83-3.86,16.72.83s10.56,11.91,8.22,16.14-9.83,3.85-16.72-.83Zm7.15-13.37c-11.74-7.89-19.73-1.54-8.16,10.45-7.51-11.54-2.87-15.62,8.16-10.45Zm-8.57,3.64a9.89,9.89,0,0,0,4,5.06c3.26,2.22,6.8,2.39,7.9.39s-.63-5.41-3.88-7.62-6.79-2.38-7.89-.39a2.59,2.59,0,0,0-.14.29c1.17-1.48,4.16-1.23,6.92.65,2.48,1.68,4,4.13,3.79,5.94a11.79,11.79,0,0,0-3.3-3.49C1132.78,620.69,1129.18,619.53,1127.46,621.3Z" transform="translate(-758.81 -423.56)"/><path class="cls-2" d="M859.63,946.13a22.6,22.6,0,0,1,5.93-11.26,23.34,23.34,0,0,0-7.62,11.65c-3,10.32,1.51,20.22,10,22.11.4.09.81.16,1.22.21a13.5,13.5,0,0,1-3.7.46,11.67,11.67,0,0,1-2.43-.27c-10.17-2.26-11.1-14.5-9.21-21,3.47-12.41,14.55-19.94,25.38-18.09,8.65,1.48,13.9,11.15,11.72,21.6s-11,17.72-19.6,16.24-13.9-11.15-11.73-21.61Zm27.15,4.35c3.55-17.78-12.93-25.7-23.22-6.67,12.73-13.69,22.93-9.23,23.22,6.67Zm-12.57-9.64a10.12,10.12,0,0,0-5,7c-1,4.94,1.44,9.51,5.53,10.2s8.23-2.72,9.26-7.66-1.46-9.5-5.54-10.2a5.54,5.54,0,0,0-.57-.07c3.3,1,5.23,4.87,4.36,9.06-.78,3.75-3.56,6.53-6.62,7a11.19,11.19,0,0,0,3-5.46C879.35,947.42,878.4,942.42,874.21,940.84Z" transform="translate(-758.81 -423.56)"/><path class="cls-2" d="M884.52,999.49a25.24,25.24,0,0,1-11.47-2.77,24.28,24.28,0,0,0,12,3.93c10.32.79,19.69-3.66,20.92-9.95,0-.3.09-.6.11-.89a7.07,7.07,0,0,1,.72,2.56,6.15,6.15,0,0,1-.09,1.76c-1.46,7.51-13.38,9.73-19.93,9.22-12.4-.88-20.59-7.76-19.57-15.69.82-6.32,9.9-11.28,20.3-11.07s18.15,5.51,17.33,11.83-9.9,11.28-20.29,11.07Zm2.27-19.8c-17.68-.25-24.22,12.45-4.84,17.31-14.34-7.27-10.72-15.08,4.84-17.31Zm-8.52,10.14c1.38,1.54,4,2.6,7.18,2.66,4.91.1,9.2-2.24,9.58-5.23s-3.27-5.49-8.18-5.59-9.2,2.25-9.59,5.24c0,.13,0,.27,0,.42.71-2.47,4.38-4.35,8.55-4.26,3.73.08,6.66,1.69,7.29,3.81a12.17,12.17,0,0,0-5.56-1.46C884.34,985.34,879.5,986.66,878.27,989.83Z" transform="translate(-758.81 -423.56)"/><path class="cls-2" d="M919.54,1018.5a29.91,29.91,0,0,1-11.46-2.26,28.15,28.15,0,0,0,12,3.21c10.33.65,19.69-3,20.92-8.15a4.63,4.63,0,0,0,.12-.73,5,5,0,0,1,.72,2.1,4.38,4.38,0,0,1-.09,1.44c-1.47,6.14-13.38,8-19.93,7.55-12.41-.71-20.59-6.36-19.57-12.85.81-5.18,9.9-9.24,20.29-9.07s18.16,4.51,17.34,9.7-9.9,9.23-20.3,9.06Zm2.27-16.22c-17.67-.2-24.21,10.2-4.83,14.18-14.34-6-10.72-12.35,4.83-14.18Zm-8.51,8.31c1.38,1.26,4,2.13,7.18,2.18,4.91.08,9.2-1.84,9.58-4.28s-3.28-4.5-8.19-4.58-9.19,1.84-9.57,4.28c0,.11,0,.23,0,.34.71-2,4.39-3.54,8.55-3.48,3.74.07,6.67,1.39,7.3,3.12a14.41,14.41,0,0,0-5.56-1.2C919.36,1006.92,914.52,1008,913.3,1010.59Z" transform="translate(-758.81 -423.56)"/><path class="cls-2" d="M963,1026.78a46.45,46.45,0,0,1-11.47-2.41,42.34,42.34,0,0,0,12,3.06c10.33,1.27,19.7-.33,20.92-3.56a2,2,0,0,0,.12-.47,2.79,2.79,0,0,1,.72,1.43,1.81,1.81,0,0,1-.09.92c-1.47,3.86-13.38,4.07-19.93,3.27-12.4-1.49-20.59-5.82-19.56-9.95.81-3.29,9.9-5.18,20.29-4.22s18.15,4.41,17.34,7.71-9.91,5.18-20.3,4.22Zm2.26-10.34c-17.67-1.58-24.21,4.63-4.83,8.81-14.34-5-10.72-8.9,4.83-8.81Zm-8.51,4.69a16.86,16.86,0,0,0,7.18,2c4.91.45,9.2-.44,9.58-2s-3.27-3.19-8.18-3.64-9.2.44-9.58,2a.89.89,0,0,0,0,.22c.71-1.25,4.38-1.94,8.55-1.55,3.73.34,6.66,1.44,7.29,2.62a21.92,21.92,0,0,0-5.56-1.24C962.86,1019.25,958,1019.55,956.79,1021.13Z" transform="translate(-758.81 -423.56)"/></svg>