<svg id="Layer_1" data-name="Layer 1" xmlns="http://www.w3.org/2000/svg" viewBox="0 0 799.16 1113.58"><defs><style>.cls-1{fill:#1b1b1b;}.cls-1,.cls-2{fill-rule:evenodd;}.cls-2{fill:#fff;}</style></defs><path class="cls-1" d="M987.64,1559c10.62,50-266.62,58.83-263.78-6.73,4.81-111.86,45.7-204.85,97.46-279.53-25.12,43.45-43.31,98.6-56.72,169.11,42.22-149.52,118.61-243.44,187.91-284.32-31.67,13.65-58.76,30.75-82,52.47,73.37-83.29,152.39-135.47,180.7-157.72C948.21,1005.44,875.6,953,812.61,868c-69-93.13-100.79-203.45-29.26-287.92a53.53,53.53,0,0,1,10-16.52c3.69-4,9.86-9.06,16.42-9.51,4.66-.28,6.68-2.15,6.55-5.29a11.07,11.07,0,0,1,.25-3.92c2.36-9.93,19.21-20.73,29.49-25.14,5.29-2.27,16.14-6,22.5-3.19,3.08.79,3.67-.21,3.58-1.68-1.09-2.24-.57-4.62.68-6.74,4.18-7.05,19.11-12.18,27.89-13.71,5.92-1,41.25-.34,56.66-2.4,7.11-1,14.59-1.9,19.74-1.75,1.28,0,2.92.13,4.69.3,23.63-.42,33.89-7.81,55.61-4,4.52.79,18.09.62,26.26,9.71,11.93,13.24,75.09,27.67,90.48,45.15-30.63-17.71-69.46-29.38-108.69-32.22-7.3,1.12-16.4.41-22.6-.63-27.72.47-54.88,5.66-78.72,16.56-28.11,12.86-51.65,32.39-67.51,57.74a170.12,170.12,0,0,0-23.91,78.94c5.63-85,75.23-151.35,185.25-142.32,122.82,10.09,199.4,69.77,236.63,150.67-14.79-26.13-37.09-49.56-67.21-76.16,76.88,85.27,92.17,134.8,75,284.32,12.85-62.15,17.27-107.62,12.75-144.47,24.1,119.4-18.63,264-112,366.79,15.54-14.93,31.12-29.87,44.12-46l11.39,4.56c7.23-.77,15.65,1.83,21,4.94,11.41,6.66,12.85,8.6,27.08,14.61,7.22-.76,15.61,1.84,20.94,5,10.55,6.16,15.73,11.3,29.47,18.38,7.53-.4,16.45,3.63,21.39,7.12,8.12,5.73,14.38,13.13,25.08,20.54,6.74,1,14.15,5.85,17.82,9.06,6,5.18,9.63,12,16.69,18.5a13.18,13.18,0,0,1,2.16.37,3.79,3.79,0,0,1,1.15.53c8.47-1.09,17.23,8.66,20.53,13.93,6.47,10.29,2.73,11.52,13.06,23.55,8.16-.28,16.39,8.93,19.57,14,5.37,8.53,8.41,22.12,16.36,35.43a13.94,13.94,0,0,1,2.07.87,3.9,3.9,0,0,1,1,.78c8.5.84,13.91,12.2,15.45,18,5.92,22.28,14.63,69.44,13.5,90.91a121,121,0,0,1-13.51,50.54c-1.22,2.29-2.51,4.54-3.86,6.73,8.52-21.67,7.41-45.85-1.53-70.79-11-30.7-33.81-62.59-65-92.35q-12.43-11.86-25.49-22.4a395.9,395.9,0,0,1,28.64,28.76c27.86,31.1,47.28,63.61,55.21,94.12,7.86,30.15,4.45,58.32-13.23,81-23.88,30.72-65.28,41.17-107.07,37.12a219.32,219.32,0,0,1-130.21-59.1c-34.1-31.94-56.8-62.75-75.25-124.58-15-42.46-53.47-38.92-70.42,24.09-11.76,43.72,5.89,102.35,48.88,131.48,22.27,13.59,8,30.44-17.1,16.38-58.6-32.85-75.59-112.25-60-168.63,8.51-30.78,28.16-52.51,50.19-61a28.38,28.38,0,0,0-8.35,7c13.25-11.21,42.29-11.9,54.15,0-2.5-4-6.64-7-11.61-9,18.41,5,35.44,20.68,46.13,49.36,14.43,38.68,18.78,52.11,49.28,88.73,25.88,31.06,58.94,54.7,101.59,59.78-24.41-2.17-47.71-8.73-63.38-19.39,38.25,38.45,130,34.54,156.87.06-13.72,11-35.41,17.41-58.93,19.42,14.53-1.56,26.51-4.93,36.23-9.77,21-10.46,31.36-27.57,34.28-47.89,2.87-19.88-1.45-42.87-9.84-65.61-41.51-112.35-148.37-145.21-269.23-188.51l-5.2-2q-8.58,9-17.68,17.45c-204.66,190.19-169.84,432-169.77,432.39ZM1058,1046.69c135.74-117.66,153.93-386-49.11-443.1-235.19-66.19-170.36,255.18,92.86,382.9A359,359,0,0,1,1058,1046.69Z" transform="translate(-723.84 -485.42)"/><path class="cls-2" d="M1215.18,1113.41a37.72,37.72,0,0,0,13.65,4.73,39.12,39.12,0,0,1-15.27-4.23c-10.59-5.43-15-13.94-10-19a10,10,0,0,1,.78-.68,13,13,0,0,0-3.23,1.35,9,9,0,0,0-1.67,1.26c-6.09,6,3,14.47,9.72,17.92,12.66,6.58,27.3,6.57,34.22.52,5.53-4.84,1.85-13.53-8.22-19.41s-22.73-6.72-28.26-1.89-1.84,13.54,8.23,19.42Zm17.6-15c17,10.08,10.57,22.63-12.68,14.75,20.87,3.29,25.21-4.19,12.68-14.75Zm-2,11.93a16.6,16.6,0,0,1-9.48-2.32c-4.76-2.78-6.5-6.88-3.9-9.16s8.6-1.89,13.36.88,6.49,6.89,3.88,9.18l-.38.29c1.77-2.11.15-5.53-3.88-7.89-3.62-2.11-8-2.7-10.73-1.6a18.56,18.56,0,0,1,6.75,2.22C1229.45,1103.75,1232.74,1107.45,1230.76,1110.35Z" transform="translate(-723.84 -485.42)"/><path class="cls-2" d="M1266.15,1129.85a37.34,37.34,0,0,0,13.63,4.74,38.79,38.79,0,0,1-15.25-4.24c-10.61-5.43-15.06-13.93-10-19,.25-.24.53-.47.8-.69a12.83,12.83,0,0,0-3.25,1.36,8.6,8.6,0,0,0-1.67,1.26c-6.08,6,3,14.47,9.72,17.92,12.66,6.59,27.3,6.58,34.23.51,5.53-4.83,1.84-13.52-8.23-19.4s-22.73-6.73-28.26-1.89-1.84,13.53,8.25,19.41Zm17.58-15c17,10.07,10.57,22.63-12.68,14.75,20.87,3.29,25.21-4.19,12.68-14.75Zm-2,11.94a16.69,16.69,0,0,1-9.48-2.33c-4.76-2.77-6.5-6.88-3.88-9.16s8.58-1.9,13.34.89,6.49,6.87,3.88,9.16a3.86,3.86,0,0,1-.38.3c1.77-2.11.15-5.53-3.88-7.89-3.62-2.1-8-2.69-10.73-1.6a18.56,18.56,0,0,1,6.75,2.22C1280.4,1120.2,1283.69,1123.91,1281.71,1126.81Z" transform="translate(-723.84 -485.42)"/><path class="cls-2" d="M1316,1152.82a42.82,42.82,0,0,0,13.65,6.42,43.4,43.4,0,0,1-15.26-6.11c-10.59-6.74-15-15.79-9.95-20.21a6.64,6.64,0,0,1,.78-.59,11.1,11.1,0,0,0-3.23,1,6.36,6.36,0,0,0-1.67,1.06c-6.09,5.27,3,14.84,9.72,19.11,12.66,8.14,27.3,9.94,34.22,4.72,5.53-4.15,1.84-13.29-8.22-20.41s-22.73-9.53-28.26-5.37-1.85,13.3,8.22,20.42Zm17.6-12.81c17,12.17,10.57,23.93-12.68,13.19,20.87,5.86,25.22-1.09,12.68-13.19Zm-2,11.68a18.34,18.34,0,0,1-9.47-3.49c-4.77-3.36-6.51-7.68-3.9-9.64s8.59-.84,13.34,2.53,6.5,7.68,3.89,9.64l-.38.26c1.78-1.89.16-5.51-3.89-8.37-3.6-2.55-8-3.68-10.71-2.92a21.08,21.08,0,0,1,6.74,3C1330.26,1144.92,1333.55,1149,1331.56,1151.69Z" transform="translate(-723.84 -485.42)"/><path class="cls-2" d="M1367.14,1180.39a40.16,40.16,0,0,0,12.24,8.2,40.94,40.94,0,0,1-13.89-8.12c-9.18-8.11-11.84-17.65-6-21.32.29-.17.59-.33.88-.47a11.85,11.85,0,0,0-3.37.5,7.71,7.71,0,0,0-1.84.81c-7,4.38.12,15.07,5.93,20.2,10.93,9.77,25,13.55,32.86,9.35,6.26-3.34,4.37-12.86-4.21-21.27s-20.6-12.51-26.85-9.17-4.36,12.88,4.21,21.29Zm19.81-10.24c14.47,14.34,5.86,25.06-15,11.27,19.47,8.65,25.09,2.39,15-11.27Zm-4.23,11.25a17.2,17.2,0,0,1-8.67-4.74c-4.07-4-5-8.47-2-10.05s8.62.36,12.67,4.32,4.94,8.48,2,10.06l-.42.2c2.12-1.63,1.2-5.43-2.23-8.79-3.07-3-7.2-4.74-10-4.35a19.48,19.48,0,0,1,6,3.92C1382.74,1174.55,1385.19,1179.06,1382.72,1181.4Z" transform="translate(-723.84 -485.42)"/><path class="cls-2" d="M1416.23,1213.57a35.38,35.38,0,0,0,9.38,10.58,36.25,36.25,0,0,1-11-10.86c-6.44-9.81-6.14-19.61.64-21.88a8.32,8.32,0,0,1,1-.27,12.09,12.09,0,0,0-3.43-.25,8.53,8.53,0,0,0-2,.39c-8.13,2.73-4.42,14.59-.34,20.81,7.64,11.8,20.14,18.5,29,16.13,7.06-1.88,8.1-11.5,2.33-21.48s-16.17-16.54-23.22-14.65-8.08,11.51-2.33,21.48Zm22.24-5.62c9.69,17-1.86,25.5-17.92,7.66,16.24,12.55,23.56,7.71,17.92-7.66Zm-7.47,10a15.34,15.34,0,0,1-7-6.46c-2.73-4.72-2.24-9.26,1.1-10.14s8.22,2.2,10.95,6.91,2.23,9.25-1.09,10.14a3.88,3.88,0,0,1-.49.11c2.54-1.11,2.8-5,.49-9-2.07-3.57-5.53-6.12-8.39-6.36a16.92,16.92,0,0,1,4.7,5.11C1433.08,1211.29,1434.09,1216.18,1431,1217.92Z" transform="translate(-723.84 -485.42)"/><path class="cls-2" d="M1454.7,1252.69a33.89,33.89,0,0,0,7.67,10.56,33.43,33.43,0,0,1-9-10.85c-5.27-9.81-5-19.61.52-21.89a4.6,4.6,0,0,1,.82-.26,7.84,7.84,0,0,0-2.8-.25,5.53,5.53,0,0,0-1.66.39c-6.62,2.71-3.59,14.59-.27,20.81,6.24,11.8,16.48,18.49,23.7,16.13,5.77-1.89,6.62-11.51,1.89-21.48s-13.21-16.54-19-14.65-6.6,11.5-1.89,21.49Zm18.19-5.64c7.93,17-1.53,25.51-14.66,7.67,13.27,12.55,19.27,7.71,14.66-7.67Zm-6.12,10a13.94,13.94,0,0,1-5.69-6.45c-2.24-4.71-1.84-9.26.89-10.15s6.74,2.2,9,6.91,1.83,9.26-.9,10.15l-.39.1c2.07-1.11,2.28-5,.4-9-1.7-3.58-4.53-6.12-6.87-6.36a16.75,16.75,0,0,1,3.85,5.1C1468.47,1250.4,1469.31,1255.29,1466.77,1257Z" transform="translate(-723.84 -485.42)"/><path class="cls-2" d="M1239.57,1082.33a34.19,34.19,0,0,0,12.37,4.3,35.34,35.34,0,0,1-13.84-3.84c-9.62-4.92-13.65-12.64-9-17.22.23-.22.47-.43.71-.62a11.85,11.85,0,0,0-2.93,1.22,8.19,8.19,0,0,0-1.52,1.15c-5.53,5.47,2.73,13.13,8.82,16.26,11.48,6,24.76,6,31,.46,5-4.39,1.69-12.27-7.46-17.6s-20.61-6.1-25.63-1.71-1.67,12.27,7.47,17.6Zm16-13.59c15.44,9.15,9.6,20.54-11.49,13.39,18.93,3,22.86-3.81,11.49-13.39Zm-1.83,10.83a15.08,15.08,0,0,1-8.59-2.11c-4.33-2.52-5.91-6.24-3.53-8.31s7.79-1.72,12.11.81,5.87,6.23,3.51,8.31c-.1.09-.23.18-.35.27,1.62-1.91.14-5-3.51-7.15-3.29-1.92-7.27-2.45-9.72-1.45a16.73,16.73,0,0,1,6.1,2C1252.51,1073.57,1255.5,1076.94,1253.69,1079.57Z" transform="translate(-723.84 -485.42)"/><path class="cls-2" d="M1287.59,1101.89a34.24,34.24,0,0,0,12.38,4.3,35.28,35.28,0,0,1-13.85-3.85c-9.61-4.92-13.66-12.64-9-17.22a6.12,6.12,0,0,1,.71-.61,11.33,11.33,0,0,0-3,1.22,7.08,7.08,0,0,0-1.5,1.15c-5.53,5.47,2.71,13.12,8.82,16.25,11.47,6,24.74,6,31,.46,5-4.38,1.67-12.27-7.46-17.6s-20.62-6.09-25.63-1.71-1.67,12.28,7.46,17.61Zm16-13.59c15.44,9.14,9.58,20.53-11.49,13.38,18.91,3,22.86-3.81,11.49-13.38Zm-1.84,10.83a15.16,15.16,0,0,1-8.59-2.12c-4.32-2.51-5.9-6.23-3.53-8.31s7.79-1.71,12.1.81,5.89,6.24,3.53,8.31a3.58,3.58,0,0,1-.37.28c1.64-1.92.16-5-3.51-7.16-3.29-1.91-7.27-2.44-9.72-1.45a16.53,16.53,0,0,1,6.1,2C1300.54,1093.13,1303.51,1096.49,1301.71,1099.13Z" transform="translate(-723.84 -485.42)"/><path class="cls-2" d="M1339,1124.43a37,37,0,0,0,11.86,5.57,37.63,37.63,0,0,1-13.27-5.31c-9.21-5.86-13.09-13.73-8.66-17.57.23-.18.45-.35.7-.51a9.83,9.83,0,0,0-2.82.83,6.47,6.47,0,0,0-1.46.92c-5.29,4.59,2.63,12.9,8.45,16.61,11,7.08,23.74,8.64,29.76,4.11,4.79-3.61,1.6-11.56-7.15-17.74s-19.76-8.28-24.55-4.67-1.62,11.57,7.14,17.76Zm15.29-11.15c14.8,10.58,9.2,20.81-11,11.47,18.14,5.09,21.91-1,11-11.47Zm-1.76,10.16a15.91,15.91,0,0,1-8.24-3c-4.14-2.92-5.65-6.68-3.38-8.39s7.46-.72,11.6,2.21,5.64,6.67,3.38,8.38l-.33.22c1.54-1.65.14-4.79-3.38-7.27-3.14-2.23-7-3.2-9.32-2.54a18.12,18.12,0,0,1,5.86,2.65C1351.37,1117.56,1354.22,1121.14,1352.5,1123.44Z" transform="translate(-723.84 -485.42)"/><path class="cls-2" d="M1383.89,1149.65a39.65,39.65,0,0,0,10.31,6.53,39.8,39.8,0,0,1-11.53-6.5c-8-6.39-11.37-13.77-7.53-16.49a5.11,5.11,0,0,1,.61-.35,7.69,7.69,0,0,0-2.45.32,4.53,4.53,0,0,0-1.27.6c-4.59,3.24,2.28,11.58,7.35,15.63,9.57,7.72,20.63,10.87,25.85,7.78,4.19-2.45,1.4-9.82-6.21-16.43s-17.17-10-21.34-7.53-1.41,9.82,6.21,16.44Zm13.28-7.52c12.87,11.29,8,19.38-9.56,8.41,15.75,7,19,2.28,9.56-8.41Zm-1.53,8.58a16.48,16.48,0,0,1-7.14-3.81c-3.6-3.12-4.92-6.59-2.94-7.75s6.48.42,10.08,3.55,4.91,6.6,2.93,7.76l-.28.15c1.34-1.21.1-4.15-2.94-6.8-2.73-2.38-6-3.77-8.11-3.52a18.48,18.48,0,0,1,5.1,3.13C1394.67,1145.44,1397.16,1149,1395.64,1150.71Z" transform="translate(-723.84 -485.42)"/><path class="cls-2" d="M1421.54,1178.41a34.37,34.37,0,0,0,7.74,8.71,34.54,34.54,0,0,1-8.93-9c-5.58-8-6.38-15.93-1.77-17.62a4.87,4.87,0,0,1,.68-.2,8,8,0,0,0-2.45-.27,4.77,4.77,0,0,0-1.41.28c-5.5,2-1.65,11.66,1.89,16.75,6.63,9.66,16.21,15.31,22.24,13.59,4.84-1.37,4.59-9.1-.53-17.25s-13.19-13.66-18-12.28-4.59,9.1.54,17.25Zm15.23-4.08c8.62,13.89,1.29,20.51-12,5.81,12.83,10.45,17.54,6.7,12-5.81Zm-4.29,7.88a14.42,14.42,0,0,1-5.62-5.34c-2.42-3.85-2.54-7.5-.26-8.15s6.08,1.94,8.5,5.8,2.54,7.49.26,8.14a1.6,1.6,0,0,1-.33.07c1.7-.84,1.5-4-.57-7.22-1.83-2.93-4.56-5-6.61-5.3a16.91,16.91,0,0,1,3.86,4.21C1433.27,1176.92,1434.51,1180.88,1432.48,1182.21Z" transform="translate(-723.84 -485.42)"/><path class="cls-2" d="M1454.16,1216a34.71,34.71,0,0,0,7.74,8.71,34.87,34.87,0,0,1-8.92-9c-5.59-8-6.39-15.93-1.78-17.62a4.64,4.64,0,0,1,.68-.19,7.69,7.69,0,0,0-2.45-.27,5,5,0,0,0-1.41.27c-5.48,2-1.65,11.66,1.9,16.76,6.62,9.66,16.2,15.3,22.25,13.59,4.82-1.38,4.58-9.1-.55-17.26s-13.18-13.66-18-12.28-4.59,9.1.54,17.26Zm15.25-4.07c8.61,13.88,1.27,20.49-12,5.8,12.83,10.44,17.54,6.7,12-5.8Zm-4.31,7.86a14.42,14.42,0,0,1-5.62-5.34c-2.42-3.85-2.54-7.5-.26-8.14s6.1,1.94,8.52,5.79,2.52,7.5.24,8.15l-.33.07c1.71-.84,1.5-4-.57-7.22-1.83-2.93-4.56-5-6.61-5.3a16.74,16.74,0,0,1,3.86,4.21C1465.9,1214.47,1467.13,1218.43,1465.1,1219.76Z" transform="translate(-723.84 -485.42)"/><path class="cls-2" d="M1487.75,1266.28a30.49,30.49,0,0,0,4.75,10.14,30.63,30.63,0,0,1-5.8-10.65c-2.87-9-1.19-16.78,3.78-17.38a4.23,4.23,0,0,1,.72,0,7.25,7.25,0,0,0-2.28-.81,5,5,0,0,0-1.44,0c-5.93.72-5.24,10.88-3.41,16.58,3.39,10.81,10.87,18.4,17.23,18.09,5.08-.25,7.25-7.76,4.85-16.77s-8.45-16.11-13.52-15.87-7.27,7.75-4.88,16.76Zm16-.51c4,15.32-5.19,20-13.38,2.92,9.13,12.94,14.84,10.38,13.38-2.92Zm-6.61,6.63a12.83,12.83,0,0,1-3.76-6.41c-1.13-4.26-.1-7.8,2.3-7.91s5.27,3.23,6.4,7.48.08,7.81-2.32,7.92h-.33c1.9-.44,2.66-3.49,1.71-7.09-.85-3.24-2.84-5.9-4.71-6.6a14.92,14.92,0,0,1,2.39,4.93C1499.55,1267.48,1499.49,1271.57,1497.13,1272.4Z" transform="translate(-723.84 -485.42)"/><path class="cls-2" d="M1495.7,1309.17a34.54,34.54,0,0,0,6.26,10.57,33.13,33.13,0,0,1-7.35-10.85c-4.3-9.82-4.11-19.61.43-21.89a3.79,3.79,0,0,1,.68-.26,5.34,5.34,0,0,0-2.3-.25,3.51,3.51,0,0,0-1.35.39c-5.43,2.71-3,14.59-.23,20.81,5.11,11.8,13.48,18.49,19.39,16.12,4.73-1.88,5.43-11.5,1.57-21.47s-10.84-16.55-15.55-14.65-5.41,11.5-1.55,21.48Zm14.89-5.63c6.48,17-1.25,25.5-12,7.67,10.87,12.55,15.75,7.7,12-7.67Zm-5,10c-1.72-1.06-3.5-3.43-4.66-6.46-1.83-4.71-1.5-9.26.73-10.15s5.51,2.21,7.34,6.92,1.49,9.26-.75,10.15l-.31.1c1.7-1.11,1.87-5,.33-9-1.39-3.59-3.71-6.13-5.62-6.37a16.81,16.81,0,0,1,3.15,5.11C1507,1306.88,1507.65,1311.77,1505.58,1313.51Z" transform="translate(-723.84 -485.42)"/><path class="cls-2" d="M1447.78,1403.61c-34.33,27.63-118.49,26-156.87-.06C1329.16,1442,1420.93,1438.09,1447.78,1403.61Z" transform="translate(-723.84 -485.42)"/><path class="cls-2" d="M1055.37,994.79a39.62,39.62,0,0,0,13.65,5.4,40.61,40.61,0,0,1-15.27-5c-10.61-6-15.06-14.68-10-19.48a8.17,8.17,0,0,1,.79-.64,11.8,11.8,0,0,0-3.25,1.19,8,8,0,0,0-1.66,1.18c-6.1,5.73,3,14.62,9.72,18.39,12.65,7.21,27.29,7.92,34.21,2.2,5.53-4.57,1.86-13.44-8.23-19.81s-22.71-7.84-28.24-3.27-1.84,13.43,8.23,19.82Zm17.6-14.13c17,10.92,10.57,23.15-12.68,14.13,20.87,4.31,25.21-3,12.68-14.13Zm-2,11.84a17.37,17.37,0,0,1-9.48-2.79c-4.76-3-6.5-7.2-3.87-9.36s8.57-1.46,13.33,1.55,6.49,7.2,3.88,9.35l-.38.29c1.79-2,.16-5.53-3.88-8.08-3.62-2.29-8-3.09-10.71-2.13a19.45,19.45,0,0,1,6.73,2.55C1069.64,985.83,1072.93,989.69,1070.93,992.5Z" transform="translate(-723.84 -485.42)"/><path class="cls-2" d="M1025.28,1026.13a41.43,41.43,0,0,0,15.81,7.92,43.53,43.53,0,0,1-18-7.47c-11.83-8.44-15.17-20.12-7.46-26.09a11.68,11.68,0,0,1,1.15-.79,16.89,16.89,0,0,0-4.4,1.36,12.58,12.58,0,0,0-2.42,1.44c-9.18,7.12,0,19.31,7.46,24.66,14.08,10.22,32.4,12,42.64,5,8.17-5.64,5.84-17.47-5.2-26.43s-26.64-11.66-34.81-6-5.86,17.47,5.19,26.43Zm25.91-17.39c18.65,15.34,7.29,31-19.7,17.7,25.22,6.94,32.61-2.3,19.7-17.7Zm-5.66,15.36a18.65,18.65,0,0,1-11.22-4.23c-5.24-4.23-6.33-9.82-2.47-12.48s11.23-1.38,16.45,2.85,6.31,9.82,2.45,12.48c-.19.12-.36.23-.57.34,2.78-2.54,1.65-7.22-2.78-10.8-4-3.22-9.31-4.55-13-3.45a20.44,20.44,0,0,1,7.85,3.75C1045.65,1015.3,1048.78,1020.56,1045.53,1024.1Z" transform="translate(-723.84 -485.42)"/><path class="cls-2" d="M1004.59,958.09a34.41,34.41,0,0,0,10.31,8.39,37,37,0,0,1-12-8.55c-7.25-7.9-7.63-16.07-.83-18.26.31-.1.66-.19,1-.27a16.5,16.5,0,0,0-3.51-.06,10.78,10.78,0,0,0-2,.42c-8.11,2.62-3.5,12.34,1.09,17.34,8.63,9.5,21.88,14.52,30.76,12.16,7.08-1.87,7.48-9.94.89-18s-17.67-13.07-24.76-11.18-7.48,9.93-.89,18Zm22.36-5.67c11.08,13.73-.15,21.32-17.82,7.18,17.48,9.74,24.64,5.38,17.82-7.18Zm-7,8.64a15.93,15.93,0,0,1-7.56-5.08c-3.12-3.8-2.93-7.61.41-8.49s8.59,1.47,11.71,5.28,2.9,7.6-.44,8.49l-.49.1c2.53-1,2.53-4.27-.1-7.5-2.36-2.89-6.1-4.86-9-4.92a16.55,16.55,0,0,1,5.14,4C1021.67,955.44,1023,959.47,1020,961.06Z" transform="translate(-723.84 -485.42)"/><path class="cls-2" d="M968.89,988.9a39.19,39.19,0,0,0,14.45,9.6,41.43,41.43,0,0,1-16.64-9.39c-10.42-9.69-11.91-21.64-3.36-26.69a14.39,14.39,0,0,1,1.29-.67,18.42,18.42,0,0,0-4.59.86,13.43,13.43,0,0,0-2.61,1.16c-10.22,6-3,19.14,3.57,25.28,12.38,11.69,30.22,15.55,41.47,9.7,9-4.67,8.52-16.66-1-26.77s-24.59-14.52-33.58-9.86-8.51,16.66,1,26.78Zm28.4-14.34c16.08,17.27,2.41,31.47-22.3,15.34,23.93,9.69,32.7,1.35,22.3-15.34Zm-8,14.59a17.85,17.85,0,0,1-10.47-5.45c-4.52-4.78-4.75-10.44-.5-12.65s11.35-.12,15.85,4.65,4.73,10.44.49,12.65c-.19.1-.4.19-.61.28,3.15-2.21,2.77-7-1.07-11-3.43-3.62-8.52-5.53-12.33-4.85a19.34,19.34,0,0,1,7.19,4.58C990.77,980.43,993.06,986,989.29,989.15Z" transform="translate(-723.84 -485.42)"/><path class="cls-2" d="M961.22,926.81a40,40,0,0,0,11.67,8.9A39,39,0,0,1,959.8,927c-9-8.86-12.42-19.49-7.73-23.75a6.33,6.33,0,0,1,.72-.56,7.93,7.93,0,0,0-2.89.65,5.12,5.12,0,0,0-1.51,1c-5.62,5.09,1.89,16.89,7.56,22.5,10.71,10.68,23.46,14.56,29.81,9.66,5.06-3.91,2.29-14.55-6.19-23.76s-19.48-13.51-24.54-9.6-2.28,14.56,6.19,23.76Zm16.09-12c14.34,15.72,8.08,28-11.79,13,18,9.2,22.19,2,11.79-13Zm-2.37,12.73c-2.48-.47-5.56-2.31-8.14-5.1-4-4.35-5.32-9.37-2.92-11.22s7.58.18,11.58,4.53,5.33,9.37,2.93,11.22l-.35.24c1.67-1.88.42-6.11-3-9.81-3-3.3-6.85-5.12-9.26-4.62a19.35,19.35,0,0,1,5.76,4.25C974.16,919.87,976.84,924.86,974.94,927.56Z" transform="translate(-723.84 -485.42)"/><path class="cls-2" d="M915.8,947.62a37.14,37.14,0,0,0,13,11,39.25,39.25,0,0,1-15.21-11c-9-10.66-8.77-22.68.43-26.84.45-.19.9-.37,1.37-.53a18.83,18.83,0,0,0-4.67.39,14.47,14.47,0,0,0-2.77.89c-11,5-5.7,18.7,0,25.46,10.65,12.86,27.83,18.49,39.83,13.82,9.58-3.73,10.79-15.68,2.73-26.69s-22.39-16.9-32-13.17-10.8,15.68-2.73,26.69ZM946,936.25c13.54,18.77-2,31.49-24.3,13,22.4,12,32.28,4.64,24.3-13Zm-10,13.67a17,17,0,0,1-9.64-6.46c-3.8-5.2-3.23-10.84,1.29-12.6s11.29,1,15.09,6.22,3.22,10.83-1.3,12.6c-.19.07-.42.15-.64.21,3.44-1.87,3.72-6.64.48-11-2.88-4-7.68-6.36-11.54-6.07a18.3,18.3,0,0,1,6.48,5.28C938.7,941.42,940.2,947.18,936,949.92Z" transform="translate(-723.84 -485.42)"/><path class="cls-2" d="M862.59,899.54a43.3,43.3,0,0,0,15.15,12.82A45.55,45.55,0,0,1,860,899.52c-10.45-12.44-10.23-26.46.52-31.31.5-.22,1-.43,1.58-.61a21.18,21.18,0,0,0-5.44.45,16,16,0,0,0-3.22,1c-12.83,5.79-6.66,21.81,0,29.69,12.41,15,32.45,21.56,46.45,16.12,11.16-4.35,12.58-18.29,3.18-31.12s-26.1-19.72-37.27-15.37-12.59,18.29-3.18,31.13Zm35.23-13.27c15.79,21.89-2.38,36.73-28.33,15.15,26.12,14,37.63,5.41,28.33-15.15Zm-11.67,16a19.8,19.8,0,0,1-11.21-7.55c-4.46-6.06-3.8-12.64,1.49-14.69s13.15,1.18,17.6,7.25,3.75,12.64-1.51,14.7c-.25.09-.49.18-.75.25,4-2.19,4.33-7.75.55-12.9-3.37-4.61-9-7.41-13.47-7.07a21.33,21.33,0,0,1,7.58,6.16C889.32,892.3,891,899,886.15,902.23Z" transform="translate(-723.84 -485.42)"/><path class="cls-2" d="M918.36,884a47.37,47.37,0,0,0,13.86,10.57,46.53,46.53,0,0,1-15.58-10.42c-10.66-10.53-14.77-23.18-9.19-28.25a8.93,8.93,0,0,1,.86-.66,9.54,9.54,0,0,0-3.45.77,6.14,6.14,0,0,0-1.79,1.14c-6.68,6,2.25,20.09,9,26.77,12.73,12.7,27.91,17.31,35.44,11.48,6-4.64,2.73-17.3-7.37-28.25S917,851,911,855.68,908.25,873,918.36,884Zm19.13-14.26c17,18.7,9.59,33.26-14,15.5,21.44,10.93,26.4,2.42,14-15.5Zm-2.82,15.13c-3-.54-6.63-2.73-9.69-6.06-4.76-5.17-6.33-11.15-3.47-13.34s9,.21,13.77,5.39,6.33,11.14,3.47,13.34a3.27,3.27,0,0,1-.41.28c2-2.23.5-7.27-3.55-11.66-3.62-3.94-8.14-6.09-11-5.5a23.25,23.25,0,0,1,6.85,5.06C933.73,875.68,936.91,881.62,934.67,884.82Z" transform="translate(-723.84 -485.42)"/><path class="cls-2" d="M871.48,831.18a33.5,33.5,0,0,0,11.3,10.58,33.1,33.1,0,0,1-13-10.42c-8.11-10.54-9.15-23.18-2.33-28.26.33-.23.66-.45,1-.65a10.72,10.72,0,0,0-3.61.77,8.65,8.65,0,0,0-2.09,1.14c-8.14,6-2.62,20.09,2.52,26.76,9.64,12.7,23.7,17.32,32.66,11.49,7.15-4.65,6.92-17.3-.52-28.26s-19.25-16.07-26.4-11.41-6.92,17.3.51,28.26Zm22.6-14.26c12.5,18.7,1.53,33.27-17.79,15.51,18.78,10.93,25.81,2.41,17.79-15.51Zm-6.5,15.15c-2.84-.55-6-2.74-8.21-6.07-3.51-5.17-3.62-11.15-.24-13.35s9,.22,12.47,5.39,3.61,11.15.24,13.35c-.16.1-.31.19-.49.28,2.52-2.24,2.26-7.27-.71-11.66-2.68-3.94-6.66-6.1-9.69-5.5a16.27,16.27,0,0,1,5.64,5.06C888.87,822.92,890.6,828.86,887.58,832.07Z" transform="translate(-723.84 -485.42)"/><path class="cls-2" d="M816.16,842.43a32.06,32.06,0,0,0,11.63,12.83,33.13,33.13,0,0,1-14-12.85c-7.46-12.44-5-26.46,5.49-31.3.51-.23,1-.44,1.53-.62a18.69,18.69,0,0,0-5,.46,16,16,0,0,0-3.06,1c-12.52,5.78-9.53,21.81-4.82,29.7,8.82,15,25.89,21.56,39.4,16.1,10.82-4.34,14.35-18.28,7.9-31.11S834.84,807,824.05,811.3s-14.32,18.29-7.89,31.13Zm34-13.27c10.76,21.89-8.07,36.74-28,15.15,21.35,14,33.14,5.4,28-15.15Zm-13.11,16a14.22,14.22,0,0,1-8.94-7.53c-3.06-6.07-1.4-12.65,3.72-14.71s11.7,1.2,14.73,7.26,1.37,12.64-3.73,14.7l-.71.25c4-2.18,5.17-7.75,2.58-12.89-2.32-4.61-6.91-7.42-11.05-7.08a15.7,15.7,0,0,1,5.86,6.16C841.48,835.2,842,841.91,837.05,845.11Z" transform="translate(-723.84 -485.42)"/><path class="cls-2" d="M842.73,779.66A22,22,0,0,0,851,790.23a21.88,21.88,0,0,1-10-10.42c-5.1-10.53-2.5-23.17,5.77-28.24a13,13,0,0,1,1.2-.67,13.36,13.36,0,0,0-3.86.77,12.87,12.87,0,0,0-2.4,1.15c-9.88,6-8.38,20.09-5.14,26.77,6,12.69,18.72,17.3,29.35,11.47,8.48-4.64,11.88-17.3,7.6-28.24s-14.66-16.08-23.15-11.42-11.87,17.31-7.58,28.26Zm26.68-14.26c7.14,18.7-8,33.27-22.23,15.5,15.65,10.94,25.11,2.42,22.23-15.5Zm-10.84,15.14c-2.68-.54-5.16-2.74-6.47-6.06-2-5.17-.41-11.15,3.59-13.35s8.9.21,10.92,5.39.41,11.15-3.59,13.34a4.73,4.73,0,0,1-.55.28c3.14-2.23,4.33-7.26,2.61-11.66-1.53-3.93-4.91-6.09-8.11-5.5a10.69,10.69,0,0,1,4.18,5.06C862.47,771.39,862.52,777.33,858.57,780.54Z" transform="translate(-723.84 -485.42)"/><path class="cls-2" d="M814.09,786c-1.08,5.94-3.84,10.52-7.58,13.34,4.57-2.4,8.19-6.94,9.88-13.14,3.58-13.29-3.1-29.24-14.89-35.64-.57-.31-1.13-.58-1.7-.83a18.45,18.45,0,0,1,5.06,1,19.81,19.81,0,0,1,3.34,1.44c14.1,7.63,16,25.34,13.72,33.77-4.16,16-19,21.84-33.95,14.49-12-5.87-19.65-21.83-17.18-35.65s14.16-20.27,26.1-14.41,19.65,21.85,17.2,35.66Zm-37.51-18c-4,23.6,19.06,42,32.22,19.56-16.79,13.81-31,3.05-32.22-19.56Zm17.74,19.11c3.23-.69,5.79-3.45,6.54-7.65,1.16-6.53-2.47-14.07-8.12-16.84s-11.17.26-12.33,6.8,2.47,14.06,8.12,16.84c.26.12.52.24.78.34a15,15,0,0,1-6.43-14.7c.87-5,4.55-7.69,8.73-6.94a10.15,10.15,0,0,0-3.9,6.38C787,775.53,788.49,783,794.32,787.07Z" transform="translate(-723.84 -485.42)"/><path class="cls-2" d="M821.41,728.16a21.27,21.27,0,0,0,7.15,11.14,20.93,20.93,0,0,1-8.94-11.12c-4-10.87-.1-23.28,8.66-27.72.42-.21.83-.4,1.27-.57a13.5,13.5,0,0,0-3.91.48,12.26,12.26,0,0,0-2.52,1c-10.47,5.3-10.42,19.39-7.9,26.28,4.68,13.1,16.89,18.63,28.07,13.6,8.94-4,13.61-16.35,10.46-27.57s-12.93-17.1-21.87-13.09-13.62,16.36-10.47,27.6Zm28.05-12.24c5.2,19.16-11.39,32.55-23.74,13.8,14.47,12.06,24.77,4.27,23.74-13.8Zm-12.35,14.29a9,9,0,0,1-5.82-6.52c-1.48-5.3.73-11.14,5-13s8.84.87,10.33,6.17-.73,11.14-5,13c-.19.08-.38.17-.59.24,3.37-2,5.07-6.92,3.81-11.43-1.14-4-4.27-6.43-7.5-6.07A10.35,10.35,0,0,1,841,718C842,721.38,841.37,727.3,837.11,730.21Z" transform="translate(-723.84 -485.42)"/><path class="cls-2" d="M794.13,718.92a25.69,25.69,0,0,1-9.71,13.34,25.45,25.45,0,0,0,12-13.15c5.69-13.29,1.57-29.24-9.21-35.64-.52-.3-1-.58-1.57-.83a16.86,16.86,0,0,1,4.91,1,16.58,16.58,0,0,1,3.11,1.45c12.87,7.64,12,25.34,8.35,33.76-6.7,16-22.45,21.85-36.26,14.49-11-5.86-16.17-21.83-11.51-35.64s17.39-20.27,28.39-14.4,16.2,21.83,11.52,35.66Zm-34.64-18c-7.72,23.6,12.38,42,29.11,19.57-19,13.79-31.51,3-29.11-19.57ZM774.2,720c3.34-.69,6.33-3.45,7.74-7.65,2.21-6.53-.23-14.07-5.43-16.84s-11.21.27-13.42,6.8.24,14.07,5.44,16.84l.73.35c-4.12-2.81-6-9.18-4.1-14.71,1.68-5,5.79-7.69,9.86-6.94a12.43,12.43,0,0,0-4.92,6.38C768.65,708.49,769,716,774.2,720Z" transform="translate(-723.84 -485.42)"/><path class="cls-2" d="M788.67,657c-2.58,5.69-6.11,9.9-9.91,12.3,4.34-1.92,8.55-6,11.68-11.89,6.71-12.63,6-28.82-1.55-36.17-.36-.35-.75-.67-1.11-1a11.6,11.6,0,0,1,6,3.15c9,8.76,5.42,26.22,1.16,34.22-7.94,15.25-21.45,19.53-31.28,10.94-7.84-6.84-9.35-23.14-3.39-36.39s17.18-18.44,25-11.59,9.35,23.15,3.39,36.4ZM764,635.9c-10,22.65,3,42.74,20,22.12-17.39,11.88-25.63.05-20-22.12Zm8.62,20.31c2.78-.37,5.62-2.83,7.43-6.85,2.81-6.26,2.1-14-1.6-17.19s-9-.79-11.81,5.47-2.1,14,1.6,17.19c.17.15.35.29.52.42-2.83-3.18-3.27-9.64-.87-15,2.14-4.75,5.86-7.07,9-5.94a13.46,13.46,0,0,0-5,5.85C770,644.26,769.1,651.72,772.58,656.21Z" transform="translate(-723.84 -485.42)"/><path class="cls-2" d="M817,676.64a21.27,21.27,0,0,0,7.15,11.14,20.93,20.93,0,0,1-8.94-11.12c-4-10.87-.1-23.28,8.66-27.72a12.91,12.91,0,0,1,1.27-.56,13.43,13.43,0,0,0-6.43,1.44c-10.47,5.29-10.42,19.39-7.9,26.27,4.68,13.11,16.89,18.64,28.07,13.62,8.94-4,13.61-16.36,10.47-27.59S836.42,645,827.48,649,813.86,665.4,817,676.64Zm28-12.25c5.2,19.17-11.39,32.56-23.74,13.82,14.47,12,24.77,4.25,23.74-13.82Zm-12.35,14.29c-2.6-.74-4.86-3.1-5.82-6.51-1.48-5.31.73-11.15,5-13s8.84.87,10.33,6.17-.73,11.14-4.95,13a3.8,3.8,0,0,1-.59.23c3.37-2,5.08-6.92,3.8-11.41-1.12-4-4.25-6.44-7.49-6.09a10.41,10.41,0,0,1,3.64,5.35C837.55,669.86,837,675.78,832.71,678.68Z" transform="translate(-723.84 -485.42)"/><path class="cls-2" d="M845.3,622.54c-3.35,5.4-7.16,9.19-10.8,11.11,4-1.36,8.3-4.94,12.16-10.47,8.26-11.87,11.32-28.32,6.82-36.74-.23-.4-.45-.78-.7-1.13a7.73,7.73,0,0,1,2.75,1.93,10.16,10.16,0,0,1,1.44,2c5.38,10.05-1.46,27.2-6.71,34.73-9.86,14.35-21.81,16.89-27.86,6.92-4.85-7.95-2.43-24.61,5.38-37.2s18.06-16.36,22.9-8.41,2.43,24.61-5.38,37.22ZM829.93,598c-13.18,21.55-7.06,43.56,11.36,25-16.8,9.71-20.85-3.33-11.36-25Zm2.47,21.65c2.35,0,5.2-2.11,7.57-5.94,3.7-5.94,4.83-13.81,2.53-17.57s-7.13-2-10.81,4-4.82,13.82-2.54,17.57a5.62,5.62,0,0,0,.35.5c-1.6-3.59-.53-10.18,2.61-15.23,2.81-4.52,6.34-6.37,8.64-4.82a14.53,14.53,0,0,0-5.34,5.26C833,607.22,830.58,614.63,832.4,619.63Z" transform="translate(-723.84 -485.42)"/><path class="cls-2" d="M873.16,569.16c-4.83,3.51-9.41,5.58-13.13,6.16,3.78,0,8.7-1.77,14-5.26,11.32-7.48,20.14-20.16,19.65-28.31a7.79,7.79,0,0,0-.14-1.12,5.34,5.34,0,0,1,1.51,2.34,7.38,7.38,0,0,1,.42,2.07c.56,9.73-11.61,22-18.8,26.69-13.61,9.08-24.37,7.89-25.54-2-.94-7.86,7.43-20.89,18.66-29.09s21.11-8.48,22-.62-7.42,20.89-18.66,29.1Zm-3.23-24.39c-19.1,14.08-22.49,33.84-.24,23.63-17.52,3.36-15.85-8.46.24-23.63Zm-6.26,18.46c1.93.64,5.08-.31,8.48-2.8,5.32-3.88,9.27-10,8.82-13.74s-5.1-3.59-10.4.29-9.25,10-8.81,13.74a3.58,3.58,0,0,0,.08.49c0-3.38,3.48-8.49,8-11.78,4-2.95,7.65-3.49,8.94-1.59a15.31,15.31,0,0,0-6.4,2.85C868.92,553.2,864.09,558.62,863.67,563.23Z" transform="translate(-723.84 -485.42)"/><path class="cls-2" d="M911,530.82c-5.48,1.33-10.15,1.68-13.53,1.19,3.2.91,8,.87,13.9-.33,12.55-2.57,25.07-9.48,28-15.43a6.22,6.22,0,0,0,.33-.83,3.31,3.31,0,0,1,.33,2,4.93,4.93,0,0,1-.49,1.58c-3.44,7.11-18.62,12.86-26.57,14.48-15.11,3.16-23.7-.34-20.71-7.68,2.38-5.85,14.66-13.12,27.42-16.23s21.19-.88,18.8,5S923.77,527.71,911,530.82Zm7.11-18.25c-21.73,5.39-32.55,18.7-9.72,16.86-16.08-1.9-9.93-9.95,9.72-16.86Zm-12.69,11.68c1.36.93,4.38,1,8.26.08,6-1.47,11.84-4.9,13-7.67s-2.83-3.82-8.86-2.34-11.83,4.9-13,7.66a2.78,2.78,0,0,0-.12.38c1.41-2.41,6.35-5.23,11.46-6.48,4.59-1.11,7.84-.61,8.16,1.06a17.61,17.61,0,0,0-6.53.47C913.87,518.36,907.63,521.06,905.42,524.25Z" transform="translate(-723.84 -485.42)"/><path class="cls-2" d="M807.8,597.5c-4,4.39-8.2,7.09-11.9,8,3.93-.32,8.56-2.69,13.06-7.08,9.65-9.4,15.15-24.53,12.28-33.8a13.23,13.23,0,0,0-.47-1.26,8,8,0,0,1,2.26,2.54,10.27,10.27,0,0,1,1,2.33c3.43,11.07-5.72,25.94-11.84,31.9-11.54,11.4-23.14,10.87-27.21-.28-3.27-8.89,1.65-24.4,11-34.62s19.56-11.3,22.81-2.4-1.67,24.41-11,34.63Zm-10.47-27.58c-15.81,17.54-13.62,40.35,6.62,27-17.28,5.19-19-8.42-6.62-27Zm-1.15,21.55c2.19.58,5.2-.75,8-3.85,4.42-4.83,6.75-12.15,5.2-16.35s-6.36-3.7-10.78,1.13-6.73,12.15-5.18,16.36c.07.18.14.37.22.55-.92-3.86,1.17-10,4.91-14.06,3.35-3.67,7-4.57,8.85-2.5a12.26,12.26,0,0,0-5.84,3.75C798.72,579.62,795.26,586.18,796.18,591.47Z" transform="translate(-723.84 -485.42)"/><path class="cls-2" d="M841.6,547.34c-5.88,2.51-11,3.79-14.85,3.88,3.7.4,9.09-.57,15.41-3,13.53-5.23,26.27-15.26,28.46-22.4a6.39,6.39,0,0,0,.23-1,3.59,3.59,0,0,1,.71,2.2,5.48,5.48,0,0,1-.28,1.85c-2.6,8.53-18.5,17.78-27.09,21.09-16.26,6.36-26.41,4.11-24.34-4.58,1.63-6.94,14.06-17.33,27.73-23.19s23.41-5,21.77,1.94-14.08,17.33-27.75,23.2Zm4.78-21.57c-23.26,10.09-33,26.9-7.93,20.52-18.22,1-12.76-9.14,7.93-20.52Zm-12.13,15.35c1.68.77,5.07.3,9.21-1.49,6.47-2.76,12.33-7.67,13.11-11s-3.82-3.69-10.27-.91-12.33,7.67-13.1,11c0,.15-.07.3-.09.44,1.17-2.93,6.18-7,11.66-9.35,4.9-2.11,8.62-2.17,9.26-.38a20.28,20.28,0,0,0-7.2,1.76C842.64,533,836.16,537.16,834.25,541.12Z" transform="translate(-723.84 -485.42)"/><path class="cls-2" d="M891.18,514.41a33.31,33.31,0,0,1-11.72.33c2.61.92,6.75,1.11,11.91.4,11.06-1.53,22.67-6.69,25.93-11.52.15-.23.29-.46.4-.67a2.56,2.56,0,0,1,0,1.71,4.73,4.73,0,0,1-.64,1.3c-3.89,5.76-17.61,9.82-24.62,10.8-13.32,1.9-20.19-1.44-16.65-7.41,2.82-4.77,14.28-10.25,25.59-12.22s18.2.29,15.38,5.06-14.29,10.24-25.59,12.22Zm8.52-14.88c-19.29,3.44-30.31,14-10.57,13.59-13.48-2.36-7.15-8.78,10.57-13.59Zm-12.42,9.12c1.05.84,3.62,1.07,7.05.47,5.33-.93,10.76-3.52,12.08-5.77S904.5,500,899.16,501s-10.76,3.52-12.09,5.77a1.1,1.1,0,0,0-.15.31c1.53-1.94,6.12-4.05,10.64-4.84,4.07-.72,6.78-.14,6.83,1.27a15.41,15.41,0,0,0-5.65.08C895.28,504.15,889.59,506.09,887.28,508.65Z" transform="translate(-723.84 -485.42)"/><path class="cls-2" d="M960.93,508.66c-5.71-.17-10.28-1-13.29-2.18,2.7,1.51,7.3,2.6,13.3,3,12.87.8,27.32-2,32.28-6.3.22-.2.43-.41.62-.61a2.51,2.51,0,0,1-.45,1.77,4.82,4.82,0,0,1-1.06,1.21c-5.89,5.1-22.43,6.34-30.6,5.84-15.5-.91-22.35-5.83-16.78-11.23,4.43-4.32,18.79-7.49,32-7.1s20.44,4.22,16,8.53-18.8,7.49-32.06,7.1Zm13.52-13.52c-22.63-.6-37.85,7.94-15.49,11.75-14.57-5.34-5.74-10.6,15.49-11.75Zm-16.39,6.74c.94,1.09,3.79,1.88,7.82,2,6.26.19,13-1.31,15.13-3.35s-1.27-3.84-7.55-4-13,1.32-15.14,3.36l-.26.28c2.24-1.67,8-2.87,13.3-2.7,4.77.14,7.67,1.31,7.36,2.78a19.58,19.58,0,0,0-6.39-1.14C968.27,499,961.34,499.74,958.06,501.88Z" transform="translate(-723.84 -485.42)"/><path class="cls-2" d="M1020.68,502.56a45.63,45.63,0,0,1-13.29-4.1c2.68,1.89,7.3,3.65,13.3,4.9,12.87,2.66,27.32,1.92,32.28-1.64.22-.17.43-.35.62-.52a2.3,2.3,0,0,1-.45,1.71,3.92,3.92,0,0,1-1.06,1c-5.89,4.25-22.43,3.09-30.6,1.41-15.5-3.15-22.35-9.06-16.78-13.65,4.43-3.68,18.79-4.78,32-2.46s20.44,7.17,16,10.84-18.79,4.77-32.06,2.46ZM1034.2,491c-22.64-3.86-37.85,2.47-15.49,9.51-14.57-7.44-5.74-11.42,15.49-9.51Zm-16.39,4.38c.94,1.22,3.79,2.42,7.82,3.13,6.26,1.09,13,.57,15.13-1.16s-1.27-4-7.55-5.12-13-.57-15.14,1.16a2.89,2.89,0,0,0-.25.24c2.23-1.34,8-1.71,13.29-.78,4.76.83,7.67,2.43,7.34,3.85a21.57,21.57,0,0,0-6.37-2.06C1028,493.92,1021.08,493.7,1017.81,495.37Z" transform="translate(-723.84 -485.42)"/></svg>