<svg id="Layer_1" data-name="Layer 1" xmlns="http://www.w3.org/2000/svg" viewBox="0 0 856.27 1150.44"><defs><style>.cls-1{fill:#1b1b1b;}.cls-1,.cls-2{fill-rule:evenodd;}.cls-2{fill:#fff;}</style></defs><path class="cls-1" d="M960.72,1521.79c-62,79.52,192.89,127.19,263.92,14.8,6.24-9.89,84.36-228.92,44.27-433.32,8,51.86,9.11,114.66-1.13,187.83,7.25-204.66-34.38-305.86-91-362.15,14.11,5.35,29.46,18.51,43.76,39.13a372.3,372.3,0,0,0-79.6-98.7c10.54-80.55,22.45-165.89,39.79-234.17,2.49-9.82,7.18-35.28,12.6-42.14a34.87,34.87,0,0,0,3.22-4.85c7-12.8,2.5-18.2,7.18-29a23.71,23.71,0,0,0,5.3-3.14,34,34,0,0,0,4.3-3.92c16.23-17.61.81-22.89,24.87-38,14.5-9.11,33-12.25,57.31-6.27,60.54,14.93,63.35,95.12,136.08,130.3,27,13.07,63.62,17.84,80.9.32,20.49-20.79,9.71-56.18-21.94-54.26-25.28,1.52-23.92,17.42-3,15.42,18.93-1.8,21.9,16.86,13,23.81a22.11,22.11,0,0,0,10.4-12.67c-1.34,32.18-58.85,25.46-98-12.92,26.19,22.35,56,32.4,76.11,29.36-13.83,1.12-33.59-5-47.19-12.75-69.77-39.66-78.63-175.13-189.33-160.95q-5.52.7-10.81,1.91c20.64-3.51,43.81.6,70.68,11.77-50.55-18.07-111.61-4.75-156,67.7,17-32.75,34.9-55.1,55.1-67.83-37.21,20.85-64.4,62.55-85.3,114.51q-4.47,11.08-8.56,22.78c22-42.4,56.52-77.73,98.84-92.83-107.93,42.4-122.11,209.67-134.09,310.86a303.74,303.74,0,0,1,49,38.84c-28.79-23.65-62.7-44.43-102.51-61.43-48.62-20.76-103.27-22.09-154.88-8.77,26.28-3.45,56.22-2.75,90.63,1.73-82.34-7.92-173.78,17.07-225.86,96.92,10.62-19.93,22.37-36.69,35.64-50.46-130.72,105.49-83.27,327.23,81.75,336.13-97.8-30-98.15-212.14,17-243.94,36.93-10.2,81.27-6.69,123.86,14.51,20.28,10.09,38.83,24.15,55.14,40.62a269.53,269.53,0,0,1,44.28,59.71q2.75,5,5.41,10-7.38-10.81-15.44-21.82a265,265,0,0,0-41.32-44.61L1045,992c-8.13,61.54-35.57,109.91-69.92,140.52-46.23,41.2-114.14,54-173,34.45a177.41,177.41,0,0,1-78.08-52.2,173.42,173.42,0,0,1-40.28-86c-4.87-30.07-2-62.78,10.74-96.15a226.77,226.77,0,0,0-19.26,47.45,198.12,198.12,0,0,0-4.34,88.08c-4.73,6.06-4.61,17-3.26,23.55,4,17.1,16.56,21,28.62,43,12.17,22.2,11.63,35.06,21.44,49.82a37.24,37.24,0,0,0,12.83,11.07,23.78,23.78,0,0,0,7,2c3.2.48,4.86,1.07,5,3.81.37,8.08,7.77,16.8,9.41,18.3,7,6.39,20.73,14,30.64,10.35,4.26-1.16,10.09-1.16,11.53,2.47,2.55,7.67,10.81,13.88,17.57,16.91,5.33,2.39,44,7,53.6,8.34,112.43,15.4,238.07-84,241.15-193.22q3.7,7.25,7.28,14.57C1172.48,1230.83,1023.43,1441.36,960.72,1521.79Z" transform="translate(-666.73 -452.56)"/><path class="cls-2" d="M1062.13,1056.73a36.12,36.12,0,0,1-4.6,14.34,34.5,34.5,0,0,0,6-14.92c2.19-13-1.78-25-8.88-26.77a7.27,7.27,0,0,0-1-.18,8.22,8.22,0,0,1,3.05-.81,6.8,6.8,0,0,1,2,.19c8.47,2.15,9.57,17.25,8.18,25.48-2.54,15.6-11.49,25.64-20.49,24-7.19-1.28-11.78-12.93-10.26-26s8.58-22.66,15.76-21.38,11.79,12.94,10.27,26Zm-22.55-3.66c-2.46,22.26,11.37,31,19.36,6.79-10.15,17.78-18.7,12.91-19.36-6.79Zm10.64,11.14c2-1.68,3.49-5,4-8.94.73-6.19-1.45-11.68-4.84-12.29s-6.73,3.91-7.45,10.09,1.46,11.68,4.85,12.29l.48.05c-2.76-1-4.46-5.7-3.85-11,.54-4.7,2.76-8.33,5.28-9a17.59,17.59,0,0,0-2.37,7C1045.81,1056.39,1046.72,1062.53,1050.22,1064.21Z" transform="translate(-666.73 -452.56)"/><path class="cls-2" d="M1091.54,1090.4a32.67,32.67,0,0,1-5.38,14.34,32.06,32.06,0,0,0,7-14.92c2.55-13-2.08-25-10.36-26.76a9.93,9.93,0,0,0-1.2-.18,10.45,10.45,0,0,1,3.56-.81,8.79,8.79,0,0,1,2.35.19c9.88,2.15,11.16,17.25,9.54,25.48-3,15.6-13.4,25.64-23.91,24-8.39-1.27-13.75-12.93-12-26s10-22.67,18.4-21.38,13.76,12.93,12,26Zm-26.32-3.66c-2.87,22.27,13.27,31,22.6,6.79-11.86,17.78-21.83,12.91-22.6-6.79Zm12.42,11.15c2.27-1.68,4.07-5,4.61-9,.84-6.18-1.69-11.68-5.66-12.28s-7.85,3.9-8.69,10.08,1.71,11.69,5.66,12.29a5.07,5.07,0,0,0,.56,0c-3.22-1-5.2-5.7-4.49-10.94.64-4.7,3.23-8.34,6.16-9a16,16,0,0,0-2.76,7C1072.48,1090.06,1073.55,1096.2,1077.64,1097.89Z" transform="translate(-666.73 -452.56)"/><path class="cls-2" d="M1058.21,1153.6a32.61,32.61,0,0,1-9.65,11.86,32,32,0,0,0,11.37-11.9c6.55-11.48,6-24.33-1.31-28.68a9.86,9.86,0,0,0-1.07-.56,11,11,0,0,1,3.63.38,8.67,8.67,0,0,1,2.17.93c8.68,5.2,5.08,19.92.93,27.21-7.78,13.83-20.87,20-30.31,15.1-7.54-3.9-8.92-16.65-3.07-28.49s16.7-18.26,24.24-14.36,8.91,16.67,3.07,28.51Zm-23.78-11.9c-9.8,20.18,2.71,33.64,19.26,13.67-16.89,13.05-24.79,5.24-19.26-13.67Zm8.23,14.54c2.69-.87,5.44-3.41,7.22-7,2.76-5.58,2.11-11.61-1.45-13.45s-8.69,1.19-11.45,6.78-2.1,11.62,1.46,13.46l.5.22c-2.73-2-3.11-7.07-.77-11.81,2.1-4.25,5.71-6.86,8.72-6.58a15.89,15.89,0,0,0-4.83,5.69C1040.26,1147.17,1039.32,1153.34,1042.66,1156.24Z" transform="translate(-666.73 -452.56)"/><path class="cls-2" d="M1033.41,1116.17a36.08,36.08,0,0,1-9.08,12,34.31,34.31,0,0,0,10.58-12.07c6.37-11.52,6.59-24.15.49-28.2a6.35,6.35,0,0,0-.91-.51,7.64,7.64,0,0,1,3.15.25,6.76,6.76,0,0,1,1.83.84c7.28,4.85,3.31,19.46-.72,26.76-7.56,13.87-19.33,20.36-27.28,15.84-6.36-3.61-6.84-16.13-1.07-28s15.6-18.51,21.95-14.9,6.83,16.12,1.06,28Zm-20.06-11c-9.69,20.18.46,33,16,12.85-15.46,13.39-21.91,5.94-16-12.85Zm6.35,14.06c2.4-.94,5-3.53,6.69-7.12,2.73-5.59,2.51-11.51-.5-13.21s-7.64,1.45-10.36,7-2.5,11.5.5,13.21l.43.2c-2.26-1.86-2.31-6.86,0-11.6,2.07-4.26,5.37-6.94,8-6.76a17.24,17.24,0,0,0-4.53,5.76C1018.13,1110.41,1017,1116.52,1019.7,1119.27Z" transform="translate(-666.73 -452.56)"/><path class="cls-2" d="M1013.17,1201.05a32.66,32.66,0,0,1-12.54,8.76,31.85,31.85,0,0,0,14.19-8.32c9.45-9.23,12.4-21.74,6.6-27.93a11.28,11.28,0,0,0-.87-.83,10.58,10.58,0,0,1,3.38,1.36,9.11,9.11,0,0,1,1.83,1.49c6.92,7.39-.56,20.56-6.55,26.41-11.26,11.16-25.54,13.49-33.28,6.18-6.19-5.83-4-18.47,4.85-28.24s21.06-13,27.24-7.12,4,18.47-4.85,28.24Zm-19.61-18c-14.95,16.7-6.61,33.09,14.77,18.45-19.81,7.89-25.27-1.8-14.77-18.45Zm3.93,16.24c2.82-.09,6.17-1.77,8.85-4.74,4.2-4.61,5.22-10.59,2.3-13.34s-8.68-1.25-12.86,3.36-5.21,10.59-2.29,13.35a5.41,5.41,0,0,0,.43.35c-2.09-2.64-1.07-7.65,2.49-11.57,3.18-3.51,7.37-5,10.18-3.93a15.72,15.72,0,0,0-6.2,4.15C997.67,1189.92,995.07,1195.6,997.49,1199.31Z" transform="translate(-666.73 -452.56)"/><path class="cls-2" d="M990.78,1169.36a32.35,32.35,0,0,1-12.53,8.75,31.76,31.76,0,0,0,14.2-8.31c9.44-9.23,12.4-21.75,6.59-27.94a9.6,9.6,0,0,0-.87-.82,10.35,10.35,0,0,1,3.38,1.36,8.47,8.47,0,0,1,1.83,1.49c6.92,7.39-.57,20.56-6.55,26.41-11.26,11.16-25.54,13.49-33.28,6.18-6.18-5.83-4-18.47,4.85-28.24s21.06-13,27.24-7.13,4,18.48-4.86,28.25Zm-19.6-18c-14.95,16.71-6.61,33.1,14.77,18.45-19.81,7.9-25.27-1.8-14.77-18.45Zm3.93,16.24c2.82-.08,6.17-1.76,8.86-4.73,4.18-4.62,5.21-10.59,2.29-13.35s-8.68-1.24-12.86,3.37-5.21,10.59-2.29,13.34l.42.36c-2.08-2.65-1-7.65,2.5-11.57,3.18-3.51,7.37-5,10.19-3.93a15.58,15.58,0,0,0-6.21,4.15C975.29,1158.23,972.69,1163.9,975.11,1167.61Z" transform="translate(-666.73 -452.56)"/><path class="cls-2" d="M955.81,1233.43a32.55,32.55,0,0,1-14.71,4.09,31.76,31.76,0,0,0,16.13-3.13c12-5.58,18.88-16.4,15.45-24.17a9.86,9.86,0,0,0-.56-1.07,10.8,10.8,0,0,1,2.75,2.4,9.1,9.1,0,0,1,1.23,2c4.09,9.28-7.32,19.21-14.89,22.75-14.32,6.79-28.56,4.24-33.45-5.23-3.91-7.55,2.31-18.76,13.89-25s24.16-5.23,28.06,2.32-2.31,18.77-13.9,25Zm-12.56-23.49c-19.62,10.79-17.16,29,7.85,22.31-21.3.87-23.26-10.08-7.85-22.31Zm-1.65,16.63c2.68.85,6.4.37,9.92-1.53,5.47-3,8.41-8.26,6.56-11.83s-7.78-4.06-13.24-1.09-8.41,8.25-6.57,11.82c.09.16.18.32.29.48-1.1-3.19,1.53-7.57,6.17-10.09,4.16-2.25,8.61-2.28,10.91-.32a15.8,15.8,0,0,0-7.23,1.85C944.86,1217.78,940.54,1222.27,941.6,1226.57Z" transform="translate(-666.73 -452.56)"/><path class="cls-2" d="M927.6,1177.23a38,38,0,0,0-15,3.38,38.68,38.68,0,0,1,16.07-4.77c12.85-1,22.49,4.43,21.52,12.08A8.09,8.09,0,0,1,950,1189a12.1,12.1,0,0,0,1.89-3.13,8.31,8.31,0,0,0,.57-2.13c1.16-9.13-12.44-11.83-20.59-11.21-15.41,1.07-28.06,9.47-29.91,19.1-1.48,7.7,7.61,13.72,20.31,13.46s24.21-6.71,25.69-14.4-7.62-13.72-20.32-13.47Zm-5,24.11c-21.57.3-24.54-15.14.9-21.07-20.26,8.86-18.92,18.36-.9,21.07ZM916.23,1189a16.29,16.29,0,0,1,9.77-3.24c6-.13,10.29,2.72,9.59,6.35s-6.13,6.68-12.12,6.81-10.3-2.73-9.6-6.37c0-.16.08-.33.13-.5-.11,3,3.63,5.27,8.72,5.17,4.56-.1,8.75-2.06,10.34-4.64a18.63,18.63,0,0,1-7.32,1.79C921.85,1194.45,916.49,1192.85,916.23,1189Z" transform="translate(-666.73 -452.56)"/><path class="cls-2" d="M893.16,1224.36a32.25,32.25,0,0,0-15.23,1.13,31.75,31.75,0,0,1,16.24-2.53c13.14,1.2,23.29,9,22.68,17.52a11.55,11.55,0,0,1-.17,1.2,10.7,10.7,0,0,0,1.78-3.19,9.32,9.32,0,0,0,.48-2.31c.73-10.12-13.36-15.61-21.68-16.38-15.76-1.53-28.3,5.69-29.72,16.25-1.14,8.43,8.49,16.88,21.5,18.86s24.5-3.25,25.63-11.69-8.5-16.88-21.51-18.86Zm-3.92,26.36c-22.11-3.52-25.93-21.52-.12-23.67-20.34,6.4-18.5,17.37.12,23.67Zm-7.16-15.1c2.25-1.72,5.9-2.52,9.85-1.92,6.16.93,10.7,4.93,10.17,8.91s-6,6.45-12.1,5.52-10.7-4.93-10.16-8.92c0-.17.06-.36.1-.54,0,3.37,4,6.61,9.21,7.4,4.67.72,8.88-.76,10.38-3.38a15.76,15.76,0,0,1-7.43.7C888.11,1242.79,882.54,1240,882.08,1235.62Z" transform="translate(-666.73 -452.56)"/><path class="cls-2" d="M863.87,1191.34a32.38,32.38,0,0,0-15.23,1.13,31.74,31.74,0,0,1,16.24-2.52c13.13,1.2,23.28,9,22.67,17.52a9.45,9.45,0,0,1-.16,1.19,10.68,10.68,0,0,0,1.77-3.19,8.82,8.82,0,0,0,.49-2.31c.73-10.12-13.36-15.61-21.68-16.37-15.76-1.54-28.3,5.67-29.72,16.24-1.14,8.44,8.48,16.88,21.5,18.86s24.49-3.25,25.63-11.68-8.5-16.89-21.51-18.87Zm-3.93,26.36c-22.1-3.51-25.92-21.52-.12-23.66-20.34,6.39-18.49,17.37.12,23.66Zm-7.15-15.09c2.25-1.72,5.9-2.53,9.85-1.93,6.16.94,10.7,4.93,10.17,8.92s-6,6.45-12.1,5.52-10.7-4.94-10.16-8.91a5.3,5.3,0,0,1,.1-.55c.05,3.37,4,6.61,9.2,7.41,4.68.7,8.88-.77,10.39-3.4a15.63,15.63,0,0,1-7.43.7C858.82,1209.78,853.24,1207,852.79,1202.61Z" transform="translate(-666.73 -452.56)"/><path class="cls-2" d="M807.85,1181.48a36.86,36.86,0,0,0-14.78-3.33,36.58,36.58,0,0,1,16.19,2.48c12,4.64,19.13,13.88,15.84,20.63a10.72,10.72,0,0,1-.54.93,9.94,9.94,0,0,0,2.7-2.12,7.27,7.27,0,0,0,1.2-1.75c3.94-8.06-7.63-16.47-15.27-19.41-14.42-5.65-28.61-3.25-33.35,5-3.79,6.57,2.62,16.15,14.3,21.4s24.23,4.17,28-2.4-2.63-16.16-14.31-21.41Zm-12.18,20.43c-19.79-9-17.63-24.79,7.49-19.35-21.32-.45-23.09,9-7.49,19.35Zm-1.92-14.31a15.15,15.15,0,0,1,9.94,1.17c5.52,2.48,8.55,7,6.76,10.11s-7.71,3.62-13.23,1.14-8.54-7-6.75-10.11a4.94,4.94,0,0,1,.27-.42c-1,2.77,1.65,6.51,6.34,8.62,4.19,1.88,8.65,1.85,10.91.12a17.86,17.86,0,0,1-7.25-1.49C797.15,1195.13,792.76,1191.32,793.75,1187.6Z" transform="translate(-666.73 -452.56)"/><path class="cls-2" d="M763.33,1156.29a29.77,29.77,0,0,0-9.55-6.66,31.09,31.09,0,0,1,10.93,6.61c7,6.56,8.57,14.19,3.45,17a6.82,6.82,0,0,1-.77.37,10.61,10.61,0,0,0,2.83-.36,6.77,6.77,0,0,0,1.58-.63c6.11-3.41.94-12-3.51-16.15-8.36-7.9-19.76-11.06-26.52-7.81-5.41,2.6-4.51,10.21,2,17s16.17,10.18,21.57,7.58,4.5-10.2-2-17Zm-17.08,7.94c-11-11.58-3.11-20,13.2-8.82-15.5-7.09-20.58-2.17-13.2,8.82Zm4.27-8.92a13.2,13.2,0,0,1,6.85,3.88c3.08,3.2,3.51,6.8,1,8s-7.11-.37-10.18-3.58-3.5-6.8-.95-8l.37-.16c-1.87,1.28-1.38,4.31,1.23,7,2.34,2.43,5.63,3.84,8,3.57a14.54,14.54,0,0,1-4.75-3.2C750,1160.77,748.32,1157.16,750.52,1155.31Z" transform="translate(-666.73 -452.56)"/><path class="cls-2" d="M720.21,1124.9a34.1,34.1,0,0,0-8.05-10.07,33,33,0,0,1,9.29,10.2c5.79,9.58,6.59,19.83,1.79,22.89a5,5,0,0,1-.72.38,6.52,6.52,0,0,0,2.57-.08,4.87,4.87,0,0,0,1.46-.62c5.74-3.65,1.76-15.66-1.91-21.73-6.89-11.54-16.87-17.25-23.18-13.89-5,2.68-4.81,12.81.5,22.63s13.72,15.61,18.76,12.93,4.81-12.82-.51-22.64ZM704.29,1133c-8.95-16.74-1.26-26.79,12.51-9.82-13.35-11.44-18.28-5.65-12.51,9.82Zm4.52-11.16c2,.85,4.22,3.05,5.84,6,2.51,4.64,2.62,9.42.24,10.69s-6.35-1.46-8.86-6.1-2.61-9.43-.23-10.7l.34-.14c-1.77,1.41-1.56,5.47.57,9.41,1.91,3.52,4.75,5.83,6.88,5.79a16.59,16.59,0,0,1-4-4.85C708,1129,706.69,1124,708.81,1121.87Z" transform="translate(-666.73 -452.56)"/><path class="cls-2" d="M827.27,1221.1a36.5,36.5,0,0,0-14.78-3.32,36.22,36.22,0,0,1,16.18,2.47c12.05,4.64,19.14,13.87,15.84,20.63a9.74,9.74,0,0,1-.54.93,10.18,10.18,0,0,0,2.71-2.12,7.73,7.73,0,0,0,1.2-1.74c3.94-8.07-7.64-16.48-15.27-19.43-14.42-5.64-28.62-3.25-33.35,5-3.79,6.57,2.62,16.16,14.3,21.41s24.23,4.17,28-2.4-2.62-16.16-14.3-21.41Zm-12.18,20.44c-19.8-9-17.63-24.8,7.48-19.36-21.31-.45-23.08,9-7.48,19.36Zm-1.93-14.32a15.18,15.18,0,0,1,10,1.17c5.52,2.48,8.55,7,6.75,10.11s-7.7,3.62-13.22,1.14-8.54-7-6.75-10.11a3.74,3.74,0,0,1,.27-.42c-1,2.77,1.65,6.51,6.34,8.62,4.19,1.88,8.64,1.85,10.91.12a17.91,17.91,0,0,1-7.26-1.49C816.57,1234.75,812.18,1230.94,813.16,1227.22Z" transform="translate(-666.73 -452.56)"/><path class="cls-2" d="M776.65,1205a42.33,42.33,0,0,0-12.28-7.83,43.43,43.43,0,0,1,13.89,7.78c9.28,7.7,12.3,16.67,6.73,20a5.55,5.55,0,0,1-.84.43,11.33,11.33,0,0,0,3.27-.42,7.16,7.16,0,0,0,1.76-.74c6.64-4-.79-14.11-6.67-19-11.08-9.29-25-13-32.42-9.17-5.94,3-3.68,12,5,20s20.62,12,26.56,8.92,3.68-12-5-20Zm-18.85,9.35c-14.72-13.62-6.8-23.56,14.15-10.38-19.35-8.34-24.54-2.54-14.15,10.38Zm3.63-10.49a18.33,18.33,0,0,1,8.67,4.55c4.12,3.77,5.18,8,2.38,9.44s-8.42-.45-12.54-4.22-5.18-8-2.38-9.43c.13-.06.27-.13.41-.18-2,1.49-.94,5.06,2.56,8.25,3.12,2.88,7.21,4.53,9.94,4.21a21,21,0,0,1-6.08-3.76C761.71,1210.25,759.13,1206,761.43,1203.84Z" transform="translate(-666.73 -452.56)"/><path class="cls-2" d="M738.15,1169.21a34.12,34.12,0,0,0-9.47-8.75,32.77,32.77,0,0,1,10.71,8.7c7.16,8.6,9.49,18.6,5.2,22.36a5.72,5.72,0,0,1-.65.48,6.52,6.52,0,0,0,2.52-.47,5,5,0,0,0,1.36-.83c5.12-4.48-.61-15.75-5.15-21.2-8.54-10.37-19.25-14.51-25-10.24-4.58,3.41-2.84,13.4,3.88,22.3s15.9,13.37,20.48,10,2.84-13.4-3.89-22.31Zm-14.53,10.43c-11.35-15.2-5.25-26.29,10.91-11.58-14.92-9.31-18.92-2.84-10.91,11.58Zm2.8-11.7c2.12.53,4.64,2.37,6.68,5.08,3.18,4.2,4,8.92,1.83,10.53s-6.49-.49-9.66-4.71-4-8.92-1.83-10.53a1.61,1.61,0,0,1,.31-.19c-1.54,1.66-.72,5.64,2,9.21,2.42,3.2,5.57,5.05,7.67,4.69a16.72,16.72,0,0,1-4.69-4.19C726.64,1175.1,724.64,1170.36,726.42,1167.94Z" transform="translate(-666.73 -452.56)"/><path class="cls-2" d="M692.69,1086.74a34.3,34.3,0,0,0-4.81-12,32.89,32.89,0,0,1,6,12.46c2.78,10.86.59,20.89-4.89,22.44a7.49,7.49,0,0,1-.8.15,6.49,6.49,0,0,0,2.48.66,4.71,4.71,0,0,0,1.59-.16c6.54-1.84,6.19-14.48,4.43-21.36-3.27-13-11.17-21.41-18.18-20-5.6,1.1-8.3,10.87-6.05,21.81s8.63,18.92,14.23,17.82,8.3-10.88,6.05-21.82Zm-17.59,3.15c-3.74-18.61,6.52-26,14.81-5.75-9.48-14.84-15.87-10.73-14.81,5.75Zm7.54-9.36c1.68,1.4,3.17,4.14,3.85,7.47,1.07,5.16-.21,9.78-2.85,10.29s-5.65-3.24-6.72-8.41.22-9.78,2.86-10.29a2.35,2.35,0,0,1,.37,0c-2.1.84-3.07,4.78-2.17,9.17.81,3.93,2.87,7,4.92,7.54a16.48,16.48,0,0,1-2.44-5.8C679.77,1087.1,680,1081.94,682.64,1080.53Z" transform="translate(-666.73 -452.56)"/><path class="cls-2" d="M1137,831.56a19.11,19.11,0,0,1-3.79,9.41,18.14,18.14,0,0,0,4.93-9.61c1.8-8.82-1.47-17.9-7.32-20.27-.28-.11-.56-.2-.84-.28a7,7,0,0,1,2.51-.1,7.15,7.15,0,0,1,1.66.44c7,2.83,7.88,13.67,6.74,19.26-2.09,10.63-9.47,16.33-16.89,13.8-5.92-2-9.71-11-8.46-20s7.08-14.67,13-12.65,9.71,10.95,8.46,20Zm-18.59-6.06c-2,15.34,9.38,23.66,16,7.78-8.37,11-15.41,6.22-16-7.78Zm8.77,9.51c1.61-.89,2.88-3,3.26-5.7.6-4.26-1.2-8.49-4-9.43s-5.55,1.72-6.14,6,1.2,8.48,4,9.43l.39.11c-2.27-1.13-3.67-4.71-3.17-8.32.45-3.24,2.28-5.46,4.35-5.57a9.23,9.23,0,0,0-2,4.54C1123.54,828.8,1124.3,833.28,1127.18,835Z" transform="translate(-666.73 -452.56)"/><path class="cls-2" d="M1109.4,814.94a15.92,15.92,0,0,1-3.16,7.85,15.2,15.2,0,0,0,4.12-8c1.5-7.37-1.23-14.94-6.11-16.91a7.26,7.26,0,0,0-.7-.24,5.94,5.94,0,0,1,3.48.29c5.82,2.35,6.57,11.4,5.62,16.07-1.74,8.87-7.9,13.63-14.09,11.52-5-1.68-8.11-9.14-7.06-16.66s5.9-12.25,10.84-10.57,8.11,9.16,7.06,16.68Zm-15.51-5.07c-1.69,12.8,7.82,19.75,13.32,6.5-7,9.17-12.86,5.19-13.32-6.5Zm7.33,7.94a6.3,6.3,0,0,0,2.71-4.76c.5-3.56-1-7.08-3.33-7.87s-4.63,1.43-5.12,5,1,7.07,3.33,7.87l.33.08c-1.9-.94-3.07-3.93-2.65-6.94.38-2.71,1.91-4.55,3.64-4.65a7.58,7.58,0,0,0-1.63,3.79C1098.17,812.62,1098.81,816.37,1101.22,817.81Z" transform="translate(-666.73 -452.56)"/><path class="cls-2" d="M1142.92,789.3a19.09,19.09,0,0,1-3.79,9.42,18.22,18.22,0,0,0,4.94-9.61c1.8-8.83-1.48-17.9-7.33-20.28-.28-.11-.56-.2-.84-.28a6.81,6.81,0,0,1,2.52-.1,7,7,0,0,1,1.65.45c7,2.82,7.89,13.65,6.74,19.25-2.09,10.62-9.46,16.33-16.88,13.8-5.93-2-9.71-11-8.46-20s7.07-14.68,13-12.66,9.71,11,8.46,20Zm-18.58-6.06c-2,15.34,9.37,23.65,16,7.78-8.36,11-15.41,6.22-16-7.78Zm8.77,9.5c1.6-.87,2.87-3,3.26-5.7.59-4.25-1.2-8.47-4-9.42s-5.55,1.72-6.14,6,1.21,8.46,4,9.42l.38.11c-2.27-1.13-3.67-4.72-3.17-8.33.45-3.23,2.29-5.45,4.36-5.56a9.23,9.23,0,0,0-2,4.54C1129.47,786.54,1130.22,791,1133.11,792.74Z" transform="translate(-666.73 -452.56)"/><path class="cls-2" d="M1114.62,775.44a19.1,19.1,0,0,1-3.79,9.41,18.11,18.11,0,0,0,4.93-9.61c1.81-8.83-1.47-17.9-7.32-20.27-.28-.11-.56-.21-.84-.29a7,7,0,0,1,2.51-.1,7.05,7.05,0,0,1,1.66.45c7,2.82,7.88,13.66,6.74,19.25-2.1,10.63-9.47,16.33-16.88,13.8-5.93-2-9.72-11-8.46-20s7.07-14.68,13-12.66,9.71,11,8.46,20ZM1096,769.37c-2,15.35,9.37,23.66,16,7.78-8.37,11-15.41,6.23-16-7.78Zm8.77,9.51c1.6-.88,2.88-3,3.26-5.7.59-4.26-1.2-8.48-4-9.43s-5.55,1.72-6.13,6,1.19,8.47,4,9.43l.39.11c-2.27-1.13-3.67-4.72-3.17-8.33.45-3.23,2.28-5.46,4.36-5.57a9.37,9.37,0,0,0-2,4.55C1101.16,772.67,1101.92,777.16,1104.81,778.88Z" transform="translate(-666.73 -452.56)"/><path class="cls-2" d="M1151.48,745.72a19.19,19.19,0,0,1-3.79,9.42,18.21,18.21,0,0,0,4.93-9.61c1.8-8.83-1.47-17.91-7.32-20.28-.28-.11-.56-.2-.84-.28a7,7,0,0,1,2.51-.1,7.18,7.18,0,0,1,1.66.45c7,2.82,7.88,13.65,6.74,19.25-2.09,10.63-9.47,16.33-16.89,13.8-5.92-2-9.71-11-8.46-20s7.08-14.68,13-12.66,9.71,11,8.46,20Zm-18.58-6.06c-2,15.34,9.37,23.65,15.95,7.78-8.36,11-15.41,6.23-15.95-7.78Zm8.76,9.51c1.61-.88,2.89-3,3.26-5.71.6-4.25-1.19-8.47-4-9.42s-5.55,1.72-6.14,6,1.2,8.48,4,9.43l.39.11c-2.27-1.13-3.67-4.72-3.17-8.33.45-3.23,2.28-5.45,4.35-5.56a9.32,9.32,0,0,0-1.95,4.54C1138,743,1138.78,747.44,1141.66,749.17Z" transform="translate(-666.73 -452.56)"/><path class="cls-2" d="M1122.52,731.86a19.28,19.28,0,0,1-3.79,9.41,18.28,18.28,0,0,0,4.93-9.61c1.8-8.83-1.47-17.9-7.32-20.27-.28-.11-.56-.21-.84-.29a7,7,0,0,1,2.51-.1,7.05,7.05,0,0,1,1.66.45c7,2.82,7.88,13.66,6.74,19.25-2.1,10.63-9.47,16.33-16.89,13.8-5.92-2-9.71-10.94-8.46-20s7.08-14.68,13-12.66,9.71,11,8.46,20Zm-18.58-6.07c-2,15.35,9.37,23.66,16,7.78-8.37,11-15.41,6.23-16-7.78Zm8.76,9.51c1.61-.88,2.88-3,3.26-5.7.59-4.26-1.19-8.48-4-9.43s-5.55,1.72-6.14,6,1.2,8.47,4,9.43l.39.11c-2.27-1.13-3.67-4.72-3.17-8.33.45-3.23,2.28-5.46,4.35-5.57a9.36,9.36,0,0,0-2,4.54C1109.06,729.09,1109.82,733.57,1112.7,735.3Z" transform="translate(-666.73 -452.56)"/><path class="cls-2" d="M1155.43,706.11a19.15,19.15,0,0,1-3.79,9.41,18.21,18.21,0,0,0,4.93-9.61c1.8-8.83-1.47-17.91-7.32-20.27-.28-.11-.56-.21-.84-.29a7,7,0,0,1,2.51-.1,7.05,7.05,0,0,1,1.66.45c7,2.82,7.88,13.66,6.74,19.26-2.09,10.61-9.47,16.32-16.89,13.79-5.92-2-9.71-11-8.46-20s7.08-14.67,13-12.66,9.71,11,8.46,20ZM1136.85,700c-2,15.34,9.37,23.66,16,7.78-8.36,11-15.41,6.22-16-7.78Zm8.76,9.51c1.61-.88,2.88-3,3.26-5.71.6-4.25-1.19-8.47-4-9.42s-5.55,1.72-6.14,6,1.2,8.47,4,9.43l.39.11c-2.27-1.13-3.67-4.72-3.17-8.33.45-3.23,2.28-5.45,4.35-5.56a9.36,9.36,0,0,0-2,4.54C1142,703.34,1142.73,707.82,1145.61,709.55Z" transform="translate(-666.73 -452.56)"/><path class="cls-2" d="M1129.76,691.58A19.15,19.15,0,0,1,1126,701a18.18,18.18,0,0,0,4.93-9.61c1.8-8.83-1.47-17.9-7.32-20.27-.28-.11-.56-.2-.84-.28a6.76,6.76,0,0,1,2.51-.1,6.69,6.69,0,0,1,1.66.44c7,2.82,7.88,13.66,6.74,19.26-2.09,10.62-9.47,16.33-16.89,13.8-5.92-2-9.71-11-8.46-20s7.08-14.67,13-12.66,9.71,11,8.46,20Zm-18.58-6.07c-2,15.34,9.37,23.66,16,7.79-8.37,11-15.41,6.22-16-7.79Zm8.76,9.52c1.61-.89,2.88-3,3.26-5.71.6-4.25-1.19-8.48-4-9.43s-5.55,1.72-6.14,6,1.2,8.48,4,9.43l.39.11c-2.27-1.13-3.67-4.71-3.17-8.32.45-3.24,2.28-5.45,4.35-5.56a9.28,9.28,0,0,0-2,4.54C1116.3,688.82,1117.06,693.3,1119.94,695Z" transform="translate(-666.73 -452.56)"/><path class="cls-2" d="M1167,663.33a22.18,22.18,0,0,0,.45-10.65,21.55,21.55,0,0,1,.45,11.45c-1.92,9.06-8.33,15.65-14.3,14.73-.28-.05-.56-.11-.83-.18a7.2,7.2,0,0,0,2.12,1.41,6,6,0,0,0,1.61.48c7.12,1.1,12.17-8.37,13.39-14.12,2.39-10.86-1.71-20-9.09-21.62-5.9-1.29-12.69,4.91-15.16,13.84s.3,17.23,6.19,18.52,12.69-4.92,15.17-13.86Zm-18.4-4.27c4.31-15.17,17.41-16.77,16.81,1.31-2.87-14.52-10.81-13.89-16.81-1.31ZM1159.9,655a9,9,0,0,1,.55,7c-1.16,4.22-4.37,7.15-7.16,6.54s-4.1-4.52-2.92-8.74,4.37-7.14,7.16-6.53a3.06,3.06,0,0,1,.38.1c-2.4-.16-5,2.38-6,6-.88,3.2-.19,6.22,1.55,7.42a10.86,10.86,0,0,1,.12-5.21C1154.31,658.74,1156.73,655,1159.9,655Z" transform="translate(-666.73 -452.56)"/><path class="cls-2" d="M1138.54,647.78a25.71,25.71,0,0,0,2.15-10.19,24.31,24.31,0,0,1-1.52,10.95c-3.12,8.66-9.55,14.93-14.36,14a6.55,6.55,0,0,1-.67-.18,4.8,4.8,0,0,0,1.53,1.37,4.25,4.25,0,0,0,1.26.47c5.75,1.1,11.53-7.92,13.5-13.41,3.8-10.38,1.91-19.16-4-20.75-4.7-1.28-11.38,4.6-14.92,13.13s-2.62,16.48,2.07,17.75,11.38-4.6,14.93-13.14Zm-14.6-4.22c6.11-14.48,17.28-15.91,13.78,1.37,0-13.91-6.7-13.36-13.78-1.37Zm10.09-3.83c.59,1.6.38,4.08-.7,6.67-1.67,4-4.83,6.81-7,6.21s-2.67-4.36-1-8.39,4.83-6.8,7-6.2a1.82,1.82,0,0,1,.3.11c-2-.18-4.58,2.24-6,5.66-1.27,3.06-1.19,5.94.06,7.1a12.42,12.42,0,0,1,1-5C1128.75,643.3,1131.38,639.76,1134,639.73Z" transform="translate(-666.73 -452.56)"/><path class="cls-2" d="M1177,622.21a25.18,25.18,0,0,0,2.72-10.31,24.39,24.39,0,0,1-2.12,11.25c-3.64,8.47-10.56,13.66-15.48,11.61a5.32,5.32,0,0,1-.67-.35,6.22,6.22,0,0,0,1.51,1.8,4.69,4.69,0,0,0,1.26.77c5.86,2.46,12.27-5.8,14.58-11.16,4.42-10.15,2.92-19.86-3.06-22.86-4.76-2.41-11.94,2.33-16,10.56s-3.51,16.86,1.26,19.27,11.94-2.35,16-10.58Zm-14.82-7.74c7-14,18.58-13,14.11,4.53.73-14.72-6.22-15.64-14.11-4.53Zm10.58-1.79a10.15,10.15,0,0,1-1,6.89c-1.93,3.9-5.32,6.14-7.57,5s-2.52-5.21-.59-9.09,5.32-6.13,7.57-5l.3.18c-2-.62-4.83,1.36-6.46,4.65-1.46,3-1.52,6-.29,7.55a12.1,12.1,0,0,1,1.23-5.06C1167.1,615.27,1170,612.12,1172.71,612.68Z" transform="translate(-666.73 -452.56)"/><path class="cls-2" d="M1152.92,609.66a25,25,0,0,0,2.72-10.31,24.54,24.54,0,0,1-2.11,11.26c-3.64,8.46-10.57,13.66-15.48,11.6a7.18,7.18,0,0,1-.68-.34,6.53,6.53,0,0,0,1.51,1.8,5,5,0,0,0,1.27.77c5.86,2.46,12.26-5.81,14.57-11.18,4.42-10.13,2.92-19.85-3-22.85-4.77-2.4-12,2.34-16,10.57s-3.52,16.86,1.25,19.25,11.94-2.33,16-10.57Zm-14.82-7.74c7-13.95,18.58-13,14.11,4.54.73-14.73-6.22-15.64-14.11-4.54Zm10.58-1.79a10.13,10.13,0,0,1-1,6.9c-1.93,3.89-5.31,6.13-7.56,5s-2.52-5.2-.6-9.09,5.32-6.12,7.57-5a1.83,1.83,0,0,1,.3.18c-2-.63-4.82,1.35-6.46,4.65-1.46,3-1.52,6-.29,7.53a12.32,12.32,0,0,1,1.23-5C1143.07,602.73,1146,599.57,1148.68,600.13Z" transform="translate(-666.73 -452.56)"/><path class="cls-2" d="M1173,574.92a25,25,0,0,0,4.78-9.52A24.18,24.18,0,0,1,1173.4,576c-5.31,7.54-13.16,11.18-17.54,8.15-.2-.15-.4-.31-.59-.48a6.58,6.58,0,0,0,1.11,2.07,4.75,4.75,0,0,0,1.08,1c5.22,3.62,13.2-3.13,16.56-7.9,6.42-9,7-18.82,1.73-23-4.16-3.34-12.16-.2-17.85,7s-6.92,15.77-2.75,19.11,12.16.19,17.86-7Zm-12.9-10.65c9.74-12.2,20.86-8.83,12.87,7.37,3.74-14.25-2.86-16.59-12.87-7.37Zm10.72.44a10.16,10.16,0,0,1-2.46,6.54c-2.68,3.41-6.46,4.89-8.43,3.31s-1.39-5.61,1.3-9,6.46-4.89,8.43-3.31a2,2,0,0,1,.26.24c-1.84-1-5,.32-7.28,3.21-2,2.59-2.73,5.58-1.84,7.31a12.19,12.19,0,0,1,2.25-4.69C1164.8,566.09,1168.28,563.6,1170.83,564.71Z" transform="translate(-666.73 -452.56)"/><path class="cls-2" d="M1193.5,583a34.42,34.42,0,0,0,4-9.7,34.31,34.31,0,0,1-3.75,10.71c-4.2,7.76-10,11.85-12.85,9.13a4,4,0,0,1-.38-.43,6.41,6.41,0,0,0,.65,2,3.75,3.75,0,0,0,.69.94c3.46,3.24,9.49-3.93,12.15-8.84,5.08-9.29,6.07-19,2.66-22.8-2.73-3-8.55.57-13,8s-5.85,16-3.13,19,8.55-.58,13-8Zm-8.41-9.69c7.62-12.65,15.22-10,8.59,6.45,3.53-14.29-1-16.19-8.59-6.45Zm7.51-.24a14.1,14.1,0,0,1-2.13,6.6c-2.1,3.53-4.85,5.23-6.14,3.8s-.62-5.46,1.48-9,4.85-5.23,6.14-3.8l.16.21c-1.23-.9-3.53.64-5.32,3.63-1.6,2.69-2.27,5.69-1.75,7.33a16.44,16.44,0,0,1,1.88-4.77C1188.28,574.8,1190.88,572.13,1192.6,573.07Z" transform="translate(-666.73 -452.56)"/><path class="cls-2" d="M1211.64,546.39a34.27,34.27,0,0,0,6.2-8.43,34,34,0,0,1-6.24,9.46c-5.95,6.51-12.52,9.07-14.67,5.74a4.25,4.25,0,0,1-.27-.52,6.66,6.66,0,0,0,.15,2.07,3.51,3.51,0,0,0,.45,1.08c2.56,4,10.15-1.49,13.92-5.61,7.18-7.77,10.49-17,8.1-21.47-1.9-3.61-8.42-1.53-14.55,4.63s-9.55,14.09-7.64,17.69,8.42,1.53,14.55-4.64Zm-5.8-11.45c10.45-10.41,17.2-6,6.77,8.36,6.88-13,3-15.94-6.77-8.36Zm7.34,1.6a14.14,14.14,0,0,1-3.67,5.88c-2.89,2.92-6,3.89-6.87,2.19s.71-5.44,3.6-8.35,6-3.89,6.88-2.19a2.72,2.72,0,0,1,.11.25c-1-1.17-3.58-.25-6,2.23-2.2,2.21-3.58,5-3.48,6.68a16.87,16.87,0,0,1,3-4.17C1208.57,537.17,1211.74,535.21,1213.18,536.54Z" transform="translate(-666.73 -452.56)"/><path class="cls-2" d="M1188.07,546.12a23.12,23.12,0,0,0,6.07-5.48,23.06,23.06,0,0,1-6.23,6.34c-5.63,3.92-11.26,4.34-12.56.94a2.91,2.91,0,0,1-.16-.5,5.78,5.78,0,0,0-.14,1.79,3.44,3.44,0,0,0,.23,1c1.55,4,8.37,1.43,11.94-1,6.78-4.66,10.62-11.55,9.26-16-1.08-3.56-6.6-3.53-12.33,0s-9.5,9.36-8.41,12.91,6.6,3.53,12.33,0Zm-3.23-11.22c9.76-6,14.64-.52,4.4,8.86,7.21-9.16,4.43-12.68-4.4-8.86Zm5.72,3.3a9.65,9.65,0,0,1-3.7,4c-2.71,1.69-5.32,1.7-5.83,0s1.27-4.41,4-6.1,5.31-1.69,5.82,0l.06.24c-.64-1.25-2.86-1.16-5.16.28-2.06,1.28-3.52,3.23-3.65,4.72a11.13,11.13,0,0,1,2.93-2.73C1186.76,537.51,1189.57,536.69,1190.56,538.2Z" transform="translate(-666.73 -452.56)"/></svg>