<svg id="Layer_1" data-name="Layer 1" xmlns="http://www.w3.org/2000/svg" viewBox="0 0 972.51 1277.02"><defs><style>.cls-1{fill:#1b1b1b;}.cls-1,.cls-2{fill-rule:evenodd;}.cls-2{fill:#fff;}</style></defs><path class="cls-1" d="M792.16,1504.39c-75.9-59.8-163.41-140.44-141.36-238.49-11.12-40.56-4.59-75.44,17.94-106.65,1.44-34.28,18.85-70.77,53.81-92.25,27.36-53.55,64.45-80.78,110.14-83.7,38.75-32.24,86.51-36.12,136.68-19.75,48.85-12.55,101.9-1.72,158.6,39.46,37.92,6.23,77.21,24.65,111.75,60.26,32.83,13,53.71,35.75,64.59,66,18.07,9.76,30.41,26.22,43.1,48.07,10.06,5.91,21.22,10.63,34.68,24.25,14.08,3.82,28.79,7.21,42.62,16.87,10.31-4.43,23.59-8.4,47.32-1.91,5.51-8.4,16-13.48,28-18.91,4.64-17.46,13.41-31.24,24.84-41.38,1.55-19.3,5.88-34.59,13.56-46.14,8.45-70.36-53.2-102.59-119.54-137-24.17-12.53-48.48-25.14-68.68-39.87,16.65,13.4,37.63,26.73,63.75,40.38,59.82,31.27,118.68,62,109.28,124.39a107,107,0,0,0-3.29-13.14c-7.46-23.47-23.12-44.57-48.58-56.26-21.16-9.72-45.35-18.69-70.07-27.85-72.16-26.77-149.18-55.33-170.68-112.5-8.28-22-9.1-44.66-5.31-67.67.54,16.32,5.31,34.61,15.86,56.44-19.5-114.31,53.55-143.53,79.65-253.09-21.44,62.24-54.66,98.61-75.73,133.11,7.4-17.53,16-35.14,24.51-52.71,39.07-80.4,89.05-152.73-3.18-218.1-50.54-35.83-24.88-65.14,35.14-21,23.66,17.39,38.37,37.36,46.71,58.85-9.56-19.22-26.71-35.33-48.63-48.71,47.63,38,54.14,81.09,46,130.31,7.33-16.09,10.79-30.92,11-44.58,4,46.31-12.54,96.48-28.89,141.75-29.3,81.15-46.12,137.69-16,188,22.08,29.67,78.37,47,132.09,63.48,20,6.13,96.67,30.49,99.8,53.85,15.28,2.71,37.25,24.85,40.14,44.59,14.15,4.66,22.27,21.41,23,39.88,13.43,14.61,14.63,35,4.46,60.64,4.53,29.9-8.27,50.94-26,62.08-.63,46.48-80.39,104.81-137.33,107.87,55.31,4.41,97.08-28.73,136-67.43-141.84,204.91-279.5,46.38-428.84-80.57-139-118.13-331.66,77.72-204.25,186.32,64.5,50.19,267.35,172.1,241.69,266.32-32.24,118.35-326.89,133.61-345.09-19.1-7.42-46.81-24.46-80.2-55.2-104.41Zm61.15-354.11c-74.84,57.2-127.15,144.19-116.63,233.38,3.26,27.54,12.45,55.38,28.86,82.78a179.78,179.78,0,0,1-23.18-68.94c-12.41-105.17,72.57-223.71,177.18-269.59,74-25.66,189.06-42.73,257,31.44C1142,1099.62,980,1053.91,853.31,1150.28Z" transform="translate(-645.49 -442.98)"/><path class="cls-2" d="M954.63,1383.37c-60.6-73.25-49.89-150.57-10-206.84C874.05,1255.21,875.94,1314.73,954.63,1383.37Z" transform="translate(-645.49 -442.98)"/><path class="cls-2" d="M1241.18,877c-19.5-114.31,53.55-143.53,79.65-253.09C1278.19,747.67,1189,769.18,1241.18,877Z" transform="translate(-645.49 -442.98)"/><path class="cls-2" d="M723.2,1373.91a53.86,53.86,0,0,0-8.16-19A54.17,54.17,0,0,1,725.23,1375c4.59,16.73.3,30.7-9.56,31.21a11.3,11.3,0,0,1-1.42,0,15.36,15.36,0,0,0,4.4,1.76,10.3,10.3,0,0,0,2.83.26c11.78-.61,11.63-19.18,8.71-29.78-5.38-20.08-19.2-34.79-31.78-35-10.06-.16-15.24,13.24-11.6,29.94s14.73,30.35,24.79,30.51,15.24-13.26,11.6-29.94Zm-31.56-1c-6-28.38,12.6-35.9,26.69-3.73-16.42-24.66-28-20.67-26.69,3.73Zm13.82-11.29c3,2.57,5.51,7,6.62,12.11,1.74,7.89-.72,14.23-5.47,14.15s-10-6.53-11.71-14.41.74-14.21,5.49-14.14c.22,0,.43,0,.65.05-3.79.57-5.66,6-4.2,12.72,1.31,6,4.88,11.06,8.51,12.55a25.94,25.94,0,0,1-4.13-9.25C700.08,1370.33,700.69,1362.89,705.46,1361.66Z" transform="translate(-645.49 -442.98)"/><path class="cls-2" d="M692,1308.59a52.32,52.32,0,0,0,.22-20.46,53,53,0,0,1,1.22,22.22c-2.57,17-12.12,28-21.35,24.5a12.4,12.4,0,0,1-1.29-.58,15,15,0,0,0,3.33,3.33,10.14,10.14,0,0,0,2.49,1.36c11,4.11,18.37-12.78,20-23.54,3.2-20.33-3.51-39.14-15-44.3-9.12-4.12-19.28,6-22.7,22.53s1.24,33.36,10.36,37.49,19.29-6,22.7-22.55Zm-28.49-13.37c6-28.1,26-27.55,25.93,7.2-5-28.86-17.24-29.83-25.93-7.2Zm17.22-4.76c1.68,3.5,2.2,8.58,1.15,13.61-1.59,7.83-6.4,12.6-10.71,10.65s-6.51-9.87-4.89-17.7,6.42-12.59,10.73-10.63a6.58,6.58,0,0,1,.59.3c-3.71-1-7.62,3.21-9,9.85-1.22,6,0,12,2.73,14.76a25.87,25.87,0,0,1-.07-10C672.27,1296.2,675.81,1289.69,680.69,1290.46Z" transform="translate(-645.49 -442.98)"/><path class="cls-2" d="M739.81,1273.21a43,43,0,0,0,5.49-19.88,43,43,0,0,1-4.18,22c-7.49,15.89-22,24.18-32.48,18.5a11.87,11.87,0,0,1-1.44-.89,16.28,16.28,0,0,0,3.25,4.09,12.82,12.82,0,0,0,2.69,2c12.48,6.76,25.84-7.86,30.57-17.93,9.12-19,5.66-39-7.08-46.9-10.14-6.32-25.23,1-33.63,16.25s-7,32.8,3.16,39.11,25.23-1,33.65-16.26ZM708.23,1253c14.47-25.87,39-20.3,30,13.52,1.13-29.39-13.6-33.38-30-13.52Zm22.35-.31c1.15,3.82.5,8.91-2.05,13.55-4,7.23-11.1,10.66-15.89,7.68s-5.48-11.25-1.5-18.47,11.1-10.65,15.91-7.68c.2.14.42.29.64.46-4.29-1.9-10.19,1.21-13.57,7.34-3,5.49-3.06,11.65-.41,15.06a20.85,20.85,0,0,1,2.48-9.78C718.76,1256.2,724.79,1250.75,730.58,1252.72Z" transform="translate(-645.49 -442.98)"/><path class="cls-2" d="M705,1220.15a47.82,47.82,0,0,0,6.1-22.14,47.71,47.71,0,0,1-4.66,24.46c-8.34,17.71-24.53,26.94-36.18,20.63-.56-.31-1.09-.65-1.61-1a18.7,18.7,0,0,0,3.62,4.55,14.38,14.38,0,0,0,3,2.16c13.91,7.55,28.78-8.73,34.05-20,10.14-21.16,6.31-43.46-7.88-52.26-11.32-7-28.11,1.08-37.49,18.11s-7.79,36.55,3.53,43.58,28.12-1.1,37.5-18.13Zm-35.19-22.48c16.12-28.82,43.44-22.61,33.43,15.06,1.26-32.72-15.15-37.19-33.43-15.06Zm24.9-.35c1.28,4.26.56,9.93-2.29,15.1-4.42,8-12.34,11.88-17.69,8.56s-6.1-12.53-1.68-20.57,12.36-11.87,17.72-8.55a7.8,7.8,0,0,1,.72.5c-4.79-2.11-11.35,1.35-15.11,8.18-3.37,6.11-3.42,13-.46,16.78a23.08,23.08,0,0,1,2.77-10.9C681.54,1201.2,688.26,1195.12,694.71,1197.32Z" transform="translate(-645.49 -442.98)"/><path class="cls-2" d="M741.57,1139.62a54.34,54.34,0,0,0,11.3-22.6c-.87,8.14-4.33,17.15-10.25,25.32-12.71,17.48-32,24.61-43.06,15.91a15.59,15.59,0,0,1-1.48-1.33,18.66,18.66,0,0,0,2.88,5.47,14.31,14.31,0,0,0,2.74,2.81c13.21,10.38,32.58-4.49,40.64-15.58,15.39-20.87,16.08-45.31,2.85-57.07-10.58-9.41-30.24-3.58-43.91,13s-16.19,37.68-5.61,47.08,30.21,3.57,43.9-13Zm-32.71-29.89c23.42-28,51.24-16.84,32.43,21.67,8.4-34.71-8.14-42.22-32.43-21.67Zm26.64,3.8c.46,4.77-1.52,10.69-5.68,15.73-6.44,7.84-15.74,10.6-20.72,6.15s-3.81-14.39,2.65-22.22,15.74-10.6,20.75-6.15l.65.65c-4.66-3.06-12.41-.46-17.87,6.19-4.92,6-6.45,13.27-4.14,17.83a26.53,26.53,0,0,1,5.31-11.17C720.63,1115.45,729.1,1110.1,735.5,1113.53Z" transform="translate(-645.49 -442.98)"/><path class="cls-2" d="M803.5,1059.37A63.06,63.06,0,0,0,823,1040.18c-3.86,7.84-10.6,15.79-19.51,22.19-19,13.71-40.81,15.24-48.58,3.43a13.29,13.29,0,0,1-1-1.76,18.42,18.42,0,0,0,.82,6.25,14.88,14.88,0,0,0,1.7,3.6c9.3,14.1,34,4.9,46.08-3.79,23-16.3,32.68-40.35,23.88-55.84-7-12.37-28.69-12.24-48.36.3s-30,32.76-23,45.13,28.71,12.23,48.41-.32ZM782,1020.29c33.61-21.1,57.07-2,24.2,30.84,21.14-32,7.49-44.26-24.2-30.84Zm25.05,11.45c-1.3,4.85-5.46,10.16-11.42,14-9.32,5.94-19.55,6-22.86.16s1.52-15.38,10.82-21.3,19.55-6,22.85-.15a7.31,7.31,0,0,1,.42.84c-3.48-4.36-12.13-4-20,1-7.07,4.5-11.28,11.32-10.64,16.51a30.57,30.57,0,0,1,9.36-9.56C791.62,1029.37,802,1026.49,807.09,1031.74Z" transform="translate(-645.49 -442.98)"/><path class="cls-2" d="M786.65,1188.34a65.12,65.12,0,0,0,14.46-23c-1.94,8.3-6.64,17.47-13.76,25.8-15.24,17.82-35.81,25.08-46,16.23a13.42,13.42,0,0,1-1.35-1.37,16.52,16.52,0,0,0,2.22,5.57,12,12,0,0,0,2.44,2.87c12.08,10.58,33.78-4.58,43.45-15.87,18.41-21.28,22.33-46.17,10.38-58.16-9.53-9.59-30.32-3.64-46.43,13.27s-21.44,38.4-11.91,48,30.32,3.63,46.45-13.28Zm-29.43-30.46c27.56-28.58,54.42-17.15,30.22,22.09,13.1-35.36-2.77-43-30.22-22.09Zm26.67,3.88c-.18,4.86-3,10.89-7.86,16-7.59,8-17.41,10.8-21.92,6.27s-2-14.66,5.62-22.64,17.43-10.8,21.94-6.27c.19.2.39.43.57.66-4.34-3.1-12.56-.47-19,6.32-5.77,6.06-8.29,13.52-6.53,18.15a31.41,31.41,0,0,1,6.88-11.37C768.48,1163.71,777.82,1158.27,783.89,1161.76Z" transform="translate(-645.49 -442.98)"/><path class="cls-2" d="M855,1117.11c10.51-5.22,19.35-12,25.51-19.1-5.77,8-14.82,16-26,22.25-24,13.36-48.82,13.78-55.49.93a13.55,13.55,0,0,1-.8-1.89,18.41,18.41,0,0,0-.2,6.61,12.52,12.52,0,0,0,1.29,3.87c7.94,15.33,37.5,7,52.7-1.45,28.88-15.87,44.16-40.62,37-57.38-5.7-13.39-30.19-14.44-54.68-2.33s-39.72,32.77-34,46.16,30.21,14.43,54.7,2.33Zm-17.2-42.26c41.75-20.34,64.81,1.05,21.79,33.75,29.63-32.51,16.42-46.11-21.79-33.75Zm26.23,13.4c-2.35,5-8,10.4-15.41,14.07-11.58,5.71-23.14,5.22-25.83-1.1s4.48-16.09,16.06-21.8,23.12-5.22,25.82,1.11a5.33,5.33,0,0,1,.32.9c-3.15-4.78-13-4.89-22.79,0-8.79,4.34-14.8,11.28-15,16.76a40.44,40.44,0,0,1,12.32-9.52C847,1084.91,859.18,1082.46,864,1088.25Z" transform="translate(-645.49 -442.98)"/><path class="cls-2" d="M961.67,1083.76a94.61,94.61,0,0,0,33.08-4.41c-9.69,4.17-22.14,6.75-35.37,6.87-28.36.23-49.76-11-47.78-25a15.1,15.1,0,0,1,.46-2,19.86,19.86,0,0,0-4.1,5.54,12.8,12.8,0,0,0-1.24,3.88c-2.35,16.73,27.74,23.38,45.72,23.24,34-.11,61.75-14.06,65.63-31.65,3.13-14-17.09-26.28-45.13-27.36s-53.31,9.45-56.42,23.48,17.11,26.29,45.15,27.37Zm10.53-43.93c47.61,2.07,54.49,31-1.57,38.82,44.56-13.9,41.41-31.61,1.57-38.82Zm14.32,23.58c-5,3.19-13,5.13-21.48,4.8-13.26-.49-22.79-6.29-21.31-12.92s13.39-11.59,26.62-11.09,22.79,6.3,21.31,12.93a8.52,8.52,0,0,1-.26.92c.17-5.53-8.12-10.19-19.37-10.62-10.06-.39-19.29,2.73-22.75,7.3a46.28,46.28,0,0,1,16.15-2.39C974,1052.65,985.89,1056.25,986.52,1063.41Z" transform="translate(-645.49 -442.98)"/><path class="cls-2" d="M909.77,1026.52a99.13,99.13,0,0,0,34.15-9.35c-9.46,5.77-22.15,10.27-36.13,12.27-29.93,4.28-54.57-4.49-55-19.59a14.34,14.34,0,0,1,.11-2.17,20.76,20.76,0,0,0-3.31,6.44,13.31,13.31,0,0,0-.58,4.28c.54,18,33.56,20.77,52.52,18.06,35.94-5,62.69-23.64,63.6-42.77.74-15.27-22.85-25.35-52.67-22.5s-54.62,17.56-55.36,32.83,22.88,25.35,52.7,22.5Zm3.14-47.91c50.67-4.58,63.23,25,5.42,41.24,44.53-21,38-39.28-5.42-41.24Zm19.43,22.87c-4.7,4.09-12.77,7.27-21.83,8.13-14.1,1.36-25.25-3.4-24.88-10.62s12-14.15,26.12-15.5,25.23,3.41,24.88,10.63a7.16,7.16,0,0,1-.13,1c-.83-5.87-10.45-9.61-22.4-8.47-10.71,1-19.87,5.63-22.7,11A48.13,48.13,0,0,1,908,992.78C917.15,991.9,930.36,994,932.34,1001.48Z" transform="translate(-645.49 -442.98)"/><path class="cls-2" d="M1074.66,1086.26a88.57,88.57,0,0,0,30.61,7.65,89.19,89.19,0,0,1-33.7-6.33c-24.64-9.63-38.2-26.72-30.26-38.17a14.51,14.51,0,0,1,1.29-1.57,21.75,21.75,0,0,0-6,3.38,13.72,13.72,0,0,0-2.79,2.93c-9.49,13.67,13.61,29.87,29.24,36,29.49,11.71,59.71,9.24,70.9-4.64,8.94-11.08-3.12-28.68-26.91-39.33s-50.35-10.32-59.3.76,3.14,28.7,26.93,39.35Zm28.65-34.39c40.29,18.31,33.41,45.73-18.61,33.08,44.75,3.4,49.89-13,18.61-33.08Zm1.91,25.39c-5.72,1-13.51-.06-20.72-3.3-11.25-5-17-13.35-12.71-18.58s16.74-5.4,28-.36,16.93,13.36,12.71,18.59c-.19.23-.41.47-.63.69,2.59-4.73-2.5-11.64-12.06-15.9-8.53-3.83-17.91-4.32-22.94-1.56a43,43,0,0,1,15,3.51C1099.19,1063.61,1107.86,1070.84,1105.22,1077.26Z" transform="translate(-645.49 -442.98)"/><path class="cls-2" d="M1029.3,1023a105.65,105.65,0,0,0,34.11,6.46,108.15,108.15,0,0,1-37.55-5c-27.47-8.68-42.58-25.24-33.72-37a14.35,14.35,0,0,1,1.41-1.62,26.39,26.39,0,0,0-6.68,3.61,15,15,0,0,0-3.11,3.05c-10.58,14,15.17,29.32,32.59,34.82,32.86,10.54,66.54,6.89,79-7.42,10-11.42-3.46-28.57-30-38.28s-56.12-8.34-66.07,3.08,3.49,28.58,30,38.29Zm31.93-35.5c44.91,16.72,37.25,44.41-20.74,33.8,49.89,1.65,55.61-15,20.74-33.8Zm2.13,25.31c-6.4,1.25-15.06.47-23.09-2.48-12.56-4.59-18.9-12.69-14.17-18.08s18.65-6.06,31.19-1.46,18.85,12.68,14.15,18.08c-.22.25-.46.48-.7.73,2.9-4.84-2.8-11.55-13.43-15.44-9.53-3.49-20-3.61-25.57-.66a51.68,51.68,0,0,1,16.76,2.93C1056.64,999.37,1066.3,1006.26,1063.36,1012.78Z" transform="translate(-645.49 -442.98)"/><path class="cls-2" d="M1153.07,1057.47a90.52,90.52,0,0,0,24,14.75,95.83,95.83,0,0,1-27.28-14.9c-17.89-14.08-22.81-29.26-11-33.92a13.25,13.25,0,0,1,1.78-.58,30.65,30.65,0,0,0-6.74.18,16.66,16.66,0,0,0-3.7,1c-14.11,5.56-.33,23.27,11,32.2,21.31,16.95,49.17,25.18,64.89,20,12.54-4.09,9.17-19.12-7.55-33.57s-40.45-22.83-53-18.72-9.15,19.13,7.55,33.57Zm39.75-12.43c28.19,24.62,10.66,39.71-30.28,14.85,38.33,16.67,49.71,8,30.28-14.85ZM1184,1061.7a40.89,40.89,0,0,1-17.07-8.81c-7.9-6.82-9.49-13.92-3.57-15.86s17.13,2,25,8.85,9.5,13.91,3.57,15.86c-.26.07-.56.16-.87.23,4.29-2.15,2.61-8.16-4.07-14-6-5.19-14.13-8.54-19.72-8.43a45.52,45.52,0,0,1,11.89,7.1C1184.28,1051.12,1189,1058.49,1184,1061.7Z" transform="translate(-645.49 -442.98)"/><path class="cls-2" d="M1162.49,1122a78.24,78.24,0,0,0,21,14.75,81.31,81.31,0,0,1-23.86-14.9c-15.65-14.08-20-29.27-9.62-33.92a12.81,12.81,0,0,1,1.55-.59,23.65,23.65,0,0,0-5.91.19,13.46,13.46,0,0,0-3.22,1c-12.34,5.55-.28,23.26,9.65,32.18,18.65,17,43,25.19,56.77,20,11-4.09,8-19.13-6.62-33.57s-35.37-22.83-46.32-18.72-8,19.13,6.59,33.57Zm34.77-12.43c24.66,24.62,9.33,39.7-26.5,14.85,33.55,16.67,43.5,8,26.5-14.85Zm-7.75,16.66a34.51,34.51,0,0,1-14.91-8.8c-6.9-6.83-8.3-13.93-3.12-15.86s15,2,21.88,8.84,8.29,13.92,3.11,15.86c-.24.07-.48.16-.74.23,3.72-2.14,2.27-8.17-3.59-14-5.25-5.18-12.34-8.53-17.24-8.42a39.13,39.13,0,0,1,10.41,7.1C1189.79,1115.63,1193.88,1123,1189.51,1126.21Z" transform="translate(-645.49 -442.98)"/><path class="cls-2" d="M1233,1116.15a78.42,78.42,0,0,0,21,14.75A81.27,81.27,0,0,1,1230.1,1116c-15.65-14.08-20-29.25-9.64-33.92a14.55,14.55,0,0,1,1.57-.58,23.06,23.06,0,0,0-5.9.19,12.76,12.76,0,0,0-3.22,1c-12.35,5.56-.29,23.27,9.64,32.2,18.66,17,43,25.17,56.75,20,11-4.08,8-19.13-6.6-33.56s-35.37-22.83-46.34-18.73-8,19.14,6.62,33.58Zm34.76-12.44c24.64,24.62,9.32,39.7-26.49,14.86,33.54,16.66,43.49,8,26.49-14.86Zm-7.75,16.67a34.7,34.7,0,0,1-14.91-8.81c-6.9-6.82-8.32-13.92-3.11-15.86s15,2,21.87,8.85,8.3,13.91,3.12,15.85c-.24.08-.51.17-.77.23,3.75-2.14,2.29-8.17-3.57-14-5.24-5.18-12.34-8.54-17.26-8.42a37.89,37.89,0,0,1,10.41,7.1C1260.27,1109.79,1264.37,1117.16,1260,1120.38Z" transform="translate(-645.49 -442.98)"/><path class="cls-2" d="M1222.4,1178.16a46,46,0,0,0,15.87,11.38,46,46,0,0,1-18-11.07c-11.84-11.56-15.08-26-7.27-32.37a10,10,0,0,1,1.18-.83,14.34,14.34,0,0,0-4.47,1.13,10.92,10.92,0,0,0-2.43,1.47c-9.34,7.56-.22,23.32,7.29,30.65,14.1,13.94,32.52,18.26,42.9,10.9,8.32-5.86,6.08-20.42-5-32.5s-26.73-17.14-35-11.27-6.05,20.43,5,32.51Zm26.27-18c18.66,20.64,7.08,38.19-20,19.12,25.36,11.25,32.89.94,20-19.12Zm-5.83,17.9c-3.66-.44-7.93-2.74-11.28-6.41-5.24-5.7-6.29-12.58-2.37-15.35s11.32-.39,16.54,5.32,6.27,12.58,2.35,15.36c-.17.11-.37.24-.56.34,2.83-2.74,1.74-8.52-2.7-13.37-4-4.34-9.34-6.54-13-5.64a22.51,22.51,0,0,1,7.86,5.42C1243,1167.41,1246.15,1174.12,1242.84,1178Z" transform="translate(-645.49 -442.98)"/><path class="cls-2" d="M1276,1226.91a42.65,42.65,0,0,0,16.37,8.74,42.62,42.62,0,0,1-18.39-8.15c-12.58-9.46-17.33-22.92-10.62-30.06a10.56,10.56,0,0,1,1-1,14,14,0,0,0-4.11,1.7,10.88,10.88,0,0,0-2.16,1.75c-8,8.53,2.44,22.41,10.41,28.4,15,11.45,33,13.05,42,4.57,7.23-6.77,3.44-20.43-8.44-30.51s-27.37-12.76-34.59-6-3.44,20.44,8.44,30.52Zm23-20.91c20,17.25,11,35.68-16.87,21.1,25.38,7.32,31.36-3.61,16.87-21.1Zm-3.53,18c-3.53.09-7.86-1.53-11.45-4.6-5.61-4.75-7.4-11.2-4-14.4s10.74-1.94,16.35,2.83,7.38,11.21,4,14.41a5,5,0,0,1-.48.42c2.37-3,.65-8.43-4.1-12.47-4.26-3.62-9.62-5-13.06-3.62a20.6,20.6,0,0,1,8.1,4.12C1294.43,1213.75,1298.15,1219.78,1295.45,1224Z" transform="translate(-645.49 -442.98)"/><path class="cls-2" d="M1291.82,1178.28a42.55,42.55,0,0,0,16.36,8.74,42.71,42.71,0,0,1-18.39-8.14c-12.58-9.47-17.33-22.92-10.6-30.06a9.21,9.21,0,0,1,1-1,13.7,13.7,0,0,0-4.11,1.7,10.54,10.54,0,0,0-2.16,1.75c-8,8.52,2.46,22.41,10.41,28.4,15,11.44,33,13,42.05,4.56,7.23-6.76,3.44-20.42-8.44-30.5s-27.36-12.77-34.59-6-3.44,20.43,8.45,30.51Zm22.94-20.91c20.07,17.25,11,35.69-16.87,21.1,25.38,7.32,31.37-3.61,16.87-21.1Zm-3.53,18c-3.53.09-7.86-1.53-11.45-4.59-5.62-4.76-7.4-11.22-4-14.41s10.71-1.93,16.33,2.83,7.37,11.21,4,14.41c-.15.15-.33.28-.5.42,2.37-3,.67-8.42-4.1-12.47-4.26-3.61-9.62-5-13-3.61a20.59,20.59,0,0,1,8.07,4.11C1310.21,1165.13,1313.93,1171.14,1311.23,1175.35Z" transform="translate(-645.49 -442.98)"/><path class="cls-2" d="M1321.92,1270a42.69,42.69,0,0,0,16.37,8.73,42.65,42.65,0,0,1-18.42-8.15c-12.56-9.46-17.3-22.91-10.6-30.06a10.47,10.47,0,0,1,1-1,13.91,13.91,0,0,0-4.12,1.7,10.76,10.76,0,0,0-2.15,1.75c-8,8.52,2.44,22.4,10.4,28.4,15,11.45,33,13,42.06,4.56,7.2-6.76,3.44-20.43-8.45-30.5s-27.38-12.77-34.59-6-3.44,20.43,8.45,30.52Zm22.92-20.92c20.07,17.26,11.06,35.69-16.85,21.1,25.38,7.32,31.37-3.61,16.85-21.1Zm-3.52,18c-3.53.09-7.84-1.52-11.43-4.59-5.64-4.76-7.43-11.22-4-14.41s10.73-1.93,16.35,2.83,7.38,11.22,4,14.42c-.15.13-.3.28-.48.41,2.37-3,.66-8.42-4.09-12.46-4.27-3.62-9.62-5-13.06-3.63a20.67,20.67,0,0,1,8.1,4.12C1340.31,1256.87,1344,1262.89,1341.32,1267.09Z" transform="translate(-645.49 -442.98)"/><path class="cls-2" d="M1339.05,1225a43.09,43.09,0,0,0,16.81,8,43,43,0,0,1-18.81-7.38c-13.06-8.94-18.51-22.19-12.17-29.59a9.27,9.27,0,0,1,1-1,13.94,13.94,0,0,0-4,1.86,10,10,0,0,0-2,1.84c-7.56,8.84,3.61,22.28,11.88,28,15.59,10.81,33.65,11.67,42.23,2.83,6.86-7,2.37-20.55-10-30.13s-28-11.63-34.84-4.57-2.38,20.55,10,30.14Zm21.81-21.84c20.94,16.42,12.91,35.21-15.74,21.78,25.73,6.28,31.15-4.89,15.74-21.78Zm-2.59,18.12c-3.5.23-7.9-1.21-11.67-4.13-5.85-4.52-8-10.9-4.74-14.23s10.6-2.37,16.45,2.16,8,10.9,4.75,14.24c-.15.14-.3.29-.48.43,2.22-3.12.24-8.44-4.74-12.28-4.44-3.45-9.86-4.6-13.22-3.09a21,21,0,0,1,8.3,3.79C1356.73,1211.09,1360.75,1217,1358.27,1221.27Z" transform="translate(-645.49 -442.98)"/><path class="cls-2" d="M1388.22,1295.73a39.19,39.19,0,0,0,16.24,1.42,38.54,38.54,0,0,1-17.54-.29c-13.61-3.23-22.88-12.14-20.68-19.89a9.36,9.36,0,0,1,.39-1.09,10.09,10.09,0,0,0-2.46,2.67,7.47,7.47,0,0,0-.91,2.07c-2.62,9.25,11.21,16.62,19.83,18.66,16.3,4,30.82-.69,34.24-10.24,2.74-7.63-5.86-17-19.2-21s-26.38-.94-29.1,6.69,5.87,17,19.19,21Zm9-23.79c22.62,6.82,23.36,24.12-4.2,21.94,22.57-2.64,22.64-13.1,4.2-21.94Zm4.77,15.14c-2.68,1.23-6.66,1.39-10.71.19-6.31-1.86-10.36-6.29-9.08-9.89s7.45-5,13.74-3.16,10.36,6.28,9.07,9.89a5.16,5.16,0,0,1-.21.49c.56-3.14-3-6.77-8.34-8.35-4.79-1.41-9.49-.73-11.54,1.46a19.31,19.31,0,0,1,8,.55C1396.91,1279.46,1402.26,1282.93,1401.94,1287.08Z" transform="translate(-645.49 -442.98)"/><path class="cls-2" d="M1400.35,1253.59a39.1,39.1,0,0,0,16.24,1.41,38.52,38.52,0,0,1-17.57-.28c-13.6-3.23-22.86-12.14-20.68-19.9a9.9,9.9,0,0,1,.39-1.08,10.66,10.66,0,0,0-2.43,2.67,7.69,7.69,0,0,0-.94,2.07c-2.61,9.26,11.21,16.62,19.83,18.67,16.3,4,30.82-.69,34.26-10.26,2.72-7.63-5.88-17-19.2-20.94s-26.38-.94-29.12,6.69,5.87,17,19.22,20.95Zm8.92-23.79c22.62,6.83,23.36,24.12-4.18,22,22.58-2.65,22.62-13.11,4.18-22Zm4.79,15.14c-2.68,1.22-6.68,1.38-10.73.18-6.31-1.85-10.36-6.28-9.08-9.89s7.45-5,13.76-3.16,10.36,6.3,9.06,9.9c-.07.16-.13.33-.2.49.57-3.13-3-6.78-8.36-8.35-4.76-1.41-9.47-.73-11.53,1.47a18.71,18.71,0,0,1,7.94.55C1409,1237.33,1414.39,1240.79,1414.06,1244.94Z" transform="translate(-645.49 -442.98)"/><path class="cls-2" d="M1461.86,1255.27a37.7,37.7,0,0,0,15.5-4.45,36.28,36.28,0,0,1-16.19,6c-13.93,1.85-26.47-3-28-10.92a10.71,10.71,0,0,1-.14-1.12,8.9,8.9,0,0,0-1,3.31,7.5,7.5,0,0,0,.09,2.22c1.8,9.41,17.8,11.26,26.64,10.09,16.74-2.13,27.93-11.54,26.73-21.5-1-8-13.08-13.53-27.1-12.41s-24.57,8.46-23.62,16.42,13.09,13.52,27.1,12.41Zm-2.61-25c23.82-1.75,32.35,13.84,6.12,21.59,19.48-10.4,14.78-20-6.12-21.59Zm11.23,12.19c-1.89,2.07-5.48,3.62-9.73,4-6.61.53-12.34-2.1-12.8-5.85s4.55-7.24,11.17-7.76,12.34,2.09,12.8,5.86c0,.16,0,.35,0,.52-.89-3.07-5.81-5.14-11.43-4.7-5,.4-9,2.69-9.9,5.42a18.73,18.73,0,0,1,7.51-2.31C1462.43,1237.3,1468.92,1238.58,1470.48,1242.5Z" transform="translate(-645.49 -442.98)"/><path class="cls-2" d="M1454.88,1295.14a37.84,37.84,0,0,0,15.52-4.44,36.51,36.51,0,0,1-16.22,5.94c-13.93,1.86-26.45-3-28-10.91a8.69,8.69,0,0,1-.13-1.13,9.39,9.39,0,0,0-1,3.31,7.18,7.18,0,0,0,.09,2.22c1.81,9.41,17.81,11.27,26.65,10.1,16.73-2.13,27.92-11.55,26.7-21.52-.93-8-13.08-13.51-27.07-12.39s-24.6,8.46-23.65,16.42,13.11,13.52,27.11,12.4Zm-2.62-25c23.84-1.75,32.35,13.83,6.14,21.59,19.48-10.41,14.78-20-6.14-21.59Zm11.26,12.18c-1.89,2.07-5.49,3.63-9.73,4-6.62.54-12.37-2.09-12.8-5.86s4.53-7.22,11.14-7.75,12.35,2.1,12.8,5.86a3.05,3.05,0,0,1,0,.52c-.92-3.07-5.81-5.14-11.43-4.69-5,.39-9,2.68-9.93,5.42a18.6,18.6,0,0,1,7.53-2.31C1455.44,1277.18,1461.93,1278.45,1463.52,1282.37Z" transform="translate(-645.49 -442.98)"/><path class="cls-2" d="M1517.46,1279.09a32.44,32.44,0,0,0,11.14-10.52c-1.93,4.25-5.72,8.59-10.95,12.13-11.16,7.56-24.81,8.62-30.45,2.36-.26-.3-.5-.62-.72-.93a8.81,8.81,0,0,0,.9,3.34,8.4,8.4,0,0,0,1.28,1.91c6.73,7.47,21.77,2.26,28.86-2.52,13.5-9,18.14-22,11.65-30.23-5.2-6.57-18.85-6.26-30.52.69s-16.89,17.9-11.71,24.46,18.85,6.25,30.52-.69Zm-15.94-20.75c19.92-11.69,35.9-1.67,17.16,16.3,11.38-17.43,2-23.84-17.16-16.3Zm16.51,5.87c-.53,2.62-2.81,5.52-6.36,7.62-5.51,3.29-12,3.43-14.41.34s0-8.28,5.53-11.55,12-3.42,14.41-.33c.11.14.21.3.32.45-2.48-2.31-7.9-2-12.58.75-4.18,2.5-6.42,6.2-5.72,9a15.75,15.75,0,0,1,5.33-5.23C1508.12,1263.11,1514.5,1261.45,1518,1264.21Z" transform="translate(-645.49 -442.98)"/><path class="cls-2" d="M1515.93,1228.19a34.21,34.21,0,0,0,10.21-10.09,32.45,32.45,0,0,1-10.1,11.52c-10.1,7.45-22.07,9.19-26.73,3.88-.21-.26-.43-.53-.61-.8a7.72,7.72,0,0,0,.66,3,6.36,6.36,0,0,0,1,1.63c5.55,6.33,18.92.79,25.34-3.92,12.19-8.87,16.82-20.85,11.49-27.87-4.24-5.6-16.21-4.54-26.71,2.38s-15.56,17.07-11.3,22.67,16.22,4.55,26.71-2.37Zm-13-17.74c17.91-11.66,31.45-3.57,14.28,13.66,10.71-16.32,2.81-21.55-14.28-13.66Zm14.17,4.33c-.59,2.38-2.7,5.12-5.9,7.22-5,3.28-10.6,3.77-12.6,1.12s.37-7.44,5.33-10.7,10.6-3.77,12.6-1.12c.09.12.18.25.26.38-2.06-1.93-6.81-1.37-11,1.41-3.77,2.48-5.88,5.94-5.38,8.4a16.61,16.61,0,0,1,4.88-5C1508.47,1214.36,1514.11,1212.5,1517.09,1214.78Z" transform="translate(-645.49 -442.98)"/><path class="cls-2" d="M1545.78,1189.79a20.79,20.79,0,0,0,6.79-9.42,20.27,20.27,0,0,1-6.29,10.75c-7.42,7-18.13,8.57-23.9,3.63-.26-.24-.52-.49-.76-.75a9,9,0,0,0,1.39,2.76,9.73,9.73,0,0,0,1.41,1.53c6.9,5.91,17.87.74,22.58-3.67,9-8.27,10-19.43,3.2-26-5.49-5.23-16.35-4.23-24.27,2.21s-9.91,15.93-4.42,21.15,16.34,4.24,24.27-2.21Zm-16.94-16.55c13.56-10.88,28.37-3.33,17,12.75,5.58-15.23-3.22-20.1-17-12.75Zm14.39,4a8.55,8.55,0,0,1-3.55,6.74c-3.74,3.06-8.86,3.53-11.45,1s-1.65-6.94,2.09-10,8.86-3.5,11.45-1c.11.1.24.23.35.35-2.44-1.8-6.75-1.28-9.9,1.31-2.85,2.32-3.9,5.54-2.77,7.84a10.41,10.41,0,0,1,3.2-4.68C1535.09,1176.88,1539.86,1175.15,1543.23,1177.27Z" transform="translate(-645.49 -442.98)"/><path class="cls-2" d="M1567.15,1232.18a28.27,28.27,0,0,0,5.6-13.54,27.4,27.4,0,0,1-4.68,14.95c-6.92,10.83-19,16.53-27,12.73-.37-.19-.74-.39-1.09-.6a10.41,10.41,0,0,0,2.33,2.76,9.19,9.19,0,0,0,2,1.3c9.5,4.55,21-5.45,25.41-12.32,8.4-13,6.9-26.53-2.72-31.83-7.71-4.25-20.12.78-27.76,11.21s-7.59,22.31.09,26.55,20.11-.78,27.75-11.21Zm-23.85-13.56c13.1-17.65,32.26-14,23,9,2.72-20-8.75-22.62-23-9Zm17.78-.32c.7,2.59-.13,6-2.46,9.21-3.59,4.93-9.47,7.31-13.1,5.3s-3.66-7.61,0-12.54,9.47-7.29,13.11-5.29a4.8,4.8,0,0,1,.48.3c-3.29-1.26-8.17.87-11.21,5-2.77,3.75-3.18,7.93-1.29,10.24a13.85,13.85,0,0,1,2.59-6.65C1551.48,1220.72,1556.62,1217,1561.08,1218.3Z" transform="translate(-645.49 -442.98)"/><path class="cls-2" d="M1593.4,1184.52a29.6,29.6,0,0,0,4.9-12.83,29.05,29.05,0,0,1-4.15,14.11c-6,10.36-16.2,16.13-22.84,12.87-.3-.15-.61-.34-.91-.52a9,9,0,0,0,1.91,2.49,7.34,7.34,0,0,0,1.7,1.14c7.92,3.9,17.74-5.86,21.53-12.42,7.25-12.39,6.18-25-1.85-29.61-6.42-3.67-16.94,1.47-23.49,11.48s-6.68,21.1-.28,24.77,16.93-1.47,23.48-11.48Zm-19.87-11.77c11.26-17,27.32-14.23,19.22,7.59,2.57-18.73-7-20.79-19.22-7.59Zm15-1c.54,2.39-.2,5.65-2.2,8.69-3.09,4.72-8.06,7.15-11.08,5.42s-3-7,.13-11.7,8.05-7.15,11.08-5.41a2.19,2.19,0,0,1,.41.26c-2.76-1.07-6.88,1.11-9.51,5.12-2.35,3.6-2.77,7.52-1.2,9.59a14.53,14.53,0,0,1,2.24-6.3C1580.39,1174.4,1584.74,1170.73,1588.49,1171.8Z" transform="translate(-645.49 -442.98)"/><path class="cls-2" d="M1570.05,1140.09a26.85,26.85,0,0,0,1.26-13.53,26.14,26.14,0,0,1-.09,14.6c-3.15,11.38-12.12,19.33-20.07,17.73a9,9,0,0,1-1.11-.29,10.22,10.22,0,0,0,2.75,2,8.34,8.34,0,0,0,2.13.71c9.47,1.92,16.83-9.78,18.83-17,3.85-13.66-1.07-25.59-10.86-28.16-7.82-2.06-17.31,5.35-21.16,16.54s-.65,21.94,7.16,24,17.31-5.36,21.16-16.55Zm-24.38-6.75c6.7-19,24.36-20.1,22.44,2.86-2.94-18.69-13.63-18.44-22.44-2.86Zm15.39-4.4c1.28,2.19,1.5,5.51.33,8.9-1.83,5.3-6.32,8.79-10,7.82s-5.22-6-3.39-11.33,6.31-8.78,10-7.81c.15,0,.33.09.5.16-3.2-.38-6.88,2.68-8.42,7.16-1.39,4-.66,7.9,1.61,9.56a13,13,0,0,1,.48-6.63C1553.35,1133.34,1556.84,1128.78,1561.06,1128.94Z" transform="translate(-645.49 -442.98)"/><path class="cls-2" d="M1606,1125.28a28.66,28.66,0,0,0,0-13.54,28.07,28.07,0,0,1,1.11,14.55c-1.94,11.49-9.57,19.82-17.06,18.58-.35-.06-.7-.15-1-.24a10,10,0,0,0,2.72,1.82,8.19,8.19,0,0,0,2,.62c8.92,1.48,14.73-10.51,16-17.79,2.44-13.79-3.11-25.46-12.38-27.58-7.38-1.69-15.52,6.11-18.18,17.45s1.22,21.88,8.62,23.57,15.55-6.11,18.18-17.44Zm-23.07-5.63c4.61-19.22,20.8-21.11,21,1.84-4.29-18.48-14.13-17.75-21-1.84Zm13.84-5.07c1.37,2.12,1.83,5.41,1,8.85-1.24,5.35-5.07,9-8.57,8.25s-5.32-5.8-4.08-11.14,5.1-9,8.6-8.24l.48.14c-3-.23-6.14,3-7.18,7.52-1,4.07.06,7.9,2.29,9.44a13.74,13.74,0,0,1-.11-6.61C1590,1119.32,1592.84,1114.62,1596.78,1114.58Z" transform="translate(-645.49 -442.98)"/><path class="cls-2" d="M1576.36,1083a30.64,30.64,0,0,0-2.76-14.27,30.7,30.7,0,0,1,4.2,15.14c.32,12.43-6,22.43-14.13,22.35-.37,0-.76,0-1.15-.09a11,11,0,0,0,3.24,1.49,9.11,9.11,0,0,0,2.24.32c9.71.11,13.37-13.46,13.15-21.34-.28-14.92-8.55-26.31-18.74-27-8.14-.59-15.11,9-15.54,21.32s5.83,22.87,14,23.46,15.09-9,15.52-21.33Zm-25.49-2.18c.9-21,17.57-25.64,22.49-1.48-8.34-18.78-18.57-16.4-22.49,1.48Zm13.56-7.6a13,13,0,0,1,2.92,9.16c-.2,5.85-3.48,10.35-7.34,10.07s-6.79-5.23-6.59-11.07,3.5-10.34,7.33-10.07l.55.07c-3.2.24-5.86,4.13-6,9.09-.15,4.43,1.72,8.31,4.4,9.57a14.94,14.94,0,0,1-1.51-7C1558.3,1079.29,1560.3,1073.88,1564.43,1073.2Z" transform="translate(-645.49 -442.98)"/><path class="cls-2" d="M1531.3,1040.25a33.34,33.34,0,0,1-7.38-12.92,32.14,32.14,0,0,0,6.79,14.38c8.12,10.16,19.94,14.89,26.41,10.56a8.43,8.43,0,0,0,.87-.68,8.84,8.84,0,0,1-1.61,2.9,6.6,6.6,0,0,1-1.59,1.43c-7.73,5.18-19.79-3.82-24.92-10.26-9.8-12.15-10.82-25.66-3.12-31.6,6.14-4.74,18.18-.72,26.84,9s10.69,21.44,4.55,26.19-18.17.72-26.84-9Zm19-15.13c-14.85-16.44-31.37-11.4-19.07,10.61-5.92-19.49,3.9-23,19.07-10.61Zm-16,1c-.16,2.61,1.19,6,3.83,8.9,4.09,4.6,9.77,6.49,12.67,4.26s2-7.78-2.16-12.38-9.75-6.48-12.67-4.24c-.13.1-.26.22-.39.33,2.74-1.49,7.49.26,11,4.15,3.11,3.49,4.2,7.59,2.92,10a16.1,16.1,0,0,0-3.48-6.37C1543.36,1027.79,1538.09,1024.49,1534.31,1026.12Z" transform="translate(-645.49 -442.98)"/><path class="cls-2" d="M1494.47,1003.69a37.13,37.13,0,0,1-11.75-7.14,34.46,34.46,0,0,0,12,8.33c11.1,5,22.77,5,26,.11a6,6,0,0,0,.42-.73,5.9,5.9,0,0,1,0,2.51,4.65,4.65,0,0,1-.64,1.48c-3.91,5.86-17.69,2.84-24.75-.31-13.36-5.9-20.24-15.23-16.67-21.63,2.83-5.13,14.35-5.64,25.71-1.15s18.24,12.28,15.41,17.39-14.35,5.62-25.71,1.14Zm8.58-16.14c-19.35-7.54-30.43.7-10.62,12.93-13.54-12.22-7.17-17.45,10.62-12.93Zm-12.47,5.21c1,1.91,3.61,3.92,7.07,5.28,5.35,2.12,10.8,1.88,12.12-.54s-1.89-6.09-7.27-8.2-10.79-1.89-12.14.53c0,.11-.11.22-.16.34,1.55-1.83,6.17-1.91,10.72-.12,4.07,1.61,6.79,4.22,6.83,6.31a17.75,17.75,0,0,0-5.66-3.57C1498.61,991.42,1492.9,990.54,1490.58,992.76Z" transform="translate(-645.49 -442.98)"/><path class="cls-2" d="M1446.39,978.48a39.13,39.13,0,0,1-11.76-5.89,35.56,35.56,0,0,0,11.95,6.88c11.1,4.11,22.75,4.15,26,.09.15-.2.28-.4.41-.61a3.87,3.87,0,0,1,0,2.08,3.61,3.61,0,0,1-.65,1.22c-3.92,4.84-17.7,2.34-24.73-.25-13.37-4.87-20.24-12.58-16.67-17.88,2.83-4.23,14.34-4.64,25.68-.94s18.26,10.14,15.43,14.37-14.36,4.64-25.7.93Zm8.57-13.33c-19.35-6.23-30.45.58-10.64,10.68-13.52-10.09-7.14-14.41,10.64-10.68Zm-12.47,4.31c1,1.57,3.61,3.24,7.08,4.36,5.35,1.75,10.79,1.55,12.12-.45s-1.92-5-7.27-6.78-10.8-1.54-12.15.44c0,.1-.11.2-.15.29,1.54-1.52,6.16-1.58,10.71-.09,4.07,1.32,6.79,3.48,6.84,5.2a18.84,18.84,0,0,0-5.66-2.94C1450.52,968.34,1444.82,967.62,1442.49,969.46Z" transform="translate(-645.49 -442.98)"/></svg>