<svg id="Layer_1" data-name="Layer 1" xmlns="http://www.w3.org/2000/svg" viewBox="0 0 562.82 1149.03"><defs><style>.cls-1{fill:#1b1b1b;}.cls-1,.cls-2{fill-rule:evenodd;}.cls-2{fill:#fff;}</style></defs><path class="cls-1" d="M1340.69,893.19c19.13-22.51,25.48-48.77,17.92-76.83,7.58-24.5,7.19-49.26-16.17-73.31-6.87-27.82-22.09-45.71-45-55-11.81-19.73-30.58-28.39-54.32-30.49-7.28-8.8-20.43-14.57-30.81-16.83-23.95-4-37.52,1.66-48.53-.84-7.13-6.21-17.12-10.11-26.12-11.6-28.47-4.69-37,5.74-47.86,12.58,7.92-10.49,19.45-18.25,34.29-18.61,21.48-32.53,32.7-42.76,51.12-47.67,26.75-7.15,54.55,23.33,106.33,10.11,22.63-5.77,27.33-26.88,20.52-41.29-5.47-11.56-19.92-20.71-32.72-12.06-9.28,6.28-7.6,11.34-7,12.52.91,1.74,5.45,2.2,10.65-.74,6.24-3.53,13.15,2.34,13.78,5.33,2.35,11.26-3.6,16.79-11.93,18.24-44.34,7.71-68.94-41.91-133.6-28.69,24.72-.33,49.08,4.55,80.32,21.85-51.79-25.78-113.59-21.52-157.16,44.81,16.47-30.07,33.92-49.78,53.88-59.7-32.3,13.11-64.11,40.42-88.75,85.79,10.61-3.8,32.26-1.48,45,5.72-10.39-2.86-22.11-2.81-31.79-1-11.66,2.15-23.43,6.94-32.4,14.44-16,13.4-19.88,20.46-35,30.41-34.49,1.62-64,28.27-80.39,76.09-39.31,17.8-44.92,50.61-57.81,82.23-62.7,128.37-33.78,283-.79,374.78,60.24,167.67,160.43,226.48,187.22,387.17,16.43,98.58,213.92,84.68,254.67,52.53-19.9-184.8-338.93-249.26-412.75-408.25,57,87.7,201.36,163.65,255.2,196.84,86.77,53.48,158.69,94.2,177.55,203.55,46.1-164.75-144.8-292-187.5-318.85-37.55-23.65-69.66-55.6-95.18-92.62a388.85,388.85,0,0,1-55.84-122.73c-24.3-93.76-13.9-196.08,41.84-275.56,3.87-5.66,7.88-11.21,12-16.59-12.81,20.81-25.47,45.71-31.41,65.4,32.22,94.72,105,138,210.72,118.36-74.26-8.11-132.54-51.79-155.26-110.39a136.32,136.32,0,0,0,5.84,12.5c11.55,21.62,29.09,40.37,50.21,54.92a189.42,189.42,0,0,0,71.84,29.94c20.83,5.89,40.52,6.7,59.83,1.18,29.39-.64,54.55-10.11,70.56-35.68,25.58-10.35,39.29-33.58,44.74-62ZM1162.23,734.75c21.76,5.5,53.68,12.07,74.71,10.07,6.63,13.52,24.67,33,41.65,44.41a228.87,228.87,0,0,0,6.12,52.61c-5.92,10-15.59,29.31-18.38,42.79-15.87,9.8-31.94,22.74-40.83,37.24-17.35,2.33-34.23,7.19-47.28,18.92-18.1,3.94-37.75-2.2-53.76-1.28-11.92-3-22.39-12.88-34-14-23.89-13.91-43.47-34.9-54.27-59.07a91.62,91.62,0,0,1-7.4-26,120.25,120.25,0,0,0,2.66,31.83c-7.26-26-5.86-48.77,2-67.94,8.79-21.25,31.59-31.43,47.51-49.83C1103.67,742.33,1136.17,747.83,1162.23,734.75Z" transform="translate(-800.18 -527.97)"/><path class="cls-2" d="M1102.27,1354.74a53.8,53.8,0,0,1-13.7-8.52,52.24,52.24,0,0,0,14.23,9.88c12.42,6,23.93,6.46,25.73,1a4.64,4.64,0,0,0,.19-.82,7.56,7.56,0,0,1,.73,2.86,4.36,4.36,0,0,1-.19,1.67c-2.14,6.56-16.63,2.67-24.48-1.15-14.93-7.16-24.47-18-22.85-25.2,1.31-5.74,12.52-5.94,25-.47s21.62,14.58,20.33,20.32-12.51,5.94-25,.47Zm3.71-18.12c-21.32-9.22-29.83-.19-6.69,14.38-16.94-14.35-12.18-20.11,6.69-14.38Zm-10.78,5.54a21.63,21.63,0,0,0,8.53,6.23c5.92,2.6,11.21,2.5,11.83-.21s-3.7-7-9.6-9.59-11.21-2.49-11.83.22c0,.12,0,.25-.05.39,1-2,5.5-2,10.52.21,4.5,2,8,5,8.61,7.39a26.2,26.2,0,0,0-6.64-4.23C1102.74,1340.88,1096.84,1339.7,1095.2,1342.16Z" transform="translate(-800.18 -527.97)"/><path class="cls-2" d="M1052.67,1367.64a53.73,53.73,0,0,1-17.27-7.24,53.78,53.78,0,0,0,18.26,8.93c15.18,4.24,27.82,1.18,28.21-6.85a7.67,7.67,0,0,0,0-1.17,12.36,12.36,0,0,1,1.62,3.66,7.23,7.23,0,0,1,.26,2.32c-.47,9.59-17.31,8.88-26.93,6.2-18.22-5-31.65-16.73-31.9-27-.22-8.21,11.9-12,27-8.56s27.61,12.95,27.82,21.16-11.9,12-27.07,8.56Zm-1.06-25.79c-25.75-5.78-32.46,9.2-3.2,21.67-22.47-14.15-18.91-23.47,3.2-21.67Zm-10.15,10.94a22.53,22.53,0,0,0,11,5.77c7.14,1.65,12.87-.16,12.77-4s-6-8.35-13.13-10-12.87.17-12.77,4a5.09,5.09,0,0,0,0,.54c.49-3.07,5.43-4.45,11.49-3,5.45,1.25,10.07,4.32,11.43,7.34a26.08,26.08,0,0,0-8.39-3.67C1049.3,1348.66,1042.55,1348.94,1041.46,1352.79Z" transform="translate(-800.18 -527.97)"/><path class="cls-2" d="M1113.94,1411.18a54.35,54.35,0,0,1-17.28-7.23,54.22,54.22,0,0,0,18.26,8.91c15.19,4.25,27.82,1.19,28.22-6.85a7.54,7.54,0,0,0,0-1.16,12.45,12.45,0,0,1,1.62,3.65,7.57,7.57,0,0,1,.25,2.32c-.47,9.59-17.31,8.9-26.93,6.2-18.22-5-31.64-16.72-31.9-27-.22-8.21,11.9-12,27-8.57s27.6,13,27.81,21.17-11.9,12-27.06,8.56Zm-1.07-25.79c-25.74-5.77-32.46,9.19-3.2,21.66-22.47-14.15-18.91-23.47,3.2-21.66Zm-10.15,10.93a22.62,22.62,0,0,0,11,5.78c7.15,1.65,12.87-.16,12.77-4s-6-8.35-13.13-10-12.87.17-12.77,4a5.28,5.28,0,0,0,0,.55c.49-3.08,5.43-4.45,11.49-3.05,5.45,1.24,10.07,4.31,11.45,7.33a26.23,26.23,0,0,0-8.41-3.66C1110.56,1392.21,1103.81,1392.47,1102.72,1396.32Z" transform="translate(-800.18 -527.97)"/><path class="cls-2" d="M1174.84,1452a67.67,67.67,0,0,1-16-12.3,67.48,67.48,0,0,0,16.72,14.2c14.46,8.82,27.67,9.93,29.48,2.5a10.06,10.06,0,0,0,.18-1.12,13.8,13.8,0,0,1,1,4,6.9,6.9,0,0,1-.16,2.26c-2.15,8.89-18.92,2.9-28.08-2.69-17.37-10.49-28.74-25.81-27.2-35.57,1.24-7.8,14.06-7.57,28.63.51s25.37,21,24.12,28.77-14.06,7.56-28.63-.52Zm3.48-24.65c-24.78-13.6-34.14-1.61-7,19.41-20-20.45-14.81-28.11,7-19.41Zm-12.08,7.1a28.25,28.25,0,0,0,10,8.94c6.87,3.82,12.93,3.92,13.5.24s-4.5-9.77-11.39-13.58-12.93-3.92-13.51-.24c0,.16,0,.35-.06.53,1-2.74,6.22-2.47,12.07.77,5.23,2.9,9.32,7.25,10.17,10.54a33.39,33.39,0,0,0-7.78-6.12C1174.8,1433,1168,1431.11,1166.24,1434.4Z" transform="translate(-800.18 -527.97)"/><path class="cls-2" d="M1236.86,1498.68a71.27,71.27,0,0,1-13.41-15.58,71,71,0,0,0,13.74,17.61c12.5,11.82,25.15,15.76,28.25,8.81a6.7,6.7,0,0,0,.38-1.06,14.17,14.17,0,0,1,.24,4.11,7.17,7.17,0,0,1-.56,2.2c-3.71,8.31-18.93-1.2-26.87-8.7-15-14.09-23.37-31.66-20.11-41,2.6-7.44,15-4.46,27.77,6.65s21,26.16,18.34,33.59-15,4.45-27.77-6.67Zm7.8-23.58c-21.7-18.75-33-8.94-10.33,17.64-15.81-24.48-9.38-30.93,10.33-17.64Zm-13.06,4.41a30.18,30.18,0,0,0,8.18,11c6,5.26,11.88,6.66,13.11,3.14s-2.65-10.61-8.65-15.85-11.9-6.65-13.13-3.15c0,.16-.1.34-.14.52,1.5-2.49,6.5-1.11,11.61,3.35,4.56,4,7.76,9.17,8,12.59a35.28,35.28,0,0,0-6.5-7.72C1240.21,1480,1233.93,1476.64,1231.6,1479.51Z" transform="translate(-800.18 -527.97)"/><path class="cls-2" d="M1162.74,1395.65a54,54,0,0,1-12.79-9.8,53.87,53.87,0,0,0,13.32,11.32c11.53,7,22.06,7.92,23.52,2,.06-.29.1-.59.14-.89a11.38,11.38,0,0,1,.77,3.16,5.94,5.94,0,0,1-.12,1.81c-1.74,7.08-15.08,2.3-22.39-2.16-13.86-8.37-22.94-20.57-21.7-28.36,1-6.23,11.22-6,22.83.41s20.21,16.71,19.24,22.93-11.21,6-22.82-.41Zm2.77-19.65c-19.77-10.84-27.23-1.29-5.61,15.47-16-16.3-11.81-22.42,5.61-15.47Zm-9.64,5.66a22.45,22.45,0,0,0,8,7.12c5.49,3,10.3,3.14,10.76.19s-3.6-7.78-9.08-10.82-10.31-3.13-10.76-.19a1.43,1.43,0,0,0,0,.42c.8-2.19,5-2,9.59.61,4.19,2.31,7.44,5.78,8.12,8.41a26.36,26.36,0,0,0-6.2-4.88C1162.7,1380.53,1157.27,1379,1155.87,1381.66Z" transform="translate(-800.18 -527.97)"/><path class="cls-2" d="M988.83,1322.06a53.4,53.4,0,0,1-14.89-12,53.35,53.35,0,0,0,15.32,14c13.76,8.49,27.27,9,30.19,1.14a7.62,7.62,0,0,0,.31-1.16,12.52,12.52,0,0,1,.48,4.09,9,9,0,0,1-.48,2.37c-3.49,9.38-20,4-28.7-1.43-16.53-10.1-26.18-25.53-23.2-35.82,2.37-8.21,15.6-8.6,29.55-.87s23.34,20.64,21,28.85-15.6,8.6-29.55.87Zm7-25.92c-23.75-13-35.12,0-10,20.63-17.84-20.38-11.41-28.64,10-20.63Zm-13.5,8c1.54,3.13,4.9,6.49,9.14,8.84,6.6,3.65,12.83,3.46,14-.41s-3.32-10-9.91-13.63-12.83-3.45-14,.42l-.12.55c1.46-2.92,6.77-2.88,12.38.21,5,2.77,8.63,7.11,9,10.51a26.07,26.07,0,0,0-7.18-6C991.41,1302.27,984.64,1300.63,982.35,1304.16Z" transform="translate(-800.18 -527.97)"/><path class="cls-2" d="M1212.06,1438.68a47.84,47.84,0,0,1-10.09-10.39,48.14,48.14,0,0,0,10.37,11.82c9.33,7.75,18.63,9.88,20.77,4.74a4,4,0,0,0,.25-.76,9.22,9.22,0,0,1,.26,2.92,4.94,4.94,0,0,1-.38,1.6c-2.52,6.13-13.82.16-19.74-4.75-11.25-9.25-17.65-21.34-15.46-28.16,1.76-5.45,10.9-4,20.4,3.25s15.77,17.53,14,23-10.89,4-20.39-3.24Zm5.25-17.26c-16.19-12.22-24.2-4.59-7.2,13.16-12-16.63-7.43-21.58,7.2-13.16Zm-9.44,3.85a19.85,19.85,0,0,0,6.16,7.39c4.49,3.44,8.81,4.12,9.64,1.55s-2.13-7.44-6.62-10.85-8.8-4.11-9.63-1.54a2.36,2.36,0,0,0-.1.38c1-1.86,4.72-1.14,8.53,1.76,3.42,2.59,5.84,6.12,6.08,8.55a22.82,22.82,0,0,0-4.88-5.15C1214.15,1425.13,1209.51,1423.09,1207.87,1425.27Z" transform="translate(-800.18 -527.97)"/><path class="cls-2" d="M1034.1,1310.71a54,54,0,0,1-14.89-12.06,53.71,53.71,0,0,0,15.34,14c13.74,8.49,27.25,9,30.17,1.14a7.37,7.37,0,0,0,.33-1.16,12.53,12.53,0,0,1,.46,4.09,7.63,7.63,0,0,1-.48,2.37c-3.47,9.38-20,4-28.68-1.43-16.55-10.1-26.18-25.53-23.22-35.81,2.37-8.21,15.6-8.61,29.55-.88s23.36,20.64,21,28.85-15.62,8.6-29.57.88Zm7-25.92c-23.77-13-35.12,0-10,20.62-17.84-20.38-11.41-28.64,10-20.62Zm-13.52,8c1.56,3.14,4.92,6.5,9.14,8.84,6.6,3.65,12.85,3.46,14-.42s-3.32-10-9.89-13.62-12.85-3.46-14,.42a4.58,4.58,0,0,0-.14.56c1.46-2.92,6.79-2.89,12.38.21,5,2.77,8.65,7.11,9.06,10.51a26.12,26.12,0,0,0-7.2-6C1036.7,1290.91,1029.93,1289.27,1027.62,1292.8Z" transform="translate(-800.18 -527.97)"/><path class="cls-2" d="M977.75,1251.05a56.52,56.52,0,0,1-13-16.1,56.52,56.52,0,0,0,13,18.28c12.6,12.06,26.87,15.55,31.9,7.81a13.27,13.27,0,0,0,.64-1.17,13.75,13.75,0,0,1-.52,4.46,8.17,8.17,0,0,1-1.08,2.42c-6,9.25-22.25-.15-30.25-7.79-15.16-14.38-21.7-32.94-16-43.25,4.52-8.24,18.72-5.77,31.73,5.51s19.88,27.12,15.36,35.35-18.74,5.76-31.75-5.52Zm13.8-26.11c-22.17-19-37.43-7.67-15.66,19.81-14.07-25.63-5.21-33,15.66-19.81Zm-16.35,5.59c.89,3.69,3.65,8,7.6,11.44,6.14,5.33,12.86,6.49,15,2.6s-1.11-11.37-7.25-16.69-12.85-6.49-15-2.6c-.08.18-.18.36-.26.56,2.25-2.8,7.94-1.6,13.15,2.93,4.66,4,7.48,9.47,7.11,13.18a27.83,27.83,0,0,0-6.22-8C985.33,1230.51,978.5,1227.28,975.2,1230.53Z" transform="translate(-800.18 -527.97)"/><path class="cls-2" d="M925.73,1263.53a62.71,62.71,0,0,1-14.18-17.81,62.56,62.56,0,0,0,14.16,20.21c13.82,13.35,29.53,17.27,35.1,8.75a13.31,13.31,0,0,0,.71-1.29,15.7,15.7,0,0,1-.57,4.92,10.14,10.14,0,0,1-1.23,2.66c-6.63,10.16-24.52-.26-33.26-8.73-16.65-15.91-23.75-36.39-17.44-47.72,5-9,20.66-6.27,34.91,6.23s21.76,30,16.74,39-20.67,6.26-34.94-6.22Zm15.34-28.69c-24.33-21.08-41.21-8.64-17.36,21.75-15.38-28.31-5.56-36.42,17.36-21.75Zm-18,6.08c1,4.06,4,8.83,8.29,12.62,6.74,5.91,14.12,7.22,16.49,2.94s-1.15-12.51-7.88-18.42-14.13-7.21-16.5-2.93c-.1.19-.2.4-.3.62,2.51-3.07,8.75-1.73,14.47,3.28,5.12,4.48,8.18,10.47,7.74,14.55a30.21,30.21,0,0,0-6.79-8.82C934.2,1240.94,926.69,1237.34,923,1240.92Z" transform="translate(-800.18 -527.97)"/><path class="cls-2" d="M862.19,1164.18A69.83,69.83,0,0,1,849.83,1139c1.21,8.67,5.1,18.58,11.44,27.91,13.58,20,33.36,29.93,44.2,22.19a14.29,14.29,0,0,0,1.46-1.22,16.41,16.41,0,0,1-2.68,5.39,11.8,11.8,0,0,1-2.67,2.61c-12.91,9.24-33.15-8.85-41.76-21.53-16.44-23.89-18.18-49.66-5.27-60.36,10.29-8.55,30.43.07,45,19.25s18,41.67,7.66,50.21-30.43-.09-45-19.26Zm31.85-27.3c-24.88-32.45-52.54-24.18-31.91,18.69-10-37.54,6.48-43.36,31.91-18.69Zm-26.79.64c-.26,5,2,11.43,6.39,17.25,6.88,9.06,16.37,13.14,21.23,9.09s3.26-14.65-3.61-23.7S874.89,1127,870,1131.07c-.22.18-.43.39-.65.6,4.58-2.62,12.52,1.09,18.34,8.78,5.23,6.88,7.09,14.77,4.92,19.26a33.85,33.85,0,0,0-5.83-12.41C882.37,1141.42,873.57,1134.72,867.25,1137.52Z" transform="translate(-800.18 -527.97)"/><path class="cls-2" d="M926.18,1160.71a80.08,80.08,0,0,1-9.52-25.19,80.53,80.53,0,0,0,8.79,27.91c10.46,20,25.71,29.93,34.06,22.19a10.63,10.63,0,0,0,1.1-1.22,18.16,18.16,0,0,1-2.05,5.39,11.29,11.29,0,0,1-2,2.61c-10,9.24-25.53-8.85-32.15-21.52-12.65-23.9-14-49.67-4.06-60.37,7.91-8.55,23.41.07,34.61,19.25s13.82,41.67,5.9,50.21-23.43-.09-34.63-19.26Zm24.52-27.3c-19.15-32.45-40.45-24.18-24.56,18.69-7.66-37.55,5-43.35,24.56-18.69Zm-20.63.64c-.2,5,1.52,11.42,4.94,17.25,5.27,9.06,12.59,13.13,16.32,9.09s2.51-14.65-2.78-23.7-12.6-13.13-16.35-9.1c-.16.19-.33.4-.49.61,3.53-2.62,9.65,1.09,14.13,8.78,4,6.88,5.45,14.77,3.78,19.26a38.51,38.51,0,0,0-4.49-12.41C941.72,1138,935,1131.25,930.07,1134.05Z" transform="translate(-800.18 -527.97)"/><path class="cls-2" d="M823,1039.75a60.8,60.8,0,0,1,.85-27.77c-3.35,8.28-4.66,18.78-3.22,29.81,3.12,23.64,17.73,40.88,32.66,38.51a16.15,16.15,0,0,0,2.11-.47,20,20,0,0,1-5.51,3.7,15.78,15.78,0,0,1-4,1.21c-17.81,2.83-28.59-21.89-30.57-36.88-3.92-28.33,7.88-52.15,26.44-56.29,14.81-3.32,30.46,12.89,34.95,36.18s-3.89,44.89-18.7,48.21-30.46-12.9-35-36.21Zm46.26-11c-7.88-39.56-40-43.81-41.79,3.3,9.75-37.84,29.28-36.11,41.79-3.3ZM842.08,1018c-2.87,4.33-4,11.08-2.65,18.15,2.11,11,9.5,18.66,16.51,17.1s10.95-11.76,8.82-22.76-9.52-18.65-16.5-17.09c-.32.08-.66.16-1,.27,6-.42,12,6.25,13.78,15.59,1.62,8.37-.67,16.21-5.19,19.32a29.4,29.4,0,0,0,.67-13.57C855.18,1027.87,849.89,1018.17,842.08,1018Z" transform="translate(-800.18 -527.97)"/><path class="cls-2" d="M929.91,1041a70.73,70.73,0,0,0-.71-27.79c2.84,8.28,4,18.8,2.75,29.82-2.67,23.64-15.13,40.88-27.86,38.51a14,14,0,0,1-1.8-.46,17.32,17.32,0,0,0,4.7,3.68,12,12,0,0,0,3.46,1.23c15.18,2.82,24.36-21.91,26.06-36.89,3.33-28.33-6.74-52.14-22.55-56.29-12.64-3.33-26,12.88-29.79,36.18s3.29,44.89,15.93,48.21,26-12.9,29.81-36.2Zm-39.44-11c6.73-39.56,34.07-43.82,35.63,3.29-8.31-37.84-25-36.12-35.63-3.29Zm23.19-10.73c2.43,4.32,3.42,11.07,2.25,18.14-1.79,11-8.11,18.66-14.07,17.1s-9.34-11.75-7.52-22.76,8.11-18.66,14.07-17.08a4.53,4.53,0,0,1,.81.27c-5.07-.43-10.21,6.24-11.75,15.58-1.38,8.36.58,16.21,4.43,19.32a34.58,34.58,0,0,1-.58-13.57C902.47,1029.14,907,1019.44,913.66,1019.27Z" transform="translate(-800.18 -527.97)"/><path class="cls-2" d="M837.83,929A61.45,61.45,0,0,1,845,902c-5.15,7.39-8.85,17.38-10,28.45-2.35,23.71,8,43.54,23.1,44.29a15.39,15.39,0,0,0,2.15,0,19.92,19.92,0,0,1-6.22,2.48,16.33,16.33,0,0,1-4.23.36c-18-.9-22.9-27.24-21.4-42.27,2.65-28.48,19.61-49.31,38.66-49.54,15.22-.21,26.79,18.83,25.84,42.49s-14,43-29.26,43.23S836.88,952.63,837.83,929Zm47.68-1.27c1.32-40.23-29-51-41.56-5.36,18.15-34.93,36.82-29.25,41.56,5.36Zm-24.11-16c-3.79,3.63-6.45,10-6.73,17.17-.45,11.19,5,20.17,12.2,20.08s13.39-9.22,13.82-20.4-5-20.17-12.22-20.08a8.69,8.69,0,0,0-1,.07c5.93.81,10.27,8.56,9.9,18C877,935,873,942.2,867.9,944.31a30,30,0,0,0,3.75-13.1C872,924,869,913.39,861.4,911.63Z" transform="translate(-800.18 -527.97)"/><path class="cls-2" d="M943.28,939.51a71.44,71.44,0,0,0,4.4-27.48c1.28,8.63.45,19.16-2.78,29.81-6.95,22.85-22.39,37.78-34.49,33.35a13.37,13.37,0,0,1-1.68-.77,16.76,16.76,0,0,0,3.95,4.42,11.56,11.56,0,0,0,3.17,1.77c14.46,5.28,28-17.56,32.44-32,8.49-27.36,2.94-52.47-11.88-59.16-11.83-5.35-27.94,8.42-36,30.73s-5,44.76,6.85,50.1,27.93-8.43,36-30.74Zm-36.82-17.36c13.88-37.83,41.6-37.52,34.49,9.11-1.24-38.62-18-39.67-34.49-9.11Zm24.81-6.74c1.6,4.66,1.33,11.47-1.12,18.24-3.79,10.55-11.39,17.05-17,14.52s-7-13.11-3.24-23.65,11.39-17,17-14.51c.24.12.49.25.75.4-4.93-1.25-11.21,4.47-14.43,13.42-2.9,8-2.41,16,.81,19.75A34.71,34.71,0,0,1,916,930.13C918.44,923.29,924.68,914.47,931.27,915.41Z" transform="translate(-800.18 -527.97)"/><path class="cls-2" d="M877.52,812.29a62.62,62.62,0,0,1,12.81-25c-6.64,6.24-12.4,15.3-15.88,25.93-7.42,22.76-1.58,44.17,13,47.82a18.32,18.32,0,0,0,2.12.4,20.57,20.57,0,0,1-6.62,1.21,16.45,16.45,0,0,1-4.22-.46c-17.45-4.37-16.55-31.11-11.83-45.53,8.73-27.36,29.81-44.46,48.53-41,14.95,2.75,22.17,23.63,16.15,46.61s-23,39.4-38,36.64-22.15-23.63-16.12-46.62Zm46.94,8c10-39.13-17.41-55.51-39.52-13.29,25.29-30.68,42.35-21.51,39.52,13.29ZM904.32,799.9c-4.48,2.82-8.46,8.53-10.28,15.51-2.86,10.86.55,20.72,7.62,22s15.08-6.45,17.93-17.31-.58-20.71-7.64-22c-.32-.05-.66-.1-1-.13,5.63,1.95,8.21,10.37,5.8,19.59-2.17,8.25-7.66,14.51-13.13,15.58a30.44,30.44,0,0,0,6.5-12.1C912,814,911.37,803.1,904.32,799.9Z" transform="translate(-800.18 -527.97)"/><path class="cls-2" d="M981.05,843.65a72.75,72.75,0,0,0,10.58-25.91c-.73,8.68-4,18.79-9.54,28.53-12,20.86-30.52,32.26-41.32,25.45a12.68,12.68,0,0,1-1.46-1.1,16.63,16.63,0,0,0,2.84,5.12,11.58,11.58,0,0,0,2.71,2.39c12.89,8.12,31.37-11.38,39-24.6,14.55-25,14.89-50.61,1.95-60.18-10.32-7.66-29.19,2.46-42.17,22.59s-15.1,42.66-4.77,50.32,29.22-2.48,42.19-22.61Zm-32-24.52c22.23-34.08,49.2-28.07,31.59,16,7.64-38-8.45-42.42-31.59-16Zm25.77-1.48c.51,4.89-1.33,11.47-5.25,17.58-6.12,9.52-15.05,14.29-19.92,10.68s-3.87-14.24,2.25-23.75,15-14.28,19.92-10.67a6.23,6.23,0,0,1,.63.54c-4.52-2.23-12,2.06-17.16,10.13-4.64,7.23-6,15.18-3.71,19.46a34.75,34.75,0,0,1,5-12.74C960.51,822.7,968.61,815.39,974.83,817.65Z" transform="translate(-800.18 -527.97)"/><path class="cls-2" d="M977.71,745.37c8-6.82,13.9-14.76,17.25-22.46-2.68,8.48-8.42,17.56-16.68,25.45-17.73,16.89-40.41,22.06-50.7,11.54a17,17,0,0,1-1.36-1.59,18.21,18.21,0,0,0,2,6.12,15.21,15.21,0,0,0,2.41,3.3c12.28,12.56,36.76-.76,48-11.47C1000,736.11,1006,710.43,994,696.41c-9.58-11.22-32.42-7.46-51,8.38s-25.9,37.76-16.31,49,32.42,7.44,51-8.39Zm-29.5-35.53c31.77-26.72,59.9-11.5,31,26.83,16.7-35.59.14-45.53-31-26.83Zm28.45,7.28c-.53,5.07-4,11.07-9.61,15.88-8.79,7.49-19.57,9.26-24.09,4s-1.08-15.64,7.7-23.13,19.57-9.24,24.09-3.94a7.53,7.53,0,0,1,.57.76c-4.44-3.79-13.5-2-21,4.35-6.67,5.68-9.93,13.21-8.37,18.3a31.44,31.44,0,0,1,8.24-11.13C959.92,717.32,970.39,712.71,976.66,717.12Z" transform="translate(-800.18 -527.97)"/><path class="cls-2" d="M1033.74,772.62a63,63,0,0,0,21.18-16.35,63.3,63.3,0,0,1-21.67,19.36c-19.77,10.94-39.8,9.32-44.78-3.62a16.19,16.19,0,0,1-.59-1.91,21,21,0,0,0-.36,6.38,15.64,15.64,0,0,0,.91,3.83c5.92,15.44,30,9.84,42.55,2.91,23.77-13,36.88-35.61,31.63-52.37-4.17-13.41-23.87-16.41-44-6.73s-33.05,28.4-28.89,41.8,23.89,16.38,44,6.7Zm-12.52-42.19c34.28-16.22,52.2,6.31,16.49,34.36,24.91-29,14.69-43.17-16.49-34.36Zm20.71,15.09c-2,4.66-6.77,9.37-12.87,12.3-9.51,4.59-18.81,3.17-20.79-3.16s4.13-15.16,13.64-19.73,18.8-3.15,20.77,3.18a6.74,6.74,0,0,1,.24.88c-2.39-4.86-10.3-5.77-18.38-1.89-7.23,3.48-12.26,9.68-12.62,15a30.77,30.77,0,0,1,10.21-8.19C1028.31,740.89,1038.24,739.53,1041.93,745.52Z" transform="translate(-800.18 -527.97)"/><path class="cls-2" d="M1116,731.14a60.75,60.75,0,0,0,24.6-5.6c-6.77,4.15-15.91,7.07-26,7.87-21.6,1.7-39.57-6.94-40.12-19.31a12.8,12.8,0,0,1,.06-1.75,15.29,15.29,0,0,0-2.31,5.06,11.94,11.94,0,0,0-.38,3.45c.66,14.76,24.6,19,38.31,17.91,25.94-1.9,45.07-15.56,45.46-31.15.34-12.44-16.88-22.08-38.44-21.54s-39.32,11.08-39.64,23.52,16.9,22.08,38.46,21.54Zm1.62-39c36.64-.71,46.14,24.21,4.48,34,32-14.52,27-29.83-4.48-34ZM1132,712c-3.35,3.05-9.16,5.17-15.71,5.33-10.19.26-18.33-4.29-18.17-10.17s8.53-10.85,18.72-11.11,18.32,4.3,18.16,10.19c0,.26,0,.53-.08.81-.69-4.85-7.68-8.48-16.32-8.26-7.74.19-14.34,3.4-16.31,7.59a29.74,29.74,0,0,1,12-3C1120.91,703.29,1130.5,705.81,1132,712Z" transform="translate(-800.18 -527.97)"/><path class="cls-2" d="M1201,728.26a58.33,58.33,0,0,0,21.6.89c-6.22,1.69-14.31,2-23,.5-18.66-3.18-33.13-13.32-32.34-22.65a9.18,9.18,0,0,1,.22-1.31A9.74,9.74,0,0,0,1165,709a7.54,7.54,0,0,0-.67,2.5c-.95,11.15,19.11,19.23,30.94,21.25,22.37,3.93,40.1-2.33,42-13.87,1.54-9.22-12.22-20-30.7-24s-34.73.17-36.27,9.38,12.2,20,30.7,24Zm5.33-28.75c31.4,7,37,27.56.4,26.32,28.8-4.25,26.08-16.71-.4-26.32Zm10.29,17.78c-3.16,1.59-8.35,2-14,.74-8.74-1.9-15.24-7-14.51-11.32s8.39-6.34,17.14-4.43,15.2,7,14.49,11.33c0,.2-.08.4-.14.6-.1-3.76-5.72-7.92-13.15-9.53-6.63-1.45-12.59-.41-14.69,2.3a27.89,27.89,0,0,1,10.53.27C1208,708.47,1216,712.33,1216.66,717.29Z" transform="translate(-800.18 -527.97)"/><path class="cls-2" d="M1051.94,692.4a59.94,59.94,0,0,0,23.3-9.34c-6,5.14-14.47,9.44-24.28,11.79-21,5-40.24-.68-42.92-12.79a17.59,17.59,0,0,1-.26-1.75,15.51,15.51,0,0,0-1.4,5.36,12.09,12.09,0,0,0,.23,3.46c3.2,14.45,27.55,14.9,40.87,11.71,25.27-5.91,41.78-22.36,39.47-37.8-1.84-12.32-20.5-19.15-41.66-15.26s-36.86,17-35,29.36,20.49,19.15,41.67,15.26Zm-5.15-38.68c36-6.4,49.69,16.69,10.31,32.87,29-19.3,21.46-33.63-10.31-32.87Zm17.63,17.35c-2.78,3.53-8.13,6.52-14.57,7.7-10,1.85-18.81-1.39-19.68-7.21s6.53-12,16.52-13.86,18.82,1.39,19.69,7.22a6.79,6.79,0,0,1,.07.81c-1.52-4.67-9.06-7.17-17.55-5.61-7.6,1.4-13.54,5.6-14.76,10a29.13,29.13,0,0,1,11.31-4.77C1051.92,664.17,1061.82,665.17,1064.42,671.07Z" transform="translate(-800.18 -527.97)"/><path class="cls-2" d="M1127.7,673.08a45.38,45.38,0,0,0,18.64-.67,44.48,44.48,0,0,1-20,2.11c-15.9-1.74-27.55-10.47-26-19.48a8.94,8.94,0,0,1,.32-1.26,11.31,11.31,0,0,0-2.45,3.34,8.86,8.86,0,0,0-.81,2.44c-1.79,10.76,14.87,17.11,24.94,18.22,19,2.2,35-5,37.65-16.24,2.15-9-8.83-18.3-24.5-20.87s-30.11,2.59-32.24,11.53,8.82,18.3,24.5,20.88Zm7.12-28c26.62,4.54,29.64,23.85-2,25.22,25.35-6.09,24.09-17.85,2-25.22Zm7.37,16.34c-2.88,1.74-7.42,2.47-12.16,1.68-7.43-1.2-12.6-5.62-11.59-9.85s7.84-6.67,15.24-5.44,12.58,5.63,11.57,9.86l-.18.57c.24-3.59-4.26-7.18-10.54-8.21-5.63-.93-10.88.48-13,3.23a22.21,22.21,0,0,1,9.1-.48C1135.5,653.61,1142,656.76,1142.19,661.47Z" transform="translate(-800.18 -527.97)"/><path class="cls-2" d="M1204.68,681.18a48.93,48.93,0,0,0,18.26.75c-5.25,1.43-12.1,1.68-19.47.43-15.75-2.69-28-11.26-27.32-19.15a7.88,7.88,0,0,1,.17-1.1,8.19,8.19,0,0,0-2.09,2.78,6.36,6.36,0,0,0-.57,2.12c-.79,9.42,16.15,16.25,26.14,18,18.91,3.32,33.9-2,35.52-11.73,1.3-7.79-10.31-16.87-26-20.27s-29.35.14-30.64,7.93,10.33,16.86,26,20.28Zm4.5-24.29c26.55,5.93,31.27,23.29.33,22.23,24.35-3.59,22.06-14.11-.33-22.23Zm8.7,15c-2.68,1.35-7.06,1.67-11.8.64-7.39-1.61-12.88-5.91-12.26-9.58s7.08-5.36,14.47-3.74,12.87,5.89,12.26,9.57c0,.16-.08.33-.14.5-.08-3.17-4.82-6.69-11.09-8-5.61-1.23-10.65-.34-12.42,2a23.46,23.46,0,0,1,8.9.23C1210.58,664.46,1217.29,667.72,1217.88,671.91Z" transform="translate(-800.18 -527.97)"/><path class="cls-2" d="M1278.93,1553.35a44.49,44.49,0,0,1-4.52-13.45,44.59,44.59,0,0,0,4.12,14.85c5,10.77,12.54,16.4,16.75,12.59a4.15,4.15,0,0,0,.57-.61,9.23,9.23,0,0,1-1.07,2.76,4.93,4.93,0,0,1-1,1.31c-5,4.55-12.62-5.37-15.82-12.19-6.08-12.87-6.53-26.38-1.5-31.7,4-4.23,11.65.72,17,11.08s6.53,22.2,2.53,26.43-11.65-.72-17.06-11.07Zm12.42-13.58c-9.26-17.52-19.92-13.81-12.38,9.08-3.5-19.87,2.84-22.55,12.38-9.08Zm-10.27-.26a18.92,18.92,0,0,0,2.31,9.17c2.55,4.89,6.16,7.24,8.06,5.23s1.36-7.59-1.19-12.48-6.16-7.23-8.07-5.23c-.08.09-.16.2-.24.3,1.78-1.26,4.78.85,7,5,1.93,3.72,2.59,7.88,1.72,10.18a21.94,21.94,0,0,0-2.13-6.61C1286.85,1541.89,1283.53,1538.19,1281.08,1539.51Z" transform="translate(-800.18 -527.97)"/><path class="cls-2" d="M1261.22,703.1a45.22,45.22,0,0,0,15.81,6.34,43.25,43.25,0,0,1-17.29-5.66c-13-7.28-20.79-18.64-17.45-25.38a6,6,0,0,1,.53-.92,8.37,8.37,0,0,0-2.82,1.81,6.55,6.55,0,0,0-1.23,1.68c-4,8.06,8.61,19.35,16.82,23.95,15.52,8.81,30.57,8.81,35.38.71,3.83-6.45-3.26-18.06-15.85-25.93s-25.92-9-29.75-2.53,3.25,18.07,15.85,25.93Zm12.36-20c21.34,13.47,19.5,30.24-7.4,19.7,22.7,4.4,24.32-5.59,7.4-19.7Zm2.47,15.94c-2.83.35-6.8-.72-10.62-3.11-6-3.71-9.3-9.2-7.49-12.25s8.12-2.52,14.06,1.19,9.28,9.21,7.48,12.26c-.1.13-.18.27-.27.4,1-2.83-2-7.39-7-10.54-4.52-2.83-9.26-3.61-11.63-2.14a21.89,21.89,0,0,1,7.78,2.95C1272.2,690.21,1277,695.16,1276.05,699Z" transform="translate(-800.18 -527.97)"/><path class="cls-2" d="M1268.27,763.69a50.11,50.11,0,0,0,14.53,13.37c-5.47-2.48-11.33-7.06-16.45-13.22-10.93-13.24-14.41-28.87-7.72-34.93a9.1,9.1,0,0,1,1-.78,9.91,9.91,0,0,0-3.91.84,7.65,7.65,0,0,0-2.09,1.35c-8,7.24.71,24.72,7.66,33.1,13,16,29.55,22,38.5,15.11,7.13-5.54,4.58-21.15-5.71-34.89s-24.38-20.38-31.51-14.84-4.58,21.16,5.69,34.89Zm22.6-17c17.36,23.44,7.76,41.09-17,18.62,22.93,14,29.2,3.73,17-18.62Zm-4.48,18.5c-3.26-.76-7.13-3.54-10.24-7.71-4.86-6.49-6.07-13.87-2.71-16.48s10,.52,14.89,7,6.06,13.85,2.68,16.47c-.16.11-.31.23-.47.33,2.39-2.68,1.18-8.91-2.94-14.41-3.68-4.93-8.53-7.71-11.79-7.06a24.53,24.53,0,0,1,7.19,6.4C1286.16,754,1289.18,761.37,1286.39,765.24Z" transform="translate(-800.18 -527.97)"/><path class="cls-2" d="M1303.71,738a38.45,38.45,0,0,0,11.53,11.3,37.14,37.14,0,0,1-13.17-11.18c-8.53-11.18-10.58-24.4-4.6-29.52a6.38,6.38,0,0,1,.91-.66,8.79,8.79,0,0,0-3.36.7,7.3,7.3,0,0,0-1.86,1.15c-7.14,6.12-.75,20.89,4.64,28,10.17,13.49,23.79,18.63,31.73,12.77,6.34-4.68,5-17.88-2.9-29.49s-19.49-17.22-25.83-12.54-5,17.88,2.91,29.49Zm20-14.33c13.36,19.81,4.28,34.74-15.42,15.74,18.61,11.87,24.5,3.15,15.42-15.74Zm-4.82,15.64c-2.71-.63-5.83-3-8.23-6.52-3.76-5.48-4.37-11.72-1.39-13.94s8.47.44,12.21,5.93,4.36,11.72,1.36,13.93a4.73,4.73,0,0,1-.44.28c2.17-2.27,1.52-7.53-1.68-12.19-2.84-4.16-6.79-6.51-9.57-6a18.58,18.58,0,0,1,5.72,5.41C1319.36,729.83,1321.5,736.07,1318.93,739.34Z" transform="translate(-800.18 -527.97)"/><path class="cls-2" d="M1295.41,819.77a36.51,36.51,0,0,0,5.2,16.38c-3.36-4.11-5.91-10-6.93-17-2.19-14.9,3.41-28.87,12.51-31.2a8.63,8.63,0,0,1,1.31-.25,10.61,10.61,0,0,0-3.85-.82,8.68,8.68,0,0,0-2.57.29c-10.84,2.79-12.93,20.26-11.55,29.7,2.53,17.91,13.43,29.17,24.94,27,9.2-1.74,15.55-15.35,14.23-30.4s-9.87-25.83-19-24.09-15.58,15.36-14.24,30.41Zm28.81-5c2.11,25.62-15.85,36.21-24.9,8.54,12.09,20.15,23.16,14.22,24.9-8.54Zm-14,13.25c-2.41-1.86-4.2-5.6-4.62-10.18-.63-7.11,2.39-13.53,6.72-14.36s8.37,4.27,9,11.38-2.39,13.53-6.73,14.36a5.48,5.48,0,0,1-.6.07c3.54-1.24,5.93-6.73,5.39-12.77-.47-5.4-3.14-9.51-6.3-10.24a17.89,17.89,0,0,1,2.69,7.94C1316.16,818.77,1314.72,825.9,1310.2,828Z" transform="translate(-800.18 -527.97)"/><path class="cls-2" d="M1330,787.11a39.21,39.21,0,0,0,4.48,14.58,36.9,36.9,0,0,1-5.79-15.13c-2.21-13.26,1.32-25.7,7.9-27.77a6.52,6.52,0,0,1,1-.22,6.69,6.69,0,0,0-2.85-.73,5.43,5.43,0,0,0-1.87.26c-7.86,2.48-8.67,18-7.25,26.43,2.57,15.94,11,26,19.41,24,6.67-1.54,10.78-13.66,9.18-27s-8.29-23-15-21.45-10.8,13.67-9.2,27.06Zm20.94-4.48c2.59,22.79-10.17,32.22-17.94,7.6,9.71,17.93,17.59,12.64,17.94-7.6Zm-9.75,11.79c-1.84-1.67-3.32-5-3.81-9.06-.75-6.33,1.18-12,4.34-12.77s6.32,3.79,7.07,10.12-1.18,12-4.34,12.77l-.44.07c2.55-1.11,4.07-6,3.42-11.37-.55-4.8-2.69-8.46-5-9.11a18.91,18.91,0,0,1,2.31,7.07C1345.15,786.23,1344.38,792.57,1341.14,794.42Z" transform="translate(-800.18 -527.97)"/><path class="cls-2" d="M1332.61,848.49a41.32,41.32,0,0,0,.26,14.27,38.48,38.48,0,0,1-1.17-15.07c1.25-12.55,6.91-23,12.64-23.35a4.37,4.37,0,0,1,.81,0A5.26,5.26,0,0,0,1343,823a4,4,0,0,0-1.54-.2c-6.85.43-11,14.34-11.84,22.3-1.56,15,2.92,26.1,10,26.28,5.68.14,11.75-9.89,13.52-22.39s-1.4-22.79-7.09-22.93-11.74,9.89-13.52,22.4Zm17.77.8c-3.12,21.27-15.46,26.86-16.07,2.72,3.67,18.51,11.17,15.55,16.07-2.72Zm-10.48,8.43c-1.09-1.94-1.53-5.3-1-9.11.83-5.91,3.69-10.64,6.37-10.58s4.19,4.92,3.34,10.83-3.69,10.64-6.38,10.58l-.37,0c2.29-.42,4.62-4.5,5.33-9.51.65-4.49-.22-8.31-2-9.43a19.53,19.53,0,0,1,.23,6.93C1345,851.22,1342.9,856.8,1339.9,857.72Z" transform="translate(-800.18 -527.97)"/><path class="cls-2" d="M1284,874.94a33.4,33.4,0,0,0-3.37,15c-.75-4.46,0-10.12,2.33-16.06,5-12.73,15.69-22,23.81-20.75a8,8,0,0,1,1.1.27,7.69,7.69,0,0,0-2.58-2,7.92,7.92,0,0,0-2.12-.65c-9.67-1.53-19.21,11.79-22.4,19.87-6.16,15.25-2.81,28.08,7.1,30.31,7.92,1.79,19-6.94,24.78-19.49s4-24.18-3.85-26-19,6.95-24.8,19.5Zm24.6,5.94c-9.95,21.29-28.66,23.59-23.14-1.78.24,20.37,11.51,19.45,23.14,1.78Zm-16.86,5.78c-1-2.33-.71-6,1-9.78,2.72-5.93,8-10,11.69-9.2s4.56,6.32,1.83,12.25-8,10.05-11.71,9.2c-.17,0-.33-.09-.51-.14,3.32.22,7.64-3.36,10-8.39,2.09-4.51,1.88-8.74-.24-10.42a16.46,16.46,0,0,1-1.49,7.31C1300.53,881.33,1296.18,886.56,1291.74,886.66Z" transform="translate(-800.18 -527.97)"/><path class="cls-2" d="M1303.49,908.62a43.26,43.26,0,0,0-6.89,14,40.14,40.14,0,0,1,6.38-15.24c7.54-11.54,18.52-18.78,24.5-16.15a5.82,5.82,0,0,1,.81.44,6.11,6.11,0,0,0-1.48-2.38,4.7,4.7,0,0,0-1.47-1c-7.14-3.12-18.36,8.23-23.15,15.54-9.14,13.83-10.13,26.89-3,30.75,5.68,3.09,16.84-3.53,24.91-14.76s10-22.87,4.33-25.95-16.85,3.53-24.92,14.77Zm17.57,10c-13.82,19-29.12,18.1-17.61-5.67-5.59,19.89,3.49,20.91,17.61,5.67Zm-14.83,2.76c-.13-2.44,1.13-5.93,3.58-9.35,3.81-5.31,9.08-8.43,11.76-7s1.78,6.94-2,12.24-9.1,8.44-11.79,7c-.09-.07-.23-.14-.33-.22,2.53.78,6.93-2,10.17-6.49,2.88-4,3.93-8.18,2.74-10.18a20.5,20.5,0,0,1-3.26,6.86C1314.6,917.67,1309.73,922,1306.23,921.35Z" transform="translate(-800.18 -527.97)"/><path class="cls-2" d="M1242.25,920.93c-4.54,4.56-7.59,9.12-9,13,.81-4.06,3.6-9,8.22-14.1,9.91-10.84,24.54-18.05,32.69-16.1a11.12,11.12,0,0,1,1.11.34,5.75,5.75,0,0,0-2.06-2,7.53,7.53,0,0,0-2-.79c-9.71-2.33-24.58,8.58-30.86,15.46-12,13-13,24.77-3.32,27.76,7.76,2.39,22.65-4.28,33.27-14.89s13-21.16,5.19-23.54-22.64,4.28-33.28,14.89Zm24,7.77c-18.18,18-38.85,18.16-23.92-3.91-7,18.2,5.25,18.5,23.92,3.91Zm-19.94,3.46c-.25-2.18,1.35-5.38,4.58-8.61,5-5,12.05-8.17,15.72-7s2.57,6.1-2.45,11.12-12.06,8.15-15.71,7c-.18-.06-.34-.11-.5-.18,3.44.54,9.32-2.23,13.57-6.49,3.83-3.81,5.11-7.59,3.47-9.31a17.56,17.56,0,0,1-4.22,6.37C1257.51,928.31,1251,932.53,1246.29,932.16Z" transform="translate(-800.18 -527.97)"/><path class="cls-2" d="M1247.08,955c-5.25,3.83-9,7.87-11,11.51,1.48-3.88,5.05-8.37,10.44-12.69,11.59-9.24,27.23-14.2,35-11.07a6.93,6.93,0,0,1,1,.51,5.28,5.28,0,0,0-1.68-2.32,7,7,0,0,0-1.85-1.09c-9.22-3.74-25.71,4.85-33,10.7-14,11.06-16.94,22.54-7.84,26.92,7.25,3.52,23.06-.87,35.3-9.77s16.29-19,9-22.49-23.08.88-35.32,9.79Zm22.39,11.23c-20.93,15.08-41.38,12.17-23-7.42-10,16.94,2.13,19.06,23,7.42Zm-20.27.46c.11-2.19,2.25-5.13,6-7.83,5.78-4.21,13.25-6.29,16.68-4.62s1.52,6.41-4.26,10.62-13.25,6.26-16.69,4.61l-.43-.25c3.3,1,9.55-.83,14.47-4.4,4.38-3.19,6.3-6.75,4.94-8.67a17.84,17.84,0,0,1-5.2,5.66C1260.92,964.53,1253.82,967.74,1249.2,966.68Z" transform="translate(-800.18 -527.97)"/><path class="cls-2" d="M1198,984.34a32.12,32.12,0,0,1-13.56-4.15c3,2.52,7.86,4.5,13.82,5.42,12.77,2,26.08-1.75,29.69-8.26a7.07,7.07,0,0,0,.44-.93,6.17,6.17,0,0,1,.08,2.78,6.31,6.31,0,0,1-.69,1.85c-4.33,7.78-20.12,8.86-28.22,7.61-15.38-2.26-23.45-10.43-19.54-18.69,3.1-6.6,16.21-10.87,29.28-9.53s21.1,7.77,18,14.38-16.23,10.86-29.3,9.52Zm9.4-20.7c-22.25-2.15-34.69,10.57-11.81,17.79-15.71-9.23-8.58-17.1,11.81-17.79Zm-14.1,9.81c1.23,1.78,4.23,3.18,8.2,3.59,6.16.63,12.36-1.38,13.82-4.5s-2.33-6.16-8.49-6.79-12.36,1.39-13.84,4.5a3.29,3.29,0,0,0-.16.44c1.7-2.53,7-4.11,12.2-3.57,4.68.48,7.86,2.5,8,4.8a15.41,15.41,0,0,0-6.56-2.14C1202.41,969.36,1195.85,970.23,1193.26,973.45Z" transform="translate(-800.18 -527.97)"/><path class="cls-2" d="M1203.71,952.43a24.71,24.71,0,0,1-10.92-.12,22.59,22.59,0,0,0,11.41,1c9.81-1.32,18.66-6.87,19.75-12.42,0-.26.07-.52.09-.78a4.49,4.49,0,0,1,.71,2,4.81,4.81,0,0,1-.06,1.51c-1.3,6.61-12.59,10.79-18.81,11.63-11.79,1.63-19.64-2.6-18.78-9.49.7-5.49,9.28-11.43,19.14-13.25s17.31,1.16,16.62,6.65-9.28,11.43-19.15,13.25Zm1.91-17.15c-16.78,3.2-22.84,15.17-4.38,15.54-13.7-3.37-10.36-10.66,4.38-15.54Zm-7.95,10.2c1.32,1,3.85,1.42,6.85.86,4.66-.86,8.7-3.66,9-6.25s-3.16-4-7.84-3.15-8.7,3.67-9,6.27a2,2,0,0,0,0,.36c.65-2.22,4.13-4.51,8.08-5.24,3.55-.66,6.35.14,7,1.81a11.94,11.94,0,0,0-5.29-.17C1203.37,940.53,1198.79,942.56,1197.67,945.48Z" transform="translate(-800.18 -527.97)"/><path class="cls-2" d="M1140.79,972.38c-5.23-2-9.3-4.69-11.85-7.53,2.19,3.22,6.26,6.38,11.73,8.81,11.73,5.19,25.59,5.08,30.94-.25a8.3,8.3,0,0,0,.69-.79,5.79,5.79,0,0,1-.73,2.7,6.49,6.49,0,0,1-1.21,1.6c-6.39,6.36-21.89,3.3-29.32,0-14.15-6.16-19.54-16.12-13.4-23,4.89-5.54,18.73-6.25,30.9-1.58s18.06,13,13.16,18.49-18.73,6.25-30.91,1.59Zm15-17.49c-20.77-7.83-36.4,1.17-16.48,14.05-12.46-13-3.32-18.67,16.48-14.05Zm-16.39,5.78c.68,2,3.16,4.16,6.86,5.58,5.74,2.21,12.28,1.88,14.59-.74s-.46-6.53-6.22-8.74-12.28-1.87-14.59.75l-.3.38c2.37-2,7.9-2.16,12.77-.28,4.37,1.68,6.84,4.45,6.26,6.68a15.07,15.07,0,0,0-5.66-3.76C1149.38,959.11,1142.84,958.25,1139.4,960.67Z" transform="translate(-800.18 -527.97)"/><path class="cls-2" d="M1095.14,953a22.88,22.88,0,0,1-7.78-7.26c1.17,2.72,3.73,5.65,7.49,8.22,8,5.49,18.47,7.28,23.31,4a5.84,5.84,0,0,0,.65-.5,4.62,4.62,0,0,1-1,1.93,5.21,5.21,0,0,1-1.15,1c-5.78,3.92-17-.49-22.07-4-9.7-6.56-12.26-14.78-6.6-19.16,4.52-3.51,15-2.16,23.5,3s11.63,12.2,7.11,15.7-15.05,2.15-23.5-3Zm13.92-11.11c-14.43-8.72-27.56-4.06-14.53,8.34-7.4-11.44.33-14.5,14.53-8.34ZM1095.87,944c.2,1.61,1.74,3.55,4.31,5.12,4,2.44,8.94,3.08,11.09,1.42s.63-5-3.35-7.4-9-3.08-11.1-1.43a2.26,2.26,0,0,0-.28.25c2.08-1.18,6.26-.56,9.64,1.52,3,1.85,4.48,4.27,3.71,5.88a10.93,10.93,0,0,0-3.71-3.6C1103.59,944.18,1098.81,942.65,1095.87,944Z" transform="translate(-800.18 -527.97)"/></svg>