<svg xmlns="http://www.w3.org/2000/svg" xmlns:xlink="http://www.w3.org/1999/xlink" width="2000" zoomAndPan="magnify" viewBox="0 0 1500 1499.999933" height="2000" preserveAspectRatio="xMidYMid meet" version="1.0"><defs><clipPath id="951678cb6e"><path d="M 122.472656 122.472656 L 1377 122.472656 L 1377 1377.222656 L 122.472656 1377.222656 Z M 122.472656 122.472656 " clip-rule="nonzero"/></clipPath><clipPath id="053f51941a"><path d="M 122.472656 122.472656 L 1377 122.472656 L 1377 1377.222656 L 122.472656 1377.222656 Z M 122.472656 122.472656 " clip-rule="nonzero"/></clipPath></defs><path fill="#000000" d="M 749.714844 218.714844 C 456.878906 218.714844 218.582031 457.011719 218.582031 749.847656 C 218.582031 1042.683594 456.878906 1280.976562 749.714844 1280.976562 C 1042.550781 1280.976562 1280.84375 1042.683594 1280.84375 749.847656 C 1280.84375 457.011719 1042.550781 218.714844 749.714844 218.714844 Z M 749.714844 1276.476562 C 458.730469 1276.476562 223.085938 1040.566406 223.085938 749.847656 C 223.085938 458.863281 458.730469 222.953125 749.714844 222.953125 C 1040.699219 222.953125 1276.34375 458.863281 1276.34375 749.582031 C 1276.34375 1040.832031 1040.699219 1276.476562 749.714844 1276.476562 Z M 749.714844 1276.476562 " fill-opacity="1" fill-rule="nonzero"/><path fill="#000000" d="M 749.714844 1208.429688 C 496.859375 1208.429688 291.132812 1002.703125 291.132812 749.847656 C 291.132812 496.992188 496.859375 291.261719 749.714844 291.261719 C 1002.570312 291.261719 1208.296875 496.992188 1208.296875 749.847656 C 1208.296875 1002.703125 1002.570312 1208.429688 749.714844 1208.429688 Z M 749.714844 296.824219 C 499.769531 296.824219 296.691406 500.167969 296.691406 749.847656 C 296.691406 999.789062 500.035156 1202.871094 749.714844 1202.871094 C 999.394531 1202.871094 1203.003906 999.789062 1203.003906 749.847656 C 1203.003906 499.902344 999.660156 296.824219 749.714844 296.824219 Z M 749.714844 296.824219 " fill-opacity="1" fill-rule="nonzero"/><path fill="#ffffff" d="M 749.714844 250.222656 L 749.714844 290.203125 M 812.199219 254.195312 L 807.167969 293.910156 M 873.890625 266.109375 L 863.832031 304.765625 M 933.730469 285.4375 L 918.902344 322.507812 M 990.390625 312.179688 L 971.0625 347.128906 M 1043.34375 345.804688 L 1019.78125 378.109375 M 1091.796875 385.785156 L 1064.527344 414.910156 M 1134.691406 431.328125 L 1103.976562 456.746094 M 1171.496094 482.164062 L 1137.867188 503.609375 M 1201.679688 537.234375 L 1165.40625 554.179688 M 1224.714844 595.484375 L 1186.585938 607.929688 M 1240.335938 656.117188 L 1201.148438 663.53125 M 1248.277344 718.605469 L 1208.296875 720.988281 M 1248.277344 781.089844 L 1208.296875 778.707031 M 1240.335938 843.574219 L 1201.148438 836.164062 M 1224.714844 904.207031 L 1186.585938 891.765625 M 1201.679688 962.457031 L 1165.40625 945.511719 M 1171.496094 1017.53125 L 1137.867188 996.082031 M 1134.691406 1068.367188 L 1103.976562 1042.949219 M 1091.796875 1113.90625 L 1064.527344 1084.78125 M 1043.34375 1153.886719 L 1019.78125 1121.585938 M 990.390625 1187.511719 L 971.0625 1152.5625 M 933.730469 1214.253906 L 918.902344 1177.1875 M 873.890625 1233.582031 L 863.832031 1194.925781 M 812.199219 1245.5 L 807.167969 1205.78125 M 749.714844 1249.46875 L 749.714844 1209.488281 M 687.230469 1245.5 L 692.257812 1205.78125 M 625.535156 1233.582031 L 635.597656 1194.925781 M 565.699219 1214.253906 L 580.527344 1177.1875 M 509.039062 1187.511719 L 528.367188 1152.5625 M 456.082031 1153.886719 L 479.648438 1121.585938 M 407.628906 1113.90625 L 434.902344 1084.78125 M 364.738281 1068.367188 L 395.449219 1042.949219 M 327.933594 1017.53125 L 361.558594 996.082031 M 297.75 962.457031 L 334.023438 945.511719 M 274.714844 904.207031 L 312.84375 891.765625 M 259.09375 843.574219 L 298.28125 836.164062 M 251.152344 781.089844 L 291.132812 778.707031 M 251.152344 718.605469 L 291.132812 720.988281 M 259.09375 656.117188 L 298.28125 663.53125 M 274.714844 595.484375 L 312.84375 607.929688 M 297.75 537.234375 L 334.023438 554.179688 M 327.933594 482.164062 L 361.558594 503.609375 M 364.738281 431.328125 L 395.449219 456.746094 M 407.628906 385.785156 L 434.902344 414.910156 M 456.082031 345.804688 L 479.648438 378.109375 M 509.039062 312.179688 L 528.367188 347.128906 M 565.699219 285.4375 L 580.527344 322.507812 M 625.535156 266.109375 L 635.597656 304.765625 M 687.230469 254.195312 L 692.257812 293.910156 " fill-opacity="1" fill-rule="nonzero"/><path fill="#000000" d="M 749.714844 1251.851562 C 748.390625 1251.851562 747.332031 1250.792969 747.332031 1249.46875 L 747.332031 1209.488281 C 747.332031 1208.164062 748.390625 1207.105469 749.714844 1207.105469 C 751.039062 1207.105469 752.097656 1208.164062 752.097656 1209.488281 L 752.097656 1249.46875 C 752.097656 1250.792969 751.039062 1251.851562 749.714844 1251.851562 Z M 812.199219 1247.882812 C 811.140625 1247.882812 810.082031 1247.085938 809.816406 1245.761719 L 804.785156 1206.046875 C 804.523438 1204.722656 805.582031 1203.664062 806.90625 1203.398438 C 808.230469 1203.136719 809.289062 1204.195312 809.554688 1205.519531 L 814.582031 1245.234375 C 814.847656 1246.558594 813.789062 1247.617188 812.464844 1247.882812 C 812.464844 1247.882812 812.464844 1247.882812 812.199219 1247.882812 Z M 687.230469 1247.882812 C 687.230469 1247.882812 686.964844 1247.882812 686.964844 1247.882812 C 685.640625 1247.617188 684.84375 1246.558594 684.84375 1245.234375 L 689.875 1205.519531 C 690.140625 1204.195312 691.199219 1203.398438 692.523438 1203.398438 C 693.847656 1203.664062 694.640625 1204.722656 694.640625 1206.046875 L 689.613281 1245.761719 C 689.347656 1247.085938 688.289062 1247.882812 687.230469 1247.882812 Z M 873.890625 1235.964844 C 872.832031 1235.964844 871.773438 1235.171875 871.507812 1234.113281 L 861.449219 1195.457031 C 861.183594 1194.132812 861.976562 1192.808594 863.035156 1192.542969 C 864.359375 1192.277344 865.683594 1193.074219 865.949219 1194.132812 L 876.011719 1232.789062 C 876.273438 1234.113281 875.480469 1235.4375 874.421875 1235.703125 C 874.421875 1235.964844 874.15625 1235.964844 873.890625 1235.964844 Z M 625.535156 1235.964844 C 625.273438 1235.964844 625.273438 1235.964844 625.007812 1235.964844 C 623.683594 1235.703125 622.890625 1234.378906 623.417969 1233.054688 L 633.480469 1194.398438 C 633.746094 1193.074219 635.070312 1192.28125 636.394531 1192.808594 C 637.714844 1193.074219 638.511719 1194.398438 637.980469 1195.722656 L 627.917969 1234.378906 C 627.390625 1235.4375 626.597656 1235.964844 625.535156 1235.964844 Z M 933.730469 1216.636719 C 932.671875 1216.636719 931.878906 1216.109375 931.613281 1215.050781 L 916.785156 1177.980469 C 916.253906 1176.65625 916.785156 1175.332031 918.109375 1174.804688 C 919.433594 1174.273438 920.757812 1174.804688 921.285156 1176.128906 L 936.113281 1213.195312 C 936.644531 1214.519531 936.113281 1215.84375 934.789062 1216.375 C 934.261719 1216.636719 933.996094 1216.636719 933.730469 1216.636719 Z M 565.699219 1216.636719 C 565.433594 1216.636719 565.167969 1216.636719 564.90625 1216.375 C 563.582031 1215.84375 563.050781 1214.519531 563.582031 1213.195312 L 578.40625 1176.128906 C 578.9375 1174.804688 580.261719 1174.273438 581.585938 1174.804688 C 582.910156 1175.332031 583.4375 1176.65625 582.910156 1177.980469 L 568.082031 1215.050781 C 567.550781 1216.109375 566.757812 1216.636719 565.699219 1216.636719 Z M 990.390625 1189.894531 C 989.597656 1189.894531 988.804688 1189.367188 988.273438 1188.574219 L 968.945312 1153.621094 C 968.414062 1152.5625 968.679688 1150.976562 970.003906 1150.445312 C 971.0625 1149.914062 972.652344 1150.179688 973.179688 1151.503906 L 992.507812 1186.453125 C 993.039062 1187.511719 992.773438 1189.101562 991.449219 1189.632812 C 991.1875 1189.894531 990.65625 1189.894531 990.390625 1189.894531 Z M 509.039062 1189.894531 C 508.773438 1189.894531 508.242188 1189.894531 507.980469 1189.632812 C 506.917969 1189.101562 506.390625 1187.511719 506.917969 1186.453125 L 526.246094 1151.503906 C 526.777344 1150.445312 528.367188 1149.914062 529.425781 1150.445312 C 530.484375 1150.976562 531.015625 1152.5625 530.484375 1153.621094 L 511.15625 1188.574219 C 510.625 1189.632812 509.832031 1189.894531 509.039062 1189.894531 Z M 1043.34375 1156.269531 C 1042.550781 1156.269531 1041.757812 1156.003906 1041.492188 1155.210938 L 1017.925781 1122.910156 C 1017.132812 1121.851562 1017.398438 1120.261719 1018.457031 1119.46875 C 1019.515625 1118.671875 1021.105469 1118.9375 1021.898438 1119.996094 L 1045.464844 1152.300781 C 1046.257812 1153.359375 1045.992188 1154.945312 1044.933594 1155.742188 C 1044.40625 1156.269531 1043.875 1156.269531 1043.34375 1156.269531 Z M 456.082031 1156.269531 C 455.554688 1156.269531 455.023438 1156.003906 454.757812 1155.742188 C 453.699219 1154.945312 453.4375 1153.359375 454.230469 1152.300781 L 477.792969 1119.996094 C 478.589844 1118.9375 480.175781 1118.671875 481.238281 1119.46875 C 482.296875 1120.261719 482.5625 1121.851562 481.765625 1122.910156 L 458.203125 1155.210938 C 457.671875 1156.003906 456.878906 1156.269531 456.082031 1156.269531 Z M 1091.796875 1116.289062 C 1091.269531 1116.289062 1090.476562 1116.023438 1089.945312 1115.496094 L 1062.675781 1086.371094 C 1061.878906 1085.3125 1061.878906 1083.988281 1062.675781 1082.929688 C 1063.734375 1082.132812 1065.058594 1082.132812 1066.117188 1082.929688 L 1093.386719 1112.054688 C 1094.179688 1113.113281 1094.179688 1114.4375 1093.386719 1115.496094 C 1092.859375 1116.289062 1092.328125 1116.289062 1091.796875 1116.289062 Z M 407.628906 1116.289062 C 407.101562 1116.289062 406.570312 1116.023438 406.042969 1115.761719 C 404.984375 1114.964844 404.984375 1113.378906 406.042969 1112.320312 L 433.3125 1083.195312 C 434.109375 1082.132812 435.695312 1082.132812 436.753906 1083.195312 C 437.8125 1083.988281 437.8125 1085.578125 436.753906 1086.636719 L 409.484375 1115.761719 C 408.953125 1116.023438 408.425781 1116.289062 407.628906 1116.289062 Z M 1134.691406 1070.75 C 1134.160156 1070.75 1133.632812 1070.484375 1133.101562 1070.21875 L 1102.390625 1044.800781 C 1101.332031 1044.007812 1101.332031 1042.417969 1102.125 1041.359375 C 1102.917969 1040.300781 1104.507812 1040.300781 1105.566406 1041.09375 L 1136.28125 1066.511719 C 1137.339844 1067.308594 1137.339844 1068.894531 1136.546875 1069.953125 C 1136.015625 1070.484375 1135.222656 1070.75 1134.691406 1070.75 Z M 364.738281 1070.75 C 363.941406 1070.75 363.414062 1070.484375 362.882812 1069.957031 C 362.089844 1068.894531 362.089844 1067.570312 363.148438 1066.511719 L 393.863281 1041.09375 C 394.921875 1040.300781 396.246094 1040.300781 397.304688 1041.359375 C 398.097656 1042.417969 398.097656 1043.742188 397.039062 1044.800781 L 366.328125 1070.21875 C 365.796875 1070.484375 365.265625 1070.75 364.738281 1070.75 Z M 1171.496094 1019.914062 C 1170.964844 1019.914062 1170.699219 1019.914062 1170.171875 1019.648438 L 1136.546875 998.203125 C 1135.484375 997.40625 1135.222656 996.082031 1135.75 995.023438 C 1136.546875 993.964844 1137.867188 993.699219 1138.929688 994.230469 L 1172.554688 1015.675781 C 1173.613281 1016.472656 1173.878906 1017.796875 1173.347656 1018.855469 C 1173.082031 1019.382812 1172.289062 1019.914062 1171.496094 1019.914062 Z M 327.933594 1019.914062 C 327.140625 1019.914062 326.347656 1019.382812 325.816406 1018.855469 C 325.023438 1017.796875 325.550781 1016.207031 326.609375 1015.675781 L 360.238281 994.230469 C 361.296875 993.4375 362.882812 993.964844 363.414062 995.023438 C 364.207031 996.082031 363.679688 997.671875 362.621094 998.203125 L 328.992188 1019.648438 C 328.730469 1019.914062 328.464844 1019.914062 327.933594 1019.914062 Z M 1201.679688 964.839844 C 1201.414062 964.839844 1200.882812 964.839844 1200.621094 964.578125 L 1164.347656 947.632812 C 1163.285156 947.101562 1162.757812 945.777344 1163.285156 944.453125 C 1163.816406 943.128906 1165.40625 942.601562 1166.464844 943.394531 L 1202.738281 960.339844 C 1204.0625 960.871094 1204.328125 962.191406 1203.796875 963.515625 C 1203.53125 964.3125 1202.738281 964.839844 1201.679688 964.839844 Z M 297.75 964.839844 C 296.957031 964.839844 295.898438 964.3125 295.632812 963.515625 C 295.101562 962.457031 295.632812 960.871094 296.691406 960.339844 L 332.964844 943.394531 C 334.023438 942.863281 335.613281 943.394531 336.140625 944.453125 C 336.671875 945.511719 336.140625 947.101562 335.082031 947.632812 L 298.808594 964.578125 C 298.28125 964.839844 298.015625 964.839844 297.75 964.839844 Z M 1224.714844 906.589844 C 1224.449219 906.589844 1224.183594 906.589844 1223.917969 906.589844 L 1185.792969 894.148438 C 1184.46875 893.617188 1183.9375 892.292969 1184.203125 891.234375 C 1184.734375 889.910156 1186.058594 889.382812 1187.117188 889.644531 L 1225.242188 902.089844 C 1226.566406 902.621094 1227.097656 903.945312 1226.832031 905.003906 C 1226.832031 906.0625 1225.773438 906.589844 1224.714844 906.589844 Z M 274.714844 906.589844 C 273.65625 906.589844 272.863281 906.0625 272.332031 905.003906 C 271.804688 903.679688 272.597656 902.355469 273.921875 902.089844 L 312.046875 889.644531 C 313.105469 889.382812 314.695312 889.910156 314.960938 891.234375 C 315.226562 892.558594 314.695312 893.882812 313.371094 894.148438 L 275.246094 906.589844 C 274.980469 906.589844 274.980469 906.589844 274.714844 906.589844 Z M 259.09375 845.957031 C 258.035156 845.957031 256.976562 845.164062 256.710938 844.105469 C 256.445312 842.78125 257.242188 841.457031 258.5625 841.191406 L 297.75 833.777344 C 299.074219 833.515625 300.398438 834.308594 300.664062 835.632812 C 300.925781 836.957031 300.132812 838.28125 298.808594 838.546875 L 259.625 845.957031 C 259.359375 845.695312 259.09375 845.957031 259.09375 845.957031 Z M 1240.335938 845.957031 C 1240.070312 845.957031 1240.070312 845.957031 1239.804688 845.957031 L 1200.621094 838.546875 C 1199.296875 838.28125 1198.5 836.957031 1198.765625 835.632812 C 1199.03125 834.308594 1200.089844 833.515625 1201.679688 833.777344 L 1240.863281 841.191406 C 1242.1875 841.457031 1242.984375 842.78125 1242.71875 844.105469 C 1242.453125 845.164062 1241.660156 845.957031 1240.335938 845.957031 Z M 1248.277344 783.472656 L 1208.296875 780.824219 C 1206.972656 780.824219 1205.914062 779.5 1206.179688 778.175781 C 1206.179688 776.855469 1207.238281 776.058594 1208.828125 776.058594 L 1248.808594 778.441406 C 1250.132812 778.441406 1251.191406 779.765625 1250.925781 781.089844 C 1250.660156 782.679688 1249.601562 783.472656 1248.277344 783.472656 Z M 251.152344 783.472656 C 249.828125 783.472656 248.769531 782.414062 248.769531 781.355469 C 248.769531 780.03125 249.5625 778.972656 250.886719 778.707031 L 290.867188 776.324219 C 290.867188 776.324219 290.867188 776.324219 291.132812 776.324219 C 292.453125 776.324219 293.515625 777.382812 293.515625 778.441406 C 293.515625 779.765625 292.71875 780.824219 291.394531 781.089844 Z M 1208.296875 723.371094 C 1206.972656 723.371094 1205.914062 722.3125 1205.914062 721.25 C 1205.914062 719.929688 1206.710938 718.867188 1208.035156 718.605469 L 1248.011719 716.222656 C 1248.011719 716.222656 1248.011719 716.222656 1248.277344 716.222656 C 1249.601562 716.222656 1250.660156 717.28125 1250.660156 718.339844 C 1250.660156 719.664062 1249.867188 720.722656 1248.542969 720.988281 L 1208.296875 723.371094 C 1208.5625 723.371094 1208.5625 723.371094 1208.296875 723.371094 Z M 291.132812 723.371094 C 290.867188 723.371094 290.867188 723.371094 291.132812 723.371094 L 251.152344 720.722656 C 249.828125 720.722656 248.769531 719.398438 249.03125 718.074219 C 249.03125 716.75 250.089844 715.691406 251.679688 715.957031 L 291.660156 718.339844 C 292.984375 718.339844 294.042969 719.664062 293.777344 720.988281 C 293.25 722.3125 292.191406 723.371094 291.132812 723.371094 Z M 1201.148438 666.179688 C 1200.089844 666.179688 1199.03125 665.386719 1198.765625 664.324219 C 1198.5 663.003906 1199.296875 661.679688 1200.621094 661.414062 L 1239.804688 654 C 1241.128906 653.734375 1242.453125 654.53125 1242.71875 655.851562 C 1242.984375 657.175781 1242.1875 658.5 1240.863281 658.765625 L 1201.679688 666.179688 C 1201.414062 666.179688 1201.414062 666.179688 1201.148438 666.179688 Z M 298.28125 666.179688 C 298.015625 666.179688 298.015625 666.179688 297.75 666.179688 L 258.5625 658.765625 C 257.242188 658.5 256.445312 657.175781 256.710938 655.851562 C 256.976562 654.53125 258.300781 653.734375 259.625 654 L 298.808594 661.414062 C 300.132812 661.679688 300.929688 663.003906 300.664062 664.324219 C 300.398438 665.386719 299.339844 666.179688 298.28125 666.179688 Z M 1186.851562 610.3125 C 1185.792969 610.3125 1185 609.78125 1184.46875 608.722656 C 1184.203125 607.398438 1184.734375 606.078125 1186.058594 605.8125 L 1224.183594 593.367188 C 1225.507812 592.835938 1226.832031 593.632812 1227.097656 594.957031 C 1227.625 596.28125 1226.832031 597.605469 1225.507812 597.867188 L 1187.382812 610.3125 C 1187.382812 610.046875 1187.117188 610.3125 1186.851562 610.3125 Z M 312.578125 610.3125 C 312.3125 610.3125 312.046875 610.3125 311.785156 610.3125 L 273.65625 597.867188 C 272.332031 597.339844 271.804688 596.015625 272.066406 594.957031 C 272.597656 593.632812 273.921875 593.101562 274.980469 593.367188 L 313.105469 605.8125 C 314.429688 606.339844 314.960938 607.664062 314.695312 608.722656 C 314.429688 609.519531 313.636719 610.3125 312.578125 610.3125 Z M 1165.667969 556.5625 C 1164.875 556.5625 1163.816406 556.035156 1163.550781 555.238281 C 1163.023438 554.179688 1163.550781 552.59375 1164.609375 552.0625 L 1200.882812 535.117188 C 1201.945312 534.589844 1203.53125 535.117188 1204.0625 536.175781 C 1204.589844 537.234375 1204.0625 538.824219 1203.003906 539.355469 L 1166.730469 556.300781 C 1166.199219 556.5625 1165.933594 556.5625 1165.667969 556.5625 Z M 333.757812 556.5625 C 333.496094 556.5625 332.964844 556.5625 332.699219 556.300781 L 296.425781 539.355469 C 295.367188 538.824219 294.839844 537.5 295.367188 536.175781 C 295.898438 534.851562 297.484375 534.589844 298.542969 535.117188 L 334.820312 552.0625 C 336.140625 552.59375 336.40625 553.917969 335.878906 555.238281 C 335.613281 556.035156 334.820312 556.5625 333.757812 556.5625 Z M 1137.867188 505.992188 C 1137.074219 505.992188 1136.28125 505.726562 1135.75 504.933594 C 1134.957031 503.875 1135.484375 502.285156 1136.546875 501.757812 L 1170.171875 480.308594 C 1171.230469 479.515625 1172.820312 480.046875 1173.347656 481.105469 C 1174.140625 482.164062 1173.613281 483.753906 1172.554688 484.28125 L 1138.929688 505.726562 C 1138.664062 505.726562 1138.132812 505.992188 1137.867188 505.992188 Z M 361.558594 505.992188 C 361.03125 505.992188 360.765625 505.992188 360.238281 505.726562 L 326.609375 484.28125 C 325.550781 483.488281 325.285156 482.164062 325.816406 481.105469 C 326.609375 480.046875 327.933594 479.78125 328.992188 480.308594 L 362.621094 501.757812 C 363.679688 502.550781 363.941406 503.875 363.414062 504.933594 C 363.148438 505.464844 362.355469 505.992188 361.558594 505.992188 Z M 1103.714844 459.394531 C 1102.917969 459.394531 1102.390625 459.128906 1101.859375 458.597656 C 1101.066406 457.539062 1101.066406 456.214844 1102.125 455.15625 L 1132.839844 429.738281 C 1133.898438 428.945312 1135.222656 428.945312 1136.28125 430.003906 C 1137.074219 431.0625 1137.074219 432.386719 1136.015625 433.445312 L 1105.300781 458.863281 C 1105.039062 459.128906 1104.242188 459.394531 1103.714844 459.394531 Z M 395.714844 459.394531 C 395.1875 459.394531 394.65625 459.128906 394.128906 458.863281 L 363.414062 433.445312 C 362.355469 432.652344 362.355469 431.0625 363.148438 430.003906 C 363.941406 428.945312 365.53125 428.945312 366.589844 429.738281 L 397.304688 455.15625 C 398.363281 455.949219 398.363281 457.539062 397.570312 458.597656 C 397.039062 458.863281 396.246094 459.394531 395.714844 459.394531 Z M 435.167969 417.292969 C 434.636719 417.292969 433.84375 417.03125 433.3125 416.5 L 406.042969 387.375 C 405.246094 386.316406 405.246094 384.992188 406.042969 383.933594 C 407.101562 383.140625 408.425781 383.140625 409.484375 383.933594 L 436.753906 413.058594 C 437.550781 414.117188 437.550781 415.441406 436.753906 416.5 C 436.226562 417.03125 435.695312 417.292969 435.167969 417.292969 Z M 1064.261719 417.292969 C 1063.734375 417.292969 1063.203125 417.03125 1062.675781 416.765625 C 1061.613281 415.96875 1061.613281 414.382812 1062.675781 413.324219 L 1089.945312 384.199219 C 1090.738281 383.140625 1092.328125 383.140625 1093.386719 384.199219 C 1094.445312 384.992188 1094.445312 386.582031 1093.386719 387.640625 L 1066.117188 416.765625 C 1065.585938 417.03125 1065.058594 417.292969 1064.261719 417.292969 Z M 1019.78125 380.492188 C 1019.25 380.492188 1018.722656 380.226562 1018.457031 379.960938 C 1017.398438 379.167969 1017.132812 377.578125 1017.925781 376.519531 L 1041.492188 344.21875 C 1042.285156 343.160156 1043.875 342.894531 1044.933594 343.6875 C 1045.992188 344.484375 1046.257812 346.070312 1045.464844 347.128906 L 1021.898438 379.433594 C 1021.371094 379.960938 1020.574219 380.492188 1019.78125 380.492188 Z M 479.648438 380.492188 C 478.855469 380.492188 478.058594 380.226562 477.792969 379.433594 L 454.230469 347.128906 C 453.4375 346.070312 453.699219 344.484375 454.757812 343.6875 C 455.820312 342.894531 457.40625 343.160156 458.203125 344.21875 L 481.765625 376.519531 C 482.5625 377.578125 482.296875 379.167969 481.238281 379.960938 C 480.441406 380.226562 480.175781 380.492188 479.648438 380.492188 Z M 971.0625 349.511719 C 970.796875 349.511719 970.269531 349.511719 970.003906 349.25 C 968.945312 348.71875 968.414062 347.128906 968.945312 346.070312 L 988.273438 311.121094 C 988.804688 310.0625 990.390625 309.53125 991.449219 310.0625 C 992.507812 310.59375 993.039062 312.179688 992.507812 313.238281 L 973.179688 348.1875 C 972.652344 348.984375 971.859375 349.511719 971.0625 349.511719 Z M 528.367188 349.511719 C 527.570312 349.511719 526.777344 348.984375 526.246094 348.1875 L 506.917969 313.238281 C 506.390625 312.179688 506.65625 310.59375 507.980469 310.0625 C 509.039062 309.53125 510.625 309.796875 511.15625 311.121094 L 530.484375 346.070312 C 531.015625 347.128906 530.75 348.71875 529.425781 349.25 C 529.160156 349.511719 528.628906 349.511719 528.367188 349.511719 Z M 918.902344 324.890625 C 918.636719 324.890625 918.375 324.890625 918.109375 324.625 C 916.785156 324.09375 916.253906 322.769531 916.785156 321.449219 L 931.613281 284.378906 C 932.140625 283.054688 933.464844 282.527344 934.789062 283.054688 C 936.113281 283.585938 936.644531 284.910156 936.113281 286.234375 L 921.285156 323.300781 C 920.757812 324.359375 919.960938 324.890625 918.902344 324.890625 Z M 580.527344 324.890625 C 579.46875 324.890625 578.671875 324.359375 578.40625 323.300781 L 563.582031 286.234375 C 563.050781 284.910156 563.582031 283.585938 564.90625 283.054688 C 566.226562 282.527344 567.550781 283.054688 568.082031 284.378906 L 582.910156 321.449219 C 583.4375 322.769531 582.910156 324.09375 581.585938 324.625 C 581.054688 324.890625 580.789062 324.890625 580.527344 324.890625 Z M 864.09375 307.148438 C 863.832031 307.148438 863.832031 307.148438 863.566406 307.148438 C 862.242188 306.886719 861.449219 305.5625 861.976562 304.238281 L 872.039062 265.582031 C 872.304688 264.257812 873.628906 263.460938 874.953125 263.992188 C 876.273438 264.257812 877.070312 265.582031 876.539062 266.90625 L 866.214844 305.296875 C 865.949219 306.355469 865.15625 307.148438 864.09375 307.148438 Z M 635.332031 307.148438 C 634.273438 307.148438 633.214844 306.355469 632.949219 305.296875 L 622.890625 266.640625 C 622.625 265.316406 623.417969 263.992188 624.476562 263.726562 C 625.800781 263.460938 627.125 264.257812 627.390625 265.316406 L 637.453125 303.972656 C 637.714844 305.296875 636.921875 306.621094 635.863281 306.886719 C 635.863281 307.148438 635.597656 307.148438 635.332031 307.148438 Z M 807.433594 296.292969 C 807.433594 296.292969 807.167969 296.292969 807.167969 296.292969 C 805.847656 296.03125 805.050781 294.96875 805.050781 293.644531 L 810.082031 253.929688 C 810.347656 252.605469 811.40625 251.546875 812.730469 251.8125 C 814.054688 252.078125 814.847656 253.136719 814.847656 254.460938 L 809.816406 294.175781 C 809.554688 295.5 808.492188 296.292969 807.433594 296.292969 Z M 691.996094 296.292969 C 690.933594 296.292969 689.875 295.5 689.613281 294.175781 L 684.582031 254.460938 C 684.316406 253.136719 685.375 252.078125 686.699219 251.8125 C 688.023438 251.546875 689.082031 252.605469 689.347656 253.929688 L 694.378906 293.644531 C 694.640625 294.96875 693.582031 296.03125 692.257812 296.292969 C 692.257812 296.292969 692.257812 296.292969 691.996094 296.292969 Z M 749.714844 292.585938 C 748.390625 292.585938 747.332031 291.527344 747.332031 290.203125 L 747.332031 250.222656 C 747.332031 248.898438 748.390625 247.839844 749.714844 247.839844 C 751.039062 247.839844 752.097656 248.898438 752.097656 250.222656 L 752.097656 290.203125 C 752.097656 291.527344 751.039062 292.585938 749.714844 292.585938 Z M 749.714844 292.585938 " fill-opacity="1" fill-rule="nonzero"/><path fill="#000000" d="M 749.714844 1196.25 C 503.742188 1196.25 303.3125 996.082031 303.3125 749.847656 C 303.3125 503.609375 503.742188 303.707031 749.714844 303.707031 C 995.6875 303.707031 1196.117188 503.875 1196.117188 749.847656 C 1196.117188 995.820312 995.6875 1196.25 749.714844 1196.25 Z M 749.714844 325.683594 C 515.65625 325.683594 325.550781 516.054688 325.550781 749.847656 C 325.550781 983.90625 515.921875 1174.011719 749.714844 1174.011719 C 983.507812 1174.011719 1173.878906 983.90625 1173.878906 749.847656 C 1173.878906 515.789062 983.773438 325.683594 749.714844 325.683594 Z M 749.714844 325.683594 " fill-opacity="1" fill-rule="nonzero"/><path fill="#000000" d="M 805.847656 651.882812 L 806.375 652.410156 L 806.90625 652.410156 L 807.171875 650.558594 Z M 778.574219 640.761719 L 779.105469 641.027344 L 779.898438 641.027344 L 779.632812 639.171875 Z M 735.152344 641.027344 L 764.011719 641.027344 L 749.714844 637.054688 Z M 749.714844 635.464844 L 749.183594 637.054688 L 750.242188 637.054688 Z M 829.675781 669.886719 L 829.941406 670.414062 L 830.46875 670.679688 L 831 669.089844 Z M 791.8125 648.441406 L 816.964844 663.003906 L 806.375 652.410156 Z M 807.433594 650.824219 L 806.109375 651.882812 L 806.640625 652.410156 L 807.167969 652.410156 Z M 778.574219 640.761719 L 779.105469 641.027344 L 779.898438 641.027344 L 779.632812 639.171875 Z M 831 669.355469 L 829.410156 669.886719 L 829.675781 670.414062 L 816.703125 663.003906 L 837.089844 683.390625 L 847.414062 693.980469 L 847.945312 694.507812 L 849.003906 693.1875 L 889.25 643.144531 Z M 791.8125 648.441406 L 816.964844 663.003906 L 806.375 652.410156 Z M 807.433594 650.824219 L 806.109375 651.882812 L 806.640625 652.410156 L 807.167969 652.410156 Z M 849.535156 693.1875 L 889.777344 643.144531 L 831 669.355469 L 829.410156 669.886719 L 829.675781 670.414062 L 816.703125 663.003906 L 837.089844 683.390625 L 851.386719 708.542969 L 858.800781 721.515625 L 859.066406 722.046875 L 860.652344 720.988281 L 912.550781 682.859375 Z M 861.183594 721.25 L 913.078125 683.125 L 849.535156 693.1875 L 847.679688 693.449219 L 847.679688 693.980469 L 837.355469 683.390625 L 851.652344 708.542969 L 859.066406 736.609375 L 863.035156 751.171875 L 863.300781 751.699219 L 865.15625 751.171875 L 924.992188 727.871094 Z M 924.992188 727.871094 L 861.183594 720.988281 L 859.328125 720.722656 L 859.328125 721.515625 L 851.917969 708.542969 L 859.328125 736.609375 L 859.328125 765.734375 L 851.917969 793.800781 L 859.328125 780.558594 L 859.328125 781.089844 L 861.183594 780.824219 L 924.992188 774.207031 L 865.15625 750.90625 Z M 924.992188 774.46875 L 865.15625 751.171875 L 863.300781 750.640625 L 863.035156 751.171875 L 859.066406 736.609375 L 859.066406 765.734375 L 851.652344 793.800781 L 847.679688 808.097656 L 847.679688 808.625 L 849.535156 808.890625 L 913.078125 818.953125 L 860.917969 781.089844 Z M 912.8125 819.21875 L 860.917969 781.089844 L 859.59375 780.03125 L 859.328125 780.558594 L 851.917969 793.800781 L 837.617188 818.6875 L 830.203125 831.660156 L 829.675781 832.457031 L 831.265625 833.25 L 890.042969 859.460938 L 849.535156 809.15625 Z M 849.535156 809.15625 L 848.472656 807.832031 L 847.945312 808.363281 L 851.917969 794.0625 L 837.617188 818.953125 L 816.964844 839.605469 L 829.941406 831.925781 L 829.410156 832.71875 L 831 833.515625 L 889.777344 859.726562 Z M 806.375 849.929688 L 806.109375 850.195312 L 807.433594 851.253906 L 807.167969 849.664062 Z M 816.964844 839.339844 L 829.941406 831.660156 L 837.355469 818.6875 Z M 829.941406 831.660156 L 829.410156 832.457031 L 831 833.25 L 830.203125 831.394531 Z M 806.375 849.929688 L 816.964844 839.339844 L 791.8125 853.902344 Z M 807.167969 851.519531 L 806.90625 849.929688 L 806.109375 850.195312 L 805.847656 850.460938 Z M 778.574219 861.582031 L 779.632812 863.167969 L 779.898438 861.316406 L 779.105469 861.316406 Z M 791.8125 853.902344 L 806.109375 849.929688 L 816.703125 839.339844 Z M 806.375 849.929688 L 806.109375 850.195312 L 807.433594 851.253906 L 807.167969 849.664062 Z M 779.105469 861.316406 L 792.078125 853.902344 L 764.277344 861.316406 Z M 779.632812 863.167969 L 779.898438 861.316406 L 779.105469 861.316406 L 778.574219 861.582031 Z M 749.183594 865.289062 L 749.714844 866.875 L 750.242188 865.289062 Z M 764.277344 861.316406 L 779.105469 861.316406 L 792.078125 853.902344 Z M 778.574219 861.582031 L 779.632812 863.167969 L 779.898438 861.316406 L 779.105469 861.316406 Z M 749.183594 865.289062 L 749.714844 866.875 L 750.242188 865.289062 Z M 719.53125 861.316406 L 719.796875 863.167969 L 720.855469 861.582031 L 720.324219 861.316406 Z M 749.714844 865.289062 L 749.183594 865.289062 L 749.714844 866.875 L 750.242188 865.289062 Z M 707.617188 853.902344 L 720.589844 861.316406 L 735.417969 861.316406 Z M 719.796875 863.167969 L 720.855469 861.582031 L 720.324219 861.316406 L 719.53125 861.316406 Z M 692.523438 849.664062 L 692.257812 851.253906 L 693.582031 850.195312 L 693.316406 849.929688 Z M 707.617188 853.902344 L 720.589844 861.316406 L 735.417969 861.316406 Z M 719.53125 861.316406 L 719.796875 863.167969 L 720.855469 861.582031 L 720.324219 861.316406 Z M 693.054688 849.929688 L 707.351562 853.902344 L 682.199219 839.339844 Z M 692.257812 851.519531 L 693.582031 850.460938 L 693.320312 850.195312 L 692.523438 849.929688 Z M 668.960938 831.394531 L 668.164062 833.25 L 669.753906 832.457031 L 669.222656 831.660156 Z M 682.460938 839.339844 L 693.054688 849.929688 L 707.351562 853.902344 Z M 692.523438 849.664062 L 692.257812 851.253906 L 693.582031 850.195312 L 693.316406 849.929688 Z M 669.488281 831.660156 L 682.460938 839.339844 L 661.8125 818.6875 Z M 668.164062 833.25 L 669.753906 832.457031 L 669.222656 831.660156 L 668.695312 831.394531 Z M 650.953125 807.566406 L 649.894531 808.890625 L 651.75 808.625 L 651.75 808.097656 Z M 662.074219 818.6875 L 669.488281 831.660156 L 682.460938 839.339844 Z M 668.960938 831.394531 L 668.164062 833.25 L 669.753906 832.457031 L 669.222656 831.660156 Z M 650.953125 807.566406 L 649.894531 808.890625 L 651.75 808.625 L 651.75 808.097656 Z M 638.511719 781.089844 L 640.363281 781.355469 L 640.363281 780.824219 L 640.097656 780.296875 Z M 651.484375 808.097656 L 650.953125 807.566406 L 649.894531 808.890625 L 651.75 808.625 Z M 640.097656 780.558594 L 647.511719 793.800781 L 640.097656 765.734375 Z M 638.511719 781.089844 L 640.363281 781.355469 L 640.363281 780.824219 L 640.097656 780.296875 Z M 634.273438 751.171875 L 636.128906 751.699219 L 636.394531 751.171875 L 636.128906 750.640625 Z M 640.097656 765.734375 L 640.097656 780.558594 L 647.511719 793.800781 Z M 638.511719 781.089844 L 640.363281 781.355469 L 640.363281 780.824219 L 640.097656 780.296875 Z M 636.394531 751.171875 L 640.363281 765.734375 L 640.363281 736.609375 Z M 640.097656 721.78125 L 640.097656 720.988281 L 638.246094 721.25 L 639.835938 722.3125 Z M 634.273438 751.171875 L 636.128906 751.699219 L 636.394531 751.171875 L 636.128906 750.640625 Z M 649.894531 693.1875 L 650.953125 694.511719 L 651.484375 693.980469 L 651.484375 693.449219 Z M 640.097656 736.609375 L 647.511719 708.542969 L 640.097656 721.515625 Z M 640.097656 765.734375 L 640.097656 736.609375 L 636.128906 751.171875 Z M 638.246094 721.25 L 639.835938 722.3125 L 640.097656 721.78125 L 640.097656 720.988281 Z M 634.273438 751.171875 L 636.128906 751.699219 L 636.394531 751.171875 L 636.128906 750.640625 Z M 668.429688 669.355469 L 668.960938 670.945312 L 669.488281 670.679688 L 669.753906 670.152344 Z M 647.777344 708.542969 L 662.074219 683.390625 L 651.75 693.980469 Z M 649.894531 693.1875 L 650.953125 694.511719 L 651.484375 693.980469 L 651.484375 693.449219 Z M 640.097656 736.609375 L 647.511719 708.542969 L 640.097656 721.515625 Z M 638.246094 721.25 L 639.835938 722.3125 L 640.097656 721.78125 L 640.097656 720.988281 Z M 691.996094 650.824219 L 692.257812 652.675781 L 692.789062 652.675781 L 693.320312 652.144531 Z M 668.960938 670.945312 L 669.488281 670.679688 L 669.753906 670.152344 L 668.164062 669.621094 Z M 647.777344 708.542969 L 662.074219 683.390625 L 651.75 693.980469 Z M 649.894531 693.1875 L 650.953125 694.511719 L 651.484375 693.980469 L 651.484375 693.449219 Z M 719.796875 639.171875 L 719.53125 641.027344 L 720.324219 641.027344 L 720.855469 640.761719 Z M 682.460938 663.003906 L 707.617188 648.441406 L 693.054688 652.410156 Z M 691.996094 650.824219 L 692.257812 652.675781 L 692.789062 652.675781 L 693.320312 652.144531 Z M 668.960938 670.945312 L 669.488281 670.679688 L 669.753906 670.152344 L 668.164062 669.621094 Z M 749.714844 635.464844 L 749.183594 637.054688 L 750.242188 637.054688 Z M 707.617188 648.441406 L 735.417969 641.027344 L 720.589844 641.027344 Z M 719.796875 639.171875 L 719.53125 641.027344 L 720.324219 641.027344 L 720.855469 640.761719 Z M 682.460938 663.003906 L 707.617188 648.441406 L 693.054688 652.410156 Z M 691.996094 650.824219 L 692.257812 652.675781 L 692.789062 652.675781 L 693.320312 652.144531 Z M 779.632812 639.171875 L 778.574219 640.761719 L 779.105469 641.027344 L 779.898438 641.027344 Z M 735.152344 641.027344 L 764.011719 641.027344 L 749.714844 637.054688 Z M 749.714844 635.464844 L 749.183594 637.054688 L 750.242188 637.054688 Z M 707.617188 648.441406 L 735.417969 641.027344 L 720.589844 641.027344 Z M 719.796875 639.171875 L 719.53125 641.027344 L 720.324219 641.027344 L 720.855469 640.761719 Z M 719.796875 639.171875 " fill-opacity="1" fill-rule="nonzero"/><path fill="#000000" d="M 865.15625 751.171875 L 924.992188 727.871094 L 1142.371094 751.171875 L 924.992188 774.46875 Z M 865.15625 751.171875 " fill-opacity="1" fill-rule="nonzero"/><path fill="#000000" d="M 861.183594 721.25 L 913.078125 683.125 L 1129.132812 648.96875 L 924.992188 727.871094 Z M 861.183594 721.25 " fill-opacity="1" fill-rule="nonzero"/><path fill="#000000" d="M 1129.132812 853.371094 L 912.8125 819.21875 L 860.917969 781.089844 L 924.992188 774.46875 Z M 1129.132812 853.371094 " fill-opacity="1" fill-rule="nonzero"/><path fill="#000000" d="M 849.535156 693.1875 L 889.777344 642.878906 L 1089.679688 553.652344 L 913.078125 683.125 Z M 849.535156 693.1875 " fill-opacity="1" fill-rule="nonzero"/><path fill="#000000" d="M 849.535156 809.15625 L 912.8125 819.21875 L 1089.679688 948.691406 L 890.042969 859.460938 Z M 849.535156 809.15625 " fill-opacity="1" fill-rule="nonzero"/><path fill="#000000" d="M 829.675781 832.457031 L 830.203125 831.660156 L 817.230469 839.339844 L 806.640625 849.929688 L 807.433594 849.664062 L 807.699219 851.253906 L 806.375 850.195312 L 806.640625 849.929688 L 792.34375 853.902344 L 779.367188 861.316406 L 780.164062 861.316406 L 779.898438 863.167969 L 778.839844 861.582031 L 779.367188 861.316406 L 764.542969 861.316406 L 792.34375 853.902344 L 817.496094 839.339844 L 838.148438 818.6875 L 852.445312 793.800781 L 859.859375 765.734375 L 859.859375 736.609375 L 852.445312 708.542969 L 838.148438 683.390625 L 817.761719 663.003906 L 792.609375 648.441406 L 807.167969 652.410156 L 806.640625 651.882812 L 807.964844 650.824219 L 807.699219 652.675781 L 807.167969 652.675781 L 817.761719 663.265625 L 830.734375 670.679688 L 830.46875 670.152344 L 832.058594 669.621094 L 890.835938 643.410156 L 1028.253906 472.367188 L 858.269531 610.578125 L 946.96875 409.617188 L 818.027344 587.542969 L 852.179688 370.164062 L 772.75 575.097656 L 749.714844 356.398438 L 726.679688 575.097656 L 648.042969 369.636719 L 682.199219 587.011719 L 553.253906 409.085938 L 641.953125 610.046875 L 471.96875 471.835938 L 609.386719 642.878906 L 409.484375 553.652344 L 586.351562 683.125 L 370.296875 648.96875 L 574.4375 727.871094 L 357.058594 751.171875 L 574.699219 774.46875 L 370.5625 853.371094 L 586.617188 819.21875 L 409.75 948.691406 L 609.652344 859.460938 L 472.234375 1030.503906 L 642.21875 892.292969 L 553.519531 1093.253906 L 682.460938 915.59375 L 648.308594 1132.707031 L 726.679688 927.507812 L 749.714844 1146.210938 L 773.015625 927.507812 L 851.386719 1132.707031 L 817.230469 915.59375 L 946.175781 1093.253906 L 857.476562 892.292969 L 1027.460938 1030.503906 L 890.042969 859.460938 L 831.265625 833.25 Z M 779.898438 641.027344 L 779.105469 641.027344 L 778.574219 640.761719 L 779.632812 639.171875 Z M 693.582031 651.882812 L 693.054688 652.410156 L 707.617188 648.441406 L 720.589844 641.027344 L 719.796875 641.027344 L 720.058594 639.171875 L 721.121094 640.761719 L 720.589844 641.027344 L 735.417969 641.027344 L 749.980469 637.054688 L 749.449219 637.054688 L 749.980469 635.464844 L 750.507812 637.054688 L 749.980469 637.054688 L 764.277344 641.027344 L 735.417969 641.027344 L 707.617188 648.441406 L 682.460938 663.003906 L 693.054688 652.410156 L 692.523438 652.410156 L 692.257812 650.558594 Z M 669.753906 669.886719 L 669.488281 670.414062 L 668.960938 670.679688 L 668.429688 669.089844 Z M 636.394531 751.171875 L 636.128906 751.699219 L 634.273438 751.171875 L 636.128906 750.640625 L 636.394531 751.171875 L 640.363281 736.609375 L 640.363281 721.78125 L 640.097656 722.3125 L 638.511719 721.25 L 640.363281 720.988281 L 640.363281 721.78125 L 647.777344 708.808594 L 651.75 694.246094 L 651.21875 694.773438 L 650.160156 693.449219 L 652.015625 693.714844 L 652.015625 694.246094 L 662.339844 683.652344 L 648.042969 708.808594 L 640.628906 736.875 L 640.628906 765.996094 L 648.042969 794.0625 L 640.628906 780.824219 L 640.628906 781.355469 L 638.777344 781.089844 L 640.097656 780.03125 L 640.363281 780.558594 L 640.363281 765.734375 Z M 650.953125 807.566406 L 651.484375 808.097656 L 651.484375 808.625 L 649.632812 808.890625 Z M 720.855469 861.582031 L 719.796875 863.167969 L 719.53125 861.316406 L 720.324219 861.316406 L 707.351562 853.902344 L 693.054688 849.929688 L 693.320312 850.195312 L 691.996094 851.253906 L 692.257812 849.664062 L 693.054688 849.929688 L 682.460938 839.339844 L 669.488281 831.660156 L 670.019531 832.457031 L 668.429688 833.25 L 669.222656 831.394531 L 669.753906 831.660156 L 662.339844 818.6875 L 682.992188 839.339844 L 708.144531 853.902344 L 735.945312 861.316406 L 721.121094 861.316406 Z M 749.183594 865.289062 L 750.242188 865.289062 L 749.714844 866.875 Z M 749.183594 865.289062 " fill-opacity="1" fill-rule="nonzero"/><path fill="#000000" d="M 749.714844 749.847656 L 845.296875 599.457031 L 1085.445312 414.382812 Z M 749.714844 749.847656 L 599.324219 654.265625 L 414.25 414.117188 Z M 749.714844 749.847656 L 654.132812 900.238281 L 413.984375 1085.3125 Z M 749.714844 749.847656 L 900.105469 845.429688 L 1085.179688 1085.578125 Z M 749.714844 749.847656 " fill-opacity="1" fill-rule="nonzero"/><path fill="#000000" d="M 413.984375 1089.546875 C 412.925781 1089.546875 411.601562 1089.019531 410.808594 1088.222656 C 409.484375 1086.636719 409.484375 1084.253906 411.074219 1082.664062 L 743.09375 750.640625 L 596.941406 657.972656 C 596.414062 657.707031 596.148438 657.441406 595.882812 656.914062 L 410.808594 416.765625 C 409.484375 414.910156 409.75 412.527344 411.335938 411.203125 C 412.925781 409.882812 415.308594 409.882812 416.898438 411.46875 L 748.921875 743.492188 L 841.589844 597.339844 C 841.855469 596.808594 842.121094 596.542969 842.648438 596.28125 L 1082.796875 411.203125 C 1084.386719 409.882812 1087.03125 410.144531 1088.355469 411.734375 C 1089.679688 413.324219 1089.679688 415.707031 1088.09375 417.292969 L 756.332031 749.050781 L 902.488281 841.722656 C 903.015625 841.988281 903.28125 842.253906 903.546875 842.78125 L 1088.621094 1082.929688 C 1089.945312 1084.515625 1089.679688 1087.164062 1088.09375 1088.488281 C 1086.503906 1089.8125 1084.121094 1089.8125 1082.53125 1088.222656 L 750.507812 756.464844 L 657.839844 902.621094 C 657.574219 903.148438 657.308594 903.414062 656.78125 903.679688 L 416.632812 1088.753906 C 415.839844 1089.285156 415.042969 1089.546875 413.984375 1089.546875 Z M 726.148438 779.238281 L 462.171875 1043.214844 L 650.953125 897.589844 Z M 779.105469 773.410156 L 1043.082031 1037.386719 L 897.457031 848.605469 Z M 601.972656 651.351562 L 720.324219 726.546875 L 456.347656 462.570312 Z M 848.210938 602.105469 L 773.015625 720.457031 L 1036.992188 456.480469 Z M 848.210938 602.105469 " fill-opacity="1" fill-rule="nonzero"/><path fill="#ffffff" d="M 749.714844 749.847656 L 900.105469 654.265625 L 1085.179688 414.117188 Z M 749.714844 749.847656 L 845.296875 900.238281 L 1085.445312 1085.3125 Z M 749.714844 749.847656 L 599.324219 845.429688 L 414.25 1085.578125 Z M 749.714844 749.847656 L 654.132812 599.457031 L 413.984375 414.382812 Z M 749.714844 749.847656 " fill-opacity="1" fill-rule="nonzero"/><path fill="#000000" d="M 1085.445312 1089.546875 C 1084.648438 1089.546875 1083.589844 1089.285156 1083.0625 1088.753906 L 842.914062 903.679688 C 842.648438 903.414062 842.121094 903.148438 841.855469 902.621094 L 749.183594 756.464844 L 416.898438 1088.488281 C 415.308594 1090.078125 412.925781 1090.078125 411.335938 1088.753906 C 409.75 1087.429688 409.484375 1084.78125 410.808594 1083.195312 L 595.882812 843.046875 C 596.148438 842.78125 596.414062 842.253906 596.941406 841.988281 L 743.09375 749.316406 L 411.074219 417.03125 C 409.484375 415.441406 409.484375 413.058594 410.808594 411.46875 C 412.132812 409.882812 414.777344 409.617188 416.367188 410.941406 L 656.515625 596.015625 C 656.78125 596.28125 657.308594 596.542969 657.574219 597.074219 L 750.242188 743.226562 L 1082.265625 411.203125 C 1083.855469 409.617188 1086.238281 409.617188 1087.828125 410.941406 C 1089.414062 412.265625 1089.679688 414.910156 1088.355469 416.5 L 903.28125 656.648438 C 903.015625 656.914062 902.753906 657.441406 902.222656 657.707031 L 756.070312 750.375 L 1088.09375 1082.398438 C 1089.679688 1083.988281 1089.679688 1086.371094 1088.355469 1087.960938 C 1087.5625 1089.019531 1086.503906 1089.546875 1085.445312 1089.546875 Z M 848.210938 897.589844 L 1036.992188 1043.214844 L 773.015625 779.238281 Z M 601.972656 848.339844 L 456.347656 1037.125 L 720.324219 773.148438 Z M 1043.082031 462.304688 L 779.105469 726.28125 L 897.457031 651.085938 Z M 462.171875 456.480469 L 726.148438 720.457031 L 650.953125 602.105469 Z M 462.171875 456.480469 " fill-opacity="1" fill-rule="nonzero"/><path fill="#000000" d="M 749.714844 749.847656 L 654.132812 599.457031 L 749.714844 126.839844 Z M 749.714844 749.847656 L 599.324219 845.429688 L 126.707031 749.847656 Z M 749.714844 749.847656 L 845.296875 900.238281 L 749.714844 1372.851562 Z M 749.714844 749.847656 L 900.105469 654.265625 L 1372.722656 749.847656 Z M 749.714844 749.847656 " fill-opacity="1" fill-rule="nonzero"/><g clip-path="url(#951678cb6e)"><path fill="#000000" d="M 749.714844 1377.089844 C 749.714844 1377.089844 749.449219 1377.089844 749.183594 1377.089844 C 747.066406 1376.824219 745.476562 1374.972656 745.476562 1373.117188 L 745.476562 757.261719 L 601.441406 848.871094 C 600.648438 849.402344 599.324219 849.664062 598.53125 849.402344 L 125.914062 753.820312 C 123.796875 753.289062 122.472656 751.4375 122.738281 749.316406 C 123 747.199219 124.855469 745.609375 126.707031 745.609375 L 742.300781 745.609375 L 650.691406 601.574219 C 650.160156 600.78125 649.894531 599.722656 650.160156 598.664062 L 745.742188 126.046875 C 746.273438 123.929688 747.859375 122.605469 750.242188 122.871094 C 752.363281 123.132812 753.949219 124.722656 753.949219 126.839844 L 753.949219 742.433594 L 898.25 650.824219 C 899.046875 650.292969 900.371094 650.027344 901.164062 650.292969 L 1373.78125 745.875 C 1375.898438 746.40625 1377.222656 748.257812 1376.957031 750.375 C 1376.691406 752.496094 1374.839844 754.082031 1372.984375 754.082031 L 757.128906 754.082031 L 848.738281 898.382812 C 849.269531 899.175781 849.53125 900.5 849.269531 901.296875 L 753.6875 1373.914062 C 753.421875 1375.5 751.566406 1377.089844 749.714844 1377.089844 Z M 753.949219 764.144531 L 753.949219 1331.8125 L 841.0625 901.296875 Z M 168.011719 754.082031 L 598.53125 841.191406 L 735.683594 754.082031 Z M 764.011719 745.609375 L 1331.679688 745.609375 L 901.164062 658.5 Z M 658.632812 598.664062 L 745.742188 735.8125 L 745.742188 168.144531 Z M 658.632812 598.664062 " fill-opacity="1" fill-rule="nonzero"/></g><path fill="#ffffff" d="M 749.714844 749.847656 L 845.296875 599.457031 L 749.714844 126.839844 Z M 749.714844 749.847656 L 900.105469 845.429688 L 1372.722656 749.847656 Z M 749.714844 749.847656 L 654.132812 900.238281 L 749.714844 1372.851562 Z M 749.714844 749.847656 L 599.324219 654.265625 L 126.707031 749.847656 Z M 749.714844 749.847656 " fill-opacity="1" fill-rule="nonzero"/><g clip-path="url(#053f51941a)"><path fill="#000000" d="M 749.714844 1377.089844 C 747.859375 1377.089844 746.007812 1375.765625 745.742188 1373.914062 L 650.160156 901.296875 C 649.894531 900.238281 650.160156 899.179688 650.691406 898.382812 L 742.300781 754.082031 L 126.707031 754.082031 C 124.589844 754.082031 122.738281 752.496094 122.738281 750.375 C 122.472656 748.257812 124.0625 746.40625 125.914062 745.875 L 598.53125 650.292969 C 599.589844 650.027344 600.648438 650.292969 601.441406 650.824219 L 745.742188 742.433594 L 745.742188 126.839844 C 745.742188 124.722656 747.332031 122.871094 749.449219 122.871094 C 751.566406 122.605469 753.421875 124.191406 753.949219 126.046875 L 849.53125 598.664062 C 849.796875 599.722656 849.53125 600.78125 849.003906 601.574219 L 757.394531 745.875 L 1372.984375 745.875 C 1375.105469 745.875 1376.957031 747.464844 1376.957031 749.582031 C 1377.222656 751.699219 1375.632812 753.554688 1373.78125 754.082031 L 901.164062 849.664062 C 900.105469 849.929688 899.046875 849.664062 898.25 849.136719 L 753.949219 757.523438 L 753.949219 1373.117188 C 753.949219 1375.234375 752.363281 1377.089844 750.242188 1377.089844 C 749.980469 1377.089844 749.714844 1377.089844 749.714844 1377.089844 Z M 658.632812 901.296875 L 745.742188 1331.8125 L 745.742188 764.144531 Z M 764.011719 754.082031 L 901.164062 841.191406 L 1331.679688 754.082031 Z M 168.011719 745.609375 L 735.683594 745.609375 L 598.53125 658.5 Z M 753.949219 168.144531 L 753.949219 735.8125 L 841.0625 598.664062 Z M 753.949219 168.144531 " fill-opacity="1" fill-rule="nonzero"/></g></svg>