<svg xmlns="http://www.w3.org/2000/svg" xmlns:xlink="http://www.w3.org/1999/xlink" width="2000" zoomAndPan="magnify" viewBox="0 0 1500 1499.999933" height="2000" preserveAspectRatio="xMidYMid meet" version="1.0"><defs><clipPath id="ece31257c4"><path d="M 110.023438 696 L 195 696 L 195 801 L 110.023438 801 Z M 110.023438 696 " clip-rule="nonzero"/></clipPath><clipPath id="39c932cf34"><path d="M 719 109.222656 L 792 109.222656 L 792 191 L 719 191 Z M 719 109.222656 " clip-rule="nonzero"/></clipPath><clipPath id="ec8507d00c"><path d="M 1310 716 L 1390.273438 716 L 1390.273438 774 L 1310 774 Z M 1310 716 " clip-rule="nonzero"/></clipPath></defs><path fill="#000000" d="M 250.796875 559.097656 C 248.273438 554.46875 241.195312 555.898438 240.4375 549.078125 C 245.40625 548.742188 249.535156 553.121094 254.925781 550.085938 C 259.050781 540.234375 263.601562 529.371094 267.980469 518.929688 C 264.863281 514.632812 259.894531 514.464844 256.695312 511.265625 C 261.324219 506.210938 264.863281 514.800781 270.335938 512.949219 C 275.980469 502.675781 281.539062 492.402344 286.761719 482.882812 C 285.917969 476.230469 278.507812 477.15625 277.074219 471.515625 C 282.382812 470.253906 285.414062 475.726562 289.960938 475.726562 C 297.542969 466.632812 302.929688 456.105469 309.164062 446.25 C 306.132812 442.796875 303.101562 439.515625 299.816406 435.808594 C 305.796875 433.957031 307.3125 441.113281 313.878906 439.515625 C 319.945312 431.429688 326.933594 422.164062 333.417969 413.492188 C 332.15625 408.015625 324.914062 408.523438 325.925781 402.460938 C 330.894531 402.039062 333.589844 406.5 338.472656 408.523438 C 343.359375 398.417969 352.707031 391.933594 359.023438 383.761719 C 359.78125 377.195312 353.296875 375.761719 352.117188 370.710938 C 357.507812 368.941406 358.855469 376.101562 365.675781 375.003906 C 369.046875 373.828125 372.414062 369.109375 375.867188 364.984375 C 379.238281 360.941406 385.132812 360.183594 387.320312 355.046875 C 389.847656 349.574219 381.34375 347.886719 383.195312 341.992188 C 388.5 341.742188 389.511719 348.730469 395.070312 348.394531 C 401.300781 340.476562 411.410156 335.761719 418.230469 327.675781 C 418.90625 322.457031 412.925781 319.761719 414.273438 313.527344 C 417.976562 316.8125 421.261719 319.761719 425.136719 323.214844 C 432.71875 315.210938 443.582031 311.421875 450.992188 303 C 452.339844 298.371094 446.613281 295.925781 447.625 290.539062 C 452.089844 291.464844 453.265625 296.683594 458.066406 298.03125 C 467.5 293.90625 476.429688 287.589844 484.683594 282.199219 C 488.050781 276.558594 480.640625 272.769531 484.683594 267.292969 C 486.703125 270.578125 488.554688 273.609375 490.832031 277.398438 C 501.777344 274.367188 511.128906 267.714844 521.234375 263.253906 C 523.761719 258.285156 520.644531 254.074219 519.464844 248.9375 C 526.792969 249.273438 525.445312 256.179688 529.402344 258.703125 C 540.183594 256.007812 549.953125 250.03125 559.132812 246.410156 C 563.933594 241.1875 556.1875 235.628906 562.417969 230.914062 C 564.355469 235.292969 565.03125 239.839844 567.894531 243.378906 C 579.429688 239.503906 590.550781 235.714844 601.246094 232.175781 C 604.359375 227.292969 596.695312 222.492188 602.085938 217.4375 C 607.140625 220.554688 602.929688 227.628906 609.835938 229.988281 C 618.929688 227.628906 629.460938 224.933594 639.820312 222.324219 C 642.765625 217.777344 639.144531 212.640625 642.007812 208.34375 C 645.628906 211.125 645.628906 215.585938 647.652344 220.132812 C 657.757812 219.207031 668.03125 217.523438 678.140625 214.746094 C 681.425781 211.039062 678.476562 206.914062 678.476562 203.039062 C 680.75 202.027344 682.015625 202.703125 682.433594 204.808594 C 683.109375 208.007812 681.761719 211.882812 686.8125 214.746094 C 690.265625 214.660156 694.394531 212.050781 699.195312 212.386719 C 703.238281 212.640625 707.871094 213.734375 711.238281 211.039062 C 715.027344 207.164062 711.660156 202.195312 714.777344 197.648438 C 717.472656 202.535156 715.703125 208.765625 720.503906 212.132812 C 730.273438 208.261719 740.800781 211.375 750.570312 209.523438 C 753.855469 205.902344 749.894531 200.597656 754.359375 197.144531 C 759.75 199.667969 755.625 205.816406 758.824219 209.859375 C 769.773438 210.195312 781.144531 209.355469 791.332031 213.226562 C 795.125 207.332031 790.996094 200.597656 797.648438 197.984375 C 800.765625 202.113281 797.230469 207.25 800.09375 212.132812 C 811.125 211.964844 821.992188 217.019531 833.277344 214.828125 C 838.75 212.46875 836.308594 206.996094 838.328125 203.292969 C 840.433594 203.878906 842.792969 204.554688 841.53125 207.25 C 840.183594 210.195312 840.433594 213.058594 840.601562 216.765625 C 852.308594 219.292969 864.101562 221.820312 875.640625 224.34375 C 880.609375 221.820312 877.15625 215.839844 880.523438 213.144531 C 884.144531 212.640625 884.144531 214.828125 884.144531 217.101562 C 884.144531 219.714844 881.03125 221.398438 882.628906 225.1875 C 886.167969 230.070312 893.074219 228.386719 898.464844 230.15625 C 904.023438 232.007812 909.664062 233.859375 915.308594 235.460938 C 920.359375 232.933594 918.929688 225.691406 924.402344 223.671875 C 928.363281 228.050781 921.960938 231.503906 923.8125 237.0625 C 932.320312 242.871094 944.027344 243.882812 952.617188 248.851562 C 959.523438 247.757812 958.34375 240.34375 963.484375 239.082031 C 967.105469 243.628906 960.703125 246.914062 962.386719 251.882812 C 971.652344 256.347656 981.507812 261.0625 991.445312 265.863281 C 996.246094 264.769531 996.75 258.871094 1001.46875 255.335938 C 1003.152344 260.894531 998.773438 263.589844 998.433594 268.640625 C 1007.613281 273.949219 1017.386719 279.589844 1027.15625 285.230469 C 1031.027344 281.527344 1034.398438 278.328125 1038.355469 274.621094 C 1041.050781 280.683594 1032.207031 282.453125 1036.082031 289.863281 C 1042.484375 295.085938 1051.496094 301.148438 1060.589844 305.695312 C 1066.484375 305.359375 1065.558594 297.78125 1071.539062 298.117188 C 1073.222656 302.917969 1067.160156 305.695312 1068.171875 311.085938 C 1075.328125 317.90625 1085.015625 322.792969 1092.257812 331.128906 C 1095.878906 327.761719 1099.332031 324.644531 1103.121094 321.191406 C 1105.816406 327.085938 1098.320312 328.519531 1099.332031 334.667969 C 1104.386719 343.59375 1114.914062 349.066406 1123.25 356.5625 C 1127.210938 355.046875 1128.558594 349.574219 1134.117188 349.742188 C 1134.117188 354.710938 1128.472656 355.804688 1127.96875 358.835938 C 1135.886719 366.921875 1143.296875 374.5 1150.792969 382.078125 C 1155.339844 385.53125 1157.191406 377.53125 1163.003906 378.625 C 1164.269531 384.605469 1155.507812 384.101562 1155.84375 389.238281 C 1157.109375 395.554688 1163.257812 398.25 1166.625 403.046875 C 1169.828125 407.597656 1172.605469 412.480469 1177.40625 415.765625 C 1181.363281 414.332031 1184.058594 409.703125 1188.945312 410.121094 C 1189.871094 413.238281 1187.933594 414.332031 1186.332031 415.765625 C 1184.816406 417.113281 1182.039062 417.027344 1181.703125 421.660156 C 1187.175781 429.914062 1193.410156 439.34375 1199.726562 448.863281 C 1205.03125 450.378906 1208.230469 442.796875 1214.378906 446 C 1211.261719 448.691406 1208.316406 451.21875 1204.777344 454.25 C 1209.328125 464.863281 1216.234375 473.957031 1221.371094 482.882812 C 1226.761719 486 1230.71875 481.03125 1235.519531 481.621094 C 1234.929688 484.738281 1233.246094 486 1231.222656 486.675781 C 1229.035156 487.433594 1227.601562 488.863281 1225.664062 491.304688 C 1230.804688 501.496094 1236.023438 511.9375 1240.824219 521.539062 C 1246.722656 523.980469 1251.015625 521.371094 1256.574219 519.601562 C 1254.132812 526.339844 1248.488281 525.917969 1244.953125 529.203125 C 1249.332031 540.570312 1253.878906 552.191406 1258.257812 563.730469 C 1262.722656 564.574219 1266.851562 563.730469 1270.21875 561.121094 C 1272.578125 564.402344 1272.15625 566.257812 1269.375 566.679688 C 1266.175781 567.183594 1263.566406 568.109375 1261.710938 571.648438 C 1264.660156 583.4375 1267.777344 595.730469 1272.828125 606.933594 C 1277.125 609.121094 1281 602.046875 1284.875 607.4375 C 1284.117188 612.996094 1276.535156 609.207031 1275.1875 614.257812 C 1274.34375 625.796875 1281.671875 635.902344 1280.410156 645.839844 C 1285.292969 651.398438 1291.105469 646.851562 1294.894531 650.808594 C 1291.273438 653.757812 1284.703125 650.21875 1282.683594 657.546875 C 1282.179688 661.757812 1286.222656 666.136719 1285.292969 671.527344 C 1284.535156 676.242188 1285.714844 680.875 1288.832031 684.832031 C 1292.199219 687.191406 1297.339844 683.316406 1300.792969 688.453125 C 1297.589844 692.664062 1292.539062 689.632812 1288.746094 691.90625 C 1284.875 702.265625 1292.117188 712.285156 1290.179688 722.222656 C 1294.390625 725.84375 1299.445312 722.390625 1302.726562 725.589844 C 1302.980469 728.792969 1301.128906 729.296875 1298.769531 729.464844 C 1296.242188 729.632812 1293.632812 728.792969 1290.851562 730.898438 L 1290.851562 764.160156 C 1293.96875 767.023438 1299.613281 765.679688 1302.558594 769.886719 C 1299.191406 772.582031 1294.894531 769.804688 1291.527344 771.910156 C 1288.074219 783.867188 1287.230469 795.996094 1287.988281 808.039062 C 1291.78125 810.902344 1297.507812 807.953125 1299.949219 813.847656 C 1295.820312 816.460938 1291.023438 813.765625 1286.390625 815.617188 C 1284.621094 826.480469 1282.769531 837.679688 1280.832031 849.304688 C 1283.105469 853.597656 1288.914062 852.25 1292.539062 854.945312 C 1292.789062 857.726562 1291.527344 859.410156 1288.914062 858.0625 C 1286.050781 856.628906 1283.355469 856.039062 1278.976562 857.640625 C 1277.460938 868.589844 1271.734375 879.199219 1272.324219 890.652344 C 1274.261719 893.09375 1275.777344 894.527344 1278.136719 894.777344 C 1280.324219 894.949219 1282.515625 895.199219 1282.179688 899.074219 C 1277.882812 901.433594 1273.671875 895.285156 1268.28125 899.242188 C 1266.597656 909.347656 1260.703125 919.707031 1259.1875 931.074219 C 1262.050781 934.695312 1267.441406 933.011719 1268.957031 937.644531 C 1264.40625 942.613281 1260.703125 934.023438 1255.144531 938.148438 C 1251.605469 946.992188 1247.394531 957.433594 1243.605469 966.867188 C 1245.710938 972.761719 1252.109375 971.75 1253.628906 977.140625 C 1248.742188 977.984375 1245.121094 974.023438 1239.394531 974.277344 C 1235.941406 983.710938 1229.960938 993.140625 1225.664062 1001.480469 C 1226.675781 1008.890625 1234.171875 1007.796875 1235.183594 1013.269531 C 1229.707031 1015.628906 1226.421875 1010.660156 1221.792969 1009.816406 C 1216.148438 1018.828125 1210.421875 1028.089844 1205.03125 1036.847656 C 1206.546875 1041.902344 1212.191406 1042.996094 1213.03125 1049.3125 C 1208.570312 1046.957031 1204.863281 1045.101562 1201.242188 1043.25 C 1195.09375 1051.839844 1188.859375 1060.515625 1182.628906 1069.1875 C 1182.542969 1073.902344 1188.609375 1075.421875 1189.871094 1079.882812 C 1184.058594 1082.578125 1182.882812 1076.09375 1178.082031 1076.347656 C 1169.40625 1082.324219 1165.617188 1093.863281 1156.433594 1099.757812 C 1158.203125 1104.472656 1163.59375 1105.820312 1163.511719 1111.042969 C 1158.539062 1114.074219 1157.363281 1107.503906 1152.054688 1107.085938 C 1145.234375 1113.570312 1137.90625 1121.234375 1130.664062 1128.558594 C 1129.738281 1134.792969 1138.160156 1135.800781 1137.234375 1142.035156 C 1132.09375 1141.78125 1130.832031 1135.042969 1124.515625 1135.382812 C 1117.863281 1142.285156 1107.921875 1146.917969 1102.28125 1154.667969 C 1100.425781 1160.980469 1107.25 1162.5 1106.574219 1168.476562 C 1102.113281 1167.464844 1100.597656 1162.582031 1096.890625 1161.320312 C 1090.40625 1163.507812 1079.457031 1171.761719 1071.539062 1180.265625 C 1068.59375 1186.332031 1076.507812 1188.351562 1075.246094 1194.753906 C 1070.949219 1190.960938 1067.328125 1187.761719 1063.371094 1184.226562 C 1054.949219 1190.878906 1046.273438 1196.859375 1037.683594 1201.574219 C 1036.082031 1207.300781 1041.808594 1210.417969 1041.050781 1215.300781 C 1034.3125 1215.46875 1035.324219 1207.972656 1030.691406 1206.035156 C 1021.007812 1211.425781 1011.066406 1216.984375 1001.46875 1222.289062 C 1000.121094 1227.597656 1005.59375 1230.796875 1004.667969 1236.269531 C 999.023438 1234.671875 999.53125 1227.007812 992.035156 1226.585938 C 984.203125 1230.460938 974.683594 1235.175781 965.503906 1239.722656 C 963.230469 1244.777344 966.851562 1248.988281 967.019531 1253.871094 C 959.523438 1253.871094 963.484375 1244.945312 955.734375 1244.269531 C 947.3125 1246.292969 937.121094 1250.164062 928.027344 1253.703125 C 923.394531 1258.925781 929.375 1264.230469 925.078125 1270.039062 C 922.550781 1265.492188 922.550781 1260.609375 918.84375 1257.15625 C 908.316406 1258.335938 898.886719 1264.988281 888.355469 1265.324219 C 885.914062 1270.378906 888.695312 1275.347656 886.503906 1279.640625 C 880.691406 1277.957031 883.304688 1271.722656 879.175781 1268.355469 C 869.660156 1270.207031 859.554688 1272.230469 850.457031 1274.082031 C 846.921875 1278.96875 850.035156 1283.851562 847.257812 1287.894531 C 840.015625 1286.292969 845.402344 1279.472656 841.191406 1275.765625 C 833.359375 1280.144531 822.664062 1274.839844 814.15625 1282.167969 C 810.789062 1284.695312 814.324219 1289.664062 811.042969 1292.527344 C 807.589844 1289.746094 811.210938 1284.777344 806.15625 1281.074219 C 797.734375 1278.292969 788.46875 1281.832031 779.625 1283.515625 C 774.488281 1286.292969 777.859375 1291.9375 774.910156 1295.304688 C 771.625 1291.851562 774.488281 1287.472656 772.046875 1283.429688 L 738.695312 1283.429688 C 735.242188 1286.210938 739.367188 1292.273438 734.566406 1296.0625 C 730.019531 1292.695312 733.21875 1287.726562 731.113281 1283.765625 C 720.335938 1281.492188 709.132812 1279.21875 697.59375 1280.566406 C 694.394531 1283.597656 693.972656 1287.976562 692.035156 1293.113281 C 689.257812 1288.144531 691.277344 1283.515625 689.929688 1278.796875 C 678.308594 1277.113281 666.433594 1275.34375 654.726562 1273.660156 C 652.535156 1275.34375 652.113281 1277.367188 651.945312 1279.640625 C 651.777344 1281.660156 652.285156 1284.105469 649.503906 1284.863281 C 647.707031 1282.222656 647.511719 1278.488281 648.914062 1273.660156 C 638.472656 1267.851562 626.089844 1268.945312 616.152344 1264.480469 C 609.582031 1266.671875 610.59375 1273.578125 606.464844 1276.523438 C 602.761719 1271.894531 607.476562 1267.765625 607.476562 1262.964844 C 596.527344 1257.914062 585.074219 1254.964844 574.628906 1251.597656 C 569.070312 1253.28125 570.082031 1259.597656 565.113281 1261.535156 C 562.335938 1257.492188 568.734375 1253.953125 564.859375 1248.648438 C 556.777344 1243.007812 545.40625 1240.902344 535.636719 1236.183594 C 530.078125 1237.449219 531.089844 1243.847656 526.539062 1245.785156 C 522.328125 1241.238281 529.320312 1237.449219 527.128906 1232.058594 C 517.78125 1227.425781 507.675781 1222.289062 498.746094 1217.910156 C 491.503906 1218.753906 492.515625 1226.164062 487.546875 1227.511719 C 483.417969 1221.785156 490.828125 1219.425781 491.335938 1214.207031 C 482.070312 1206.792969 470.113281 1203.003906 461.519531 1195.089844 C 455.710938 1196.269531 456.046875 1202.246094 452.089844 1204.183594 C 451.191406 1200.816406 452.171875 1196.546875 455.035156 1191.382812 C 445.433594 1184.5625 435.832031 1177.65625 427.242188 1171.507812 C 420.671875 1171.339844 421.683594 1180.519531 415.199219 1178.414062 C 416.320312 1174.652344 418.371094 1171.003906 421.347656 1167.464844 C 413.597656 1157.867188 402.058594 1152.476562 394.734375 1143.210938 C 388.921875 1143.96875 387.660156 1150.539062 382.269531 1150.707031 C 380.5 1147.929688 383.195312 1147 384.207031 1145.570312 C 385.46875 1143.886719 386.984375 1142.453125 387.660156 1141.695312 C 378.816406 1132.9375 370.394531 1124.601562 360.371094 1114.578125 C 360.792969 1114.578125 359.527344 1116.515625 357.929688 1117.863281 C 356.582031 1118.957031 355.316406 1120.136719 352.285156 1118.957031 C 354.222656 1115 358.601562 1112.390625 359.023438 1107.503906 C 350.9375 1099 341.925781 1091.082031 336.535156 1081.398438 C 330.21875 1081.398438 329.039062 1087.292969 323.988281 1087.714844 C 323.058594 1081.652344 330.050781 1080.808594 331.230469 1075.417969 C 324.238281 1066.238281 316.828125 1056.554688 310.257812 1047.964844 C 303.605469 1046.28125 301.5 1052.089844 296.953125 1052.429688 C 296.277344 1046.027344 302.511719 1045.945312 305.964844 1041.984375 C 300.65625 1030.617188 293.160156 1019.921875 287.011719 1009.226562 C 281.371094 1008.890625 278.421875 1014.617188 273.117188 1013.015625 C 273.539062 1007.289062 281.625 1009.140625 282.210938 1001.816406 C 278.421875 992.046875 272.613281 981.265625 266.800781 970.824219 C 261.664062 969.476562 258.714844 974.023438 253.660156 974.023438 C 255.175781 967.960938 262.335938 968.046875 263.851562 961.980469 C 259.136719 953.140625 255.175781 942.863281 252.0625 933.179688 C 246.417969 928.96875 241.703125 932.421875 235.890625 933.9375 C 238.417969 927.03125 245.070312 927.960938 248.1875 924.085938 C 244.648438 912.882812 241.195312 901.683594 237.828125 891.15625 C 234.121094 888.96875 232.351562 892.25 229.828125 892.25 C 227.722656 892.25 225.53125 892.757812 223.679688 891.410156 C 224.859375 885.179688 232.4375 888.714844 235.300781 882.652344 C 235.21875 873.386719 228.898438 864.039062 230.078125 854.945312 C 224.941406 848.460938 220.308594 853.851562 216.265625 853.09375 C 214.667969 850.058594 215.675781 848.710938 218.289062 848.375 C 221.574219 847.953125 225.445312 848.796875 227.550781 843.574219 C 223.339844 836.417969 227.300781 826.648438 221.488281 818.816406 C 218.625 815.953125 214.328125 818.902344 210.539062 816.457031 C 212.8125 812.835938 218.121094 813.761719 220.140625 810.058594 C 220.5625 807.363281 220.394531 804.835938 216.855469 803.152344 C 214.414062 802.816406 210.035156 806.351562 208.011719 800.542969 C 210.707031 797.425781 215.59375 800.625 219.128906 796.164062 C 220.476562 787.234375 221.488281 777.296875 217.699219 770.140625 C 213.234375 764.328125 208.351562 767.359375 205.234375 764.582031 C 208.011719 760.960938 213.066406 764.582031 216.773438 759.53125 C 218.878906 750.097656 217.023438 739.066406 217.53125 729.378906 C 214.917969 722.8125 209.277344 725.675781 205.148438 723.148438 C 209.023438 719.359375 214.5 723.234375 218.878906 718.9375 C 222.582031 708.578125 216.855469 696.03125 223.003906 684.410156 C 217.78125 682.386719 212.222656 682.976562 208.351562 679.1875 C 209.949219 676.242188 212.730469 677.839844 214.917969 677.589844 C 217.023438 677.335938 219.128906 677.589844 221.992188 677.589844 C 224.097656 665.796875 226.121094 654.261719 227.890625 644.40625 C 225.277344 637.332031 217.78125 640.785156 215.929688 635.058594 C 220.308594 631.605469 224.4375 635.226562 229.152344 636.324219 C 232.269531 624.113281 235.21875 612.40625 238.164062 600.785156 C 236.648438 595.5625 229.40625 597.5 227.804688 591.183594 C 231.933594 590.761719 235.804688 593.878906 240.101562 591.519531 C 244.816406 581.246094 247.851562 569.792969 251.304688 559.097656 Z M 1282.515625 752.035156 C 1280.578125 602.386719 1230.550781 476.398438 1128.222656 373.742188 C 1027.746094 272.9375 904.191406 219.964844 761.6875 218.449219 C 614.972656 216.851562 487.460938 267.714844 382.519531 371.550781 C 279.347656 473.621094 226.796875 598.59375 225.867188 742.769531 C 224.941406 888.464844 276.484375 1015.039062 380.164062 1118.789062 C 482.324219 1221.027344 606.382812 1273.242188 750.402344 1274.335938 C 896.527344 1275.429688 1023.195312 1223.636719 1126.621094 1120.644531 C 1229.457031 1018.324219 1279.820312 892.503906 1282.515625 752.035156 Z M 1282.515625 752.035156 " fill-opacity="1" fill-rule="nonzero"/><g clip-path="url(#ece31257c4)"><path fill="#000000" d="M 159.753906 723.234375 C 143.921875 720.707031 131.792969 714.390625 119.074219 711.613281 C 115.621094 713.210938 115.960938 717.421875 111.746094 718.433594 C 110.652344 711.863281 110.738281 705.378906 112.253906 696.539062 C 118.316406 706.304688 127.160156 707.738281 135.246094 710.515625 C 154.363281 717.253906 173.652344 723.738281 194.453125 730.8125 C 179.210938 739.65625 162.449219 741.253906 147.542969 748.835938 C 163.207031 754.054688 178.28125 759.195312 193.105469 764.164062 C 193.863281 767.53125 191.757812 767.785156 189.570312 768.457031 C 172.21875 773.847656 154.785156 779.238281 137.519531 784.964844 C 128.507812 787.996094 118.90625 790.351562 113.347656 800.375 C 110.570312 790.519531 110.0625 747.152344 112.085938 730.476562 C 115.539062 731.148438 115.789062 734.855469 117.980469 736.792969 C 127.917969 736.539062 147.710938 730.476562 159.753906 723.316406 Z M 160.257812 759.613281 C 148.214844 753.046875 136.929688 750.183594 124.632812 755.570312 C 117.222656 758.855469 116.042969 761.128906 118.148438 770.898438 C 132.804688 770.898438 145.351562 762.644531 160.257812 759.613281 Z M 160.257812 759.613281 " fill-opacity="1" fill-rule="nonzero"/></g><g clip-path="url(#39c932cf34)"><path fill="#000000" d="M 720.082031 109.222656 L 743.496094 109.222656 C 754.527344 123.625 765.644531 138.109375 777.519531 153.605469 L 777.519531 115.707031 C 776.761719 113.265625 773.480469 112.171875 768.59375 109.390625 L 791.25 109.390625 C 788.300781 112.675781 786.027344 115.285156 782.996094 118.738281 L 782.996094 190.660156 C 771.542969 180.804688 765.5625 169.101562 757.390625 159.246094 C 748.96875 149.140625 741.644531 138.191406 731.875 125.054688 C 731.875 143.75 731.621094 159.332031 732.042969 174.996094 C 732.210938 180.722656 734.820312 185.773438 743.328125 187.964844 C 734.0625 190.40625 727.074219 189.3125 719.410156 188.554688 C 726.734375 184.59375 728.757812 178.53125 728.589844 171.035156 C 728.335938 156.382812 728.421875 141.8125 728.589844 127.160156 C 728.589844 119.75 726.820312 113.6875 719.996094 109.222656 Z M 720.082031 109.222656 " fill-opacity="1" fill-rule="nonzero"/></g><path fill="#000000" d="M 726.0625 1322.085938 C 735.914062 1304.570312 750.738281 1303.894531 766.910156 1306.757812 C 770.363281 1307.347656 773.898438 1307.601562 778.195312 1308.019531 C 778.53125 1314.335938 779.121094 1321.410156 777.4375 1330.171875 C 773.648438 1322.675781 770.699219 1316.441406 765.054688 1312.402344 C 757.476562 1306.925781 752.761719 1307.601562 745.097656 1315.011719 C 744.167969 1319.136719 744.335938 1323.347656 745.011719 1327.894531 C 752.507812 1338.929688 768.507812 1340.527344 774.65625 1353.414062 C 776.679688 1356.699219 774.910156 1361.078125 777.773438 1364.191406 C 775.753906 1374.636719 772.71875 1384.992188 761.265625 1387.855469 C 751.414062 1390.300781 740.882812 1390.972656 732.292969 1383.058594 C 731.199219 1379.097656 731.199219 1375.308594 732.546875 1370.339844 C 738.695312 1378.675781 743.75 1387.605469 756.382812 1385.414062 C 757.980469 1383.984375 760.171875 1381.960938 761.941406 1380.363281 C 763.035156 1376.320312 762.867188 1372.949219 762.191406 1369.75 C 759.75 1365.117188 755.285156 1363.183594 751.160156 1361.078125 C 747.371094 1359.054688 743.410156 1357.457031 739.707031 1355.351562 C 730.945312 1350.296875 725.554688 1343.140625 726.0625 1332.527344 C 726.230469 1328.652344 726.0625 1324.78125 726.0625 1322.085938 Z M 726.0625 1322.085938 " fill-opacity="1" fill-rule="nonzero"/><g clip-path="url(#ec8507d00c)"><path fill="#000000" d="M 1355.113281 749.929688 C 1356.714844 755.402344 1361.515625 754.394531 1362.019531 757.929688 C 1361.597656 758.6875 1361.261719 759.867188 1360.757812 759.953125 C 1358.652344 760.289062 1356.546875 760.457031 1354.441406 760.457031 C 1350.652344 760.457031 1346.859375 760.457031 1343.070312 760.457031 C 1342.566406 755.152344 1348.125 756.246094 1349.304688 753.128906 C 1350.398438 750.015625 1353.175781 747.234375 1350.566406 743.023438 L 1320.246094 743.023438 C 1315.78125 747.738281 1314.941406 753.382812 1316.792969 759.445312 C 1318.644531 765.425781 1323.109375 769.128906 1329.34375 772.667969 C 1322.773438 774.269531 1317.46875 773.511719 1312.160156 773.425781 C 1310.054688 758.773438 1310.390625 726.097656 1312.5 716.917969 C 1317.046875 716.582031 1315.953125 722.558594 1318.816406 723.148438 C 1320.332031 723.570312 1321.171875 723.90625 1322.015625 723.90625 C 1339.617188 723.90625 1357.21875 723.824219 1374.824219 724.074219 C 1381.222656 724.160156 1386.277344 722.644531 1390.570312 716.074219 L 1390.570312 767.363281 C 1386.699219 769.550781 1382.65625 768.539062 1378.023438 767.699219 C 1389.5625 758.351562 1390.402344 754.394531 1383.582031 742.601562 L 1356.714844 742.601562 C 1356.210938 743.277344 1355.28125 743.949219 1355.28125 744.625 C 1355.113281 746.730469 1355.28125 748.835938 1355.28125 749.761719 Z M 1355.113281 749.929688 " fill-opacity="1" fill-rule="nonzero"/></g><path fill="#000000" d="M 245.324219 747.65625 C 245.324219 737.296875 245.15625 726.9375 245.324219 716.664062 C 245.828125 692.746094 250.039062 669.421875 254.671875 646.007812 C 259.304688 622.261719 265.707031 599.015625 273.875 576.195312 C 278.421875 563.394531 283.898438 550.929688 289.289062 538.382812 C 302.847656 506.464844 320.617188 476.988281 340.664062 448.777344 C 349.335938 436.566406 358.855469 425.113281 368.371094 413.660156 C 379.65625 400.101562 391.871094 387.46875 404.671875 375.34375 C 430.527344 351.003906 458.824219 329.699219 489.3125 311.421875 C 501.019531 304.433594 512.8125 297.527344 524.941406 291.296875 C 558.375 274.199219 593.496094 261.398438 629.796875 252.050781 C 650.261719 246.832031 671.148438 243.039062 692.289062 240.429688 C 728.335938 235.964844 764.46875 237.0625 800.34375 238.914062 C 832.011719 240.597656 863.257812 247.417969 893.832031 256.429688 C 928.195312 266.535156 961.378906 279.675781 992.960938 296.683594 C 1018.144531 310.242188 1042.0625 325.65625 1064.96875 342.835938 C 1090.828125 362.289062 1113.734375 385.027344 1135.378906 408.691406 C 1154.667969 429.746094 1171.175781 453.15625 1186.332031 477.410156 C 1196.523438 493.75 1205.535156 510.675781 1213.707031 528.023438 C 1228.613281 559.519531 1240.402344 592.195312 1248.828125 626.132812 C 1254.132812 647.609375 1256.742188 669.421875 1261.207031 690.980469 C 1261.375 691.820312 1261.375 692.664062 1261.292969 693.589844 C 1260.703125 714.136719 1266.175781 734.601562 1263.648438 755.152344 C 1261.542969 771.65625 1261.878906 788.246094 1259.605469 804.753906 C 1257.25 821.597656 1254.804688 838.355469 1251.351562 854.945312 C 1246.550781 878.273438 1239.730469 900.925781 1231.5625 923.242188 C 1223.054688 946.488281 1212.359375 968.804688 1200.566406 990.617188 C 1187.597656 1014.617188 1172.351562 1037.269531 1155.84375 1059 C 1136.8125 1084.09375 1114.578125 1106.160156 1091.667969 1127.550781 C 1071.960938 1145.90625 1050.148438 1161.742188 1027.40625 1176.058594 C 997.003906 1195.089844 965 1210.835938 931.394531 1223.722656 C 907.140625 1232.984375 882.125 1239.46875 857.027344 1245.535156 C 844.308594 1248.566406 831.171875 1250.164062 818.117188 1252.101562 C 804.472656 1254.207031 790.828125 1254.292969 777.183594 1254.460938 C 771.203125 1254.542969 765.644531 1257.410156 759.496094 1256.734375 C 739.621094 1254.546875 719.578125 1254.375 699.617188 1252.441406 C 681.339844 1250.671875 663.402344 1247.640625 645.546875 1244.019531 C 636.449219 1242.164062 627.183594 1240.398438 618.34375 1237.703125 C 583.726562 1227.175781 549.703125 1215.132812 517.78125 1197.785156 C 488.894531 1182.121094 461.101562 1164.855469 435.582031 1143.886719 C 422.359375 1133.023438 409.21875 1122.074219 397.007812 1110.117188 C 369.71875 1083.335938 346.136719 1053.609375 325.417969 1021.523438 C 298.71875 980.171875 278.339844 935.875 264.609375 888.714844 C 258.460938 867.660156 252.988281 846.269531 250.207031 824.292969 C 248.609375 811.660156 246.25 799.109375 245.660156 786.394531 C 245.070312 773.507812 245.492188 760.539062 245.492188 747.65625 Z M 1254.386719 759.109375 C 1253.964844 608.871094 1205.199219 489.453125 1107.753906 392.183594 C 1011.40625 296.097656 893.496094 246.492188 756.464844 246.242188 C 618.257812 245.988281 499.253906 294.160156 401.21875 391.765625 C 304.027344 488.527344 255.007812 606.34375 253.410156 743.53125 C 252.3125 839.957031 277.832031 929.308594 328.535156 1010.996094 C 375.953125 1087.460938 439.875 1147.253906 519.382812 1189.195312 C 591.894531 1227.429688 669.464844 1246.964844 752.003906 1246.796875 C 891.050781 1246.628906 1010.5625 1197.785156 1108.34375 1100.09375 C 1205.117188 1003.417969 1253.289062 884.671875 1254.46875 759.109375 Z M 1254.386719 759.109375 " fill-opacity="1" fill-rule="nonzero"/><path fill="#000000" d="M 1163.679688 730.644531 C 1190.628906 736.707031 1217.582031 738.476562 1243.519531 745.382812 L 1243.519531 750.6875 C 1241.582031 753.550781 1238.128906 755.234375 1235.097656 755.234375 C 1220.105469 755.234375 1205.789062 759.953125 1190.964844 761.214844 C 1182.039062 761.972656 1172.351562 761.972656 1164.4375 766.4375 C 1157.949219 873.136719 1119.378906 964.761719 1043.324219 1039.796875 C 967.355469 1114.75 875.300781 1152.308594 769.015625 1157.277344 C 763.792969 1184.140625 761.097656 1211.847656 754.527344 1238.542969 C 752.085938 1238.710938 750.824219 1238.796875 749.476562 1238.964844 C 746.023438 1237.195312 744.589844 1233.492188 744.589844 1230.628906 C 744.421875 1215.636719 739.789062 1201.320312 738.609375 1186.5 C 737.851562 1176.644531 737.261719 1166.289062 732.882812 1156.941406 C 694.394531 1153.148438 656.746094 1146.246094 620.363281 1133.105469 C 592.738281 1123.167969 566.546875 1110.199219 541.785156 1094.535156 C 520.476562 1081.0625 500.9375 1065.484375 482.15625 1048.472656 C 452.425781 1021.523438 428.589844 990.445312 407.789062 956.339844 C 386.394531 921.222656 372.917969 883.074219 362.390625 843.746094 C 359.277344 832.125 357.421875 819.828125 355.90625 807.617188 C 354.644531 797.847656 354.136719 788.164062 353.632812 778.308594 C 353.464844 774.605469 351.949219 770.898438 351.023438 767.195312 C 342.851562 761.71875 333 762.898438 324.070312 760.960938 C 309.246094 757.84375 294.089844 756.328125 279.265625 753.128906 C 273.117188 751.78125 266.378906 753.464844 261.074219 748.414062 C 261.074219 747.234375 260.90625 745.972656 260.820312 744.625 C 262.671875 741.339844 266.292969 739.824219 269.242188 739.738281 C 284.234375 739.738281 298.46875 734.011719 313.460938 734.097656 C 320.28125 734.097656 326.851562 731.992188 333.503906 730.898438 C 339.316406 729.96875 345.210938 729.296875 349.925781 728.875 C 352.960938 726.855469 353.71875 725.003906 353.800781 722.726562 C 354.136719 713.800781 354.894531 704.957031 355.992188 696.03125 C 359.527344 667.820312 366.183594 640.449219 375.53125 613.753906 C 388.164062 577.960938 406.441406 545.035156 428.085938 513.875 C 444.84375 489.875 464.132812 467.976562 486.03125 448.691406 C 519.71875 418.964844 556.945312 394.457031 598.550781 377.109375 C 622.722656 367.003906 647.3125 358.5 673.339844 353.78125 C 692.960938 350.246094 712.332031 345.78125 733.050781 346.203125 C 740.632812 316.308594 742.402344 285.402344 749.726562 256.007812 L 755.371094 256.007812 C 758.066406 258.199219 759.917969 261.566406 759.917969 264.597656 C 759.917969 280.011719 765.226562 294.664062 765.8125 310.074219 C 766.234375 320.9375 769.4375 331.632812 771.457031 342.667969 C 780.132812 345.949219 789.394531 345.867188 798.660156 346.539062 C 812.558594 347.46875 826.285156 350.246094 840.011719 352.6875 C 855.425781 355.46875 870.417969 359.847656 885.242188 364.730469 C 908.992188 372.5625 932.238281 382.078125 953.964844 394.542969 C 970.894531 404.226562 987.570312 414.585938 1002.984375 426.628906 C 1010.730469 432.691406 1018.5625 438.671875 1025.722656 445.324219 C 1032.292969 451.472656 1039.871094 456.441406 1046.019531 463.09375 C 1073.730469 493.328125 1098.910156 525.160156 1117.691406 561.960938 C 1128.894531 583.941406 1139.085938 606.089844 1146.074219 629.753906 C 1151.382812 647.523438 1156.097656 665.378906 1158.792969 683.90625 C 1160.984375 699.402344 1164.015625 714.8125 1163.847656 730.308594 Z M 952.535156 796.332031 C 952.199219 797.175781 951.859375 798.101562 951.609375 798.941406 C 953.628906 800.628906 955.566406 802.226562 957.585938 803.910156 C 974.179688 817.976562 991.78125 831.113281 1007.195312 846.441406 C 1023.449219 862.609375 1042.820312 871.871094 1063.539062 879.957031 C 1080.46875 886.609375 1096.804688 894.863281 1113.398438 902.191406 C 1115.585938 903.199219 1117.273438 903.875 1116.34375 907.160156 C 1110.617188 910.441406 1105.902344 905.644531 1101.355469 903.789062 C 1078.699219 894.441406 1056.296875 884.253906 1033.722656 874.566406 C 1024.375 870.609375 1015.027344 867.242188 1004.582031 866.484375 C 996.582031 865.976562 988.328125 865.386719 980.664062 863.703125 C 964.914062 860.25 948.660156 860.417969 932.996094 856.546875 C 931.480469 856.207031 929.542969 856.207031 928.53125 858.3125 C 928.445312 861.683594 931.648438 863.113281 933.246094 865.558594 C 958.175781 904.546875 983.273438 943.371094 1008.289062 982.277344 C 1015.617188 993.730469 1023.28125 1004.933594 1030.269531 1016.636719 C 1032.375 1020.089844 1036.671875 1023.878906 1032.964844 1029.019531 C 1023.953125 1025.3125 1016.628906 1019.417969 1008.710938 1014.363281 C 967.945312 988.257812 927.097656 962.402344 886.25 936.382812 C 877.238281 930.65625 868.816406 923.75 858.375 918.78125 C 858.375 921.308594 858.457031 922.570312 858.375 923.832031 C 856.691406 943.625 862.078125 963.078125 861.070312 982.785156 C 860.394531 994.828125 864.859375 1006.363281 863.933594 1018.492188 C 863.679688 1021.605469 865.617188 1024.976562 866.878906 1028.089844 C 873.367188 1043.671875 880.1875 1059.25 886.589844 1074.832031 C 891.726562 1087.292969 896.527344 1100.011719 901.496094 1112.558594 C 902.675781 1115.507812 903.097656 1118.117188 899.222656 1120.558594 C 897.453125 1117.78125 895.515625 1115.589844 894.503906 1113.0625 C 887.347656 1095.464844 880.863281 1077.527344 873.28125 1060.175781 C 866.121094 1043.585938 861.492188 1025.734375 850.289062 1010.996094 C 841.78125 999.796875 833.445312 988.425781 824.9375 977.226562 C 818.539062 968.804688 811.96875 960.550781 804.050781 950.445312 C 798.660156 974.109375 795.882812 996.175781 792.089844 1017.984375 C 788.21875 1040.050781 784.847656 1062.199219 781.058594 1084.261719 C 777.269531 1106.160156 774.066406 1128.054688 770.53125 1150.203125 C 855.257812 1149.023438 977.125 1113.570312 1065.980469 1006.28125 C 1123.421875 936.886719 1152.980469 856.628906 1158.035156 766.265625 C 1088.722656 776.457031 1020.667969 786.5625 952.703125 796.585938 Z M 914.550781 383.679688 C 903.515625 409.703125 893.242188 436.0625 881.113281 461.578125 C 873.195312 478.167969 870.839844 495.347656 868.734375 513.035156 C 867.554688 522.632812 865.703125 532.234375 864.355469 541.835938 C 863.089844 551.097656 862.164062 560.363281 861.238281 569.625 C 861.238281 570.046875 862.332031 570.636719 863.175781 571.394531 C 868.398438 568.027344 873.617188 564.574219 878.925781 561.121094 C 914.972656 537.875 951.019531 514.632812 987.066406 491.390625 C 998.519531 483.980469 1009.722656 476.398438 1021.34375 469.324219 C 1024.628906 467.304688 1028.164062 463.597656 1033.21875 466.546875 C 1031.785156 471.347656 1029.34375 475.640625 1026.566406 479.851562 C 1022.101562 486.589844 1017.636719 493.328125 1013.34375 500.0625 C 985.800781 542.929688 958.175781 585.796875 930.804688 628.828125 C 928.363281 632.703125 923.816406 635.820312 924.574219 641.714844 C 938.890625 640.367188 952.871094 641.375 967.019531 639.441406 C 983.023438 637.25 999.445312 638.34375 1015.617188 636.40625 C 1021.597656 635.734375 1027.40625 634.808594 1032.882812 632.617188 C 1049.390625 625.964844 1065.726562 619.058594 1082.152344 612.238281 C 1093.859375 607.4375 1105.648438 602.722656 1117.441406 598.089844 C 1120.304688 596.996094 1123.25 596.40625 1124.515625 601.375 C 1120.808594 603.226562 1117.1875 605.417969 1113.398438 606.933594 C 1085.269531 618.46875 1057.136719 630.09375 1028.839844 641.292969 C 1026.058594 642.386719 1023.53125 643.480469 1021.089844 645.335938 C 1005.089844 657.378906 988.664062 668.832031 973.085938 681.378906 C 967.695312 685.675781 960.621094 688.535156 956.996094 694.683594 C 958.933594 697.886719 961.460938 698.054688 964.15625 698.136719 C 966.769531 698.136719 969.546875 697.714844 971.90625 698.558594 C 984.453125 702.683594 997.675781 703.359375 1010.480469 705.546875 C 1023.363281 707.738281 1036.335938 710.011719 1049.390625 711.613281 C 1067.328125 713.800781 1085.015625 718.433594 1102.953125 721.296875 C 1117.945312 723.65625 1133.023438 725.589844 1147.929688 728.960938 C 1150.960938 729.632812 1154.75 730.390625 1157.363281 727.78125 C 1151.632812 652.578125 1128.980469 583.351562 1085.4375 521.792969 C 1041.558594 459.808594 984.875 413.238281 914.464844 383.679688 Z M 643.273438 922.65625 C 585.75 959.625 530.078125 995.414062 473.816406 1031.628906 C 545.488281 1102.789062 631.816406 1142.625 733.304688 1149.613281 C 731.789062 1139.421875 730.609375 1129.402344 728.671875 1119.546875 C 726.902344 1110.707031 727.410156 1101.609375 725.472656 1093.019531 C 722.355469 1079.378906 721.34375 1065.484375 718.734375 1051.839844 C 715.953125 1037.777344 716.039062 1023.121094 712.839844 1009.144531 C 711.238281 1002.320312 711.492188 995.667969 710.226562 989.015625 C 708.460938 979.5 706.773438 969.898438 705.765625 960.214844 C 705.257812 955.582031 705.089844 951.203125 701.386719 947.160156 C 698.941406 949.773438 696.246094 952.046875 694.308594 954.910156 C 686.394531 966.699219 675.949219 976.382812 666.683594 986.996094 C 658.851562 996.003906 651.273438 1005.351562 643.101562 1014.195312 C 636.367188 1021.523438 631.566406 1030.449219 627.773438 1040.300781 C 619.519531 1062.03125 609.414062 1083.082031 599.898438 1104.390625 C 598.632812 1107.253906 598.042969 1110.875 594.171875 1112.390625 C 590.71875 1110.285156 591.390625 1107.675781 592.65625 1104.8125 C 600.320312 1086.957031 608.152344 1069.105469 615.5625 1051.082031 C 622.972656 1033.226562 634.089844 1016.46875 633.25 995.921875 C 637.714844 986.40625 635.4375 975.878906 637.964844 965.855469 C 640.828125 954.488281 640.15625 942.277344 643.273438 930.738281 C 643.777344 928.800781 643.273438 926.613281 643.273438 922.65625 Z M 581.957031 853.261719 C 565.535156 854.945312 551.46875 853.429688 537.320312 855.871094 C 521.90625 858.566406 505.820312 856.039062 490.074219 858.734375 C 482.914062 859.914062 476.089844 860.925781 469.269531 863.703125 C 442.402344 874.90625 415.367188 885.683594 388.417969 896.632812 C 388.667969 905.644531 400.292969 932.253906 414.105469 955.414062 C 432.96875 987.078125 458.488281 1018.660156 471.207031 1026.070312 C 507.757812 968.972656 544.394531 911.875 581.957031 853.261719 Z M 475.921875 467.640625 C 485.859375 474.125 494.957031 480.359375 504.304688 486.253906 C 542.207031 510.507812 580.105469 534.675781 618.089844 558.761719 C 627.183594 564.488281 635.523438 571.394531 646.050781 576.363281 C 646.050781 573.582031 645.96875 571.898438 646.050781 570.214844 C 647.652344 551.265625 642.34375 532.738281 643.441406 513.875 C 644.199219 501.410156 639.734375 489.367188 640.492188 476.90625 C 640.746094 473.03125 637.882812 468.988281 636.367188 465.113281 C 632.742188 456.105469 628.953125 447.09375 625.332031 438.082031 C 617.921875 419.890625 610.507812 401.617188 603.097656 383.257812 C 554.5 402.207031 513.992188 432.019531 476.007812 467.640625 Z M 801.523438 550.089844 C 805.0625 546.046875 807.082031 543.855469 809.019531 541.582031 C 823.085938 524.992188 836.222656 507.476562 851.46875 492.0625 C 867.21875 476.148438 876.3125 457.199219 884.230469 436.902344 C 891.558594 418.125 900.484375 399.933594 908.738281 381.40625 C 871.851562 363.636719 796.554688 348.394531 772.382812 354.203125 C 782.070312 418.710938 791.164062 483.390625 801.441406 550.089844 Z M 552.566406 696.957031 C 549.449219 694.011719 546.753906 691.230469 543.890625 688.707031 C 533.53125 679.777344 522.667969 671.441406 512.8125 662.007812 C 504.136719 653.671875 494.367188 646.765625 485.691406 638.34375 C 479.796875 632.535156 472.386719 627.902344 464.46875 624.535156 C 439.960938 614.34375 415.621094 603.984375 391.195312 593.628906 C 373.929688 629.417969 358.179688 697.886719 360.539062 726.601562 C 422.527344 718.769531 483.925781 707.402344 545.910156 700.328125 C 548.101562 700.074219 550.121094 698.136719 552.648438 696.875 Z M 577.832031 639.691406 C 541.027344 582.511719 505.988281 528.191406 470.871094 473.621094 C 438.359375 507.222656 412.589844 544.53125 393.890625 586.214844 C 396.5 590.679688 401.050781 590.089844 404.417969 591.605469 C 427.160156 601.964844 449.984375 611.902344 472.890625 621.671875 C 479.039062 624.28125 485.609375 627.734375 492.007812 627.816406 C 501.527344 627.902344 510.371094 631.1875 519.886719 631.1875 C 528.644531 631.1875 537.320312 634.050781 546.078125 635.144531 C 555.679688 636.324219 565.367188 636.578125 577.746094 639.609375 Z M 610.171875 380.3125 C 610.59375 382.667969 610.507812 384.015625 611.015625 385.109375 C 620.363281 408.1875 629.710938 431.34375 639.144531 454.335938 C 643.441406 464.863281 646.976562 475.640625 654.21875 484.820312 C 662.980469 495.769531 671.148438 507.222656 679.738281 518.339844 C 686.140625 526.59375 692.710938 534.675781 700.796875 544.78125 C 711.742188 479.261719 722.273438 416.019531 732.882812 351.761719 C 690.265625 355.804688 649.167969 363.300781 610.171875 380.394531 Z M 359.78125 768.457031 C 357.421875 799.449219 374.015625 872.292969 384.375 889.390625 C 386.5625 889.558594 388.5 889.054688 390.605469 888.125 C 409.726562 880.125 428.675781 871.789062 448.128906 864.628906 C 466.488281 857.808594 484.261719 850.3125 499.421875 837.683594 C 502.707031 834.988281 505.988281 832.207031 509.441406 829.765625 C 522.414062 820.417969 534.792969 810.3125 547.511719 800.457031 C 546.332031 799.195312 545.828125 798.101562 545.238281 797.933594 C 487.039062 788.078125 428.84375 778.226562 370.644531 768.457031 C 367.359375 767.953125 363.90625 768.457031 359.867188 768.457031 Z M 700.710938 747.910156 C 697.933594 778.394531 727.914062 802.058594 754.527344 801.890625 C 783.585938 801.722656 809.105469 778.5625 808.261719 747.320312 C 807.421875 715.484375 786.53125 694.9375 753.347656 693.84375 C 722.945312 692.832031 698.941406 721.296875 700.796875 747.910156 Z M 604.949219 808.710938 C 613.792969 837.34375 647.902344 877.09375 683.109375 891.746094 C 688.582031 885.261719 717.050781 820.585938 723.449219 800.207031 C 711.40625 793.972656 704.25 782.859375 697.34375 771.152344 C 666.515625 783.699219 636.113281 796.078125 605.035156 808.710938 Z M 602.253906 802.394531 C 634.175781 789.425781 664.578125 777.132812 696.078125 764.332031 C 690.519531 751.363281 694.226562 739.234375 697.003906 726.179688 C 666.515625 712.875 636.027344 699.652344 604.699219 686.011719 C 589.285156 724.160156 587.011719 762.140625 602.171875 802.394531 Z M 607.5625 680.285156 C 638.890625 693.675781 669.464844 706.8125 699.867188 719.78125 C 704.5 713.800781 707.785156 708.328125 712.25 704.03125 C 717.050781 699.484375 723.03125 696.03125 728.421875 692.160156 C 715.871094 661.335938 703.492188 630.933594 691.109375 600.53125 C 654.472656 615.269531 623.5625 644.660156 607.5625 680.285156 Z M 690.855469 894.609375 C 726.988281 912.378906 780.554688 910.863281 805.902344 896.042969 C 799.753906 876.082031 774.152344 814.691406 768.257812 806.605469 C 756.042969 809.722656 743.242188 807.785156 730.105469 804.25 C 716.964844 834.398438 703.996094 864.210938 690.855469 894.609375 Z M 774.488281 690.136719 C 787.375 660.578125 800.261719 630.851562 813.148438 601.207031 C 771.792969 582.59375 722.273438 585.964844 698.015625 599.691406 C 710.3125 629.921875 722.691406 660.242188 734.820312 690.136719 C 748.800781 686.515625 761.265625 686.769531 774.488281 690.136719 Z M 813.148438 894.695312 C 852.898438 878.945312 883.808594 846.441406 895.683594 814.269531 C 866.375 801.722656 837.066406 789.089844 808.347656 776.792969 C 803.546875 782.773438 799.839844 788.753906 794.871094 793.214844 C 789.984375 797.59375 783.753906 800.542969 777.351562 804.585938 C 787.964844 835.070312 801.691406 864.039062 813.230469 894.695312 Z M 898.546875 686.683594 C 886.925781 651.988281 848.855469 614.679688 818.707031 604.40625 C 806.15625 633.714844 793.523438 663.019531 780.722656 692.832031 C 792.851562 700.578125 802.871094 709.675781 810.453125 722.476562 C 840.015625 710.433594 869.238281 698.558594 898.464844 686.683594 Z M 898.378906 808.542969 C 916.488281 771.234375 914.71875 718.265625 899.390625 693.589844 C 870.25 705.632812 840.773438 717 810.875 729.886719 C 815.253906 736.625 813.90625 743.109375 814.496094 749.339844 C 815.085938 756.246094 812.894531 762.730469 811.378906 770.308594 C 840.097656 784.035156 869.574219 795.574219 898.378906 808.542969 Z M 754.949219 1196.015625 C 754.949219 1196.015625 755.707031 1195.929688 756.042969 1195.847656 C 770.027344 1111.042969 784.089844 1026.324219 797.988281 942.277344 C 794.703125 937.980469 790.492188 938.148438 787.796875 939.496094 C 781.5625 942.527344 775.164062 941.265625 768.847656 941.769531 C 765.140625 942.023438 761.097656 940.59375 756.804688 943.960938 C 759.414062 954.570312 755.035156 965.351562 755.035156 976.46875 C 755.035156 1046.28125 755.035156 1116.011719 755.035156 1185.824219 C 755.035156 1189.195312 755.035156 1192.648438 755.035156 1196.015625 Z M 556.859375 793.382812 C 560.902344 791.449219 561.324219 787.996094 560.3125 785.300781 C 556.4375 774.941406 559.300781 763.234375 553.914062 753.214844 C 512.476562 748.5 470.785156 750.855469 429.265625 750.519531 C 387.238281 750.183594 345.210938 750.519531 303.183594 750.519531 C 303.183594 750.855469 303.183594 751.191406 303.183594 751.445312 C 387.574219 765.425781 471.964844 779.320312 556.859375 793.382812 Z M 947.058594 701.84375 C 945.460938 702.515625 944.449219 703.863281 943.859375 705.464844 C 947.480469 717.253906 945.878906 729.886719 950.09375 742.265625 C 959.105469 742.011719 968.285156 743.78125 977.546875 744.457031 C 986.980469 745.128906 996.5 744.625 1005.929688 744.625 C 1014.941406 744.625 1024.039062 744.625 1033.050781 744.707031 C 1042.484375 744.707031 1052 744.707031 1061.433594 744.707031 C 1070.867188 744.707031 1080.382812 744.707031 1089.816406 744.707031 L 1145.316406 744.707031 C 1154.75 744.707031 1164.269531 744.707031 1173.699219 744.707031 C 1182.628906 744.707031 1191.472656 744.875 1200.230469 743.613281 C 1115.839844 729.632812 1031.449219 715.738281 947.058594 701.757812 Z M 749.222656 298.875 C 749.222656 298.875 748.632812 298.875 748.296875 298.875 C 745.347656 315.886719 742.234375 332.8125 739.453125 349.824219 C 736.671875 366.921875 734.398438 384.015625 731.621094 401.113281 C 728.757812 418.542969 725.472656 435.894531 722.355469 453.324219 C 719.324219 470.335938 717.050781 487.433594 714.019531 504.527344 C 711.070312 521.117188 707.53125 537.875 706.945312 555.140625 C 721.09375 553.203125 733.894531 551.519531 746.445312 549.835938 C 751.074219 507.726562 748.800781 466.125 749.140625 424.523438 C 749.476562 382.585938 749.140625 340.730469 749.140625 298.789062 Z M 503.714844 1001.394531 C 504.222656 1002.070312 504.726562 1002.742188 505.230469 1003.332031 C 544.058594 978.40625 582.886719 953.394531 621.710938 928.464844 C 628.449219 924.085938 635.1875 919.707031 642.007812 915.410156 C 643.441406 914.484375 644.871094 913.644531 647.230469 912.210938 C 635.1875 905.390625 626.34375 897.558594 616.910156 889.136719 C 578.757812 926.949219 541.277344 964.171875 503.714844 1001.394531 Z M 893.15625 882.316406 C 931.394531 920.800781 968.703125 958.277344 1005.929688 995.835938 C 1006.605469 995.332031 1007.277344 994.828125 1007.953125 994.320312 C 977.714844 947.496094 947.648438 900.503906 917.078125 853.429688 C 909.75 864.039062 903.011719 873.21875 893.15625 882.398438 Z M 498.410156 499.222656 C 497.90625 499.644531 497.398438 500.148438 496.894531 500.570312 C 498.832031 504.359375 500.347656 508.316406 502.707031 511.769531 C 530.078125 552.109375 555.851562 593.457031 581.957031 634.554688 C 583.222656 636.578125 584.570312 639.1875 587.855469 638.597656 C 594.929688 629.671875 602.003906 620.660156 609.414062 611.226562 C 572.355469 573.835938 535.382812 536.53125 498.410156 499.136719 Z M 887.851562 604.828125 C 896.609375 598.175781 903.769531 590.089844 911.433594 582.761719 C 918.929688 575.605469 926.339844 568.109375 933.417969 560.445312 C 940.828125 552.445312 948.574219 544.699219 956.410156 537.035156 C 963.90625 529.625 971.820312 522.632812 979.316406 515.222656 C 986.476562 508.148438 993.296875 500.738281 1000.289062 493.496094 C 995.488281 494.335938 991.527344 495.855469 988.074219 498.128906 C 947.648438 525.246094 906.464844 551.265625 865.363281 577.375 C 863.257812 578.722656 860.734375 579.898438 861.238281 583.605469 C 870.082031 590.34375 879.765625 596.574219 887.851562 604.828125 Z M 883.21875 877.347656 C 878.167969 872.628906 873.957031 868.671875 869.492188 864.460938 C 854.585938 881.472656 835.71875 891.917969 816.347656 902.273438 C 818.957031 908.84375 821.316406 914.570312 823.589844 920.378906 C 839.507812 917.6875 872.609375 897.222656 883.21875 883.578125 C 881.789062 881.726562 882.210938 879.789062 883.21875 877.429688 Z M 940.492188 751.277344 L 917.917969 751.277344 C 919.015625 772.414062 910.929688 791.277344 907.308594 809.804688 C 913.960938 814.945312 920.445312 816.796875 927.605469 819.492188 C 935.523438 797.679688 941.921875 775.617188 940.492188 751.277344 Z M 927.519531 675.0625 C 918.257812 653.335938 906.886719 634.722656 891.726562 619.144531 C 886.082031 624.703125 880.609375 630.09375 874.796875 635.820312 C 887.597656 649.378906 896.273438 666.726562 906.128906 683.90625 C 913.875 680.707031 920.363281 678.011719 927.519531 675.0625 Z M 679.910156 921.980469 C 702.226562 930.65625 724.714844 936.71875 749.140625 935.960938 C 749.140625 927.792969 750.148438 920.632812 748.210938 912.96875 C 726.988281 915.75 707.953125 908.335938 688.667969 902.441406 C 684.539062 909.179688 681.003906 914.824219 679.992188 921.980469 Z M 760.425781 559.015625 L 760.425781 581.164062 C 779.207031 584.277344 797.902344 586.972656 815.675781 594.46875 C 818.539062 587.5625 823.339844 581.414062 824.855469 571.730469 C 804.472656 564.234375 783.585938 559.605469 760.425781 559.097656 Z M 627.4375 604.742188 C 632.914062 611.734375 637.292969 617.460938 641.925781 623.355469 C 655.398438 610.132812 672.328125 603.144531 687.910156 593.878906 C 685.46875 585.710938 682.433594 578.890625 678.898438 572.40625 C 659.359375 579.730469 643.101562 590.933594 627.4375 604.660156 Z M 578.167969 819.574219 C 584.570312 841.472656 598.296875 858.0625 612.195312 875.074219 C 617.921875 869.429688 622.722656 864.714844 627.945312 859.492188 C 615.394531 845.175781 606.046875 828.921875 597.371094 811.828125 C 590.96875 814.4375 585.578125 816.628906 578.167969 819.660156 Z M 578.671875 675.316406 C 569.15625 690.726562 562.167969 722.898438 565.28125 736.539062 L 585.664062 736.539062 C 587.683594 718.097656 591.390625 700.664062 598.464844 683.820312 C 591.644531 681.210938 585.832031 676.578125 578.671875 675.398438 Z M 565.449219 688.789062 C 550.710938 677.335938 537.488281 664.03125 524.183594 650.554688 C 516.519531 649.207031 510.117188 643.902344 502.117188 642.640625 C 521.570312 661 541.28125 678.769531 562.167969 695.441406 C 563.34375 693.085938 564.273438 691.230469 565.449219 688.789062 Z M 694.730469 932.929688 C 684.792969 944.972656 675.445312 956.171875 664.664062 965.941406 C 655.0625 974.53125 651.609375 986.152344 648.15625 998.28125 C 665.589844 978.152344 683.023438 958.109375 700.628906 937.8125 C 698.605469 936.128906 697.257812 935.117188 694.730469 933.011719 Z M 856.183594 497.117188 C 838.835938 517.160156 821.484375 537.117188 803.210938 558.257812 C 807.25 558.425781 809.777344 558.59375 813.398438 558.761719 C 819.96875 549.328125 827.71875 540.066406 836.898438 532.402344 C 847.847656 523.222656 852.816406 510.929688 856.269531 497.117188 Z M 1002.058594 852.503906 C 983.023438 834.144531 963.144531 816.628906 942.34375 799.871094 C 941.25 801.972656 940.320312 803.742188 939.144531 806.015625 C 947.816406 813.933594 957.335938 821.261719 965.335938 830.101562 C 975.441406 841.21875 987.824219 847.957031 1002.140625 852.503906 Z M 848.855469 917.179688 C 846.75 919.203125 846.246094 919.453125 846.246094 919.707031 C 846.246094 938.148438 846.246094 956.59375 846.246094 976.300781 C 850.203125 980.847656 849.953125 988.847656 855.847656 994.238281 C 851.046875 969.226562 855.511719 943.539062 848.941406 917.097656 Z M 504.644531 849.554688 C 513.148438 849.808594 521.320312 851.15625 530.078125 849.050781 C 538.585938 846.945312 548.015625 848.039062 557.113281 848.292969 C 565.535156 848.460938 573.199219 845.683594 581.285156 844.503906 C 581.03125 842.988281 581.03125 842.230469 580.949219 842.230469 C 562.167969 839.535156 543.300781 841.890625 525.699219 840.882812 C 518.035156 844.082031 511.378906 846.859375 504.726562 849.554688 Z M 654.808594 576.699219 C 656.496094 575.269531 657.671875 574.761719 657.757812 574.089844 C 660.453125 556.152344 657.925781 538.128906 659.019531 519.769531 C 654.21875 514.464844 654.726562 506.296875 647.988281 498.632812 C 652.113281 525.835938 650.261719 551.015625 654.808594 576.699219 Z M 1000.203125 645.503906 C 986.726562 641.714844 974.261719 647.863281 961.546875 647.101562 C 948.828125 646.429688 936.109375 647.101562 923.5625 650.726562 C 924.488281 651.734375 925.246094 653.335938 926.257812 653.417969 C 944.195312 655.441406 962.304688 653.417969 979.0625 654.261719 C 986.644531 651.0625 993.214844 648.367188 1000.289062 645.417969 Z M 583.8125 646.851562 C 558.964844 643.398438 534.625 640.03125 507.925781 636.324219 C 530.921875 649.882812 554.503906 648.449219 577.15625 651.652344 C 580.105469 652.070312 581.957031 650.386719 583.8125 646.851562 Z M 641.167969 989.605469 C 649.589844 975.878906 653.460938 960.972656 653.632812 945.140625 C 653.632812 940.929688 654.21875 936.886719 655.316406 932.59375 C 656.746094 927.285156 658.433594 920.886719 651.527344 915.074219 C 647.988281 940.761719 644.535156 965.183594 641.167969 989.605469 Z M 920.78125 847.703125 C 933.332031 850.820312 945.460938 852 957.503906 853.429688 C 969.632812 854.777344 981.675781 856.882812 996.5 858.988281 C 973.421875 845.34375 950.09375 846.945312 927.773438 843.578125 C 924.992188 843.15625 922.71875 844.082031 920.699219 847.703125 Z M 862.839844 505.539062 C 849.867188 525.917969 851.550781 549.328125 848.183594 571.648438 C 847.929688 573.5 847.511719 576.109375 852.898438 576.699219 C 857.617188 553.203125 858.964844 529.203125 862.921875 505.539062 Z M 803.628906 938.738281 C 816.09375 954.992188 828.476562 971.246094 842.035156 989.015625 C 840.941406 979.414062 840.351562 977.5625 836.730469 973.4375 C 833.949219 970.234375 831.421875 966.699219 828.726562 963.582031 C 820.894531 954.742188 815 944.128906 803.714844 938.738281 Z M 991.949219 658.136719 C 987.148438 655.863281 983.695312 658.472656 981.675781 660.324219 C 968.621094 671.945312 953.125 680.957031 940.320312 695.949219 C 949.417969 691.652344 983.105469 666.726562 991.949219 658.21875 Z M 510.621094 837.511719 C 520.5625 836.25 522.328125 835.914062 526.289062 832.039062 C 533.363281 825.21875 541.195312 819.40625 549.28125 813.847656 C 554.503906 810.3125 559.132812 804.5 561.996094 798.183594 C 544.5625 811.492188 528.394531 823.953125 510.621094 837.511719 Z M 662.894531 508.234375 C 661.886719 514.464844 665 518.761719 668.707031 522.972656 C 674.351562 529.371094 679.910156 535.769531 684.792969 542.761719 C 688.921875 548.65625 694.058594 553.289062 699.699219 557.582031 C 689.003906 539.980469 675.613281 524.402344 662.894531 508.234375 Z M 576.988281 834.734375 C 573.875 829.765625 574.042969 824.964844 569.242188 822.859375 C 560.144531 826.566406 550.964844 830.355469 540.351562 834.734375 Z M 827.128906 929.644531 C 831.171875 939.078125 834.792969 947.582031 839.339844 958.023438 L 839.339844 923.414062 C 834.539062 924.339844 831.085938 926.277344 827.128906 929.558594 Z M 665.085938 570.636719 C 669.464844 569.035156 673.675781 567.519531 676.792969 564.40625 C 672.917969 554.886719 669.210938 545.707031 665.085938 535.601562 Z M 962.808594 660.578125 L 928.363281 660.578125 C 931.648438 664.621094 931.648438 669.421875 935.605469 672.117188 C 944.027344 668.578125 952.535156 664.957031 962.894531 660.578125 Z M 667.273438 949.601562 C 667.695312 951.035156 668.285156 951.371094 668.960938 950.699219 C 675.023438 944.71875 681.085938 938.65625 687.402344 932.507812 C 683.445312 930.992188 680.667969 927.792969 675.867188 929.390625 C 673.085938 935.960938 670.140625 942.867188 667.359375 949.6875 Z M 953.546875 832.125 C 948.324219 826.648438 942.257812 820.332031 936.449219 814.355469 C 935.691406 816.878906 934.679688 819.996094 933.5 823.703125 C 940.828125 826.734375 947.902344 829.765625 953.628906 832.125 Z M 566.796875 680.621094 C 567.050781 682.136719 567.726562 682.136719 568.0625 681.210938 C 568.988281 678.09375 569.914062 674.894531 570.925781 671.273438 C 563.683594 668.324219 556.523438 665.378906 548.773438 662.261719 C 555.175781 668.832031 560.988281 674.726562 566.796875 680.707031 Z M 819.632812 560.109375 C 820.8125 566.003906 826.621094 562.46875 828.898438 566.089844 C 831.84375 558.59375 834.539062 551.519531 837.488281 543.941406 C 831.003906 549.835938 825.273438 554.972656 819.632812 560.027344 Z M 819.632812 560.109375 " fill-opacity="1" fill-rule="nonzero"/><path fill="#000000" d="M 471.289062 438.25 C 451.5 430.925781 436.339844 419.386719 418.398438 414.164062 C 417.304688 413.828125 415.957031 414.503906 414.945312 414.585938 C 412.082031 418.460938 413.9375 421.070312 416.546875 423.679688 C 425.980469 433.113281 435.496094 442.460938 444.84375 452.0625 C 446.78125 454 450.152344 455.429688 448.886719 459.976562 C 430.695312 457.621094 412.417969 455.179688 395.070312 452.988281 C 403.578125 462 412.335938 471.179688 422.441406 481.875 C 422.441406 481.875 424.210938 478.421875 426.316406 480.609375 C 425.390625 485.832031 420.253906 487.433594 417.808594 491.390625 C 414.863281 488.441406 417.136719 484.988281 414.273438 480.695312 C 403.238281 471.261719 393.808594 457.113281 378.394531 448.105469 C 380.582031 444.484375 384.796875 441.199219 388.753906 437.660156 C 401.890625 438.925781 414.609375 442.378906 428.085938 442.378906 C 422.191406 436.734375 416.714844 431.511719 409.472656 424.609375 C 409.472656 424.609375 406.523438 424.1875 403.578125 423.679688 C 415.285156 405.910156 431.453125 393.027344 445.855469 377.449219 C 446.78125 380.816406 447.457031 383.175781 448.296875 386.039062 C 456.046875 389.910156 463.964844 393.871094 473.902344 398.921875 C 468.257812 386.964844 464.722656 376.269531 455.542969 368.6875 C 457.058594 366.332031 458.824219 363.972656 462.109375 362.792969 C 468.679688 382.246094 479.628906 399.597656 488.386719 419.554688 C 477.1875 416.605469 468.847656 409.535156 457.394531 406.082031 C 460.511719 417.449219 467.164062 425.957031 471.460938 438.167969 Z M 435.832031 396.058594 C 432.210938 396.394531 429.9375 397.742188 429.347656 401.703125 C 437.347656 408.355469 446.445312 412.816406 457.140625 416.945312 C 454.023438 409.617188 450.234375 404.648438 446.867188 399.933594 C 442.65625 398.5 439.117188 397.238281 435.832031 396.058594 Z M 435.832031 396.058594 " fill-opacity="1" fill-rule="nonzero"/><path fill="#000000" d="M 428.589844 1014.785156 C 422.191406 1023.710938 418.484375 1033.734375 412.503906 1044.765625 C 424.96875 1042.492188 433.054688 1033.988281 445.097656 1031.710938 C 437.769531 1052.007812 424.800781 1068.261719 420.167969 1088.304688 C 409.726562 1077.441406 399.28125 1066.660156 389.007812 1056.050781 C 395.15625 1051.671875 399.027344 1045.269531 405.597656 1027.164062 C 396.839844 1032.050781 388.835938 1036.429688 380.667969 1040.976562 C 380.164062 1042.746094 379.574219 1044.765625 378.984375 1046.871094 C 374.6875 1045.1875 372.5 1041.566406 368.878906 1037.355469 C 375.785156 1037.609375 380.753906 1035.503906 385.722656 1032.890625 C 397.089844 1026.996094 408.628906 1021.523438 420.082031 1015.796875 C 422.359375 1014.617188 424.464844 1012.933594 428.507812 1014.699219 Z M 408.207031 1071.546875 C 417.21875 1064.472656 419.914062 1055.039062 423.707031 1045.691406 C 412.335938 1049.230469 404.503906 1054.957031 403.828125 1068.007812 C 404.585938 1068.597656 405.851562 1069.695312 408.207031 1071.628906 Z M 408.207031 1071.546875 " fill-opacity="1" fill-rule="nonzero"/><path fill="#000000" d="M 1048.546875 1060.683594 C 1042.316406 1066.070312 1041.21875 1071.800781 1043.242188 1078.453125 C 1038.105469 1077.695312 1036.671875 1073.902344 1032.964844 1070.703125 C 1038.441406 1065.144531 1043.492188 1060.09375 1048.546875 1054.957031 C 1053.347656 1050.070312 1058.0625 1045.101562 1062.695312 1040.386719 C 1067.160156 1042.746094 1062.445312 1044.933594 1062.949219 1045.777344 C 1074.824219 1057.566406 1085.773438 1068.515625 1096.636719 1079.378906 C 1098.742188 1082.664062 1102.871094 1079.628906 1104.808594 1081.566406 C 1095.796875 1090.664062 1086.785156 1099.675781 1077.265625 1109.191406 C 1074.570312 1108.515625 1072.71875 1105.652344 1070.867188 1102.875 C 1077.378906 1101.527344 1082.433594 1098.242188 1086.027344 1093.019531 C 1084.089844 1086.117188 1078.023438 1082.832031 1073.730469 1078.621094 C 1067.582031 1079.628906 1068.171875 1084.179688 1066.90625 1088.472656 C 1063.035156 1086.285156 1060.589844 1083.082031 1057.980469 1080.050781 C 1060.421875 1076.851562 1064.886719 1080.050781 1067.496094 1076.261719 C 1068.339844 1068.261719 1059.917969 1066.324219 1056.96875 1061.523438 C 1053.683594 1060.007812 1051.15625 1060.515625 1048.546875 1060.765625 Z M 1048.546875 1060.683594 " fill-opacity="1" fill-rule="nonzero"/><path fill="#000000" d="M 1079.289062 392.4375 C 1077.941406 404.566406 1076.425781 417.535156 1074.65625 433.367188 C 1082.234375 426.714844 1087.203125 421.238281 1092.761719 415.765625 C 1093.101562 413.15625 1093.519531 410.292969 1094.027344 406.585938 C 1098.238281 408.945312 1100.847656 412.144531 1104.21875 416.4375 C 1097.734375 415.765625 1094.363281 419.554688 1090.910156 423.175781 C 1082.742188 431.429688 1074.570312 439.683594 1066.234375 447.851562 C 1064.210938 449.871094 1062.695312 452.902344 1058.148438 452.566406 C 1057.054688 443.386719 1059.328125 434.292969 1061.097656 425.617188 C 1062.949219 416.355469 1060.421875 406.753906 1065.980469 397.070312 C 1052.503906 405.742188 1038.691406 420.648438 1035.578125 429.324219 C 1032.207031 427.300781 1029.679688 424.4375 1026.566406 420.3125 C 1029.679688 419.890625 1032.292969 419.472656 1034.902344 419.132812 C 1058.234375 398.667969 1065.558594 390.5 1068.761719 380.898438 C 1072.296875 384.773438 1075.667969 388.480469 1079.371094 392.523438 Z M 1079.289062 392.4375 " fill-opacity="1" fill-rule="nonzero"/><path fill="#000000" d="M 1118.621094 435.894531 C 1113.144531 440.945312 1108.429688 445.242188 1104.050781 449.367188 C 1104.21875 454.335938 1108.09375 454.757812 1110.957031 456.273438 C 1110.957031 459.894531 1107.082031 460.316406 1105.816406 464.105469 C 1103.460938 459.894531 1101.773438 456.863281 1100.511719 454.589844 C 1094.699219 459.808594 1089.058594 465.03125 1083.667969 469.914062 C 1083.667969 474.546875 1087.625 475.726562 1089.5625 478.757812 L 1103.710938 478.757812 C 1101.523438 483.558594 1098.238281 485.917969 1095.710938 488.023438 C 1085.941406 478.253906 1076.339844 468.652344 1066.484375 458.800781 C 1067.917969 456.273438 1071.707031 459.976562 1073.222656 457.871094 C 1083.921875 447.09375 1094.195312 436.734375 1104.554688 426.460938 C 1107.839844 424.4375 1104.976562 420.230469 1107.25 418.039062 C 1116.09375 426.796875 1124.9375 435.554688 1133.949219 444.566406 C 1133.023438 446.671875 1131.085938 448.863281 1127.800781 450.292969 C 1127.378906 443.722656 1123.839844 439.175781 1118.703125 436.0625 Z M 1118.621094 435.894531 " fill-opacity="1" fill-rule="nonzero"/><path fill="#000000" d="M 1103.796875 1023.039062 C 1098.574219 1025.648438 1095.878906 1022.027344 1091.667969 1021.945312 C 1088.214844 1022.53125 1084.507812 1024.386719 1081.5625 1027.164062 C 1079.960938 1030.449219 1080.128906 1033.3125 1081.140625 1035.839844 C 1083.164062 1039.628906 1086.953125 1039.882812 1090.40625 1042.15625 C 1103.796875 1036.089844 1117.1875 1033.144531 1126.703125 1049.566406 C 1127.210938 1063.882812 1123.503906 1069.1875 1108.261719 1075.757812 C 1105.648438 1074.15625 1103.460938 1072.21875 1101.945312 1069.523438 C 1104.808594 1066.914062 1107.417969 1068.765625 1110.027344 1069.945312 C 1114.914062 1068.261719 1119.546875 1066.074219 1121.484375 1061.019531 C 1121.988281 1057.988281 1121.0625 1055.714844 1118.199219 1053.691406 C 1114.578125 1052.175781 1110.535156 1052.429688 1106.324219 1054.113281 C 1103.207031 1055.378906 1100.089844 1056.808594 1096.804688 1057.652344 C 1085.351562 1060.597656 1076.257812 1055.378906 1071.960938 1043.671875 C 1071.539062 1042.492188 1070.867188 1041.398438 1070.867188 1041.3125 C 1070.867188 1025.480469 1085.4375 1021.945312 1092.511719 1011.921875 C 1096.132812 1015.542969 1099.753906 1019.164062 1103.628906 1023.121094 Z M 1103.796875 1023.039062 " fill-opacity="1" fill-rule="nonzero"/><path fill="#000000" d="M 487.292969 1075.589844 C 484.429688 1079.042969 481.058594 1082.832031 475.25 1086.789062 C 476.847656 1080.390625 479.207031 1075.167969 477.4375 1069.355469 C 475.585938 1066.242188 472.808594 1063.714844 469.523438 1061.355469 C 466.320312 1062.449219 463.121094 1063.460938 460.847656 1066.492188 C 457.058594 1076.683594 465.816406 1086.367188 461.691406 1098.664062 C 460.089844 1101.863281 455.710938 1105.316406 451.5 1108.769531 C 438.191406 1109.863281 430.527344 1105.652344 426.90625 1095.378906 C 425.980469 1092.851562 425.640625 1090.15625 426.90625 1087.882812 C 428.085938 1085.777344 429.433594 1083.253906 433.476562 1084.429688 C 431.453125 1088.222656 431.371094 1092.347656 431.875 1096.472656 C 433.054688 1099.925781 435.75 1101.949219 438.527344 1103.800781 C 441.980469 1104.472656 444.675781 1103.632812 446.359375 1100.601562 C 450.824219 1088.726562 439.203125 1078.789062 442.570312 1066.746094 C 447.457031 1060.429688 452.679688 1054.28125 461.351562 1052.683594 C 474.660156 1054.871094 478.871094 1067.589844 487.378906 1075.503906 Z M 487.292969 1075.589844 " fill-opacity="1" fill-rule="nonzero"/><path fill="#000000" d="M 535.046875 364.226562 C 531.59375 358.75 528.226562 354.542969 530.414062 348.226562 C 532.183594 345.023438 535.382812 342.160156 539.089844 339.550781 C 545.574219 337.53125 550.460938 340.644531 554.921875 344.519531 C 557.027344 348.984375 555.847656 353.277344 556.101562 357.066406 C 554.921875 361.195312 551.636719 362.710938 549.617188 364.984375 C 544.480469 365.488281 539.847656 365.910156 535.132812 364.226562 Z M 535.046875 364.226562 " fill-opacity="1" fill-rule="nonzero"/><path fill="#000000" d="M 955.820312 1130.074219 L 967.355469 1130.074219 C 972.914062 1134.203125 975.609375 1139.421875 974.515625 1146.328125 C 972.242188 1150.117188 969.292969 1153.148438 965.757812 1155.425781 C 960.421875 1155.761719 955.03125 1154.132812 949.585938 1150.539062 C 947.480469 1146.328125 948.660156 1141.613281 948.574219 1137.148438 C 950.429688 1134.117188 952.785156 1131.675781 955.820312 1129.992188 Z M 955.820312 1130.074219 " fill-opacity="1" fill-rule="nonzero"/><path fill="#000000" d="M 363.402344 943.875 C 365.84375 946.402344 367.867188 948.59375 369.71875 950.53125 C 370.054688 955.160156 370.476562 959.371094 369.128906 964.089844 C 364.917969 967.710938 360.371094 971.332031 353.632812 969.898438 C 349.589844 967.710938 346.472656 964.339844 344.03125 960.46875 C 342.429688 953.730469 345.714844 949.011719 349.675781 944.632812 C 354.136719 943.203125 358.433594 943.875 363.488281 943.960938 Z M 363.402344 943.875 " fill-opacity="1" fill-rule="nonzero"/><path fill="#000000" d="M 1155.003906 551.351562 L 1141.527344 551.351562 C 1139.507812 549.5 1137.402344 547.476562 1135.210938 545.371094 C 1134.199219 540.992188 1134.539062 536.699219 1134.957031 532.234375 C 1138.664062 527.097656 1143.632812 524.402344 1150.203125 525.160156 C 1154.5 526.84375 1157.191406 530.128906 1160.140625 533.917969 C 1163.257812 540.738281 1158.792969 545.539062 1155.085938 551.265625 Z M 1155.003906 551.351562 " fill-opacity="1" fill-rule="nonzero"/><path fill="#000000" d="M 874.796875 1192.058594 C 867.636719 1193.574219 861.40625 1192.058594 856.351562 1186.332031 C 854.5 1182.121094 855.59375 1177.824219 855.425781 1173.53125 C 858.039062 1169.488281 861.320312 1166.203125 865.363281 1163.929688 C 871.175781 1162.414062 875.300781 1165.699219 879.933594 1168.140625 C 881.367188 1171.257812 882.796875 1174.289062 884.316406 1177.574219 C 883.050781 1183.636719 880.273438 1188.6875 874.714844 1192.058594 Z M 860.730469 1178.5 C 862.839844 1182.792969 865.195312 1185.574219 869.324219 1186.753906 C 871.511719 1185.488281 873.703125 1184.140625 875.722656 1182.960938 C 876.144531 1179.257812 876.988281 1175.804688 873.957031 1173.109375 C 868.226562 1172.042969 863.820312 1173.839844 860.730469 1178.5 Z M 860.730469 1178.5 " fill-opacity="1" fill-rule="nonzero"/><path fill="#000000" d="M 649.082031 321.695312 C 646.136719 325.824219 643.101562 328.855469 639.566406 331.046875 C 633.753906 333.152344 629.542969 329.867188 625.078125 327.425781 C 622.300781 324.5625 621.457031 320.769531 620.109375 317.316406 C 621.710938 311.675781 623.902344 306.707031 629.542969 303.253906 C 636.195312 301.484375 642.34375 303.253906 647.398438 308.054688 C 650.261719 312.9375 648.324219 317.65625 649.082031 321.78125 Z M 629.964844 321.78125 C 636.644531 323.242188 641.195312 321.136719 643.609375 315.464844 C 641.335938 313.023438 639.734375 309.484375 635.355469 308.390625 C 633.164062 309.570312 630.976562 310.832031 628.953125 311.929688 C 628.195312 315.210938 627.859375 318.160156 629.964844 321.695312 Z M 629.964844 321.78125 " fill-opacity="1" fill-rule="nonzero"/><path fill="#000000" d="M 1172.351562 619.902344 C 1176.5625 618.050781 1179.679688 616.703125 1182.460938 615.4375 C 1188.4375 617.039062 1193.324219 619.480469 1196.609375 624.785156 C 1198.292969 631.691406 1196.945312 637.925781 1191.304688 643.230469 C 1186.839844 645.25 1182.121094 644.324219 1177.660156 644.15625 C 1174.039062 641.375 1170.921875 638.429688 1169.066406 635.3125 C 1166.542969 628.996094 1170.753906 625.039062 1172.4375 619.902344 Z M 1184.058594 639.101562 C 1187.34375 636.660156 1190.207031 634.808594 1191.554688 630.511719 C 1189.28125 629.082031 1190.039062 625.292969 1186.671875 623.945312 C 1183.722656 623.945312 1180.691406 623.019531 1178.25 625.460938 C 1176.5625 631.75 1178.5 636.269531 1184.058594 639.019531 Z M 1184.058594 639.101562 " fill-opacity="1" fill-rule="nonzero"/><path fill="#000000" d="M 326.597656 850.820312 C 330.304688 854.019531 333.25 856.546875 334.261719 857.386719 C 338.050781 865.976562 334.175781 870.441406 331.734375 875.410156 C 328.535156 876.925781 325.503906 878.355469 322.300781 879.789062 C 316.152344 878.527344 311.183594 875.578125 307.816406 870.441406 C 306.300781 863.03125 307.816406 856.796875 313.542969 851.746094 C 317.753906 849.976562 322.132812 851.070312 326.683594 850.820312 Z M 320.535156 856.207031 C 316.996094 858.484375 314.386719 860.589844 313.121094 863.871094 C 313.878906 866.902344 314.976562 869.515625 317.753906 871.453125 C 320.535156 871.199219 323.648438 872.378906 326.09375 869.765625 C 327.890625 863.535156 326.035156 859.015625 320.535156 856.207031 Z M 320.535156 856.207031 " fill-opacity="1" fill-rule="nonzero"/><path fill="#000000" d="M 877.324219 302.832031 C 881.367188 306.035156 884.398438 308.980469 886.503906 312.6875 C 888.019531 318.328125 885.074219 322.625 881.871094 327.425781 C 879.429688 328.601562 876.398438 330.117188 873.367188 331.550781 C 867.132812 330.539062 862.078125 327.929688 858.796875 322.371094 C 857.449219 306.875 861.070312 302.917969 877.324219 302.832031 Z M 877.070312 321.613281 C 878.53125 315.101562 876.59375 310.691406 871.261719 308.390625 C 867.722656 309.90625 865.195312 312.519531 863.679688 316.222656 C 864.945312 318.582031 866.207031 320.769531 867.554688 323.214844 C 870.503906 323.042969 873.535156 324.140625 877.070312 321.613281 Z M 877.070312 321.613281 " fill-opacity="1" fill-rule="nonzero"/><path fill="#000000" d="M 316.574219 613.585938 C 322.808594 611.734375 326.597656 614.933594 330.640625 616.785156 C 333.671875 619.566406 334.429688 623.4375 336.113281 626.976562 C 334.597656 632.785156 332.324219 638.09375 326.511719 641.207031 C 311.101562 642.050781 307.3125 638.34375 307.480469 622.511719 C 309.835938 618.976562 312.953125 616.027344 316.574219 613.585938 Z M 312.699219 627.816406 C 314.300781 632.027344 316.996094 634.050781 319.859375 635.902344 C 322.976562 635.480469 325.335938 633.882812 327.609375 632.027344 C 327.945312 628.574219 328.871094 625.125 325.671875 622.511719 C 320 621.445312 315.675781 623.214844 312.703125 627.816406 Z M 312.699219 627.816406 " fill-opacity="1" fill-rule="nonzero"/><path fill="#000000" d="M 1172.605469 878.019531 C 1170.835938 874.148438 1169.574219 871.453125 1168.308594 868.671875 C 1169.238281 862.523438 1171.933594 857.472656 1177.492188 854.1875 C 1192.988281 852.839844 1196.945312 856.460938 1197.03125 872.378906 C 1194.585938 876.335938 1191.132812 879.453125 1187.597656 881.640625 C 1181.363281 883.832031 1177.492188 879.789062 1172.605469 877.9375 Z M 1178.25 872.546875 C 1184.875 873.949219 1189.253906 871.929688 1191.386719 866.484375 C 1189.703125 863.113281 1187.261719 860.335938 1183.386719 859.070312 C 1181.027344 860.417969 1178.921875 861.683594 1176.816406 862.777344 C 1176.3125 866.0625 1175.722656 869.007812 1178.164062 872.460938 Z M 1178.25 872.546875 " fill-opacity="1" fill-rule="nonzero"/><path fill="#000000" d="M 618.171875 1182.960938 C 616.40625 1176.898438 619.605469 1173.109375 621.796875 1168.476562 C 624.742188 1166.960938 628.113281 1165.191406 631.226562 1163.507812 C 637.628906 1165.023438 642.933594 1167.382812 645.96875 1173.277344 C 646.808594 1188.605469 643.101562 1192.394531 627.183594 1192.226562 C 623.730469 1189.785156 620.699219 1186.835938 618.171875 1182.960938 Z M 627.691406 1173.277344 C 625.726562 1180.578125 627.886719 1185.011719 634.175781 1186.582031 C 636.785156 1184.476562 639.734375 1182.710938 640.828125 1178.921875 C 639.648438 1176.816406 638.472656 1174.539062 637.039062 1171.929688 C 634.261719 1171.929688 631.3125 1171.003906 627.691406 1173.195312 Z M 627.691406 1173.277344 " fill-opacity="1" fill-rule="nonzero"/><path fill="#000000" d="M 351.359375 526.929688 L 351.359375 517.832031 C 353.96875 510.929688 359.613281 509.160156 366.265625 508.148438 C 368.625 508.90625 371.824219 509.917969 374.265625 510.757812 C 377.890625 513.960938 378.5625 517.832031 380.078125 521.117188 C 378.816406 527.351562 375.953125 532.320312 370.308594 535.601562 L 359.445312 535.601562 C 357.085938 533.078125 354.476562 530.296875 351.273438 526.929688 Z M 360.539062 515.476562 C 359.023438 518.421875 357.84375 520.613281 356.496094 523.222656 C 359.445312 525.835938 360.792969 529.625 365.425781 530.128906 C 367.445312 528.867188 369.550781 527.601562 371.570312 526.339844 C 371.292969 519.433594 367.613281 515.8125 360.539062 515.476562 Z M 360.539062 515.476562 " fill-opacity="1" fill-rule="nonzero"/><path fill="#000000" d="M 982.769531 346.710938 C 987.148438 350.75 990.210938 355.496094 991.949219 360.941406 C 991.445312 362.542969 990.855469 364.140625 990.351562 365.742188 C 989.84375 367.339844 989.339844 368.859375 989.085938 369.699219 C 985.800781 373.320312 981.925781 374.078125 978.644531 375.511719 C 972.496094 374.078125 967.355469 371.382812 964.15625 365.742188 L 964.15625 354.960938 C 966.683594 352.605469 969.460938 349.992188 971.0625 348.394531 C 975.609375 345.699219 979.0625 347.046875 982.683594 346.625 Z M 973.253906 367.257812 C 980.382812 366.863281 984.03125 363.269531 984.203125 356.476562 C 981.925781 354.710938 979.652344 352.941406 976.621094 352.605469 C 973.757812 354.371094 971.148438 356.394531 969.632812 360.183594 C 970.640625 362.121094 971.738281 364.308594 973.335938 367.257812 Z M 973.253906 367.257812 " fill-opacity="1" fill-rule="nonzero"/><path fill="#000000" d="M 1124.179688 973.773438 C 1126.285156 967.539062 1128.640625 962.570312 1134.285156 959.539062 L 1143.71875 959.539062 C 1147.421875 962.234375 1150.457031 965.265625 1152.898438 968.71875 C 1153.152344 981.941406 1152.308594 983.121094 1139.167969 987.246094 C 1135.96875 986.238281 1132.851562 985.308594 1130.410156 984.550781 C 1126.703125 981.4375 1126.03125 977.476562 1124.261719 973.773438 Z M 1143.550781 979.753906 C 1144.898438 977.476562 1146.328125 974.953125 1147.675781 972.59375 C 1145.316406 968.972656 1143.296875 965.773438 1139.925781 965.097656 C 1136.136719 964.847656 1134.367188 966.613281 1132.851562 968.972656 C 1132.433594 972.257812 1131.589844 975.625 1134.875 978.742188 C 1137.0625 980.929688 1140.097656 979.835938 1143.464844 979.835938 Z M 1143.550781 979.753906 " fill-opacity="1" fill-rule="nonzero"/><path fill="#000000" d="M 512.558594 1134.453125 C 513.738281 1130.664062 514.582031 1127.886719 515.171875 1125.78125 C 518.285156 1121.992188 522.246094 1121.402344 525.78125 1119.546875 C 531.679688 1120.894531 536.730469 1123.675781 540.269531 1129.484375 L 540.269531 1139.003906 C 537.65625 1142.707031 534.625 1145.65625 531.171875 1148.097656 C 517.949219 1148.519531 516.601562 1147.507812 512.558594 1134.453125 Z M 519.972656 1138.496094 C 522.078125 1140.519531 524.519531 1142.117188 527.636719 1142.707031 C 530.75 1140.6875 534.035156 1138.664062 534.710938 1135.296875 C 534.960938 1131.507812 533.195312 1129.738281 530.414062 1127.96875 C 527.636719 1128.308594 524.097656 1126.707031 521.824219 1129.484375 C 518.960938 1132.433594 519.972656 1135.550781 520.054688 1138.496094 Z M 519.972656 1138.496094 " fill-opacity="1" fill-rule="nonzero"/></svg>