<?xml version="1.0" encoding="UTF-8"?>
<svg id="Layer_1" data-name="Layer 1" xmlns="http://www.w3.org/2000/svg" viewBox="0 0 864 864">
  <path d="M301.58,739.57c-16.24-2.42-32.14-4.72-47.76-8.62-28.48-7.1-50.24-22.83-63.09-49.79-2.17-4.55-4.57-9.01-6.51-13.66-9.09-21.82-22.27-40.18-43.08-52.38-2.59-1.52-6.4-3.17-6.13-6.61,.31-3.92,4.75-3.9,7.52-4.29,64.61-9.05,123.38,.37,168.34,53.45,11.42,13.48,23.05,26.81,35.06,39.76,38.49,41.52,84.87,32.02,116.15-8.83,36.9-48.18,26.2-106.78-24.52-140.31-25.11-16.6-53.85-24.32-81.94-33.61-15.85-5.24-31.77-10.29-46.25-18.89-37.72-22.4-49.48-58.91-32.12-99.16,6.31-14.62,14.78-27.95,24.9-40.04,15.19-18.14,15.56-37.26,5.03-57.15-7.35-13.88-15.77-27.19-24.5-42.09-3.62,9.55-3.96,18.22-5.18,26.64-6.69,46.38-24.56,89.04-43.14,131.52-9.05,20.68-21.14,39.39-35.38,56.79-2.43,2.97-4.04,9.12-8.41,7.15-4.64-2.09-.45-7.18,.2-12.61-9.66,5.94-16.82,12.7-22.3,21.42-1.57,2.49-2.96,6.62-6.84,4.97-2.74-1.17-2.44-4.83-2.23-7.72,.97-12.76,3.76-25.77,16.35-31.08,28.37-11.97,38.03-35.51,43.43-62.97,5.29-26.89,11.87-53.42,24.13-78.31,6.1-12.38,5.68-26.4,6.22-39.94,.82-20.47-.47-41.09,3.89-61.3,4.58-21.27,14.58-30.02,36.11-32.31,4.38-.47,8.82-.62,13.14-1.43,18.04-3.38,25.96-17.39,20.17-35.07-2.07-6.31-5.75-9.63-12.68-8.11-.61,.13-1.25,.14-1.88,.21q-20.31,2.09-25.46-17.5c-1.29-4.84-1.51-10.04-4.41-14.37-1.79-2.67-.76-4.68,1.18-6.66,10.42-10.67,7.49-23.6,6.6-38.74-3.9,7.25-4.62,12.77-3.87,19.46-16.65-15.22-11.4-42.34,9.71-52.74,9.33-4.6,17.82-10.3,26.75-15.34,24.85-14.05,50.34-11.04,75.12,1.22,12.52,6.19,22.88,15.63,33.94,23.98,25.9,19.56,54.26,30.45,87.34,25.64,8.94-1.3,17.1-4.38,24.53-9.29,13.77-9.11,17.29-19.98,11.91-35.56,8.73,1.17,14.01,8.02,14.77,19.17,1.58,23.22-17.27,44.27-42.99,48.26-12.71,1.97-25.03,.17-37.45-2.8,11.57,10.14,25.61,14.16,40.45,16.18,22.95,3.14,44.37-2.57,65.44-10.98,19.41-7.75,39.54-11.32,60.17-6.04,21.49,5.5,37.41,17.71,43.71,40.05,1.48,5.24,2,10.48-2.01,17.06-6.09-19.36-17.39-32.63-36.88-35.94-12.94-2.2-25.33,.88-39.06,9.33,20.27-2.18,37.7-2.55,54.34,4.89-.46,1.09-.7,2.02-.86,2.01-24.65-2.18-46.37,6.68-67.6,17.69-30.9,16.02-62.15,16.31-93.63,1.58-.45-.21-1.16,.16-2.68,.41,18.58,18.72,40.57,29.24,65.72,33.7,23.5,4.18,46.47,1.16,69.25-4.98,19.54-5.26,39.07-7.35,58.36,1.23,17.15,7.64,27.2,21.81,25.68,38.31-10-16.18-23.76-23.89-41.49-22.66-16.08,1.12-30.63,7.46-44.84,15.15,32.32-.27,59.95,8.88,77.99,37.29,9.33,14.7,13.91,30.69,8.92,48.56-.8-.53-1.24-.66-1.31-.89-9.88-33.49-38.49-47.14-77.36-37.21-20.18,5.15-40.26,10.46-61.47,8.97-10.11-.71-19.61-3.79-29.48-5.55,16.37,15.65,36.24,20.42,58,17.48,12.76-1.73,25.19-5.87,37.94-7.7,19.6-2.8,37.98-.15,51.25,16.79,9.77,12.47,9.65,28.35,.1,39.13-3.21,3.62-6.99,6.44-11.76,7.52-3.03,.68-6.89,2.03-9.02-.47-2.4-2.81,1.56-4.81,2.86-7.06,7.81-13.5,1.75-32.56-13.33-41.55-14.18-8.45-29.12-6.73-44.04-2.92-19.62,5-39.25,8.99-59.69,4.24,8.79,8,19.23,11.28,30.7,12.14,10.98,.82,22.12,.32,32.84,3.52,14.71,4.4,25.22,17.86,25.54,33.88-20.28-22.71-44.78-17.84-69.28-12.37-24.14,5.39-48.09,5.81-71.93-1.61-39.58-12.32-65.66-38.63-80.07-77.05-2.87-7.66-5.23-15.52-8.1-23.18-5.08-13.56-13.99-23.79-27.03-30.32-18.51-9.27-33.65-22.11-43.05-41.34-4.44,16.13,1.78,32.54,15.18,40.79,1.34,.83,2.66,1.83,4.13,2.3,25.14,8.04,37.05,26.6,44.19,51.03,7.57,25.89,22.27,48.63,38.23,70.33,3.22,4.38,7.3,7.95,12.11,10.43,29.19,15.08,59.16,28.28,91.54,34.84,9.83,1.99,20.13,1.57,30.09,3.04,15.45,2.27,25.21,12.96,25.41,27.12,.04,2.99,.7,7.07-2.73,8.21-3.21,1.07-4.52-2.79-6.07-4.98-6.12-8.62-12.72-16.44-25.48-17.62,1.25,3.66,6.99,5.01,4.55,8.38-2.52,3.48-6.68,1.06-9.49-.21-32.35-14.6-68.71-12.34-101.67-24.55-19.94-7.39-36.12-18.77-48.05-36.47-8.64-12.82-17.46-25.49-25.22-38.89-2.27-3.92-2.76-7.32-.4-11.37,1.56-2.67,2.62-5.76,3.34-8.79,3-12.49-.99-25.15-9.11-29.64-8.96-4.94-24.33-1.46-32.97,7.46-3.7,3.82-6.57,8.26-9.43,14.6-4.55-7.75-9.17-13.56-15.33-17.95-12.25-8.73-32.48-7.68-38.87,2.11-6,9.2,.05,25.52,12.84,34,6.08,4.03,12.74,6.7,21.73,7.09-5.53-4.73-10.24-8.41-14.51-12.54-4.45-4.29-8.24-9.18-11.38-16.18,16.43,5.54,29.83,13.3,40.62,25.07,3.77,4.11,6.14,5.74,10.66,.5,10.05-11.65,24.1-17.72,38.51-26.15-3.88,14.11-14.18,20.9-24.62,29,8.52,.69,14.55-3.03,22.07-5.38-6.18,12.9-11.29,24.94-15.43,37.4-12.17,36.63-4.25,68.57,22.81,95.51,20.79,20.7,42.83,40.15,63.59,60.87,31,30.94,55.97,65.66,66.14,109.41,17.26,74.23-23.38,149.97-94.82,175.74-12.14,4.38-24.56,7.99-36.72,12.32-25.39,9.03-44.28,26.74-59.75,47.81-36.66,49.93-87.28,65.38-146.32,61.58-11.06-.71-21.97-1.98-32.47-5.68-2.28-.8-5.26-1.28-5.58-4.36-.33-3.2,2.73-3.94,4.77-5.18,2.69-1.63,5.57-2.96,8.39-4.36,17.84-8.84,30.62-22.37,36.15-41.61,9.28-32.29,31.08-50,63.22-56.49,9.52-1.92,18.98-4.13,28.46-6.2Zm-80.02-103.09c31.32,13.59,57.77,34.14,83.18,56.44,13.61,11.95,28.57,22.28,45.78,28.87-22.12-17.72-40.52-39.4-62.29-57.42-19.3-15.98-40.52-27.64-66.67-27.9Zm22.84,199.31c13.93,1.31,27-1.62,39.47-7.4,13.58-6.29,25.48-15.09,36.36-25.23,15.83-14.74,31.1-30.09,47.97-43.78-16.97,6.64-31.94,16.32-45.58,27.99-23.53,20.13-47.6,39.29-78.22,48.42Zm81.17-109.79c-39.56-20.17-80.14-38.6-114.86-67.13,26.24,43.16,68.9,57.99,114.86,67.13Zm-91.83,84.1c26.76-29.17,63.36-41.49,97.85-57.33-42.16,2.98-77.26,18-97.85,57.33Z"/>
  <path d="M619.91,139.96c-8.91,17.29-33.13,24.81-53.7,16.94,20.41-.38,36.6-10.14,53.7-16.94Z"/>
</svg>