<svg id="Layer_1" data-name="Layer 1" xmlns="http://www.w3.org/2000/svg" viewBox="0 0 891.95 1154.47"><defs><style>.cls-1{fill:#1b1b1b;}.cls-1,.cls-2{fill-rule:evenodd;}.cls-2{fill:#fff;}</style></defs><path class="cls-1" d="M901.61,576a270,270,0,0,1,70.49-48.76,274.65,274.65,0,0,1,112-26.7C1039.3,479.22,911.87,468,890,510.16c-7.57-3-14-4.29-27.43-4.82-16.13-1.45-38.61,9.9-50.8,20.1-7.62,6.35-18,17.83-12.5,28.45a13.24,13.24,0,0,0,1.3,2,31.63,31.63,0,0,0-14.19.13c-8.78,1.89-17.36,6.46-24.45,11.8-7.59,5.72-14.8,13.28-19.15,21.75-3.33,6.52-5,23.71-1.44,31.51-34.83,6.14-46.63,46.29-50.81,75.88-21.12,16.87-38.47,64.83-18.86,113.56-5.12,40.41,8,84.78,33.9,109.55,7.93,36.93,28.4,67.4,57,88.18,11.25,18.93,31.07,34,56.05,47.08,12,23.07,45.16,30.7,66,46.85,7.43,20.09,32.45,28.53,47.62,43.91,7.94,17.07,18,34.76,34.16,51.35a250.22,250.22,0,0,0,20.74,59.75A187.17,187.17,0,0,1,989.5,1316c29-49.93,45-106.29,36.23-163.78-10.84-71.24-56.17-139.19-122.63-209q-6.3-6.6-12-13.31,5.81,6.29,12.15,12.48C974.7,1012,1024.36,1081,1038.66,1155.69c26.22,136.86-133.34,352.48-228.84,438.48-43,38.71,181.56,66.37,250.64,9.23,94.64-78.28,156.17-210.4,133.58-336.71a279.34,279.34,0,0,0-10.29-39.88c13.1,50.33,7.81,110.16-16,189.24,38.41-159.89-29.16-274.41-114.5-348.88,43.12,30.89,76.14,60.5,99,92.79q-29-47.78-76-94.11c-34.1-33.6-72.11-59.36-108.79-84.21-31-21-61.14-41.42-87.51-65.42-3.08-4-6-8-8.84-12.09-14-20.13-10.6-46.21-32.57-61.42-7.51-20,2.19-43-16.05-64.88-2.65-27.69,15.62-40.45,11.73-86.86,5.1-17.92,28.51-33.92,38.86-57.05,18.45-17.95,40.3-33.06,59.12-39.51,172.78-59.15,348.05,60.12,393.6,225.5,31.42,114.06,30,262.27,89.58,314.79,106.5,93.89,182.14-41,113.24-105.58-22.31-18.44-37.14-9.79-17.83,12.9,27.61,37.19,20,69.29-.49,82.78,13.18-7.31,23.06-20.31,27.65-36-10,61.1-74.63,72.38-116.08,6.35,18.77,21.63,37.57,32.35,54.51,35.17-12.74-2.89-26.1-11-37.87-25.8-49.3-61.9-31-168.68-68.1-298.55-4.63-16.23-10.07-32.55-16.26-48.76,9,34.53,13.85,74.46,16,122.51-16.46-159.89-78.16-253.09-209-336.35,61.28,36,105.35,68.25,136.76,104.64-72-106.59-183.69-176.62-326.3-116.32A253,253,0,0,0,901.61,576Z" transform="translate(-663.05 -481.53)"/><path class="cls-2" d="M982.74,1151.64a35.28,35.28,0,0,0-10.11-12.93,34.65,34.65,0,0,1,12,13c6.78,12.4,5.84,26-2.1,30.35a9.43,9.43,0,0,1-1.17.55,11.54,11.54,0,0,0,3.91-.27,9,9,0,0,0,2.36-.9c9.46-5.21,6-20.94,1.67-28.81-8-14.93-22-21.94-32.28-17.1-8.2,3.87-10,17.34-4,30.1s17.55,20,25.77,16.08,10-17.34,4-30.1Zm-25.9,11.76c-10.07-21.74,3.75-35.57,21.06-13.8-17.86-14.44-26.56-6.43-21.06,13.8Zm9.2-15.11c2.88,1,5.78,3.8,7.61,7.68,2.84,6,2,12.38-1.88,14.2s-9.34-1.57-12.18-7.59-2-12.39,1.9-14.21l.55-.23c-3,2-3.53,7.38-1.12,12.51,2.17,4.57,6,7.46,9.23,7.28a17.33,17.33,0,0,1-5.07-6.21C963.24,1157.81,962.37,1151.25,966,1148.29Z" transform="translate(-663.05 -481.53)"/><path class="cls-2" d="M1011,1124.7a35.27,35.27,0,0,0-8.07-12.93c3.58,2.72,7,7.25,9.54,13,5.42,12.4,4.65,26-1.69,30.35a10.74,10.74,0,0,1-.92.56,7.25,7.25,0,0,0,3.12-.28,6.48,6.48,0,0,0,1.88-.89c7.57-5.21,4.77-21,1.34-28.82-6.42-14.93-17.56-21.93-25.79-17.1-6.57,3.88-8,17.35-3.2,30.09s14,20,20.58,16.09,8-17.34,3.21-30.1Zm-20.7,11.76c-8-21.74,3-35.57,16.85-13.8-14.29-14.44-21.24-6.45-16.85,13.8Zm7.36-15.12c2.3,1,4.63,3.81,6.08,7.68,2.28,6,1.6,12.38-1.51,14.22s-7.45-1.58-9.71-7.6-1.6-12.39,1.51-14.22a4.25,4.25,0,0,1,.43-.21c-2.37,2-2.81,7.38-.89,12.48,1.72,4.59,4.79,7.49,7.38,7.3a16.67,16.67,0,0,1-4-6.22C995.37,1130.87,994.69,1124.29,997.61,1121.34Z" transform="translate(-663.05 -481.53)"/><path class="cls-2" d="M1011.27,1209.43a37.12,37.12,0,0,0-5.08-15.55c3,3.74,5.46,9.34,6.61,16,2.43,14.35-1.88,28.36-9.66,31.32a10.11,10.11,0,0,1-1.11.35,8,8,0,0,0,5.54,0c9.28-3.53,10.42-20.7,8.88-29.8-2.82-17.25-12.65-27.39-22.51-24.41-7.87,2.38-12.88,16.11-11.18,30.66s9.48,24.42,17.35,22,12.88-16.12,11.16-30.68Zm-24.69,7.06c-2.75-24.77,12.37-36.43,21.19-10.16-11.18-18.71-20.51-12.11-21.19,10.16Zm11.63-13.94c2.13,1.64,3.84,5.14,4.35,9.58.81,6.86-1.54,13.34-5.27,14.48s-7.38-3.53-8.19-10.42,1.56-13.35,5.29-14.48l.51-.12c-3,1.49-4.86,7-4.18,12.84.6,5.23,3,9,5.82,9.5a17.92,17.92,0,0,1-2.62-7.53C993.39,1212,994.37,1204.9,998.21,1202.55Z" transform="translate(-663.05 -481.53)"/><path class="cls-2" d="M939.13,1093.57A38.4,38.4,0,0,0,924.77,1083a37.81,37.81,0,0,1,16.32,10.11c10.74,10.94,13.81,25.38,6.83,32.21a9.1,9.1,0,0,1-1.06.91,12.09,12.09,0,0,0,4-1.41,9.94,9.94,0,0,0,2.19-1.62c8.32-8.17,0-23.55-6.84-30.48-12.81-13.24-29.41-16.49-38.69-8.46-7.42,6.4-5.27,21,4.78,32.5s24.2,15.7,31.6,9.29,5.27-21-4.78-32.51Zm-23.47,19.74c-16.94-19.72-6.69-38.12,17.84-20.47-22.91-9.86-29.59,1-17.84,20.47Zm5.1-18.4c3.29.22,7.15,2.28,10.2,5.78,4.76,5.46,5.76,12.33,2.26,15.36s-10.19,1.07-14.93-4.39-5.74-12.32-2.26-15.34a5.77,5.77,0,0,1,.51-.39c-2.5,2.93-1.47,8.71,2.56,13.33,3.6,4.15,8.45,6,11.78,4.93a19,19,0,0,1-7.13-5C920.68,1105.64,917.82,1099.05,920.76,1094.91Z" transform="translate(-663.05 -481.53)"/><path class="cls-2" d="M979.84,1065.38a30.45,30.45,0,0,0-12.65-10.54,30.3,30.3,0,0,1,14.68,10.1c9,11,9.68,25.38,1.59,32.22-.4.33-.8.63-1.21.91a13.72,13.72,0,0,0,4.23-1.42,12.38,12.38,0,0,0,2.45-1.62c9.66-8.17,3.82-23.54-1.86-30.48-10.65-13.23-26.73-16.49-37.31-8.45-8.47,6.41-8.69,21-.52,32.49s21.64,15.7,30.09,9.29,8.68-21,.51-32.5Zm-26.69,19.75c-13.72-19.72-.47-38.13,21.18-20.49-21.29-9.84-29.74,1-21.18,20.49Zm8.11-18.41c3.26.21,6.78,2.29,9.25,5.79,3.85,5.45,3.76,12.33-.25,15.34s-10.35,1.07-14.21-4.37-3.73-12.33.26-15.36c.17-.13.38-.26.57-.39-3,2.93-2.9,8.71.37,13.34,2.94,4.13,7.48,6,11,4.92a14.89,14.89,0,0,1-6.31-5C959.42,1077.44,957.63,1070.85,961.26,1066.72Z" transform="translate(-663.05 -481.53)"/><path class="cls-2" d="M880.5,1040.25c-6.2-3.73-12.46-5.63-17.89-5.74,5.69-.63,12.56.79,19.45,4.42,14.77,7.77,24.15,22.78,21,33.52a14.24,14.24,0,0,1-.55,1.48,12,12,0,0,0,4.22-6.09c3.84-12.82-10.77-26.63-20.12-31.56-17.7-9.48-34.26-6-39,7.06-3.8,10.43,4.8,26,19.2,34.72s29.15,7.35,33-3.07-4.8-26-19.2-34.74Zm-12.29,32.44c-24.42-15-23.51-40.26,6.83-30.84-25.3-1.32-26.41,13.84-6.83,30.84Zm-3.79-23c3.09-1.17,7.53-.49,11.9,2.17,6.81,4.13,10.88,11.47,9.07,16.39s-8.75,5.59-15.55,1.45-10.86-11.46-9.07-16.41a7.08,7.08,0,0,1,.28-.65c-.94,4.41,2.64,10.5,8.42,14,5.15,3.14,10.44,3.22,12.95.5a17.54,17.54,0,0,1-8.76-2.6C869.24,1061.85,863.63,1055.62,864.42,1049.67Z" transform="translate(-663.05 -481.53)"/><path class="cls-2" d="M928.74,1000.09c-6.19-4.63-12.44-7.41-17.86-8.29,5.66.17,12.53,2.57,19.44,7.17,14.76,9.9,24.13,26.25,20.93,36.53a14.75,14.75,0,0,1-.55,1.41,9.72,9.72,0,0,0,3-2.9,10.23,10.23,0,0,0,1.24-2.6c3.82-12.28-10.79-28.17-20.14-34.44-17.7-12-34.26-10.91-39,1.49-3.8,9.89,4.78,26.66,19.18,37.46s29.15,11.54,33,1.64-4.8-26.68-19.2-37.47Zm-12.29,30.67c-24.42-18.52-23.49-43.62,6.83-29.85-25.3-4.93-26.41,10.06-6.83,29.85Zm-3.79-23.56c3.09-.72,7.53.6,11.92,3.87,6.79,5.11,10.86,13,9,17.69s-8.75,4.34-15.54-.77-10.87-13-9.08-17.69c.1-.22.19-.41.28-.62-.94,4.27,2.64,10.86,8.42,15.2,5.17,3.87,10.44,4.69,12.95,2.34a20.23,20.23,0,0,1-8.75-3.85C917.48,1020.08,911.89,1013,912.66,1007.2Z" transform="translate(-663.05 -481.53)"/><path class="cls-2" d="M866.47,940.42c-7.51-5.37-15.11-8.6-21.7-9.6,6.91.2,15.25,3,23.62,8.32,17.94,11.44,29.33,30.38,25.43,42.3a12.31,12.31,0,0,1-.66,1.61,11.3,11.3,0,0,0,3.64-3.34,11.61,11.61,0,0,0,1.5-3c4.65-14.21-13.08-32.62-24.45-39.88-21.49-13.91-41.61-12.64-47.39,1.71-4.61,11.46,5.83,30.89,23.32,43.39s35.4,13.36,40,1.9-5.83-30.9-23.32-43.4ZM851.55,976c-29.65-21.47-28.54-50.53,8.32-34.59-30.74-5.7-32.1,11.65-8.32,34.59ZM847,948.67c3.75-.86,9.15.67,14.46,4.48,8.28,5.9,13.21,15.08,11,20.49s-10.63,5-18.9-.89-13.19-15.09-11-20.49a6.21,6.21,0,0,1,.34-.74c-1.15,5,3.2,12.61,10.22,17.6,6.27,4.5,12.69,5.46,15.72,2.73a25.44,25.44,0,0,1-10.64-4.46C852.81,963.57,846,955.41,847,948.67Z" transform="translate(-663.05 -481.53)"/><path class="cls-2" d="M822.37,988.18c-7-4.23-14.08-6.38-20.19-6.48,6.41-.71,14.19.89,22,5,16.7,8.8,27.31,25.78,23.68,37.92a16.61,16.61,0,0,1-.6,1.68,13.75,13.75,0,0,0,3.37-3.75,13.22,13.22,0,0,0,1.39-3.14c4.33-14.51-12.18-30.13-22.76-35.7-20-10.7-38.74-6.8-44.12,8-4.31,11.8,5.42,29.37,21.71,39.27s33,8.33,37.26-3.47-5.42-29.39-21.72-39.29Zm-13.89,36.69c-27.61-17-26.58-45.53,7.74-34.87-28.61-1.48-29.87,15.64-7.74,34.87Zm-4.27-26c3.48-1.32,8.51-.54,13.46,2.47,7.69,4.66,12.29,13,10.25,18.54s-9.9,6.3-17.6,1.63-12.27-13-10.23-18.56a5.82,5.82,0,0,1,.31-.74c-1.07,5,3,11.87,9.51,15.83,5.86,3.55,11.82,3.63,14.64.57a20,20,0,0,1-9.89-2.93C809.67,1012.61,803.32,1005.55,804.21,998.83Z" transform="translate(-663.05 -481.53)"/><path class="cls-2" d="M827.77,871.71c-4.57-7.47-10.2-13-15.88-16.28,6.34,2.62,12.87,8.06,18.26,15.8,11.51,16.6,13.49,37.63,4.42,46.94a15.65,15.65,0,0,1-1.38,1.22,13.11,13.11,0,0,0,4.94-1.73,12.93,12.93,0,0,0,2.78-2.16c10.84-11.14,2.69-33.91-4.61-44.44-13.72-20-33.09-26-45.06-15.14-9.54,8.65-8.68,29.78,1.94,47.17s27,24.48,36.53,15.82,8.68-29.81-1.94-47.2Zm-30.21,26.65c-17.88-29.72-3.55-55.43,23.59-28.14-26.11-16-35.31-.84-23.59,28.14Zm8.19-26.13c3.9.57,8.25,3.83,11.48,9.12,5,8.21,5.42,18.2.91,22.29s-12.24.76-17.24-7.47S795.47,878,800,873.89a6.93,6.93,0,0,1,.64-.53c-3.33,4-2.77,12.45,1.51,19.41,3.8,6.24,9.35,9.36,13.44,8a22.43,22.43,0,0,1-7.91-7.75C804.41,887.68,801.78,878,805.75,872.23Z" transform="translate(-663.05 -481.53)"/><path class="cls-2" d="M771.91,922.24c-5.54-7.49-12-12.81-18.47-15.57,7.1,2,14.59,7.05,21,14.74,13.74,16.47,17.43,39,8.24,50.21a16.67,16.67,0,0,1-1.39,1.5,15.54,15.54,0,0,0,5.22-2.49,14.8,14.8,0,0,0,2.87-2.73c11-13.43.46-37-8.26-47.47-16.37-19.91-37.89-23.85-50.1-10.57-9.75,10.61-7.25,33.35,5.57,50.79s31.13,23,40.86,12.39,7.27-33.37-5.55-50.8ZM741,955c-21.63-29.85-7.92-59.5,23.59-33.48C735,907.6,726.15,925.15,741,955Zm7-29.33c4.28.11,9.25,3.1,13.14,8.39,6.06,8.23,7.25,19,2.64,24s-13.25,2.4-19.3-5.83-7.22-19-2.63-24a7,7,0,0,1,.68-.65c-3.33,4.81-2.09,13.8,3.05,20.81,4.59,6.26,10.86,8.91,15.19,6.9a22.58,22.58,0,0,1-9.15-7.37C747.68,942.53,744.11,932.36,748,925.64Z" transform="translate(-663.05 -481.53)"/><path class="cls-2" d="M739.53,839c-3.61-9.48-8.92-16.93-14.85-21.67,6.87,4.15,13.27,11.6,17.77,21.53,9.62,21.29,6.89,46-6.12,55.24a16.05,16.05,0,0,1-1.9,1.18,17.21,17.21,0,0,0,10.05-3.17c15.51-11,11.39-38.87,5.29-52.35-11.38-25.68-32.86-36-49.63-25.51-13.4,8.36-17.47,33-9.11,55.08s26,33.13,39.39,24.76,17.47-33,9.11-55.09Zm-42.16,25.61c-14-37.63,9.17-64.94,34.69-28.49-27-23.11-41.58-7.17-34.69,28.49Zm16-28.87c4.46,1.33,8.81,5.89,11.35,12.59,3.95,10.41,2,22.06-4.29,26s-14.66-1.27-18.6-11.69-2-22.07,4.29-26c.29-.16.61-.34.91-.49-4.94,4.11-6.27,13.94-2.92,22.78,3,7.91,8.81,12.5,14,11.63a24.3,24.3,0,0,1-7.46-10.39C708,853.39,707.27,841.65,713.37,835.7Z" transform="translate(-663.05 -481.53)"/><path class="cls-2" d="M801.1,792.62c-2.54-8.93-6.87-16-12-20.49,6.09,3.94,11.48,11,14.81,20.36C811,812.62,806.17,836,793,844.71a18.73,18.73,0,0,1-1.9,1.14,16.6,16.6,0,0,0,6-1.09,17.85,17.85,0,0,0,3.8-1.92c15.66-10.4,14.31-36.75,9.79-49.49-8.41-24.26-27.78-34-44.59-24.11-13.42,7.91-19.54,31.22-13.65,52.06s21.54,31.33,35,23.41S807,813.47,801.1,792.62Zm-42.2,24.21c-9.77-35.56,14.63-61.37,35.41-26.92-23.44-21.83-38.64-6.8-35.41,26.92Zm17.77-27.28c4.1,1.27,7.79,5.58,9.58,11.9,2.79,9.84-.09,20.86-6.44,24.59s-13.74-1.2-16.52-11,.11-20.84,6.45-24.59c.29-.15.59-.32.91-.47-5,3.88-7.21,13.18-4.86,21.54,2.11,7.48,7.19,11.82,12.14,11a20.64,20.64,0,0,1-6.1-9.83C770,806.28,770.36,795.17,776.67,789.55Z" transform="translate(-663.05 -481.53)"/><path class="cls-2" d="M735.75,750c-.23-10.1-2.73-18.87-6.74-25.31,5.1,6.18,8.64,15.3,9.53,26.16,1.92,23.23-9,45.65-24.32,50.11a21.88,21.88,0,0,1-2.21.49,17.05,17.05,0,0,0,6.27,1,16.38,16.38,0,0,0,4.29-.67c18.34-5.3,23.8-33,22.59-47.67-2.11-27.93-18.91-44.72-38.26-40.31-15.44,3.51-27.58,25.46-27.11,49s13.4,39.78,28.84,36.26,27.59-25.45,27.12-49Zm-48.39,10.36c-.55-40.07,30.49-58.25,42.31-15.52-17.73-30.64-36.8-20.38-42.31,15.52Zm24.81-22c3.76,2.72,6.34,8.46,6.47,15.62.23,11.11-5.49,21.47-12.8,23.12s-13.4-6-13.61-17.1,5.5-21.48,12.8-23.15a8.35,8.35,0,0,1,1-.17c-6,2.27-10.62,11.09-10.41,20.53.17,8.45,4.1,14.68,9.26,15.55a24.21,24.21,0,0,1-3.54-12.24C701.19,753.3,704.41,742,712.17,738.35Z" transform="translate(-663.05 -481.53)"/><path class="cls-2" d="M807.69,713.47c1.88-9.33,1.39-17.87-1-24.58,3.41,6.69,4.78,15.77,3.37,25.92-3,21.71-17.65,40.14-32.68,41.13-.71,0-1.41,0-2.1,0a15.93,15.93,0,0,0,5.55,2.16,16.75,16.75,0,0,0,4.08.24c17.92-1.19,28.63-25.49,30.55-39.25,3.82-26.08-8.15-44.87-26.82-44.7-14.91.13-30.57,17.84-35,39.54s4.12,39.23,19,39.1,30.57-17.85,35-39.57Zm-46.57-.19c7.76-36.91,40-47.38,42-5.76-10-31.71-29.61-26.11-42,5.76Zm27.3-15.23c2.89,3.27,4.08,9,2.74,15.64-2.08,10.26-9.48,18.62-16.52,18.67s-11.07-8.2-9-18.45,9.49-18.61,16.53-18.67l1,0c-6,.88-12,8.07-13.78,16.77-1.6,7.8.73,14.32,5.31,16.16a22.66,22.66,0,0,1-.74-12C775.28,709.58,780.57,699.82,788.42,698.05Z" transform="translate(-663.05 -481.53)"/><path class="cls-2" d="M842.53,632.88c5.68-6.68,9.22-13.74,10.48-20.09-.46,6.77-3.57,14.63-9.26,22.16-12.21,16.12-31.71,24.74-43.59,19.26-.56-.26-1.11-.56-1.62-.86a13.44,13.44,0,0,0,3.24,4,14.33,14.33,0,0,0,3,1.9c14.18,6.53,33.39-8.44,41.13-18.66,14.79-19.27,14.25-39.31,0-47-11.39-6.12-31.38,1.49-44.63,17s-14.73,33.1-3.35,39.22,31.38-1.51,44.63-17Zm-35.31-19.61c22.72-26.31,52-21.22,34.59,12.94,6.88-29.53-10.59-33.26-34.59-12.94Zm27.71-.78c.71,3.8-1,8.93-5,13.65-6.27,7.34-15.7,10.94-21.08,8.05s-4.67-11.19,1.58-18.53,15.7-10.92,21.08-8a5.41,5.41,0,0,1,.72.45c-4.95-1.83-12.82,1.42-18.13,7.65-4.76,5.57-6,11.78-3.31,15.14a22,22,0,0,1,4.87-9.87C819.66,616.22,828.13,610.62,834.93,612.49Z" transform="translate(-663.05 -481.53)"/><path class="cls-2" d="M897.76,563.89c5.68-5.66,9.22-11.26,10.48-16-.47,4.92-3.58,11-9.26,17.27-12.2,13.42-31.72,22.59-43.59,20.5a12.82,12.82,0,0,1-1.62-.37,8.5,8.5,0,0,0,3.25,2.39,12.51,12.51,0,0,0,3,.9c14.17,2.51,33.39-11.17,41.13-19.66,14.79-16.07,14.24-30.31,0-33.6-11.39-2.65-31.36,5.89-44.61,19s-14.76,25.95-3.37,28.59,31.37-5.91,44.63-19.06Zm-35.31-8.6c22.73-22.31,52-23.19,34.59,3.94,6.87-22.18-10.6-22.17-34.59-3.94Zm27.7-4.83c.72,2.62-1,6.55-5,10.54-6.25,6.22-15.7,10.25-21.08,9s-4.67-7.26,1.6-13.48,15.69-10.25,21.06-9a3.42,3.42,0,0,1,.71.21c-4.95-.55-12.81,3-18.12,8.26-4.75,4.72-5.95,9.33-3.32,11.34.61-2.64,2.68-5.61,4.88-7.83C874.91,555.49,883.38,550.18,890.15,550.46Z" transform="translate(-663.05 -481.53)"/><path class="cls-2" d="M755.83,669c4.45-7.56,6.69-15.1,6.8-21.59.73,6.77-.94,15-5.21,23.41-9.19,18-26.9,29.8-39.55,26.43-.6-.16-1.19-.36-1.75-.57a13.27,13.27,0,0,0,3.91,3.42,12.72,12.72,0,0,0,3.28,1.35c15.09,4,31.39-14,37.21-25.39,11.18-21.52,7.13-41.15-8.26-46.26-12.29-4.08-30.63,6.84-41,24.41s-8.71,35.12,3.58,39.2,30.64-6.86,41-24.41Zm-38.2-13.28c17.76-29.78,47.48-29.78,36.34,6.83,1.58-30.26-16.28-30.93-36.34-6.83Zm27.14-5.51c1.37,3.65.56,9-2.56,14.31-4.88,8.31-13.54,13.47-19.35,11.53s-6.57-10.22-1.7-18.5S734.7,644.05,740.51,646c.27.1.53.2.78.31-5.2-.93-12.37,3.6-16.49,10.64-3.71,6.32-3.81,12.61-.62,15.48a22,22,0,0,1,3.08-10.56C730.4,656.46,737.76,649.49,744.77,650.17Z" transform="translate(-663.05 -481.53)"/><path class="cls-2" d="M786.44,602.9a60.77,60.77,0,0,0,15.21-16.2c-3,6.08-8.28,12.61-15.19,18.32-14.82,12.26-31.66,16.2-37.63,8.84a8.63,8.63,0,0,1-.75-1.11,11,11,0,0,0,.62,4.32A7.64,7.64,0,0,0,750,619.4c7.11,8.78,26.29-1,35.69-8.75,17.84-14.61,25.47-33,18.73-42.8C799,560,782.26,562.94,767,574.44s-23.36,27.2-18,35,22.14,4.91,37.44-6.59ZM770,578c26.1-19.39,44.17-8.92,18.57,18.73,16.51-25.53,6-32.42-18.57-18.73Zm19.33,4.83c-1,3.62-4.28,8-8.91,11.43-7.22,5.44-15.15,6.83-17.69,3.12s1.26-11.13,8.49-16.56,15.13-6.82,17.67-3.1a3.2,3.2,0,0,1,.32.54c-2.67-2.65-9.37-1.26-15.49,3.34-5.49,4.13-8.79,9.53-8.33,13.14a29.67,29.67,0,0,1,7.3-8C777.4,583.15,785.44,579.74,789.36,582.8Z" transform="translate(-663.05 -481.53)"/><path class="cls-2" d="M858.4,535.48c5.68-4.75,9.22-9.27,10.48-13-.47,3.75-3.57,8.63-9.26,13.84-12.19,11.17-31.71,19.76-43.59,19.17q-.85,0-1.62-.15a7.8,7.8,0,0,0,3.26,1.54,14.43,14.43,0,0,0,3,.43c14.17.71,33.39-11.26,41.13-18.34,14.79-13.4,14.25-24.13,0-25.41-11.39-1-31.36,7.1-44.61,18.16s-14.76,20.87-3.37,21.91,31.38-7.11,44.63-18.19ZM823.09,532c22.73-18.79,52-21.92,34.59.07,6.87-17.37-10.59-15.86-34.59-.07Zm27.7-6c.72,1.94-1,5.06-5,8.41-6.27,5.23-15.7,9.06-21.08,8.59s-4.67-5.13,1.58-10.35,15.7-9.07,21.08-8.58c.24,0,.49.06.72.1-5,0-12.82,3.34-18.13,7.78-4.74,4-5.95,7.56-3.31,8.86.6-2,2.67-4.48,4.87-6.33C835.55,531.06,844,526.33,850.79,526Z" transform="translate(-663.05 -481.53)"/><path class="cls-2" d="M956.33,513.25c6.61-3.44,11-7.1,13.08-10.42-1.28,3.56-5.38,7.65-12.08,11.52-14.36,8.3-35.29,12.5-46.76,9.4-.54-.15-1.07-.32-1.54-.49a8.1,8.1,0,0,0,2.82,2.19,14.72,14.72,0,0,0,2.83,1c13.68,3.72,35.06-3.82,44.17-9.08,17.38-9.92,19.22-20.51,5.58-24.82-10.9-3.44-32.19.22-47.55,8.18s-19,17.22-8.11,20.67,32.18-.24,47.56-8.19Zm-33.69-11c26.31-13.47,55.58-10.25,33.75,7.49,10.54-15.49-6.85-17.78-33.75-7.49Zm28.36.1c.27,2-2.1,4.7-6.77,7.12-7.27,3.76-17.32,5.5-22.46,3.87s-3.44-6,3.82-9.75,17.32-5.5,22.46-3.87c.23.07.45.16.68.24-4.84-1.05-13.25.53-19.41,3.71-5.51,2.86-7.47,6.12-5.19,8,1-1.87,3.59-3.79,6.17-5.13C935,504,944.3,501.23,951,502.33Z" transform="translate(-663.05 -481.53)"/></svg>