<svg id="Layer_1" data-name="Layer 1" xmlns="http://www.w3.org/2000/svg" viewBox="0 0 972.44 1080.52"><defs><style>.cls-1{fill:#1b1b1b;}.cls-2{fill:#fff;fill-rule:evenodd;}</style></defs><path class="cls-1" d="M1299.72,873.38C1197.43,746.13,903.26,802,793.66,1036.91c20.28,18.36,53.56,42.1,86.11,59-167.5-55.43-272.24-276.76-210.57-418.19,14.78-33.87,36.25-74.42,71.51-97.93,57.86-38.57,133.87-23.9,206.68-12.17,99.13,15.94,193.68,31.15,239.45-78.89,11.73-28.22-5.73-37.12-16.23-18.45C1082.4,627,924.13,487.06,773.74,554a165.4,165.4,0,0,0-22.39,12.06A154.11,154.11,0,0,1,777,550.26c29.18-14.08,67.61-23.28,120-24.45-18.61-3.16-52.58-13.36-63.6-14.62-18.78-2.15-20.86,5-27.81,5.7-1.8-5.54-13.64-6.56-18.77-6.48-20.82.31-17.56,8.77-28.11,10.71-4.87-2-12-1.92-16.16-1.35-17.62,2.43-14.55,8.85-26,13.5-12.51,1.58-25.69,11.91-38.18,20.32-30.44,20.5-59.38,51.27-85.82,96.32-106.84,181.93-22.88,400.43,166.68,512.51,39.19,23.92,85.67,43.37,135.87,57.11a639.8,639.8,0,0,1-157.12-55.14c-12.47,96.14-15.25,270.58,72.86,346.84,79.07,68.45,232.44,4.42,271-47.62-84-29.08-176.61-96-179.67-221.48,22.32,130.15,108.31,180.67,186.66,209.18,5.19-13.62.39-25.43-18.45-32.34-88.81-32.58-142.81-114.89-155.26-194.32,429.89,102.78,759.57-243.75,525.06-409.84-38-26.9-89.24-43.21-146.08-49.7-7.35-6.28-20.81-9.53-28.75-10.61-27.14-3.67-42.1,1.59-49.86,7-5.16-7.48-28.94-7.33-36.94-7.23-10.46.12-29.09,1.84-32,13a85.93,85.93,0,0,0-16.07-1.34c-27.1.49-29.49,9.92-35.93,12.92-8.57-4.49-23.11-3.38-31-1.8-8.48,1.7-23.36,6.68-25.92,15.37-8.55-4.63-23.67-1.07-31.45,1.9-7.26,2.78-19.13,9.19-20.63,17.17-8.27-2.94-20.68,1.59-27.19,5.09s-16.15,10.63-15.8,18.16c-8.75-3.8-22,2.87-28.47,7.49-8.14,5.19-13,19-23,32.9-18.73,26.13-41.82,56.39-42.18,57,95.11-109.65,350.3-195.1,450.87-58.7Zm2.61,151.77c-79.06,91.46-255,116.1-396.63,78.49,33-139.76,169-231.21,322-218.83-102-1.3-171.71,32.34-221.34,76.43C1164,849.66,1427.15,880.71,1302.33,1025.15Z" transform="translate(-545.56 -460.48)"/><path class="cls-2" d="M1205.93,801.72a63.11,63.11,0,0,0,18.89.81c-5.24,1.14-12.25,1.27-20,.16-16.56-2.4-30.2-9.65-30.47-16.2a4.54,4.54,0,0,1,.06-.91,5.75,5.75,0,0,0-1.83,2.3,3.83,3.83,0,0,0-.32,1.74c.32,7.83,18.59,13.68,29.09,15.2,19.87,2.95,34.66-1.29,35.15-9.39.39-6.46-12.67-14.12-29.18-17.12s-30.2-.17-30.59,6.28,12.68,14.13,29.18,17.13Zm1.68-20.15c28.05,5.2,35,19.68,3,18.49,24.64-2.74,21-11.51-3-18.49Zm10.78,12.58c-2.59,1.09-7.06,1.31-12.07.4-7.8-1.41-14-5-13.78-8.08s6.65-4.39,14.44-3,14,5,13.78,8.09a1.85,1.85,0,0,1-.07.41c-.46-2.63-5.78-5.6-12.4-6.8-5.93-1.07-11-.39-12.55,1.49a30.69,30.69,0,0,1,9.19.28C1210,787.88,1217.29,790.66,1218.39,794.15Z" transform="translate(-545.56 -460.48)"/><path class="cls-2" d="M1261.81,823.13a57.39,57.39,0,0,1-16.26-8.49c3.65,3.49,9.42,7,16.56,9.83,15.31,6,31.24,6.61,35.58,1.27a4.89,4.89,0,0,0,.52-.79,5.08,5.08,0,0,1,.09,2.81,4.34,4.34,0,0,1-.83,1.61c-5.18,6.37-24.09,2.39-33.8-1.44-18.43-7.18-28.09-17.9-23.42-24.88,3.73-5.58,19.43-5.63,35.07-.12s25.3,14.5,21.57,20.08-19.44,5.62-35.08.12Zm11.24-17.62c-26.64-9.27-41.55-.57-14.14,13.94-18.82-14.22-10.28-19.77,14.14-13.94Zm-16.88,5.26c1.48,2.17,5.07,4.53,9.81,6.2,7.39,2.61,14.81,2.58,16.57-.05s-2.79-6.89-10.18-9.49-14.81-2.57-16.57.06a1.72,1.72,0,0,0-.2.38c2-2,8.34-1.87,14.61.35,5.61,2,9.42,5,9.53,7.33a27.48,27.48,0,0,0-7.83-4.23C1267.11,809.63,1259.28,808.39,1256.17,810.77Z" transform="translate(-545.56 -460.48)"/><path class="cls-2" d="M931.43,858.17a34.73,34.73,0,0,0,8.53-8.31,31.29,31.29,0,0,1-8.42,9.22c-8.49,6.58-18.64,9.78-22.67,7.15a3.72,3.72,0,0,1-.53-.41,3.48,3.48,0,0,0,.6,1.8,3.06,3.06,0,0,0,.91.88c4.82,3.14,16.11-2.77,21.48-6.94,10.25-7.86,14-16.41,9.37-20-3.7-2.89-13.85-.13-22.67,6.17s-13,13.76-9.28,16.65,13.85.12,22.68-6.18Zm-11.34-9.23c15.07-10.65,26.7-7.77,12.36,6.37,8.86-12.42,2.06-14.44-12.36-6.37Zm12.12.35c-.45,1.65-2.23,3.79-4.9,5.7-4.17,3-9,4.28-10.71,2.92s.21-4.89,4.38-7.86,9-4.28,10.71-2.92l.22.2c-1.78-.89-5.82.3-9.36,2.83-3.17,2.26-4.92,4.87-4.46,6.38a16.73,16.73,0,0,1,4.08-4.1C924.88,850.5,929.65,848.33,932.21,849.29Z" transform="translate(-545.56 -460.48)"/><path class="cls-2" d="M973.28,834.43a37,37,0,0,0,9.73-7.22,33.11,33.11,0,0,1-9.75,8.14c-9.41,5.52-20,7.5-23.57,4.42a3.34,3.34,0,0,1-.45-.47,3.31,3.31,0,0,0,.32,1.86,3.06,3.06,0,0,0,.76,1c4.3,3.67,16.39-.86,22.36-4.36C984,831.2,989.05,823.16,985,819c-3.23-3.3-13.71-1.76-23.41,3.44s-15,12.11-11.74,15.41,13.72,1.75,23.42-3.46ZM963.45,824c16.55-8.79,27.64-4.56,11.28,7.77,10.67-11.28,4.23-14.08-11.28-7.77Zm12,1.77c-.7,1.58-2.78,3.48-5.73,5.07-4.59,2.46-9.53,3.19-11.06,1.62s1-4.81,5.54-7.26,9.54-3.19,11.06-1.64l.19.24c-1.63-1.1-5.82-.4-9.71,1.7-3.48,1.86-5.62,4.24-5.39,5.79a17.6,17.6,0,0,1,4.67-3.58C968,826.07,973,824.47,975.41,825.73Z" transform="translate(-545.56 -460.48)"/><path class="cls-2" d="M1019.85,815.88a44.49,44.49,0,0,0,12.42-6.91,40.19,40.19,0,0,1-12.61,7.95c-11.76,5-24.18,5.8-27.74,1.78a4.19,4.19,0,0,1-.44-.6,3.87,3.87,0,0,0,0,2.16,3.3,3.3,0,0,0,.7,1.23c4.25,4.8,18.89,1.31,26.34-1.87,14.16-5.94,21.36-14.42,17.48-19.72-3.09-4.22-15.36-3.91-27.39.69s-19.28,11.76-16.19,16,15.37,3.91,27.4-.69Zm-9.36-13.34c20.51-7.75,32.43-1.37,11.5,10.44,14.24-11.41,7.38-15.49-11.5-10.44Zm13.36,3.68c-1.08,1.7-3.81,3.61-7.46,5-5.69,2.18-11.48,2.32-12.94.32s2-5.37,7.64-7.54,11.48-2.31,12.94-.33l.17.29c-1.66-1.47-6.58-1.26-11.4.6-4.32,1.64-7.19,4.07-7.2,5.87a21.18,21.18,0,0,1,6-3.44C1015.26,805.58,1021.34,804.45,1023.85,806.22Z" transform="translate(-545.56 -460.48)"/><path class="cls-2" d="M1073.35,802a51.17,51.17,0,0,0,14.84-5.18A46.51,46.51,0,0,1,1072.9,803c-13.7,3.26-27.14,1.92-30-3a4.13,4.13,0,0,1-.33-.71,4.22,4.22,0,0,0-.46,2.31,3.31,3.31,0,0,0,.47,1.44c3.44,5.88,19.87,4.73,28.55,2.66,16.48-3.85,26.11-11.63,23.18-18-2.34-5.06-15.51-6.9-29.41-4.11s-23.28,9.15-20.94,14.2,15.51,6.9,29.42,4.11ZM1066.41,786c23.67-4.64,34.94,4.27,9.88,13.2,17.81-9.67,11.43-15.25-9.88-13.2Zm13.42,6.31c-1.55,1.62-4.89,3.17-9.12,4-6.56,1.32-12.78.45-13.88-1.94s3.31-5.39,9.88-6.7,12.79-.45,13.89,1.94a2,2,0,0,1,.12.34c-1.44-1.88-6.74-2.51-12.31-1.39-5,1-8.61,3.08-9,5a24.66,24.66,0,0,1,7.18-2.62C1070.8,790.14,1077.55,790,1079.83,792.35Z" transform="translate(-545.56 -460.48)"/><path class="cls-2" d="M1135.17,794.77a60.62,60.62,0,0,0,17.88-2.78c-4.61,2-11.15,3.48-18.66,3.89-16.1.86-30.72-3.36-32.64-9.41a4.82,4.82,0,0,1-.18-.87,5,5,0,0,0-1.12,2.48,3.65,3.65,0,0,0,.14,1.7c2.3,7.23,20.89,9.27,31.09,8.73,19.35-1,32.11-7.69,30.5-15.33-1.28-6.1-15.46-10.8-31.66-10.51s-28.31,5.48-27,11.58,15.47,10.8,31.68,10.52Zm-3.57-19.12c27.57-.39,37.78,11.82,7.56,16.69,22.35-7.16,16.7-14.67-7.56-16.69Zm13.29,9.73c-2.15,1.5-6.27,2.54-11.19,2.63-7.66.14-14.35-2.08-15-5s5.11-5.34,12.76-5.48,14.35,2.1,15,5a2.58,2.58,0,0,1,0,.39c-1.11-2.37-6.85-4.14-13.34-4-5.82.11-10.39,1.69-11.36,3.74a28.81,28.81,0,0,1,8.67-1.45C1135.42,781.1,1143,782.33,1144.89,785.38Z" transform="translate(-545.56 -460.48)"/><path class="cls-2" d="M1184.57,772.58a77.44,77.44,0,0,0,15.37-1.57,68.77,68.77,0,0,1-16,2.19c-13.84.49-26.4-1.89-28.05-5.3a1.87,1.87,0,0,1-.16-.49,2.57,2.57,0,0,0-1,1.4,1.44,1.44,0,0,0,.13,1c2,4.08,18,5.24,26.73,4.92,16.63-.53,27.59-4.32,26.21-8.63-1.1-3.44-13.28-6.09-27.21-5.92s-24.34,3.08-23.24,6.52,13.3,6.09,27.23,5.93Zm-3.06-10.77c23.69-.22,32.47,6.65,6.49,9.4,19.22-4,14.36-8.26-6.49-9.4Zm11.42,5.47c-1.85.85-5.39,1.44-9.62,1.49-6.58.08-12.34-1.18-12.85-2.79s4.38-3,11-3.09,12.33,1.17,12.85,2.8a.57.57,0,0,1,0,.22c-1-1.34-5.88-2.33-11.46-2.27-5,.06-8.94,1-9.78,2.11a37.06,37.06,0,0,1,7.46-.82C1184.8,764.88,1191.28,765.57,1192.93,767.28Z" transform="translate(-545.56 -460.48)"/><path class="cls-2" d="M1255.71,785.27a66.09,66.09,0,0,1-19.4-5.41c4.8,2.87,11.82,5.32,20.09,6.75,17.72,3,34.57.24,37.64-6.28a5.34,5.34,0,0,0,.33-1,5.65,5.65,0,0,1,.86,2.93,4.43,4.43,0,0,1-.42,1.87c-3.67,7.78-24.59,7.65-35.82,5.72-21.3-3.58-34.4-12.73-31.44-21.06,2.36-6.65,18.81-10.07,36.73-7.64s30.53,9.79,28.17,16.43-18.82,10.06-36.74,7.64Zm6.91-20.87c-30.51-4-43.72,8.29-11,17.64-23.67-10.88-16.24-18.53,11-17.64Zm-16.25,9.13c2.15,2,6.56,3.65,12,4.39,8.46,1.15,16.23-.47,17.34-3.61s-4.83-6.6-13.3-7.76-16.22.47-17.34,3.61a2.28,2.28,0,0,0-.11.45c1.59-2.51,8.23-3.75,15.41-2.78,6.44.88,11.26,3.24,12,5.65a31.53,31.53,0,0,0-9.38-2.75C1257.53,770,1249,770.37,1246.37,773.53Z" transform="translate(-545.56 -460.48)"/><path class="cls-2" d="M1331.15,811.49c-7.39-1.38-13.54-3.93-17.8-7.1,4,3.77,10.24,7,18.09,8.86,16.82,4,34.49.31,39.5-8.24a11.7,11.7,0,0,0,.61-1.23,8.69,8.69,0,0,1-1,6.28c-6,10.2-26.85,10-37.51,7.5-20.24-4.69-30.64-16.7-25.21-27.61,4.32-8.71,21.78-13.19,39-10s27.64,12.83,23.31,21.54-21.79,13.19-39,10Zm13.07-27.36c-29.31-5.26-46.16,10.87-16.17,23.12-20.45-14.26-10.77-24.28,16.17-23.12Zm-18.94,12c1.58,2.56,5.48,4.79,10.71,5.75,8.12,1.51,16.37-.61,18.41-4.73s-2.88-8.67-11-10.16-16.37.61-18.41,4.73a5.06,5.06,0,0,0-.25.58c2.34-3.3,9.34-4.91,16.23-3.64,6.18,1.15,10.31,4.24,10.36,7.41a20.82,20.82,0,0,0-8.57-3.61C1337.49,791.44,1328.82,792,1325.28,796.1Z" transform="translate(-545.56 -460.48)"/><path class="cls-2" d="M1321.42,870c-7.12-5.13-12-10.79-14.32-16.07,1.53,5.72,6.06,12.1,13.33,18,15.57,12.52,37.86,17.92,49.78,12.06a16.29,16.29,0,0,0,1.6-.91,10.65,10.65,0,0,1-2.87,3.77,13.43,13.43,0,0,1-2.92,1.92c-14.23,7-37.17-3.83-47-11.77-18.84-15-21.32-32.08-7.15-40,11.3-6.37,33.94-1.87,50.54,10s20.91,26.75,9.6,33.11-33.94,1.86-50.56-10Zm34.95-20.27c-28.43-20.14-59.12-12.87-35.19,14.52-11.89-24.5,6.31-29.42,35.19-14.52Zm-29.88,2.11c-.19,3.33,2.46,7.53,7.5,11.14,7.85,5.63,18.54,7.75,23.87,4.75s3.33-10-4.52-15.63-18.53-7.75-23.88-4.74a6.33,6.33,0,0,0-.7.44c5-2,14-.07,20.65,4.71,6,4.28,8.19,9.44,5.88,12.58a20,20,0,0,0-6.76-7.93C1343.45,853.45,1333.49,849.53,1326.49,851.79Z" transform="translate(-545.56 -460.48)"/><path class="cls-2" d="M1392.49,853.82c-7.84-5.63-13.19-11.85-15.74-17.66,1.67,6.29,6.66,13.3,14.64,19.73,17.12,13.76,41.61,19.7,54.71,13.26.63-.32,1.21-.65,1.76-1a11.84,11.84,0,0,1-3.15,4.14,15.12,15.12,0,0,1-3.21,2.11c-15.64,7.69-40.84-4.21-51.7-12.93-20.7-16.44-23.42-35.26-7.85-44,12.42-7,37.3-2.05,55.55,11s23,29.38,10.55,36.38-37.31,2-55.56-11Zm38.4-22.26c-31.24-22.14-65-14.15-38.68,16-13.06-26.93,6.94-32.33,38.68-16Zm-32.83,2.31c-.21,3.67,2.7,8.27,8.24,12.24,8.62,6.2,20.37,8.53,26.24,5.22s3.64-11-5-17.18-20.37-8.51-26.24-5.2a7.62,7.62,0,0,0-.77.48c5.55-2.25,15.37-.07,22.69,5.18,6.55,4.7,9,10.37,6.46,13.82-1.31-3.27-4.38-6.53-7.43-8.72C1416.69,835.7,1405.75,831.38,1398.06,833.87Z" transform="translate(-545.56 -460.48)"/><path class="cls-2" d="M1437.47,927.79c-6-6.65-9.39-14-10.07-20.86-.34,7.44,2.39,15.72,8.31,23.3,12.7,16.26,35.29,23.27,50.46,15.66.72-.37,1.41-.76,2.08-1.18a20.7,20.7,0,0,1-4.49,4.89,21.82,21.82,0,0,1-3.88,2.5c-18.11,9.07-39.49-5-47.54-15.28-15.43-19.41-12.11-41.64,6.27-52,14.67-8.27,38-2.42,52,13s13.55,34.71-1.12,43-38,2.42-52-13.05Zm45.55-26.3c-24.13-26.14-60.43-16.7-43.8,18.84-4.42-31.79,17.32-38.18,43.8-18.84Zm-33.58,2.75c-1.38,4.32,0,9.76,4.32,14.45,6.63,7.32,17.63,10.07,24.56,6.16s7.17-13,.54-20.28-17.64-10.06-24.57-6.16a10.21,10.21,0,0,0-.93.58c6.27-2.66,15.4-.08,21,6.12,5,5.55,5.68,12.24,2,16.31a18,18,0,0,0-4.64-10.29C1467.49,906.39,1457.94,901.29,1449.44,904.24Z" transform="translate(-545.56 -460.48)"/><path class="cls-2" d="M1356.15,945.1c-5.17-6.66-7.59-14-7.4-20.86-1.29,7.42.38,15.7,5.32,23.3,10.61,16.25,32.3,23.25,48.45,15.65.77-.37,1.52-.76,2.23-1.18a25,25,0,0,1-5.11,4.9,26.2,26.2,0,0,1-4.2,2.48c-19.28,9.09-38.86-5-45.59-15.27-12.93-19.41-6.75-41.64,13-52,15.73-8.26,38.27-2.42,50.33,13s9.08,34.71-6.65,43-38.27,2.42-50.34-13Zm48.93-26.3c-20.78-26.15-58.29-16.71-46.22,18.83-.34-31.8,22.22-38.18,46.22-18.83Zm-33.94,2.73c-1.93,4.32-1.2,9.76,2.47,14.46,5.69,7.31,16.33,10.07,23.77,6.17s8.83-13,3.14-20.3-16.35-10.05-23.78-6.15c-.33.18-.67.37-1,.57,6.61-2.64,15.41-.08,20.24,6.12,4.34,5.55,4.11,12.25-.07,16.33a15.91,15.91,0,0,0-3.31-10.3C1388.92,923.68,1380,918.6,1371.14,921.53Z" transform="translate(-545.56 -460.48)"/><path class="cls-2" d="M1433.6,993.82a38.27,38.27,0,0,1,11.79-20.15,39.1,39.1,0,0,0-15.05,20.52c-6.08,19,2.24,38.73,18.6,44.11.78.26,1.57.47,2.36.65a25.8,25.8,0,0,1-7.15.1,23.39,23.39,0,0,1-4.66-1c-19.52-6.42-20.92-29.86-17.06-41.89,7.09-22.84,28.66-34.83,49.46-29,16.62,4.61,26.41,24.09,21.87,43.47s-21.68,31.36-38.28,26.73-26.41-24.1-21.88-43.49Zm52.14,13.95c7.41-33-24.07-51.52-44.49-17.53,25-23.34,44.46-12.73,44.49,17.53Zm-23.89-20.93A16.93,16.93,0,0,0,1452,999c-2.15,9.16,2.48,18.35,10.33,20.54s15.94-3.46,18.08-12.62-2.5-18.35-10.34-20.54c-.35-.09-.73-.18-1.09-.25,6.32,2.54,9.92,10.35,8.1,18.12-1.62,7-7.07,11.67-13,11.81a18.79,18.79,0,0,0,6-9.71C1471.52,1000.41,1469.87,990.69,1461.85,986.84Z" transform="translate(-545.56 -460.48)"/><path class="cls-2" d="M1350.65,1002.74a41.31,41.31,0,0,1,16.27-17.58,42.22,42.22,0,0,0-19.55,17.36c-10.4,17.46-6.9,38.29,7.84,46.52.71.39,1.43.76,2.16,1.08a25.88,25.88,0,0,1-7-1.21,23.23,23.23,0,0,1-4.32-1.85c-17.59-9.83-13.45-33-6.86-44.09,12.31-21.06,36.23-28.87,55.22-19.42,15.17,7.54,20.18,28.37,11.19,46.52s-28.58,26.74-43.74,19.2-20.17-28.38-11.19-46.53Zm47.74,23.11c15-31-11.45-54.77-39.41-25.23,29.9-18.3,46.49-4.38,39.41,25.23ZM1379.94,1001a18.27,18.27,0,0,0-12.52,10.11c-4.25,8.58-1.89,18.41,5.28,22s16.42-.5,20.65-9.07,1.88-18.41-5.29-22c-.32-.15-.66-.31-1-.44,5.59,3.63,7.28,11.93,3.67,19.2-3.22,6.51-9.65,10.14-15.46,9.2a20.15,20.15,0,0,0,8.19-8.41C1386.21,1016.07,1386.87,1006.26,1379.94,1001Z" transform="translate(-545.56 -460.48)"/><path class="cls-2" d="M1403.13,1060.66a49.2,49.2,0,0,1,20.74-12.31c-7.58,1.14-15.87,5-23.31,11.31-15.92,13.6-22,33.6-13.55,44.69a16.91,16.91,0,0,0,1.3,1.49,17,17,0,0,1-5.19-2.77,15.22,15.22,0,0,1-2.71-2.73c-10.08-13.24,3.21-33.59,13.3-42.21,19-16.44,41.77-17.94,53.15-4.72,9.1,10.55,4.25,30.9-10.82,45.46s-34.65,17.81-43.73,7.26-4.25-30.91,10.82-45.47Zm28.87,32.63c25.45-24.93,14.15-53.12-21.2-32.6,32.12-9.72,39.63,7,21.2,32.6Zm-4.36-27.23c-4.45-.32-9.92,1.9-14.49,6.32-7.12,6.87-9.41,16.49-5.11,21.47s13.53,3.46,20.65-3.42,9.4-16.5,5.1-21.48c-.19-.22-.4-.44-.62-.65,3,4.67.8,12.71-5.24,18.54-5.4,5.23-12.18,7-16.5,4.79a24,24,0,0,0,10.25-5.79C1426.3,1081.38,1431,1072.51,1427.64,1066.06Z" transform="translate(-545.56 -460.48)"/><path class="cls-2" d="M1291.09,1064a47.69,47.69,0,0,1,21.63-11,49.54,49.54,0,0,0-24.67,10.06c-16,12.37-20,31-8.8,41.56.53.5,1.1,1,1.68,1.43a24.67,24.67,0,0,1-6.26-2.72,19.66,19.66,0,0,1-3.46-2.62c-13.3-12.63-1.27-31.4,8.88-39.25,19.07-15,44.56-15.85,59.33-3.19,11.81,10.09,9.29,29.06-5.6,42.35s-36.54,15.89-48.34,5.79-9.28-29.07,5.61-42.37Zm37.35,31.26c25.11-22.78,8.25-49.46-28.69-31,34.86-8.37,45.78,7.51,28.69,31Zm-8.88-25.62a21.31,21.31,0,0,0-15.44,5.59c-7,6.27-8.23,15.23-2.66,20s15.79,3.55,22.82-2.73,8.22-15.24,2.64-20c-.25-.21-.52-.43-.8-.63,4.05,4.45,2.76,11.93-3.21,17.26-5.35,4.77-12.74,6.3-17.94,4.1a23.3,23.3,0,0,0,10.73-5.18C1320.28,1083.94,1324.33,1075.73,1319.56,1069.61Z" transform="translate(-545.56 -460.48)"/><path class="cls-2" d="M1333.77,1115.25a51.82,51.82,0,0,1,23-8.72c-7.68-.11-16.63,2.3-25.27,7.33-18.52,10.77-28.68,29.44-22.71,41.71a18.06,18.06,0,0,0,1,1.67,16,16,0,0,1-4.51-3.56,14.25,14.25,0,0,1-2.09-3.13c-7.12-14.64,10.21-32.49,22-39.31,22.13-13.08,44.82-10.85,53.22,4,6.72,11.83-2.32,31-20.19,42.91s-37.8,11.87-44.51,0,2.34-31.07,20.2-42.93Zm21.52,36.76c30.25-20.37,25.07-49.91-14-35.48,33.61-4.34,37.47,13.34,14,35.48Zm1.43-27.47c-4.31-1-10.15.25-15.57,3.86-8.44,5.6-12.71,14.67-9.54,20.26s12.58,5.6,21,0,12.7-14.68,9.53-20.28a6.66,6.66,0,0,0-.48-.74c2,5.07-1.87,12.62-9,17.37-6.41,4.26-13.45,4.93-17.22,2a25.09,25.09,0,0,0,11.29-4C1352.19,1139.38,1358.7,1131.44,1356.72,1124.54Z" transform="translate(-545.56 -460.48)"/><path class="cls-2" d="M1247,1157.36c9.86-3.68,19.52-5.16,27.64-4.63-8.39-1.43-18.89-.58-29.79,2.87-23.33,7.41-39.75,24-36.66,37.09a13.18,13.18,0,0,0,.58,1.81,14.64,14.64,0,0,1-3.94-4.28,11.67,11.67,0,0,1-1.41-3.43c-3.69-15.61,20.35-30.16,35.14-34.87,28-9.05,52.21-3,57.24,13,4,12.79-11.31,30.12-34.24,38.71s-44.8,5.18-48.82-7.6,11.32-30.13,34.26-38.72Zm13.23,39.81c38.91-14.83,41.56-44.75-5.33-37.27,38.07,1.5,37.32,19.54,5.33,37.27Zm9.32-26.75c-4.43-1.75-11.2-1.48-18.16,1.13-10.84,4-18.08,12.24-16.18,18.28s12.22,7.65,23,3.59,18.06-12.25,16.17-18.29c-.09-.26-.2-.54-.32-.81.71,5.32-5.61,12.07-14.81,15.52-8.24,3.08-16.14,2.53-19.45-1a33.09,33.09,0,0,0,13.51-2C1260.42,1184.23,1269.8,1177.54,1269.58,1170.42Z" transform="translate(-545.56 -460.48)"/><path class="cls-2" d="M1217.18,1103.68c9.85-3.69,19.52-5.17,27.63-4.64-8.38-1.42-18.89-.58-29.78,2.87-23.34,7.41-39.75,24-36.66,37.09a13.16,13.16,0,0,0,.57,1.81,15,15,0,0,1-3.94-4.27,11.72,11.72,0,0,1-1.41-3.44c-3.68-15.61,20.35-30.16,35.14-34.86,28-9.06,52.21-3,57.24,13,4,12.78-11.3,30.12-34.24,38.7s-44.79,5.19-48.81-7.6,11.32-30.12,34.26-38.71Zm13.22,39.8c38.92-14.83,41.57-44.74-5.33-37.27,38.07,1.51,37.32,19.54,5.33,37.27Zm9.33-26.75c-4.44-1.75-11.2-1.48-18.16,1.13-10.85,4.06-18.09,12.24-16.18,18.28s12.21,7.65,23,3.59,18.07-12.25,16.17-18.29c-.09-.27-.19-.54-.31-.81.71,5.32-5.62,12.08-14.82,15.52-8.23,3.09-16.13,2.54-19.45-1a32.71,32.71,0,0,0,13.51-2C1230.56,1130.54,1239.94,1123.86,1239.73,1116.73Z" transform="translate(-545.56 -460.48)"/><path class="cls-2" d="M1154.19,1182.1a52.66,52.66,0,0,1,23.78-1.24c-7.22-2.24-16.25-2.62-25.62-.63-20.07,4.28-34.19,17.84-31.54,30.27a15,15,0,0,0,.5,1.74,16.07,16.07,0,0,1-3.39-4.39,12.46,12.46,0,0,1-1.21-3.33c-3.17-14.84,17.5-25.66,30.22-28.38,24.06-5.29,44.91,3,49.24,18.38,3.47,12.26-9.72,26.6-29.45,32s-38.53-.14-42-12.4,9.73-26.62,29.46-32Zm11.38,38.27c33.48-9.43,35.76-36.8-4.58-35,32.75,5.58,32.1,22.18,4.58,35Zm8-23.71c-3.82-2.11-9.63-2.61-15.62-1-9.33,2.56-15.56,9.33-13.92,15.13s10.51,8.42,19.83,5.86,15.54-9.34,13.91-15.14c-.08-.25-.17-.52-.27-.78.61,5-4.84,10.55-12.74,12.72-7.09,1.94-13.89.57-16.74-3a25.36,25.36,0,0,0,11.62-.38C1165.71,1208.42,1173.78,1203.27,1173.59,1196.66Z" transform="translate(-545.56 -460.48)"/><path class="cls-2" d="M1125,1130.8a52.61,52.61,0,0,1,23.77-1.24c-7.21-2.24-16.25-2.62-25.62-.63-20.07,4.29-34.19,17.84-31.54,30.26a16.76,16.76,0,0,0,.5,1.75,15.93,15.93,0,0,1-3.39-4.4,13.32,13.32,0,0,1-1.22-3.33c-3.16-14.83,17.51-25.65,30.24-28.37,24-5.29,44.91,3,49.24,18.37,3.46,12.27-9.73,26.61-29.46,32s-38.53-.14-42-12.41,9.74-26.61,29.47-32Zm11.37,38.27c33.47-9.43,35.76-36.8-4.58-35,32.75,5.58,32.1,22.18,4.58,35Zm8-23.71c-3.81-2.11-9.63-2.61-15.62-1-9.33,2.56-15.55,9.33-13.91,15.13s10.5,8.42,19.82,5.85,15.54-9.33,13.91-15.13c-.08-.26-.17-.52-.27-.79.61,5-4.84,10.56-12.75,12.73-7.08,1.94-13.88.56-16.73-3a25.55,25.55,0,0,0,11.63-.39C1136.53,1157.12,1144.6,1152,1144.41,1145.36Z" transform="translate(-545.56 -460.48)"/><path class="cls-2" d="M1068.93,1190a52,52,0,0,1,23.36,4.07c-6.34-3.77-15-6.14-24.62-6.28-20.65-.31-38.19,9.68-39.18,22.3a15.31,15.31,0,0,0,0,1.79,15,15,0,0,1-2-5,12.39,12.39,0,0,1-.22-3.49c1.19-15.06,24.3-20.95,37.39-20.76,24.79.21,42.6,12.85,42.38,28.68-.16,12.64-17,23.6-37.68,24.47s-37.25-8.67-37.08-21.3,17-23.6,37.7-24.48Zm0,39.56c35.09-1.71,45.14-27.7,5.61-34.94,30.09,12.66,24.71,28.58-5.61,34.94Zm14.55-21.17c-3.08-2.89-8.57-4.66-14.84-4.39-9.75.4-17.72,5.59-17.8,11.55s7.75,10.48,17.5,10.06,17.72-5.59,17.81-11.55c0-.28,0-.55,0-.83-.85,5-7.71,9.14-16,9.49-7.41.32-13.6-2.53-15.32-6.65a25.17,25.17,0,0,0,11.35,2.22C1072.53,1218,1081.82,1214.78,1083.52,1208.35Z" transform="translate(-545.56 -460.48)"/><path class="cls-2" d="M1039,1134.27a52.77,52.77,0,0,1,23.81.79c-6.94-2.85-15.9-4-25.44-2.8-20.45,2.55-36,14.83-34.73,27.43a14.88,14.88,0,0,0,.31,1.77,15.14,15.14,0,0,1-2.89-4.67,12.54,12.54,0,0,1-.85-3.41c-1.51-15,20.26-24,33.22-25.66,24.53-3.21,44.37,6.82,47,22.48,2.1,12.51-12.61,25.66-32.85,29.37s-38.33-3.43-40.42-15.93,12.63-25.65,32.86-29.37Zm7.1,39.06c34.36-6.53,39.65-33.58-.69-35.27,32,8.34,29.5,24.81.69,35.27Zm10.6-22.91c-3.57-2.43-9.3-3.42-15.44-2.29-9.56,1.74-16.51,8-15.52,13.86s9.53,9.29,19.08,7.53,16.51-8,15.52-13.88a7.73,7.73,0,0,0-.19-.8c.06,5-6,10.09-14.08,11.57-7.27,1.34-13.88-.62-16.32-4.45a25.39,25.39,0,0,0,11.61.62C1047.52,1161.45,1056.12,1157,1056.66,1150.42Z" transform="translate(-545.56 -460.48)"/><path class="cls-2" d="M981.39,1181.61a52.14,52.14,0,0,1,23.37,4.06c-6.35-3.76-15-6.12-24.62-6.28-20.65-.29-38.2,9.69-39.19,22.31a15.32,15.32,0,0,0,0,1.79,14.46,14.46,0,0,1-2-5,12.39,12.39,0,0,1-.22-3.49c1.18-15.06,24.3-21,37.38-20.77,24.8.21,42.61,12.86,42.39,28.69-.16,12.64-17,23.6-37.68,24.47s-37.25-8.66-37.09-21.31,17-23.59,37.7-24.47Zm0,39.55c35.1-1.71,45.15-27.69,5.61-34.93,30.1,12.65,24.72,28.57-5.61,34.93ZM996,1200c-3.09-2.89-8.57-4.66-14.84-4.39-9.76.41-17.73,5.58-17.81,11.56s7.76,10.48,17.51,10.06,17.71-5.59,17.8-11.57a7.63,7.63,0,0,0,0-.82c-.84,5-7.7,9.14-16,9.49-7.42.31-13.6-2.53-15.33-6.64a25.07,25.07,0,0,0,11.36,2.2C985,1209.63,994.28,1206.44,996,1200Z" transform="translate(-545.56 -460.48)"/><path class="cls-2" d="M950.82,1126.7a52.05,52.05,0,0,1,23.38,4c-6.35-3.76-15-6.12-24.63-6.25-20.65-.27-38.18,9.72-39.16,22.35a15.3,15.3,0,0,0,0,1.79,14.46,14.46,0,0,1-2-5,12,12,0,0,1-.23-3.49c1.16-15.06,24.26-21,37.35-20.8,24.8.17,42.63,12.8,42.43,28.63-.14,12.64-17,23.61-37.64,24.51s-37.27-8.62-37.12-21.26,17-23.62,37.66-24.52Zm.11,39.56c35.09-1.75,45.1-27.75,5.55-35,30.12,12.63,24.76,28.55-5.55,35Zm14.52-21.18c-3.09-2.89-8.58-4.66-14.85-4.38-9.75.42-17.72,5.61-17.79,11.58s7.78,10.47,17.53,10,17.71-5.61,17.78-11.59a7.75,7.75,0,0,0,0-.82c-.83,5-7.69,9.15-16,9.5-7.41.33-13.6-2.5-15.34-6.61a25.19,25.19,0,0,0,11.36,2.19C954.47,1154.72,963.75,1151.51,965.45,1145.08Z" transform="translate(-545.56 -460.48)"/><path class="cls-2" d="M896.89,1169.27a44.08,44.08,0,0,1,19.24,7.7c-4.6-4.39-11.51-8-19.8-9.83-17.77-4-35.24,1.52-39,12.24a12.72,12.72,0,0,0-.44,1.54,12.51,12.51,0,0,1-.58-4.67,11,11,0,0,1,.62-3.06c4.51-12.8,25.84-13.75,37.1-11.24,21.37,4.62,33.82,18.73,30,32.37-3.07,10.88-20.18,17.32-38.22,14.38s-30.16-14.16-27.09-25,20.2-17.32,38.23-14.39Zm-9.12,34.17c30.71,4.82,45.41-15.84,12.94-29.17,23,16.32,14.72,29.11-12.94,29.17Zm17.47-15.67c-2-3-6.32-5.57-11.81-6.45-8.51-1.4-16.6,1.65-18,6.79s4.28,10.44,12.79,11.83,16.6-1.66,18.05-6.81a4.93,4.93,0,0,0,.16-.71c-1.88,4.15-8.76,6.51-16,5.33-6.48-1-11.16-4.61-11.7-8.48a21.15,21.15,0,0,0,9.3,3.94C893.51,1194.13,902.27,1193,905.24,1187.77Z" transform="translate(-545.56 -460.48)"/><path class="cls-2" d="M869.8,1109.09a45.24,45.24,0,0,1,20.34,3.52c-5.53-3.28-13-5.33-21.43-5.44-18-.24-33.22,8.47-34.07,19.44a11.65,11.65,0,0,0,0,1.56,12.75,12.75,0,0,1-1.77-4.35,10.65,10.65,0,0,1-.19-3c1-13.11,21.11-18.26,32.5-18.11,21.58.16,37.09,11.14,36.92,24.92-.12,11-14.79,20.55-32.75,21.33s-32.43-7.51-32.3-18.5,14.81-20.55,32.77-21.34Zm.09,34.42c30.54-1.52,39.25-24.14,4.84-30.4,26.2,11,21.54,24.84-4.84,30.4Zm12.64-18.43c-2.69-2.52-7.47-4-12.92-3.8-8.49.36-15.42,4.87-15.48,10.07s6.76,9.1,15.25,8.74,15.41-4.89,15.47-10.09c0-.23,0-.47,0-.71-.73,4.33-6.7,8-13.89,8.27-6.45.28-11.84-2.19-13.35-5.77a21.84,21.84,0,0,0,9.89,1.92C873,1133.48,881.05,1130.68,882.53,1125.08Z" transform="translate(-545.56 -460.48)"/><path class="cls-2" d="M824.15,1145.25a40,40,0,0,1,17.45,7c-4.17-4-10.44-7.25-18-8.93-16.12-3.59-32,1.39-35.4,11.11a12.35,12.35,0,0,0-.39,1.41,11.33,11.33,0,0,1-.53-4.25,9.75,9.75,0,0,1,.56-2.77c4.1-11.61,23.45-12.47,33.66-10.19,19.39,4.19,30.68,17,27.18,29.36-2.78,9.88-18.31,15.72-34.67,13.06s-27.37-12.85-24.58-22.73,18.33-15.72,34.69-13.06Zm-8.28,31c27.86,4.37,41.2-14.37,11.74-26.47,20.92,14.82,13.35,26.42-11.74,26.47ZM831.72,1162c-1.81-2.76-5.74-5-10.71-5.84-7.72-1.27-15.06,1.49-16.38,6.16s3.88,9.47,11.6,10.73,15.07-1.51,16.39-6.18c0-.2.1-.42.14-.64-1.7,3.76-8,5.91-14.51,4.83-5.88-.95-10.13-4.18-10.62-7.69a19.41,19.41,0,0,0,8.44,3.58C821.08,1167.8,829,1166.8,831.72,1162Z" transform="translate(-545.56 -460.48)"/><path class="cls-2" d="M811.2,1084.93c6.84,3.16,12.17,7.46,15.5,12.09-2.87-5.28-8.17-10.4-15.33-14.24-15.35-8.22-33.52-7.51-40.59,1.58a13.17,13.17,0,0,0-.91,1.34,12.43,12.43,0,0,1,1-4.54,11.16,11.16,0,0,1,1.58-2.7c8.43-10.85,28.73-6.32,38.46-1.12,18.51,9.75,25.54,26.13,17.45,37.93-6.44,9.43-24.6,11.12-40.53,3.79s-23.63-20.92-17.17-30.34,24.61-11.12,40.55-3.79Zm-19.77,29.71c27.2,12.3,47.75-3.32,21.7-24.05,16.25,21.14,4.24,31-21.7,24.05ZM813,1104.38c-.87-3.36-4.11-6.82-9-9-7.52-3.46-16.1-2.66-19.14,1.79s.57,10.86,8.1,14.32,16.1,2.66,19.15-1.79a6.65,6.65,0,0,0,.39-.63c-3.13,3.41-10.36,3.88-16.75.94-5.72-2.63-8.94-7.15-8.18-10.92a19,19,0,0,0,7.43,6.06C799.87,1107.36,808.45,1108.55,813,1104.38Z" transform="translate(-545.56 -460.48)"/><path class="cls-2" d="M760.57,1113.73a34.77,34.77,0,0,1,13.76,10.73c-2.55-4.68-7.25-9.22-13.61-12.63-13.63-7.3-29.76-6.67-36,1.39-.29.4-.57.79-.81,1.2a10.85,10.85,0,0,1,.88-4,10.38,10.38,0,0,1,1.4-2.4c7.49-9.63,25.5-5.62,34.14-1,16.43,8.65,22.68,23.2,15.5,33.67-5.73,8.37-21.84,9.87-36,3.37s-21-18.57-15.25-26.94,21.85-9.87,36-3.36ZM743,1140.11c24.14,10.91,42.39-3,19.26-21.36,14.43,18.77,3.77,27.53-19.26,21.36Zm19.1-9.11c-.77-3-3.64-6-7.94-8-6.68-3.07-14.29-2.36-17,1.6s.51,9.64,7.19,12.71,14.29,2.36,17-1.59c.12-.18.23-.37.34-.56-2.77,3-9.19,3.44-14.86.83-5.08-2.33-7.94-6.35-7.26-9.69a16.75,16.75,0,0,0,6.59,5.37C750.51,1133.64,758.12,1134.7,762.12,1131Z" transform="translate(-545.56 -460.48)"/><path class="cls-2" d="M753.66,1042.16a35,35,0,0,1,12.91,12.4c-2.06-5.09-6.37-10.23-12.52-14.35-13.2-8.83-29.94-9.7-37.41-2-.35.38-.68.77-1,1.16a11.72,11.72,0,0,1,1.4-4.08,11.17,11.17,0,0,1,1.74-2.35c8.92-9.24,27.05-3.39,35.41,2.21,15.92,10.49,20.6,26.11,11.9,36.26-7,8.11-23.79,8.14-37.61.07s-19.4-21.17-12.46-29.28,23.79-8.13,37.62-.07Zm-21.37,25.6c23.62,13.57,44.18,1,22.53-20.25,12.62,20.77.52,28.81-22.53,20.25Zm20.87-7.61c-.44-3.15-3-6.59-7.23-9-6.53-3.82-14.48-3.81-17.76,0s-.65,10,5.88,13.83,14.48,3.79,17.76,0a6.11,6.11,0,0,0,.42-.55c-3.23,2.87-9.92,2.69-15.46-.54-5-2.89-7.43-7.31-6.32-10.7a16.8,16.8,0,0,0,6.15,6.18C740.83,1061.79,748.57,1063.61,753.16,1060.15Z" transform="translate(-545.56 -460.48)"/><path class="cls-2" d="M708.77,1071.22A33,33,0,0,1,721,1083c-2-4.81-6-9.67-11.85-13.57-12.47-8.34-28.3-9.18-35.37-1.86-.33.36-.65.72-.93,1.09a11,11,0,0,1,1.32-3.85,10.43,10.43,0,0,1,1.66-2.23c8.42-8.74,25.57-3.2,33.48,2.09,15.06,9.92,19.48,24.69,11.25,34.29-6.57,7.67-22.5,7.7-35.57.07s-18.35-20-11.78-27.68,22.5-7.69,35.58-.08Zm-20.21,24.21c22.34,12.84,41.77.92,21.3-19.14,11.93,19.63.5,27.24-21.3,19.14Zm19.73-7.19c-.41-3-2.86-6.23-6.83-8.55-6.18-3.6-13.7-3.59-16.8,0s-.62,9.47,5.56,13.08,13.7,3.58,16.8,0c.14-.16.27-.34.4-.52-3.06,2.71-9.38,2.54-14.63-.51-4.69-2.74-7-6.92-6-10.12a15.9,15.9,0,0,0,5.82,5.84C696.64,1089.78,704,1091.5,708.29,1088.24Z" transform="translate(-545.56 -460.48)"/><path class="cls-2" d="M709.78,991.93a31.42,31.42,0,0,1,9.67,13.13A31.15,31.15,0,0,0,710.29,990c-10.24-9.6-24.21-11.5-31.19-4.24-.34.36-.65.72-.94,1.09a13.75,13.75,0,0,1,1.55-4,11.9,11.9,0,0,1,1.69-2.23c8.34-8.67,23-1.73,29.5,4.35,12.37,11.43,14.83,27.28,6.58,36.86-6.58,7.66-20.72,6.67-31.55-2.21s-14.29-22.28-7.71-29.94,20.72-6.66,31.56,2.23Zm-20.32,24.2c18.54,15,37,3.65,20.79-18.8,8.64,21.46-2.26,28.74-20.79,18.8Zm18.21-6.3c-.07-3.18-1.92-6.76-5.21-9.45-5.12-4.21-11.79-4.67-14.9-1.06s-1.49,9.95,3.63,14.14,11.8,4.65,14.91,1c.14-.16.27-.34.4-.52-3,2.66-8.57,2.08-12.92-1.48-3.89-3.19-5.55-7.74-4.3-11a15.42,15.42,0,0,0,4.58,6.53C697.18,1010.7,703.5,1013,707.67,1009.83Z" transform="translate(-545.56 -460.48)"/><path class="cls-2" d="M665.68,1022.05a31.45,31.45,0,0,1,9.67,13.14,31.28,31.28,0,0,0-9.17-15.07c-10.24-9.6-24.2-11.49-31.19-4.23a11.68,11.68,0,0,0-.93,1.09,13.16,13.16,0,0,1,1.55-4,11.7,11.7,0,0,1,1.69-2.23c8.34-8.67,23-1.73,29.49,4.36,12.37,11.43,14.83,27.28,6.58,36.86-6.58,7.66-20.71,6.67-31.55-2.22s-14.29-22.28-7.71-29.93,20.72-6.66,31.57,2.22Zm-20.32,24.21c18.54,15,37,3.65,20.78-18.81,8.64,21.46-2.25,28.75-20.78,18.81Zm18.21-6.31c-.08-3.17-1.92-6.76-5.22-9.45-5.12-4.2-11.79-4.67-14.9-1s-1.49,9.94,3.63,14.13,11.8,4.66,14.91,1.05c.14-.17.28-.35.4-.52-3,2.66-8.57,2.07-12.91-1.48-3.9-3.19-5.55-7.75-4.3-11.06a15.18,15.18,0,0,0,4.58,6.53C653.07,1040.83,659.39,1043.11,663.57,1040Z" transform="translate(-545.56 -460.48)"/><path class="cls-2" d="M631.75,966.57a31.51,31.51,0,0,1,9.67,13.14,31.26,31.26,0,0,0-9.16-15.06c-10.25-9.61-24.21-11.5-31.2-4.24a11.91,11.91,0,0,0-.93,1.09,13.37,13.37,0,0,1,1.55-4,11.86,11.86,0,0,1,1.69-2.24c8.34-8.66,23-1.73,29.49,4.35,12.37,11.44,14.83,27.29,6.59,36.88-6.59,7.65-20.72,6.65-31.56-2.22s-14.29-22.29-7.7-29.95,20.71-6.64,31.56,2.23Zm-20.32,24.21c18.54,15,37,3.65,20.78-18.81,8.64,21.46-2.25,28.74-20.78,18.81Zm18.21-6.3c-.07-3.18-1.92-6.77-5.22-9.47-5.12-4.19-11.79-4.66-14.9-1s-1.48,9.95,3.64,14.14,11.79,4.65,14.91,1c.13-.16.27-.34.4-.52-3,2.65-8.58,2.08-12.92-1.49-3.9-3.18-5.55-7.73-4.3-11a15.39,15.39,0,0,0,4.58,6.53C619.15,985.35,625.46,987.63,629.64,984.48Z" transform="translate(-545.56 -460.48)"/><path class="cls-2" d="M674.7,937.53a31.07,31.07,0,0,1,9.39,13.29,31,31,0,0,0-8.84-15.22c-10-9.75-24-11.88-31.11-4.73-.33.34-.65.7-.95,1.07a13.86,13.86,0,0,1,1.64-4,12,12,0,0,1,1.73-2.21c8.52-8.53,23-1.36,29.4,4.83,12.13,11.63,14.26,27.52,5.81,37-6.74,7.56-20.84,6.33-31.5-2.72s-13.83-22.52-7.08-30.06,20.86-6.32,31.51,2.74ZM653.88,961.4c18.23,15.26,36.88,4.24,21.17-18.47,8.2,21.6-2.85,28.7-21.17,18.47Zm18.34-6c0-3.17-1.78-6.79-5-9.54-5-4.28-11.69-4.86-14.88-1.29s-1.69,9.92,3.34,14.19,11.7,4.85,14.89,1.29c.13-.17.28-.34.41-.52-3,2.61-8.62,1.94-12.89-1.69-3.82-3.24-5.38-7.83-4.07-11.12a15.18,15.18,0,0,0,4.45,6.6C661.71,956.09,668,958.47,672.22,955.39Z" transform="translate(-545.56 -460.48)"/><path class="cls-2" d="M606.52,910.52a30.19,30.19,0,0,1,7.85,14,30.09,30.09,0,0,0-7.09-15.9c-8.9-10.59-22.52-13.9-30.42-7.4a11.1,11.1,0,0,0-1.07,1,13.68,13.68,0,0,1,2.07-3.79,12.33,12.33,0,0,1,2-2.05c9.43-7.76,23.08.64,28.71,7.35,10.78,12.63,11.11,28.62,1.65,37.29-7.56,6.93-21.46,4.49-31-5.44s-11.24-23.61-3.68-30.53,21.45-4.48,31,5.45Zm-23.4,22c16.43,16.76,36.23,7.42,23.14-16.54,5.74,22.19-6.06,28.31-23.14,16.54Zm18.93-4.4c.35-3.16-1-6.9-3.93-9.92-4.52-4.7-11.09-5.85-14.66-2.58s-2.8,9.73,1.74,14.42,11.09,5.83,14.66,2.57l.47-.48c-3.32,2.33-8.8,1.18-12.63-2.8-3.45-3.56-4.49-8.26-2.8-11.42a14.66,14.66,0,0,0,3.68,7C591.51,927.88,597.48,930.79,602.05,928.08Z" transform="translate(-545.56 -460.48)"/><path class="cls-2" d="M649.27,879.5a30.12,30.12,0,0,1,7.85,14A30.05,30.05,0,0,0,650,877.64c-8.9-10.59-22.52-13.9-30.42-7.4a12.56,12.56,0,0,0-1.07,1,13.87,13.87,0,0,1,2.07-3.8,13.11,13.11,0,0,1,2-2c9.44-7.75,23.08.64,28.71,7.35,10.77,12.62,11.11,28.62,1.64,37.29-7.55,6.92-21.45,4.49-31-5.44s-11.23-23.6-3.67-30.52,21.45-4.49,31,5.44Zm-23.4,22c16.43,16.76,36.23,7.42,23.14-16.54,5.73,22.2-6,28.31-23.14,16.54Zm18.92-4.4c.36-3.15-1-6.9-3.92-9.92-4.53-4.7-11.09-5.84-14.66-2.57s-2.8,9.72,1.73,14.41,11.1,5.84,14.67,2.57c.16-.15.32-.31.47-.48-3.32,2.34-8.8,1.18-12.64-2.8-3.44-3.56-4.47-8.26-2.8-11.41a14.68,14.68,0,0,0,3.68,6.95C634.26,896.86,640.23,899.77,644.79,897.06Z" transform="translate(-545.56 -460.48)"/><path class="cls-2" d="M593.54,851.1a27.51,27.51,0,0,1,4.54,14.9,28,28,0,0,0-3.38-16.64c-6.33-11.62-18.94-16.65-28.18-11.24-.43.26-.87.54-1.27.83a15.69,15.69,0,0,1,2.89-3.48,13.76,13.76,0,0,1,2.4-1.77c11-6.46,22.5,3.6,26.52,11,7.72,13.88,4.43,29.75-6.82,37.1-9,5.88-22.08,1.68-29.24-9.37s-5.69-24.79,3.29-30.67,22.08-1.68,29.25,9.38Zm-27.93,18.71c12.33,18.69,33.88,12,26.45-13.39.61,22.7-12.35,27.23-26.45,13.39Zm19.57-1.91a12.07,12.07,0,0,0-1.61-10.32c-3.38-5.23-9.56-7.21-13.81-4.43s-4.94,9.25-1.55,14.47,9.57,7.21,13.81,4.43a6.75,6.75,0,0,0,.57-.41c-3.79,1.89-8.9,0-11.77-4.39-2.57-4-2.53-8.75-.17-11.66a13.43,13.43,0,0,0,2,7.35C574.88,866.34,580.09,870,585.18,867.9Z" transform="translate(-545.56 -460.48)"/><path class="cls-2" d="M641,821.27a27.54,27.54,0,0,1,4.54,14.9,28,28,0,0,0-3.38-16.64c-6.33-11.62-19-16.65-28.18-11.24-.44.26-.86.54-1.27.84a16,16,0,0,1,2.89-3.49,13.76,13.76,0,0,1,2.4-1.77c11-6.45,22.5,3.6,26.52,11,7.71,13.87,4.43,29.74-6.82,37.1-9,5.88-22.08,1.68-29.24-9.38s-5.69-24.8,3.29-30.67,22.08-1.67,29.25,9.38ZM613.11,840c12.33,18.69,33.88,12,26.46-13.39.6,22.7-12.36,27.23-26.46,13.39Zm19.56-1.92a12,12,0,0,0-1.6-10.32c-3.38-5.23-9.57-7.21-13.81-4.43s-4.94,9.26-1.56,14.48,9.57,7.2,13.82,4.42a6.75,6.75,0,0,0,.57-.41c-3.78,1.89-8.9,0-11.78-4.39-2.57-4-2.52-8.75-.16-11.65a13.48,13.48,0,0,0,2,7.35C622.38,836.51,627.59,840.16,632.67,838.07Z" transform="translate(-545.56 -460.48)"/><path class="cls-2" d="M563.53,802.79a29,29,0,0,1-3.12-15.09,30,30,0,0,0,1.94,16.77c5,11.91,16.16,17.53,24.95,12.58a14,14,0,0,0,1.22-.78,16.2,16.2,0,0,1-2.88,3.35,13.1,13.1,0,0,1-2.3,1.65c-10.49,5.91-20.29-4.68-23.46-12.22-6.1-14.22-2-29.9,8.74-36.71,8.59-5.44,20.26-.61,26,10.76s3.51,25-5.08,30.46-20.26.62-26.05-10.77Zm26.75-17.33c-10-19.25-30.09-13.6-25,12.09,1-22.68,13.12-26.59,25-12.09Zm-18,1a13,13,0,0,0,.76,10.38c2.74,5.37,8.24,7.65,12.3,5.09s5.14-9,2.4-14.38-8.24-7.65-12.3-5.09l-.54.38c3.57-1.69,8.12.39,10.44,5,2.07,4.09,1.71,8.86-.64,11.64a14.34,14.34,0,0,0-1.36-7.44C581.59,788.47,577.09,784.58,572.3,786.43Z" transform="translate(-545.56 -460.48)"/><path class="cls-2" d="M606.76,771.13a28.63,28.63,0,0,1-.61-15.34,30,30,0,0,0-.84,16.86c3,12.41,13.11,19.39,22.61,15.6a10.79,10.79,0,0,0,1.34-.61,16.87,16.87,0,0,1-3.39,2.94,13.66,13.66,0,0,1-2.56,1.35c-11.35,4.52-19.3-7.21-21.19-15.08C598.42,762,605,747,616.81,741.65c9.4-4.29,20.14,2,24,14s-.65,25.2-10,29.49-20.14-2-24-14Zm29.32-13.75c-6.71-20.32-27.54-17.3-26.77,8.78,4.71-22.33,17.35-24.64,26.77-8.78Zm-18-1.33a13,13,0,0,0-1,10.37c1.81,5.67,6.89,8.62,11.32,6.6s6.57-8.26,4.75-13.93-6.89-8.62-11.34-6.59c-.19.09-.4.19-.6.31,3.82-1.23,8,1.41,9.52,6.23,1.38,4.3.23,9-2.55,11.43a14.08,14.08,0,0,0-.13-7.53C627,759.26,623.17,754.83,618.13,756.05Z" transform="translate(-545.56 -460.48)"/><path class="cls-2" d="M571.91,736.7a25.52,25.52,0,0,1,2-13.49,26.93,26.93,0,0,0-3.49,14.63c.57,11.23,8.29,18.63,17.23,16.53.43-.11.85-.23,1.27-.37a16.38,16.38,0,0,1-3.46,2.15A13.91,13.91,0,0,1,583,757c-10.67,2.52-15.71-8.75-16.08-15.86-.79-13.46,7.45-25.75,18.63-29,8.92-2.56,17.3,4.26,18.7,15.26s-4.7,22-13.62,24.52-17.3-4.27-18.7-15.26Zm27.9-8.32c-2.54-18.62-21.26-18.61-24.86,4.29,7.78-18.92,19.22-19.36,24.86-4.29Zm-15.49-3.44a11.8,11.8,0,0,0-2.53,9c.66,5.19,4.62,8.41,8.83,7.2s7.1-6.39,6.44-11.57-4.62-8.41-8.84-7.21c-.19,0-.39.12-.58.19,3.54-.59,6.74,2.25,7.3,6.66.51,3.94-1.26,7.88-4.1,9.68a12.75,12.75,0,0,0,1.13-6.61C591.54,728.88,588.93,724.52,584.32,724.94Z" transform="translate(-545.56 -460.48)"/><path class="cls-2" d="M617,712.25a25.55,25.55,0,0,1,2-13.5,27,27,0,0,0-3.5,14.63c.58,11.24,8.29,18.64,17.23,16.53a11.49,11.49,0,0,0,1.27-.37,16.3,16.3,0,0,1-3.45,2.15,13,13,0,0,1-2.46.85c-10.67,2.51-15.71-8.75-16.07-15.87-.8-13.46,7.44-25.75,18.62-28.95,8.93-2.57,17.3,4.27,18.71,15.25s-4.7,22-13.62,24.53-17.31-4.27-18.71-15.25Zm27.91-8.33c-2.55-18.62-21.27-18.61-24.87,4.3,7.79-18.94,19.23-19.36,24.87-4.3Zm-15.49-3.43a11.72,11.72,0,0,0-2.53,9c.65,5.19,4.61,8.41,8.83,7.2s7.1-6.39,6.43-11.57-4.62-8.42-8.84-7.21l-.58.19c3.55-.58,6.75,2.25,7.31,6.66a10.14,10.14,0,0,1-4.1,9.68,12.63,12.63,0,0,0,1.12-6.61C636.67,704.42,634.05,700.06,629.45,700.49Z" transform="translate(-545.56 -460.48)"/><path class="cls-2" d="M587.51,684.21a25.55,25.55,0,0,1,2-13.5A27,27,0,0,0,586,685.35c.57,11.24,8.29,18.63,17.23,16.52a11.33,11.33,0,0,0,1.26-.37,15.31,15.31,0,0,1-3.45,2.15,13.18,13.18,0,0,1-2.45.85c-10.67,2.52-15.71-8.75-16.08-15.87-.8-13.46,7.45-25.75,18.62-29,8.93-2.56,17.3,4.27,18.71,15.26s-4.7,22-13.62,24.53-17.3-4.28-18.71-15.26Zm27.91-8.32c-2.54-18.63-21.26-18.62-24.86,4.29,7.78-18.94,19.22-19.36,24.86-4.29Zm-15.49-3.44a11.79,11.79,0,0,0-2.53,9c.66,5.19,4.61,8.41,8.83,7.2s7.1-6.4,6.44-11.58-4.63-8.41-8.85-7.2l-.57.18c3.54-.58,6.74,2.26,7.3,6.66a10.16,10.16,0,0,1-4.1,9.69,12.65,12.65,0,0,0,1.12-6.61C607.15,676.38,604.54,672,599.93,672.45Z" transform="translate(-545.56 -460.48)"/><path class="cls-2" d="M642.54,662.86A29.17,29.17,0,0,1,647.91,651,30.84,30.84,0,0,0,641,663.61c-2.75,10.25,1.12,18.38,8.64,18.16a10,10,0,0,0,1.09-.09,13.82,13.82,0,0,1-3.28,1.29,10.2,10.2,0,0,1-2.15.3c-9,.27-9.67-10.86-7.92-17.36,3.2-12.3,13.08-21.84,22.64-22.63,7.64-.63,12.19,7.12,10.15,17.3s-9.89,18.95-17.52,19.58-12.19-7.12-10.15-17.3Zm24-2.26c3.33-17.29-11.17-20.81-20.48-.81,11.42-15.63,20.39-13.86,20.48.81Zm-11-6a13.29,13.29,0,0,0-4.51,7.6c-1,4.81,1.18,8.47,4.8,8.17s7.31-4.43,8.27-9.25-1.19-8.46-4.8-8.17a4.71,4.71,0,0,0-.5.08c2.91.13,4.58,3.3,3.76,7.37-.72,3.66-3.22,6.88-5.93,8a14.2,14.2,0,0,0,2.75-5.76C660,659.5,659.19,655.07,655.5,654.59Z" transform="translate(-545.56 -460.48)"/><path class="cls-2" d="M616.69,635.78a32.06,32.06,0,0,1,5.9-13A33.76,33.76,0,0,0,615,636.6c-3,11.27,1.23,20.21,9.5,20a11.69,11.69,0,0,0,1.19-.1,15,15,0,0,1-3.61,1.41,10.9,10.9,0,0,1-2.35.33c-9.87.29-10.63-11.93-8.72-19.07,3.53-13.52,14.38-24,24.89-24.86,8.4-.7,13.39,7.81,11.15,19s-10.86,20.83-19.25,21.52-13.39-7.82-11.15-19ZM643,633.31c3.66-19-12.27-22.87-22.49-.89,12.54-17.17,22.4-15.23,22.49.89Zm-12.1-6.62a14.6,14.6,0,0,0-5,8.37c-1.05,5.28,1.3,9.3,5.27,9s8-4.88,9.09-10.17-1.3-9.3-5.27-9c-.17,0-.36,0-.55.07,3.2.15,5,3.63,4.14,8.11-.81,4-3.54,7.57-6.52,8.76a15.77,15.77,0,0,0,3-6.32C635.84,632.09,635,627.23,630.93,626.69Z" transform="translate(-545.56 -460.48)"/><path class="cls-2" d="M668.33,617.52a29.19,29.19,0,0,1,5.37-11.81,30.83,30.83,0,0,0-6.87,12.55c-2.75,10.26,1.12,18.4,8.64,18.17a9.63,9.63,0,0,0,1.08-.08,13.47,13.47,0,0,1-3.28,1.28,10.14,10.14,0,0,1-2.14.31c-9,.26-9.67-10.87-7.93-17.37,3.21-12.3,13.08-21.84,22.65-22.63,7.64-.62,12.19,7.12,10.14,17.31s-9.88,19-17.52,19.58-12.18-7.12-10.14-17.31Zm24-2.25c3.33-17.3-11.17-20.81-20.47-.81,11.41-15.63,20.39-13.86,20.47.81Zm-11-6a13.23,13.23,0,0,0-4.51,7.61c-1,4.81,1.18,8.46,4.79,8.17s7.31-4.44,8.27-9.25-1.18-8.47-4.79-8.17l-.51.06c2.92.14,4.59,3.31,3.77,7.39-.73,3.65-3.22,6.88-5.93,8a14.3,14.3,0,0,0,2.75-5.75C685.76,614.16,685,609.73,681.29,609.25Z" transform="translate(-545.56 -460.48)"/><path class="cls-2" d="M653.87,585.85a31.82,31.82,0,0,1,8.56-10.25,33.77,33.77,0,0,0-10.23,10.65c-5.58,9.32-4.15,18,3.2,19.49a9.5,9.5,0,0,0,1.07.15,14.16,14.16,0,0,1-3.54.52,10.11,10.11,0,0,1-2.16-.18c-8.77-1.72-6.27-12.64-2.73-18.55,6.6-11.21,18.88-18.26,28.37-16.92,7.57,1.07,9.77,9.57,4.9,19s-15,16.17-22.55,15.1-9.76-9.57-4.89-19Zm23.85,3.1c8.15-16-4.88-22.61-19.59-5.29,15.5-12.62,23.69-8.93,19.59,5.29Zm-9-8.26a14.55,14.55,0,0,0-6.53,6.38c-2.3,4.45-1.26,8.46,2.31,9s8.35-2.68,10.65-7.12,1.26-8.46-2.32-9l-.5-.05c2.77.77,3.49,4.21,1.53,8-1.74,3.39-5.07,6-8,6.42a15.56,15.56,0,0,0,4.31-5C671.7,586.43,672.2,582,668.77,580.69Z" transform="translate(-545.56 -460.48)"/><path class="cls-2" d="M704.32,576.7a29.14,29.14,0,0,1,8.36-8.78,30.92,30.92,0,0,0-9.87,9c-5.62,8.1-4.9,16,1.6,17.67.32.08.64.14,1,.19a13.37,13.37,0,0,1-3.21.29,9.08,9.08,0,0,1-1.93-.26c-7.77-2-4.82-11.67-1.26-16.81,6.66-9.73,18.14-15.46,26.57-13.78,6.74,1.34,8.16,9.08,3.17,17.29S714.23,595.33,707.49,594s-8.15-9.08-3.17-17.29Zm21.23,4c8.35-14-2.93-20.55-17.25-5.73,14.73-10.56,21.85-6.85,17.25,5.73ZM718,572.8a13.45,13.45,0,0,0-6.27,5.4c-2.36,3.88-1.69,7.54,1.49,8.17s7.67-2,10-5.87,1.68-7.54-1.5-8.17l-.45-.07c2.44.83,2.87,4,.87,7.24-1.79,3-5,5.1-7.61,5.36a14.2,14.2,0,0,0,4.18-4.25C720.31,578.11,721,574.13,718,572.8Z" transform="translate(-545.56 -460.48)"/><path class="cls-2" d="M695.26,552.73a25.36,25.36,0,0,1,7.19-7.56A26.61,26.61,0,0,0,694,553c-4.83,7-4.21,13.76,1.38,15.2.27.06.54.12.82.16a11.68,11.68,0,0,1-2.76.25,7.91,7.91,0,0,1-1.66-.23c-6.68-1.71-4.15-10-1.09-14.45,5.73-8.37,15.61-13.3,22.86-11.86,5.79,1.16,7,7.81,2.73,14.88s-12.46,11.85-18.25,10.7-7-7.82-2.73-14.88Zm18.25,3.41c7.19-12-2.51-17.67-14.83-4.92,12.67-9.09,18.79-5.88,14.83,4.92Zm-6.45-6.75a11.48,11.48,0,0,0-5.4,4.64c-2,3.33-1.45,6.48,1.29,7s6.59-1.71,8.62-5,1.44-6.48-1.3-7l-.38-.05c2.1.72,2.47,3.39.74,6.23a9.56,9.56,0,0,1-6.54,4.6,12.28,12.28,0,0,0,3.6-3.65C709,553.94,709.64,550.52,707.06,549.39Z" transform="translate(-545.56 -460.48)"/><path class="cls-2" d="M749.53,558a34.26,34.26,0,0,0,10.6-4.55A34.47,34.47,0,0,1,748.94,559c-9.34,2.76-17.21,1.17-17.57-3.54q0-.33,0-.69a7.57,7.57,0,0,0-1,2.18,4.66,4.66,0,0,0-.12,1.37c.43,5.63,10.84,4.93,16.77,3.18,11.22-3.25,19.36-10.38,19.38-16.42,0-4.82-7.55-6.86-16.88-4.57s-16.92,8.1-16.93,12.92,7.55,6.87,16.89,4.56Zm.3-15.17c15.87-3.83,20.23,4.85,2.29,12.67,13.7-8.69,11.38-14.11-2.29-12.67Zm6.43,6.26a14.35,14.35,0,0,1-6.74,3.58c-4.42,1.09-8,.12-8-2.16s3.58-5,8-6.09,8-.13,8,2.15c0,.11,0,.21,0,.32-.35-1.8-3.42-2.51-7.16-1.59-3.35.82-6.17,2.71-7,4.5a16.59,16.59,0,0,1,5.15-2.29C751.35,546.82,755.53,546.86,756.26,549.11Z" transform="translate(-545.56 -460.48)"/><path class="cls-2" d="M743.08,537a37.81,37.81,0,0,0,10.6-3,36.27,36.27,0,0,1-11.18,3.77c-9.35,1.64-17.22-.08-17.58-3.84a3.39,3.39,0,0,1,0-.55,4.93,4.93,0,0,0-1,1.68,2.9,2.9,0,0,0-.12,1.08c.43,4.48,10.85,4.54,16.77,3.5,11.22-1.93,19.37-7.11,19.38-11.91,0-3.84-7.55-5.91-16.88-4.62s-16.91,5.44-16.93,9.27,7.55,5.91,16.89,4.62Zm.3-12c15.87-2.12,20.23,5,2.29,10.21,13.71-6.12,11.38-10.56-2.29-10.21Zm6.44,5.35a15,15,0,0,1-6.75,2.45c-4.42.61-8-.37-8-2.18s3.58-3.77,8-4.37,8,.36,8,2.17a1.13,1.13,0,0,1,0,.25c-.34-1.45-3.41-2.2-7.15-1.68-3.36.46-6.18,1.79-7,3.17a18.43,18.43,0,0,1,5.16-1.52C744.91,528.2,749.08,528.47,749.82,530.31Z" transform="translate(-545.56 -460.48)"/><path class="cls-2" d="M784.83,524.49a42.6,42.6,0,0,0,10.29-1.34A41.18,41.18,0,0,1,784.18,525c-8.93.41-16-1.64-15.8-4.58a2.07,2.07,0,0,1,.08-.42,4.08,4.08,0,0,0-1.12,1.21,1.81,1.81,0,0,0-.27.82c-.25,3.5,9.43,4.5,15.09,4.24,10.72-.46,19-3.7,19.74-7.4.57-3-6.17-5.25-15-5.11s-16.52,2.63-17.08,5.59,6.17,5.24,15,5.11Zm2-9.26c15.06-.17,18.09,5.74.66,8.08,13.63-3.45,12.11-7.09-.66-8.08Zm5.22,4.72a16.56,16.56,0,0,1-6.63,1.26c-4.19.07-7.37-1-7.1-2.41s3.87-2.58,8.06-2.64,7.37,1,7.1,2.42a1.39,1.39,0,0,1-.06.19c-.11-1.15-2.86-2-6.42-1.95-3.18,0-6,.81-7,1.8a21.08,21.08,0,0,1,5-.71C787.79,517.87,791.64,518.47,792.06,520Z" transform="translate(-545.56 -460.48)"/><path class="cls-2" d="M828.19,526.53a43.62,43.62,0,0,0,11.13-.11,41.94,41.94,0,0,1-11.94.63c-9.49-.76-16.43-4.08-15.52-7.42a2.72,2.72,0,0,1,.19-.47,5.32,5.32,0,0,0-1.47,1.22,2.58,2.58,0,0,0-.48.91c-1.09,4,8.84,6.46,14.85,6.94,11.38,1,20.89-1.62,22.52-5.76,1.3-3.31-5.24-6.86-14.59-7.93s-18,.75-19.28,4.06,5.23,6.85,14.59,7.93Zm4.31-10.34c15.88,1.88,17.65,9.08-1.22,9.36,15.14-2.08,14.41-6.46,1.22-9.36Zm4.37,6.13a17.06,17.06,0,0,1-7.27.54c-4.42-.51-7.51-2.18-6.9-3.74s4.69-2.43,9.11-1.92,7.5,2.18,6.89,3.75l-.11.21c.16-1.34-2.53-2.7-6.28-3.13-3.36-.39-6.49.1-7.73,1.11A20.33,20.33,0,0,1,830,519C832.88,519.35,836.78,520.57,836.87,522.32Z" transform="translate(-545.56 -460.48)"/><path class="cls-2" d="M792.08,539.9a40.93,40.93,0,0,0,10.17-4,39.21,39.21,0,0,1-10.68,4.75c-9.05,2.61-16.93,2-17.59-1.4a2.07,2.07,0,0,1,0-.49,4.58,4.58,0,0,0-.8,1.63,2.38,2.38,0,0,0,0,1c.8,4,11,2.86,16.77,1.2,10.87-3.09,18.44-8.77,18.06-13.15-.3-3.49-7.9-4.47-17-2.18s-16.18,7-15.87,10.44,7.91,4.47,17,2.2Zm-.71-11c15.42-3.82,20.3,2.18,3.1,9,13-7.2,10.31-11-3.1-9Zm6.77,4.1a15.66,15.66,0,0,1-6.43,3c-4.28,1.09-7.87.62-8-1s3.21-3.86,7.49-4.93,7.87-.61,8,1a.89.89,0,0,1,0,.23c-.46-1.27-3.54-1.59-7.18-.68-3.25.83-5.91,2.36-6.6,3.73a19.54,19.54,0,0,1,4.94-2C793.14,531.67,797.28,531.42,798.14,533Z" transform="translate(-545.56 -460.48)"/></svg>