<svg id="Layer_1" data-name="Layer 1" xmlns="http://www.w3.org/2000/svg" viewBox="0 0 922.37 1128.83"><defs><style>.cls-1,.cls-4{fill:#1b1b1b;}.cls-1,.cls-2{fill-rule:evenodd;}.cls-2,.cls-3{fill:#fff;}</style></defs><path class="cls-1" d="M961.81,1253.61c14.2-10,27.4-21.53,40.51-33,5.22-4.57,10.58-9.1,16.07-13.54-11.81,12.27-23.79,26.81-36.47,43.77,59.1-49.3,116.21-83,188.62-89.91-25.94-5.44-48.17-6.61-68.31-3.18q7.24-2.47,14.66-4.27c67.91-16.38,110.48,15.1,126,74.24,18.59,70.71-49.45,121-140.93,181.67-152.38,101.08-98.61,185,79.1,184.58,63.71-.13,125.56-40.42,174.78-92.51l-.22-.2c70.3-64.59,79.52-152.43,51.16-227.33a249.8,249.8,0,0,0-52.46-83.41c-32.46-34.09-76-60-126.14-66.53,57.69,4.94,108.83,34.1,145.88,73a265.72,265.72,0,0,1,55.83,88.69c42.81,113.07-29.65,237.1-128.59,296.64,66.31-27,135.75-111.77,156-173.33,14.4-21,22.87-43.86,25.48-71.64,21.6-33.71,23.24-71.37,8.86-113,8.93-40.18-7.59-76.35-30.52-100.85-12-43.78-38.14-70.19-75.38-79.35-30.16-33.28-66.82-55.27-110.66-49.16-59.29-24.66-116.67-24.43-159.07,11-34.56,2.26-64.46,17.68-90.5,45.88-32.49,4.83-59.19,22.22-81.5,55.6-25.36,1.78-48.32,9.87-61.35,24.82-20.57-8.23-50.12-11.4-73.2-5.93-10.81-19.75-28.33-41.3-53-53.95-1.87-26.85-11.75-49.43-24.91-70.6,7.58-16.45,11.88-39,11.43-62.45a152.58,152.58,0,0,0,29.1-66.2c28.67-42,94.79-65.19,163.59-77.16,101.22-17.62,201.19-39.55,225-140.76C1201.61,481.38,966,390.66,857.38,541.77,835,573,855,611.92,889.24,616.61c15.45,2.12,18.94-3.08,4.16-10.55-14-7-24.57-32.06-6.08-52.77,94.3-105.65,281-13.86,201,112.44-16.44,26-44.43,48.16-84.35,62.24-39.44,13.9-76.92,17.15-113.85,20.35C827.89,753.7,767.22,759,703.65,818.23c-23.36,21.78-43,45.29-58.47,70.25,59.52-56.67,144.73-74,227.85-84.85-196,36.71-271.54,126-276.9,218.21A203.36,203.36,0,0,1,605,957.41c-89.59,176.48,64,420.32,287.33,334.6-97.45,14.11-183.78-35.75-237.75-108.1C729.21,1275.88,860.4,1327.78,961.81,1253.61Z" transform="translate(-578.63 -465.17)"/><path class="cls-2" d="M748,1231.38c-11.14-5.87-19.78-13.45-25.15-21.38,4.62,8.94,13.18,17.85,24.84,24.87,24.94,15,54.64,15.74,66.31,1.6a18.93,18.93,0,0,0,1.53-2.09,19.87,19.87,0,0,1-1.67,7.31,18.42,18.42,0,0,1-2.65,4.27c-13.93,16.87-47,7.38-62.84-2.15-30.09-17.85-41.34-45.35-27.95-63.82,10.69-14.73,40.37-15.63,66.3-2s38.27,36.63,27.57,51.37-40.37,15.65-66.29,2Zm-2.57-32c1.37,5.59,6.6,11.57,14.47,15.71,12.24,6.44,26.26,6,31.31-.95s-.79-17.82-13-24.26-26.25-6-31.3.95a8.77,8.77,0,0,0-.64,1c5.15-5.25,17-5.27,27.37.2,9.3,4.89,14.5,12.61,13.19,18.69a33.39,33.39,0,0,0-12-10.66C766.86,1195.88,752.87,1193,745.45,1199.39Z" transform="translate(-578.63 -465.17)"/><path class="cls-2" d="M884.71,1250.17c-11.11,1.36-21.56.35-30-2.47,8.52,3.87,19.72,5.82,31.89,5,26-1.77,46.7-15.57,46.16-30.82a14.13,14.13,0,0,0-.23-2.16,18,18,0,0,1,3.27,5.79,14.6,14.6,0,0,1,.76,4.17c.65,18.21-27.62,27.67-44.11,28.79-31.25,2.31-55.47-11-57.45-30-1.58-15.18,18.11-30.09,44-33.27s48.12,6.55,49.7,21.73-18.11,30.11-44,33.29Zm-21-20.57c4.3,3.16,11.46,4.71,19.32,3.75,12.21-1.5,21.51-8.54,20.76-15.71s-11.25-11.78-23.47-10.28-21.5,8.54-20.76,15.72a6.83,6.83,0,0,0,.17,1c.35-6.06,8.39-11.77,18.77-13,9.28-1.15,17.47,1.61,20.22,6.38a33.58,33.58,0,0,0-14.61-1.47C876.2,1216.91,865,1221.71,863.72,1229.6Z" transform="translate(-578.63 -465.17)"/><path class="cls-2" d="M979.87,1203.09a52.78,52.78,0,0,1-22.26,6.87,52.37,52.37,0,0,0,24.52-5.61c17.93-8.74,27.71-24.53,21.84-35.24a12.74,12.74,0,0,0-.94-1.48,16.45,16.45,0,0,1,4.41,3.19,13.27,13.27,0,0,1,2,2.76c7,12.79-9.75,27.66-21.11,33.2-21.45,10.63-43.5,8.09-51.75-4.9-6.58-10.37,2.1-26.66,19.39-36.37s36.66-9.16,43.25,1.21-2.1,26.66-19.4,36.37Zm-22.35-8.62c4.2,1,9.86.06,15.12-2.89,8.16-4.59,12.26-12.28,9.15-17.17s-12.25-5.16-20.42-.58-12.27,12.28-9.16,17.17a8,8,0,0,0,.48.66c-1.93-4.42,1.76-10.79,8.69-14.69,6.21-3.48,13-3.87,16.72-1.26a25.69,25.69,0,0,0-10.94,3.15C961.86,1181.83,955.56,1188.48,957.52,1194.47Z" transform="translate(-578.63 -465.17)"/><path class="cls-2" d="M1056,1151.2a60.77,60.77,0,0,1-23.89,6.67,61,61,0,0,0,26.31-5.44c19.23-8.49,29.71-23.82,23.42-34.22a13.18,13.18,0,0,0-1-1.44,17.46,17.46,0,0,1,4.72,3.1,12.26,12.26,0,0,1,2.2,2.67c7.51,12.43-10.46,26.86-22.64,32.25-23,10.33-46.67,7.85-55.51-4.77-7.06-10.07,2.25-25.89,20.8-35.31s39.33-8.9,46.39,1.17-2.25,25.9-20.8,35.32Zm-24-8.37c4.5,1,10.57.06,16.21-2.8,8.76-4.45,13.16-11.92,9.83-16.68s-13.15-5-21.91-.56-13.16,11.92-9.82,16.68a5.12,5.12,0,0,0,.5.63c-2.06-4.29,1.89-10.48,9.33-14.26,6.66-3.38,14-3.76,17.94-1.22a29.58,29.58,0,0,0-11.75,3.05C1036.69,1130.56,1029.94,1137,1032,1142.83Z" transform="translate(-578.63 -465.17)"/><path class="cls-2" d="M1148.39,1114.74a62.28,62.28,0,0,1-24.83,2.8,61.74,61.74,0,0,0,27-1.22c20.59-5.32,33.94-18.76,29.8-30a12.21,12.21,0,0,0-.71-1.56,16.77,16.77,0,0,1,4,3.78,12.1,12.1,0,0,1,1.62,3c5,13.41-15.58,24.79-28.64,28.17-24.67,6.54-47.47.38-53.69-13.44-5-11,7.31-25.12,27.43-31.48s40.46-2.57,45.43,8.47-7.32,25.12-27.44,31.48Zm-22-12c4.24,1.67,10.39,1.72,16.51-.2,9.5-3,15.3-9.66,13-14.87s-12-7-21.45-4-15.3,9.66-13,14.87a5.3,5.3,0,0,0,.38.7c-1.19-4.55,3.92-10,12-12.57,7.23-2.28,14.51-1.49,17.9,1.62a30.4,30.4,0,0,0-12.16,1.15C1133.43,1091.37,1125.52,1096.66,1126.44,1102.72Z" transform="translate(-578.63 -465.17)"/><path class="cls-2" d="M1257.11,1110.27a69.24,69.24,0,0,1-27.18-7c7.34,4.75,17.37,8.26,28.62,9.54,24,2.72,44.64-5.9,46-19.22a13.58,13.58,0,0,0,0-1.91,16.46,16.46,0,0,1,2.3,5.55,12.91,12.91,0,0,1,.2,3.76c-1.58,15.9-28.6,19.5-43.85,17.79-28.9-3.1-49.49-18.63-49-35.47.36-13.45,20.18-23.16,44.25-21.71s43.3,13.55,42.94,27-20.17,23.17-44.25,21.72ZM1240.33,1089c3.57,3.43,9.94,6,17.25,6.39,11.37.69,20.72-3.9,20.9-10.24s-8.91-12.06-20.28-12.75-20.73,3.9-20.9,10.25a6.41,6.41,0,0,0,0,.88c1.05-5.2,9.09-8.84,18.75-8.25,8.64.52,15.81,4.26,17.77,8.85a33.61,33.61,0,0,0-13.21-3.67C1253.28,1080,1242.41,1082.33,1240.33,1089Z" transform="translate(-578.63 -465.17)"/><path class="cls-2" d="M1336.26,1146.28a51,51,0,0,1-15.85-16.67c2.77,6.56,8.12,13.37,15.55,19.09,15.9,12.22,35.33,14.79,43.39,5.75a13.47,13.47,0,0,0,1.06-1.36,14.06,14.06,0,0,1-1.32,5,11.77,11.77,0,0,1-1.85,2.79c-9.62,10.8-31,1.86-41.09-5.88-19.2-14.56-25.76-34.54-16.45-46.49,7.42-9.54,26.9-8.1,43.48,3.22s24,28.24,16.57,37.78-26.91,8.1-43.49-3.22Zm-.75-22.5c.74,4,4,8.53,9,12,7.83,5.35,17,6,20.54,1.53s0-12.5-7.83-17.85-17-6-20.53-1.51a4.55,4.55,0,0,0-.44.64c3.52-3.3,11.27-2.49,17.91,2,6,4.06,9.13,9.81,8.1,14a24.74,24.74,0,0,0-7.57-8.28C1349.63,1122.83,1340.55,1119.86,1335.51,1123.78Z" transform="translate(-578.63 -465.17)"/><path class="cls-2" d="M1403.17,1215.28a56,56,0,0,1-9.54-19.71,56.11,56.11,0,0,0,8.92,22c10.3,15.45,24.89,22.48,32.59,15.68a10.43,10.43,0,0,0,1-1.06,14.77,14.77,0,0,1-1.82,4.49,10.07,10.07,0,0,1-1.89,2.24c-9.18,8.11-24.27-5.48-30.8-15.28-12.47-18.46-14.3-39.17-5.17-48.46,7.29-7.41,22.09-1.47,33.07,13.28s14,32.72,6.68,40.14-22.1,1.46-33.08-13.29Zm3.07-21.76c-.08,4,1.69,9.12,5,13.6,5.19,7,12.18,9.77,15.62,6.27s2-12-3.15-19-12.18-9.77-15.62-6.27a4.54,4.54,0,0,0-.45.52c3.26-2.35,9.11.25,13.51,6.16,3.94,5.3,5.47,11.56,4,15.29a27.48,27.48,0,0,0-4.5-9.71C1417.3,1195.91,1410.77,1190.94,1406.24,1193.52Z" transform="translate(-578.63 -465.17)"/><path class="cls-2" d="M663,1133.75c-5.71-9.79-8.41-19.84-8.28-28.7-1.32,9.34.58,20.43,6,31.4,11.72,23.45,35.37,37.46,52.81,31.3a23.66,23.66,0,0,0,2.42-1,21.93,21.93,0,0,1-5.49,5.17,20.55,20.55,0,0,1-4.55,2.26c-20.83,7.36-42.27-15.31-49.69-30.17-14.28-28.08-7.84-55.45,13.45-64.35,17-7.1,41.55,5.6,54.83,28.37s10.28,47-6.71,54.1-41.55-5.6-54.84-28.37Zm16-27.07c-2,5.15-1.2,12.36,2.84,19.27,6.27,10.75,17.88,16.75,25.89,13.4s9.45-14.79,3.17-25.55-17.87-16.75-25.89-13.39a10.72,10.72,0,0,0-1.08.52c7.15-1.92,16.73,3.4,22.06,12.53,4.77,8.17,4.61,16.79.11,21.11a27.34,27.34,0,0,0-3.71-14.08C698.34,1113.52,688.62,1104.89,679,1106.68Z" transform="translate(-578.63 -465.17)"/><path class="cls-2" d="M633.07,1029.71a50.27,50.27,0,0,1,6.52-25.9c-5.31,7-8.87,16.49-9.53,27.24-1.39,23,11.05,42.82,27.78,44.29a21.46,21.46,0,0,0,2.4.08,22.09,22.09,0,0,1-6.75,2.11,19.64,19.64,0,0,1-4.66.14c-20-1.75-26.7-27.68-25.82-42.24,1.46-27.62,19.12-47.09,40.17-46.39,16.8.56,30.57,19.68,30.74,42.7s-13.3,41.23-30.1,40.67-30.57-19.67-30.75-42.7ZM658.22,1014c-4,3.36-6.61,9.42-6.55,16.4.08,10.88,6.59,19.9,14.52,20.17s14.29-8.34,14.21-19.21-6.59-19.89-14.52-20.16a10.1,10.1,0,0,0-1.1,0c6.58,1.09,11.78,8.84,11.85,18.07.07,8.27-4,15.08-9.56,16.87a24.49,24.49,0,0,0,3.48-12.59C670.5,1026.52,666.7,1016.08,658.22,1014Z" transform="translate(-578.63 -465.17)"/><path class="cls-2" d="M1107.48,1071.77a59.25,59.25,0,0,1-22.81,9.2,59.93,59.93,0,0,0,25.39-8.24c17.93-10.51,26.27-26.86,18.62-36.51a11.35,11.35,0,0,0-1.19-1.31,18.15,18.15,0,0,1,5.11,2.56,12.77,12.77,0,0,1,2.54,2.43c9.14,11.51-6.75,27.78-18.12,34.44-21.44,12.74-45.25,12.85-55.75,1.28-8.36-9.24-1.26-25.95,15.89-37.3s37.83-13.09,46.2-3.86,1.27,26-15.88,37.31Zm-24.93-5.72c4.6.49,10.51-1.08,15.72-4.53,8.09-5.37,11.45-13.26,7.49-17.62s-13.72-3.55-21.82,1.82-11.45,13.25-7.49,17.61a6.23,6.23,0,0,0,.58.57c-2.63-4,.46-10.6,7.34-15.16,6.15-4.08,13.38-5.24,17.63-3.16a29.18,29.18,0,0,0-11.24,4.31C1085.51,1053.37,1079.68,1060.5,1082.55,1066.05Z" transform="translate(-578.63 -465.17)"/><path class="cls-2" d="M1022.45,1102.68a62.81,62.81,0,0,1-18.88,13.63,65.11,65.11,0,0,0,21.59-13.66c13.9-13.2,17-28,6.95-33.15-.48-.24-1-.45-1.51-.65a21.45,21.45,0,0,1,5.58.46,13.28,13.28,0,0,1,3.11,1.1c12,6.1,1.74,23.08-7.07,31.45-16.55,15.91-39,22.93-52.34,17.19-10.61-4.58-8.78-19.35,4.12-33s32-20.95,42.57-16.37,8.77,19.34-4.12,33Zm-25.25,2.91a27.72,27.72,0,0,0,13.54-8c6.09-6.43,7-13.4,1.94-15.57s-14,1.3-20.1,7.74-7,13.4-1.94,15.56a7.66,7.66,0,0,0,.72.27c-3.67-2.31-2.67-8.2,2.5-13.66,4.63-4.89,11.12-7.88,15.76-7.53a30.81,30.81,0,0,0-9.38,6.54C996.29,1095.09,992.87,1102.21,997.2,1105.59Z" transform="translate(-578.63 -465.17)"/><path class="cls-2" d="M941.81,1152a63.69,63.69,0,0,1-21.55,4.25,65.26,65.26,0,0,0,23.76-3.29c17.29-5.71,26.55-16.66,20.67-24.46a11.58,11.58,0,0,0-.93-1.08,17.61,17.61,0,0,1,4.33,2.4,10.85,10.85,0,0,1,2,2c7,9.31-9,19.41-20,23-20.68,7-42.16,4.52-50.38-5-6.57-7.57,1.61-18.92,18.27-25.33s35.5-5.47,42.06,2.1-1.62,18.93-18.27,25.34Zm-21.87-6.78a27.61,27.61,0,0,0,14.64-1.62c7.87-3,11.73-8.39,8.64-12s-12-4-19.86-1-11.74,8.39-8.63,12a5.22,5.22,0,0,0,.46.48c-1.94-3.2,1.54-7.64,8.23-10.21,6-2.29,12.61-2.37,16.23-.42a31.41,31.41,0,0,0-10.6,1.93C924,1136.32,917.94,1140.88,919.94,1145.2Z" transform="translate(-578.63 -465.17)"/><path class="cls-2" d="M852.57,1174.66a69.35,69.35,0,0,1-23.39-5.44,69.88,69.88,0,0,0,25,7.36c20,2.11,35.17-4.47,33.77-14.69a9.26,9.26,0,0,0-.31-1.46,16.67,16.67,0,0,1,2.9,4.26,10.38,10.38,0,0,1,.86,2.88c1.67,12.2-19.62,14.93-32.32,13.59-24.06-2.41-43.66-14.35-46.41-27.27-2.2-10.31,12.09-17.74,31.92-16.6s37.69,10.45,39.88,20.76-12.1,17.75-31.92,16.61ZM835,1158.31c3.53,2.64,9.17,4.58,15.19,4.93,9.37.54,16.12-3,15.08-7.84s-9.47-9.26-18.84-9.8-16.11,3-15.07,7.84a6.34,6.34,0,0,0,.19.68c-.11-4,5.75-6.77,13.7-6.32,7.12.42,13.63,3.29,16.07,6.81a33.51,33.51,0,0,0-11.4-2.82C843.85,1151.44,835.44,1153.2,835,1158.31Z" transform="translate(-578.63 -465.17)"/><path class="cls-2" d="M757.54,1129.71a79.66,79.66,0,0,1-15.6-18.7A78,78,0,0,0,757.67,1132c15,14.47,31.31,20.39,36.51,13.2a7.12,7.12,0,0,0,.66-1.1,12.45,12.45,0,0,1-.3,4.52,7.14,7.14,0,0,1-1.08,2.33c-6.22,8.57-25.18-3.75-34.65-12.93-18-17.27-26.53-37.47-20.75-47.2,4.61-7.75,20.82-2.91,36.19,10.82s24.1,31.16,19.49,38.93-20.82,2.92-36.2-10.81Zm-4.12-21.56c1.23,3.94,4.6,8.83,9.27,13,7.26,6.49,14.92,8.78,17.09,5.11s-1.94-11.9-9.19-18.38-14.92-8.77-17.1-5.11a4.49,4.49,0,0,0-.26.54c2.38-2.52,8.86-.37,15,5.14,5.51,4.93,9,11,8.81,14.74a38.51,38.51,0,0,0-7.5-9.23C764.86,1109.74,757,1105.31,753.42,1108.15Z" transform="translate(-578.63 -465.17)"/><path class="cls-2" d="M708.69,1048.53a60,60,0,0,1-5.23-19A59.31,59.31,0,0,0,708,1050.3c6.27,15.57,16.75,24.94,23.41,20.9a6.38,6.38,0,0,0,.91-.66,11.14,11.14,0,0,1-1.88,3.41,6.73,6.73,0,0,1-1.7,1.48c-7.94,4.81-18.1-10.27-22.07-20.14-7.62-18.64-6.81-36.76,1.22-42.59,6.41-4.65,17.17,3.84,24,19s7.24,31.18.83,35.82-17.18-3.83-24-19Zm4.7-17.9c-.49,3.41.32,8.19,2.41,12.78,3.24,7.15,8.33,11.16,11.35,9s2.86-9.77-.39-16.92-8.33-11.15-11.35-9a3.26,3.26,0,0,0-.4.34c2.76-1.25,7,2.31,9.74,8.38,2.47,5.43,3,11.12,1.43,14a29.25,29.25,0,0,0-2.42-9.34C721.65,1035.23,717.16,1029.47,713.39,1030.63Z" transform="translate(-578.63 -465.17)"/><path class="cls-2" d="M704.1,966.81a60,60,0,0,1,4.93-19.1,60.57,60.57,0,0,0-6.47,20.4c-2.25,16.43,2.4,29,10.37,28.09a6.55,6.55,0,0,0,1.14-.22,13.42,13.42,0,0,1-3.39,2.29,7.83,7.83,0,0,1-2.26.63c-9.52,1.1-11-16.46-9.56-26.87,2.6-19.72,12.45-35.56,22.56-37.53,8.06-1.57,13.39,10.35,11.9,26.62s-9.24,30.75-17.31,32.31-13.4-10.35-11.91-26.62Zm13.22-14.07A25.08,25.08,0,0,0,713,965.12c-.71,7.68,1.81,13.31,5.62,12.57s7.47-7.57,8.18-15.25-1.82-13.31-5.63-12.58l-.53.15c3.1,0,5.08,4.87,4.48,11.4-.54,5.84-3,11.14-5.77,13.06a29.51,29.51,0,0,0,2.54-9.31C722.38,960.17,721.26,953.22,717.32,952.74Z" transform="translate(-578.63 -465.17)"/><path class="cls-2" d="M729.32,896.45A59.18,59.18,0,0,1,738,879.81a59.38,59.38,0,0,0-10.35,17.56c-5.63,14.67-4.11,27,3.4,27.55a7.93,7.93,0,0,0,1.09,0,13.31,13.31,0,0,1-3.61,1.5,7.35,7.35,0,0,1-2.2.19c-9-.64-6.49-17-2.92-26.29,6.65-17.62,19.13-30.42,28.81-30.47,7.74,0,10,11.81,5.13,26.46s-15.14,26.56-22.88,26.61-10-11.82-5.13-26.47Zm15.16-10.6a24.92,24.92,0,0,0-6.61,10.6c-2.32,6.92-1.23,12.51,2.42,12.5s8.49-5.64,10.81-12.56,1.22-12.52-2.43-12.5l-.51,0c2.83.53,3.59,5.35,1.62,11.23-1.76,5.25-5.13,9.69-8.12,11A29,29,0,0,0,746,898C747.51,893.54,748,887,744.48,885.85Z" transform="translate(-578.63 -465.17)"/><path class="cls-2" d="M764.13,842.78a52.27,52.27,0,0,1,12.68-8.13,52.79,52.79,0,0,0-14.18,8.18c-9.85,7.82-14,16.49-9.26,19.36a5.54,5.54,0,0,0,.73.37,9.9,9.9,0,0,1-3-.22,5.62,5.62,0,0,1-1.54-.6c-5.66-3.43,2.8-13.42,9-18.39,11.77-9.43,25.37-13.74,31.8-10.53,5.13,2.55,1.71,11.16-7.65,19.23s-21.12,12.52-26.26,10-1.7-11.17,7.66-19.23Zm14.46-1.95a22.13,22.13,0,0,0-8.8,4.8c-4.43,3.81-6,7.87-3.62,9.08s8-.9,12.4-4.7,6-7.87,3.61-9.08a2.28,2.28,0,0,0-.36-.15c1.66,1.3.15,4.74-3.61,8-3.36,2.9-7.44,4.71-10,4.55a26.25,26.25,0,0,0,6.26-3.9C777.38,846.93,780.44,842.75,778.59,840.83Z" transform="translate(-578.63 -465.17)"/><path class="cls-2" d="M648.61,934.3a45.91,45.91,0,0,1,14.28-17.8,46.19,46.19,0,0,0-17,18c-9.33,17.06-7,35.7,5.17,41.64a17.3,17.3,0,0,0,1.79.74,18.84,18.84,0,0,1-5.88-.33,15.48,15.48,0,0,1-3.6-1.24c-14.54-7.08-10.32-28.7-4.41-39.52,11-20.55,31.46-30.26,47.19-23.67,12.56,5.26,16.14,23.74,8,41.28s-24.94,27.49-37.5,22.24-16.14-23.75-8-41.29Zm24.76-4.7c-4.24,1.39-8.4,5.24-10.88,10.57-3.85,8.28-2.15,17,3.78,19.49s13.86-2.21,17.71-10.5,2.15-17-3.78-19.48a6.47,6.47,0,0,0-.84-.3c4.61,2.71,5.77,10.1,2.5,17.13-2.93,6.29-8.47,10.3-13.33,10.06A22.45,22.45,0,0,0,675.7,948C678.19,942.64,679.06,933.61,673.37,929.6Z" transform="translate(-578.63 -465.17)"/><path class="cls-2" d="M700.84,873.85a68,68,0,0,1,15.75-11.78,68.53,68.53,0,0,0-17.72,12c-12.06,11.14-16.54,22.88-10,26.23a7.5,7.5,0,0,0,1,.42,14.31,14.31,0,0,1-4,0,7.61,7.61,0,0,1-2.1-.66c-7.79-4,2.2-17.86,9.85-24.92,14.39-13.42,31.76-20.27,40.56-16.63,7,2.9,3.47,14.5-7.93,25.9s-26.33,18.3-33.34,15.39-3.47-14.5,7.92-25.91ZM719.6,870a28.68,28.68,0,0,0-11,7.08c-5.38,5.39-7.06,10.87-3.74,12.25s10.36-1.89,15.74-7.27,7.06-10.87,3.74-12.23a2.35,2.35,0,0,0-.49-.17c2.32,1.56.71,6.21-3.85,10.78-4.1,4.1-9.25,6.82-12.57,6.85a33.22,33.22,0,0,0,7.79-5.68C718.69,878.13,722.24,872.37,719.6,870Z" transform="translate(-578.63 -465.17)"/><path class="cls-2" d="M1196.78,1050.15a74.11,74.11,0,0,1-31.27-4.57c8.88,4.61,20.55,7.39,33.24,7.34,27.15-.11,48.71-13.12,48.14-29.06a19.18,19.18,0,0,0-.23-2.27,20.81,20.81,0,0,1,3.4,6.26,15.63,15.63,0,0,1,.79,4.41c.68,19-28.8,27-46,27.06-32.58.34-57.83-15.18-59.89-35.16-1.65-15.94,18.88-30.17,45.84-31.76s50.18,10.05,51.84,26-18.89,30.17-45.86,31.77Zm-21.89-22.84c4.49,3.57,11.95,5.67,20.14,5.19,12.74-.76,22.43-7.48,21.66-15s-11.74-13-24.48-12.27-22.43,7.47-21.65,15c0,.34.1.69.17,1,.37-6.3,8.75-11.71,19.57-12.35,9.68-.57,18.23,2.85,21.1,8a36,36,0,0,0-15.23-2.51C1187.9,1014.91,1176.18,1019.16,1174.89,1027.31Z" transform="translate(-578.63 -465.17)"/><path class="cls-2" d="M1303.7,1061.26c-9.76-3.15-18-8-24-13.46,5.6,6.38,14.15,12.24,24.57,16.23,22.3,8.53,44.73,5.33,50.1-7.16a14.08,14.08,0,0,0,.64-1.82,15.92,15.92,0,0,1,.5,5.91,12.54,12.54,0,0,1-1,3.66c-6.4,14.9-33.49,11.7-47.62,6.29-26.83-10.1-41.84-30.09-36.22-46.18,4.49-12.83,26.53-17.29,49.22-10s37.46,23.69,33,36.52-26.53,17.3-49.22,10Zm-9.58-24.59c2.37,4.18,7.71,8.18,14.61,10.41,10.71,3.46,21.12,1.35,23.24-4.71s-4.85-13.79-15.56-17.25-21.13-1.35-23.25,4.71a6.32,6.32,0,0,0-.24.85c2.61-4.74,11.46-6.26,20.56-3.31,8.15,2.63,13.9,8,14.37,12.89a31.27,31.27,0,0,0-11.57-6.78C1309.33,1031.22,1298.16,1030.78,1294.12,1036.67Z" transform="translate(-578.63 -465.17)"/><path class="cls-2" d="M1383.57,1112.92a50.44,50.44,0,0,1-11.25-21.33c.81,7.53,4.24,16,10.18,23.77,12.71,16.71,32.11,24.27,43.34,16.88a13.29,13.29,0,0,0,1.53-1.15,16.27,16.27,0,0,1-2.93,4.87,13.93,13.93,0,0,1-2.81,2.44c-13.4,8.82-32.86-5.85-40.91-16.45-15.4-20-16-42.4-2.52-52.5,10.71-8.06,30.52-1.67,44.22,14.27s16.11,35.41,5.39,43.48-30.54,1.67-44.24-14.28Zm6.28-23.6c-.49,4.35,1.47,9.88,5.63,14.73,6.47,7.52,15.82,10.54,20.89,6.74s3.93-13-2.54-20.53-15.83-10.55-20.89-6.74a7.21,7.21,0,0,0-.67.57c4.71-2.57,12.51.23,18,6.62,4.93,5.72,6.43,12.51,4,16.56a24.57,24.57,0,0,0-5.27-10.51C1404.85,1091.88,1396.33,1086.51,1389.85,1089.32Z" transform="translate(-578.63 -465.17)"/><path class="cls-2" d="M1445.08,1188.87a54.22,54.22,0,0,1-6.26-20.74,54.61,54.61,0,0,0,5.27,22.88c7.71,16.63,21,25.46,29.72,19.74a11.92,11.92,0,0,0,1.2-.92,15.12,15.12,0,0,1-2.53,4.2,10.56,10.56,0,0,1-2.22,2c-10.4,6.85-23.13-8.55-28-19.09-9.35-19.88-7.82-40.62,2.71-48.63,8.41-6.39,22.1,1.4,30.58,17.42s8.54,34.18.13,40.57-22.11-1.4-30.58-17.41Zm6.54-21.15c-.72,4,.21,9.25,2.78,14.12,4,7.56,10.48,11.24,14.45,8.22s3.94-11.6-.06-19.16-10.47-11.24-14.44-8.22c-.19.14-.36.29-.54.45,3.61-1.9,9,1.42,12.38,7.84,3,5.75,3.54,12.16,1.48,15.65a26.69,26.69,0,0,0-2.88-10.2C1462.19,1171.52,1456.53,1165.76,1451.62,1167.72Z" transform="translate(-578.63 -465.17)"/><path class="cls-2" d="M807.06,771c38.63-47.63,156.45,1.33,258.25-60.71C996.09,766.62,874.09,751.28,807.06,771Z" transform="translate(-578.63 -465.17)"/><path class="cls-2" d="M1105.24,527c-62.32-62.1-169.15-67.86-241.44,4.23C921,464.76,1036.24,445.29,1105.24,527Z" transform="translate(-578.63 -465.17)"/><path class="cls-3" d="M578.63,1110.5c19.29,50.89,54.67,108.35,93.19,129.41C631,1229.26,581.27,1158.55,578.63,1110.5Z" transform="translate(-578.63 -465.17)"/><path class="cls-4" d="M1173.63,998.72c-24.45,18.5-19.16,37.69,19.36,47C1147.54,1046.26,1140,1012.09,1173.63,998.72Z" transform="translate(-578.63 -465.17)"/><path class="cls-4" d="M1071.73,1045.22c-14.93,22.09-1.5,35.13,34.78,23.24C1070.5,1089.38,1046.67,1067.62,1071.73,1045.22Z" transform="translate(-578.63 -465.17)"/><path class="cls-4" d="M710.05,1098.77c-27.14-18.37-50.48-9.92-45.14,24.46C646.39,1086.87,685.79,1071.54,710.05,1098.77Z" transform="translate(-578.63 -465.17)"/><path class="cls-4" d="M777.37,1182.08c-42.08-12.55-61.37,9.37-25.11,42.06C696.94,1195,734.7,1157.53,777.37,1182.08Z" transform="translate(-578.63 -465.17)"/><path class="cls-4" d="M687.63,1025.31c-8.34-29.17-29.18-34.69-44.9-4.13C650.49,982.06,686.27,990.51,687.63,1025.31Z" transform="translate(-578.63 -465.17)"/><path class="cls-4" d="M1425.55,1190.16c-19.29-18.4-31-12.74-22.48,17C1386.61,1173.76,1406.39,1165.44,1425.55,1190.16Z" transform="translate(-578.63 -465.17)"/><path class="cls-4" d="M764.54,1096.62c-22-9-26,3.46-2.66,30.89C732.14,1101.5,738.18,1079.56,764.54,1096.62Z" transform="translate(-578.63 -465.17)"/><path class="cls-4" d="M726.16,1028.45c-10.73-17.69-21.07-11.61-14.64,20C696.81,1016.7,716,1001.85,726.16,1028.45Z" transform="translate(-578.63 -465.17)"/><path class="cls-4" d="M955.33,1171c-22,23.94-9.53,40.15,27.27,25.63C943.4,1224.56,923.38,1191.93,955.33,1171Z" transform="translate(-578.63 -465.17)"/><path class="cls-4" d="M916.55,1128.8c-22,15.74-6.11,27.5,30.69,18C908,1165.13,884.6,1142.58,916.55,1128.8Z" transform="translate(-578.63 -465.17)"/><path class="cls-4" d="M689.33,951.49c5-29.3-12.37-42.5-34.2-16.92C674.69,899.23,703.3,918.61,689.33,951.49Z" transform="translate(-578.63 -465.17)"/><path class="cls-4" d="M728.7,972.31c3.37-29.31-5.54-40.15-20.23-14.57C721.64,922.4,738.1,939.43,728.7,972.31Z" transform="translate(-578.63 -465.17)"/><path class="cls-4" d="M713.05,891.32c23-21.07,23.91-32.57-5.39-20.72C739.76,848,745.15,870.26,713.05,891.32Z" transform="translate(-578.63 -465.17)"/><path class="cls-4" d="M749.61,907c10.7-27.87,6-38.6-14.81-16.66C753,857.63,768.5,875.63,749.61,907Z" transform="translate(-578.63 -465.17)"/><path class="cls-4" d="M771.92,856.85c18.27-11.72,22.07-24.83-3.84-15C796.75,823.32,798.13,844.41,771.92,856.85Z" transform="translate(-578.63 -465.17)"/><path class="cls-2" d="M1450.28,1274.18a53.22,53.22,0,0,1-.08-21.48,53.91,53.91,0,0,0-1.49,23.33c2.66,17.84,13,29.44,23,25.91a11.06,11.06,0,0,0,1.41-.6,16.63,16.63,0,0,1-3.64,3.47,11.84,11.84,0,0,1-2.71,1.4c-12,4.21-19.89-13.6-21.58-24.9-3.31-21.37,4.14-41.06,16.62-46.36,10-4.25,21,6.44,24.54,23.86s-1.6,35-11.57,39.25-21-6.45-24.53-23.88Zm31.1-13.77c-6.26-29.54-28.11-29.16-28.26,7.31,5.73-30.24,19-31.14,28.26-7.31Zm-18.69-5.15c-1.83,3.66-2.46,9-1.37,14.27,1.69,8.24,6.88,13.29,11.59,11.28s7.15-10.29,5.46-18.53-6.88-13.27-11.59-11.27c-.21.09-.43.2-.65.32,4-1,8.27,3.44,9.71,10.42,1.28,6.26-.08,12.56-3.08,15.47a26.18,26.18,0,0,0,.15-10.52C1471.82,1261.36,1468,1254.49,1462.69,1255.26Z" transform="translate(-578.63 -465.17)"/></svg>