<svg id="Layer_1" data-name="Layer 1" xmlns="http://www.w3.org/2000/svg" viewBox="0 0 606.6 1056.11"><defs><style>.cls-1{fill:#1b1b1b;}.cls-1,.cls-2{fill-rule:evenodd;}.cls-2{fill:#fff;}</style></defs><path class="cls-1" d="M1093.11,817.55c27.25-14.37,68.16-44.32,87.17-65.75-35.62,27.82-97.27,60.77-137.47,76.32-17.61,12.58-35.29,18.15-52.61,21.2-13.24,14.06-28.61,19.58-44.51,22-10.45,17.95-21.26,18.35-31.6,20.62-11.45,25-24.65,30.54-36.9,33.77-19.33,21.42-33.41,44.75-39.68,70.19,4.92-17.17,18.85-33,30.44-48.43-50.94,125,98.14,179.29,227.41,228.17,54.46,20.6,102.22,43,141.46,68.28-35.91-18.06-80.32-32.56-132.2-45,191.43,63.8,224.68,122.41,230.66,251.59,10.32-44.45,9-81.38-2.9-112.43,30.63,54.12,32.85,119.27-1.48,200.31-43.7,85.59-279.43,57.25-239.77-17.31,61.65-127.08,98.93-183-58-268.32l.17-.15c-100.33-59.6-157-113.17-182.88-161.29,13,33.57,40.25,70.31,85.69,109-27.91-11.12-88.19-45.71-102-65.58-21.49-9.25-33.27-22-39-37-20.13-14.28-29.42-30.18-26.69-47q-21.53-23.37-11.79-44.72Q740.22,976,761,956.94c-6-22.62,7.62-41.57,36.55-57.93,5.65-13.23,12.72-26.17,45.22-36.43,8.27-13.18,25.26-23,55.24-26.85,12.69-8.81,27.16-16.15,46.92-15.6,13.68-9.69,30.42-15.75,52.51-14.27,17.44-9.73,38.24-14,60.62-14.69,43.28-21.87,118.55-27.81,135.82-65.62,23.14-50.73,4.67-105.1-42.42-130.21-72.21-38.49-200.1-3.81-242.44,92-55.5,125.5-203.11,60.27-140.13-27.85,4.87-6.83,11.43-6.73,8.41,2.5-38,76.14,50.84,120,98.55,16.39,21.51-52.07,73.1-115.46,144-137,4.48-1.15,13.47-2.85,16.37,1.16,1.14,1.22,1.62.88,2.82-.06,4.44-4.28,16.76-6.78,23.82-7.36,4.11-.33,11.72-.52,14.68,2.37a3.83,3.83,0,0,0,4.23.12c6.22-2.62,17.57-2.7,24.08-2,3.48.37,9.39,1.31,12.24,3.65a6,6,0,0,0,6,1.25c6.54-2.34,19-.49,25.73,1.35a32.2,32.2,0,0,1,9.1,3.81,8.25,8.25,0,0,0,6.41,1.8c13.27-2.34,30.94,8.05,38.85,15.37,9.14,8.46,18.55,20,21.42,22.7-50.23-34.78-147.81-42-216.18-25.86,87.56-19.23,190.08,8.07,222.45,40.85,44.89,52.68,44.8,129.59-28.77,170.79-32.12,18-66.87,30.62-100.89,43Z" transform="translate(-749.4 -534.89)"/><path class="cls-2" d="M836.33,1102.82a28.57,28.57,0,0,0-8.83-8.54,29.77,29.77,0,0,1,10.37,8.68c6.06,8.09,5.79,16.62-.6,19.06a8.6,8.6,0,0,1-.94.29,12.12,12.12,0,0,0,3.24,0,8.4,8.4,0,0,0,1.9-.48c7.62-2.91,4.14-13,.29-18.1-7.22-9.74-19-14.7-27.31-12-6.66,2.11-7.62,10.54-2.17,18.81s15.26,13.27,21.9,11.15,7.6-10.54,2.15-18.82Zm-20.93,6.4c-9.15-14.1,1.73-22.28,16.87-7.87-15.32-9.81-22.19-5.1-16.87,7.87Zm7-9.16a12.78,12.78,0,0,1,6.58,5.13c2.58,3.91,2.12,7.89-1,8.89s-7.77-1.36-10.33-5.27-2.12-7.89,1-8.88a2.83,2.83,0,0,1,.44-.12c-2.39,1.13-2.64,4.51-.44,7.83,1.94,3,5.21,4.95,7.89,5a13.9,13.9,0,0,1-4.41-4.12C820.48,1106,819.51,1101.77,822.42,1100.06Z" transform="translate(-749.4 -534.89)"/><path class="cls-2" d="M838.79,1065.46a21.87,21.87,0,0,0-4.86-10.16,22.88,22.88,0,0,1,6.27,10.64c2.42,9.09-1.37,17.15-8.47,18-.32,0-.67.06-1,.06a11.74,11.74,0,0,0,3.08.73,9.08,9.08,0,0,0,2,0c8.45-1,9.3-11.38,7.78-17.15-2.83-10.91-12-18.34-21-17.73-7.2.49-11.62,8.28-9.87,17.4s9,16.13,16.2,15.64,11.61-8.28,9.85-17.41Zm-22.57,1.28c-2.84-15.52,10.89-20.8,19.32-3.62-10.48-12.84-19-9.94-19.32,3.62Zm10.49-7.1a9.79,9.79,0,0,1,4.12,6.39c.84,4.31-1.25,8-4.66,8.22s-6.81-3.07-7.64-7.38,1.27-8,4.66-8.22h.48c-2.75.53-4.39,3.69-3.68,7.35.62,3.27,2.93,5.9,5.45,6.53a10.67,10.67,0,0,1-2.48-4.93C822.42,1064.8,823.23,1060.6,826.71,1059.64Z" transform="translate(-749.4 -534.89)"/><path class="cls-2" d="M802.45,1064a22.15,22.15,0,0,0-4.85-10.16,23,23,0,0,1,6.25,10.64c2.43,9.08-1.37,17.14-8.45,18a8.93,8.93,0,0,1-1,.08,11.4,11.4,0,0,0,3.06.72,9.73,9.73,0,0,0,2,0c8.47-1,9.32-11.4,7.78-17.15-2.81-10.92-12-18.35-21-17.73-7.2.48-11.62,8.27-9.87,17.4s9,16.12,16.2,15.63,11.61-8.28,9.86-17.4Zm-22.58,1.27c-2.84-15.51,10.89-20.79,19.32-3.61-10.48-12.84-19-10-19.32,3.61Zm10.51-7.1a9.86,9.86,0,0,1,4.12,6.39c.82,4.31-1.27,8-4.66,8.22s-6.83-3.08-7.66-7.38,1.27-8,4.68-8.22h.46c-2.75.53-4.37,3.69-3.68,7.35.64,3.27,2.93,5.91,5.47,6.53a10.76,10.76,0,0,1-2.5-4.93C786.07,1063.34,786.88,1059.15,790.38,1058.19Z" transform="translate(-749.4 -534.89)"/><path class="cls-2" d="M823.8,1023.93a21.12,21.12,0,0,0-4.56-10.16,21.88,21.88,0,0,1,6,10.64c2.14,9.08-1.89,17.14-9,18a8.6,8.6,0,0,1-1,.06,11.42,11.42,0,0,0,3.06.74,9.52,9.52,0,0,0,2,0c8.51-1,9.66-11.38,8.3-17.15-2.48-10.91-11.41-18.34-20.44-17.73-7.21.49-11.87,8.28-10.39,17.4s8.53,16.13,15.72,15.64,11.86-8.28,10.39-17.4Zm-22.61,1.27c-2.38-15.52,11.51-20.79,19.42-3.62-10.1-12.83-18.68-9.94-19.42,3.62Zm10.7-7.1a9.4,9.4,0,0,1,3.93,6.39c.71,4.31-1.5,8-4.91,8.22s-6.71-3.07-7.41-7.38,1.5-8,4.91-8.22h.46c-2.75.53-4.48,3.69-3.88,7.35.51,3.27,2.73,5.91,5.25,6.54a10.43,10.43,0,0,1-2.35-4.94C807.43,1023.26,808.37,1019.06,811.89,1018.1Z" transform="translate(-749.4 -534.89)"/><path class="cls-2" d="M788.11,1023a21.4,21.4,0,0,0-4.56-10.16,22,22,0,0,1,5.94,10.64c2.14,9.09-1.88,17.14-9,18-.35,0-.68.06-1,.07a11.23,11.23,0,0,0,3.06.73,9.54,9.54,0,0,0,2,0c8.51-1,9.66-11.39,8.29-17.15-2.48-10.92-11.41-18.35-20.45-17.73-7.2.48-11.86,8.28-10.37,17.4s8.52,16.12,15.72,15.64,11.85-8.29,10.39-17.41Zm-22.61,1.27c-2.39-15.51,11.51-20.79,19.41-3.61-10.1-12.84-18.68-10-19.41,3.61Zm10.7-7.1a9.45,9.45,0,0,1,3.92,6.4c.72,4.31-1.5,8-4.9,8.22s-6.72-3.08-7.43-7.39,1.52-8,4.92-8.22h.47c-2.76.53-4.49,3.68-3.89,7.34.52,3.27,2.73,5.91,5.25,6.54a10.54,10.54,0,0,1-2.35-4.93C771.73,1022.29,772.68,1018.1,776.2,1017.13Z" transform="translate(-749.4 -534.89)"/><path class="cls-2" d="M825.73,980.88a18.58,18.58,0,0,0-2.18-11,18.21,18.21,0,0,1,3.55,11.47c-.16,9.8-6.68,18.48-14.59,19.41-.37,0-.75.06-1.12.07a10.3,10.3,0,0,0,3.1.78,11.35,11.35,0,0,0,2.18,0c9.43-1.1,13.49-12.29,13.58-18.5.27-11.77-7.35-19.78-17.26-19.12-7.91.52-15,8.93-15.89,18.76s4.81,17.39,12.71,16.86,15-8.92,15.92-18.76ZM801,982.25c1.62-16.72,18-22.42,21.92-3.89-7.43-13.85-17.47-10.74-21.92,3.89Zm13.45-7.66c1.77,1.37,2.77,3.91,2.52,6.9-.42,4.64-3.79,8.61-7.52,8.86s-6.43-3.31-6-8,3.77-8.62,7.52-8.86h.5c-3.12.57-5.83,4-6.18,7.92-.32,3.53,1.35,6.37,3.91,7a8.86,8.86,0,0,1-1.21-5.31C808.26,980.15,810.41,975.63,814.45,974.59Z" transform="translate(-749.4 -534.89)"/><path class="cls-2" d="M786.3,977.83a17.72,17.72,0,0,0-2.08-10.54,17.46,17.46,0,0,1,3.41,11c-.16,9.42-6.41,17.77-14,18.65-.37,0-.73.06-1.08.07a10,10,0,0,0,5.06.73c9.07-1,13-11.8,13-17.77.27-11.31-7.06-19-16.57-18.37-7.6.5-14.45,8.58-15.28,18s4.62,16.71,12.22,16.2,14.43-8.58,15.28-18Zm-23.77,1.31c1.58-16.07,17.34-21.54,21.1-3.74-7.14-13.3-16.8-10.31-21.1,3.74Zm13-7.36a7.43,7.43,0,0,1,2.4,6.63c-.38,4.47-3.62,8.28-7.21,8.52s-6.18-3.18-5.78-7.65,3.64-8.28,7.22-8.51a4.18,4.18,0,0,1,.5,0c-3,.55-5.62,3.83-6,7.61-.31,3.4,1.31,6.13,3.75,6.78a8.66,8.66,0,0,1-1.15-5.11C769.52,977.13,771.6,972.79,775.49,971.78Z" transform="translate(-749.4 -534.89)"/><path class="cls-2" d="M800.79,935.77a18,18,0,0,0,2.56-10.47c.86,3.14.42,7.11-1.54,11.26-4.18,8.89-13.7,15.3-21.28,14.32-.37,0-.72-.11-1.06-.19a7.67,7.67,0,0,0,2.5,1.42,8.56,8.56,0,0,0,2,.48c9,1.17,17.36-8.08,20-13.72,5.11-10.65,1.5-19.69-7.8-21.36-7.41-1.33-17.38,4.69-22.24,13.44s-2.79,16.94,4.62,18.27,17.37-4.69,22.24-13.45Zm-23.09-4.41c8.41-14.85,25.71-16.27,21.59,1.48-1-14.31-11.47-13.77-21.59-1.48Zm15.43-3.89c1,1.64.91,4.2-.56,6.86-2.31,4.14-7,7-10.5,6.34s-4.49-4.49-2.2-8.62,7-7,10.53-6.34a3.78,3.78,0,0,1,.46.1c-3.08-.19-7,2.29-8.91,5.8-1.75,3.14-1.4,6.1.64,7.31a8.64,8.64,0,0,1,1.11-5.12C785.18,931.12,789,927.5,793.13,927.47Z" transform="translate(-749.4 -534.89)"/><path class="cls-2" d="M843.14,938.28c2.37-4.28,3.29-8.44,2.91-11.91,1,3.57.48,8.08-1.73,12.8-4.78,10.11-15.61,17.4-24.23,16.3a10.45,10.45,0,0,1-1.19-.23,9.35,9.35,0,0,0,2.83,1.63,10.18,10.18,0,0,0,2.27.54c10.27,1.33,19.74-9.2,22.76-15.61,5.81-12.11,1.69-22.39-8.87-24.29-8.43-1.52-19.76,5.33-25.3,15.29s-3.2,19.26,5.25,20.77,19.76-5.33,25.3-15.29Zm-26.26-5c9.56-16.9,29.23-18.52,24.55,1.68-1.17-16.28-13-15.66-24.55-1.68Zm17.55-4.42c1.17,1.86,1,4.76-.64,7.79-2.62,4.71-8,7.94-11.95,7.22s-5.1-5.1-2.48-9.81,8-7.93,11.95-7.22c.17,0,.36.07.54.12-3.5-.22-7.93,2.6-10.14,6.6-2,3.57-1.58,7,.73,8.31a9.7,9.7,0,0,1,1.27-5.82C825.38,933,829.75,928.86,834.43,928.84Z" transform="translate(-749.4 -534.89)"/><path class="cls-2" d="M886.09,902.84c4.64-3.36,7.84-7,9.39-10.47-1,3.71-4,7.85-8.75,11.68-10.16,8.17-24.55,11.8-32.16,8.09a9,9,0,0,1-1-.57,6.66,6.66,0,0,0,1.81,2.41,8.13,8.13,0,0,0,1.85,1.22c9.08,4.43,24-2.71,30.39-7.89,12.27-9.77,14-20.84,5-25.9-7.2-4-21.81-1-32.62,6.8s-13.74,17.4-6.52,21.44,21.82,1,32.61-6.81ZM863.85,890c18.49-13.18,38.16-8.68,22.48,9.15,7.9-15.89-3.76-19-22.48-9.15ZM883,891.16c.08,2.14-1.65,4.87-4.94,7.23-5.1,3.69-12,5.13-15.39,3.21s-2-6.43,3.07-10.11,12-5.12,15.4-3.21c.15.08.31.18.46.28-3.23-1.29-9,0-13.33,3.17-3.89,2.8-5.37,6.14-3.93,8.16a13.53,13.53,0,0,1,4.44-5.17C872.12,892.33,878.55,889.73,883,891.16Z" transform="translate(-749.4 -534.89)"/><path class="cls-2" d="M841.2,894.85c3.71-3.39,6.06-7,7-10.19-.43,3.43-2.53,7.41-6.26,11.23-8,8.19-20.47,12.6-27.88,9.85-.35-.13-.67-.28-1-.44a6.59,6.59,0,0,0,2,2,7.67,7.67,0,0,0,1.85.95c8.83,3.28,21.22-4.33,26.3-9.51,9.7-9.8,9.72-19.94.85-23.79-7.08-3.08-19.84.82-28.48,8.71s-9.93,16.79-2.85,19.87,19.84-.83,28.5-8.72ZM819.26,885c14.84-13.35,33.22-10.84,21.61,6.49,4.87-15-6.08-16.81-21.61-6.49Zm17.51-.45c.37,1.93-.8,4.53-3.44,6.92-4.08,3.74-10.1,5.58-13.45,4.12s-2.75-5.65,1.35-9.38,10.1-5.56,13.45-4.11l.44.22c-3.1-.91-8.12.75-11.59,3.91-3.09,2.84-4,6-2.38,7.67a11.19,11.19,0,0,1,3.27-5C827.08,886.47,832.52,883.61,836.77,884.54Z" transform="translate(-749.4 -534.89)"/><path class="cls-2" d="M887.77,858.84c4.44-2.44,7.66-5,9.37-7.37-1.29,2.5-4.35,5.39-8.95,8.14-9.83,5.9-23,9-29.4,6.89a8.37,8.37,0,0,1-.85-.33,3.73,3.73,0,0,0,1.37,1.52,6.11,6.11,0,0,0,1.54.71c7.66,2.5,21.57-2.94,27.8-6.67,11.9-7.05,14.55-14.47,7-17.38-6-2.33-19.32.39-29.69,6.06S852,862.57,858.06,864.9s19.32-.39,29.71-6.06ZM869.2,851.4c17.76-9.61,34.83-7.57,19.13,5,8.58-10.89-1.51-12.36-19.13-5Zm17-.14c-.13,1.41-1.94,3.29-5.1,5-4.9,2.68-11.18,4-14,2.86s-1.17-4.16,3.74-6.84,11.18-4,14-2.86l.37.16c-2.75-.69-8,.46-12.18,2.74-3.73,2-5.37,4.32-4.27,5.58a13.66,13.66,0,0,1,4.44-3.63C876.34,852.55,882.32,850.53,886.17,851.26Z" transform="translate(-749.4 -534.89)"/><path class="cls-2" d="M924.35,870.19c3.66-2.44,6-5,7-7.37-.46,2.5-2.57,5.39-6.27,8.14-7.91,5.9-20.07,9-27.15,6.89a8.94,8.94,0,0,1-1-.33,5.7,5.7,0,0,0,1.86,1.51,8.06,8.06,0,0,0,1.78.72c8.44,2.5,20.6-2.93,25.63-6.67,9.58-7.05,9.81-14.46,1.32-17.38-6.77-2.33-19.2.39-27.72,6.06s-9.95,12.16-3.18,14.5,19.2-.39,27.73-6.07Zm-21-7.45c14.63-9.6,32.35-7.56,20.75,5,5-10.88-5.5-12.36-20.75-5Zm16.94-.13c.33,1.41-.87,3.3-3.47,5-4,2.68-9.89,4-13.1,2.86s-2.52-4.16,1.5-6.84,9.89-4,13.11-2.86l.42.16c-3-.69-7.87.46-11.3,2.74-3.06,2-4,4.32-2.44,5.58a8.49,8.49,0,0,1,3.25-3.63C910.88,863.9,916.21,861.88,920.29,862.61Z" transform="translate(-749.4 -534.89)"/><path class="cls-2" d="M939,839.08a31.47,31.47,0,0,0,9.93-5.16c-1.77,2-5.14,4.08-9.78,5.87-9.92,3.83-21.93,4.83-26.84,2.24a4.81,4.81,0,0,1-.63-.39,2.52,2.52,0,0,0,.77,1.47,4.07,4.07,0,0,0,1.11.8c5.83,3.1,19.13.18,25.42-2.25,12-4.56,16.23-10.58,10.59-14-4.51-2.75-16.53-2.09-26.87,1.49s-15.08,8.69-10.58,11.44,16.53,2.07,26.88-1.49Zm-13.81-8.71c17.66-6,31.63-2.14,14.93,6.66,10.22-8.27,2-10.78-14.93-6.66Zm14.47,2c-.48,1.19-2.54,2.58-5.68,3.66-4.89,1.69-10.57,2-12.68.7s.09-3.71,5-5.39,10.57-2,12.7-.71c.1.06.17.13.27.19-2.15-.94-6.94-.6-11.08.83-3.72,1.27-5.74,3-5.14,4.25a15,15,0,0,1,4.75-2.55C931,832.26,936.61,831.27,939.69,832.38Z" transform="translate(-749.4 -534.89)"/><path class="cls-2" d="M968.8,852.3c3.93-2.2,6.58-4.64,7.79-6.91-.77,2.47-3.19,5.21-7.19,7.72-8.55,5.38-21,7.69-27.85,5.17-.32-.13-.63-.26-.9-.4a5.11,5.11,0,0,0,1.67,1.63,9.38,9.38,0,0,0,1.68.82c8.16,3,20.89-1.62,26.3-5,10.35-6.43,11.43-13.8,3.31-17.24-6.5-2.75-19.18-.82-28.32,4.3s-11.3,11.49-4.8,14.24,19.17.82,28.31-4.3Zm-20.07-8.74c15.66-8.65,33.1-5.5,20.11,6.27,6.25-10.54-4.1-12.66-20.11-6.27Zm16.9.92c.15,1.44-1.26,3.24-4,4.8-4.32,2.42-10.3,3.32-13.38,2s-2-4.3,2.27-6.72,10.32-3.32,13.37-2l.41.19c-2.89-.88-7.89,0-11.55,2-3.29,1.84-4.44,4.06-3.07,5.41a9,9,0,0,1,3.65-3.41C956.08,845.19,961.62,843.5,965.63,844.48Z" transform="translate(-749.4 -534.89)"/><path class="cls-2" d="M982.19,823.87a28.89,28.89,0,0,0,9.16-4.75c-1.63,1.83-4.73,3.76-9,5.4-9.14,3.53-20.21,4.46-24.71,2.07a6.34,6.34,0,0,1-.6-.36,2.35,2.35,0,0,0,.71,1.35,4,4,0,0,0,1,.74c5.37,2.85,17.61.17,23.42-2.07,11-4.2,14.94-9.75,9.74-12.92-4.14-2.53-15.22-1.91-24.75,1.37s-13.87,8-9.73,10.54,15.22,1.92,24.74-1.37Zm-12.7-8c16.26-5.54,29.12-2,13.74,6.13,9.41-7.61,1.87-9.93-13.74-6.13Zm13.32,1.85c-.44,1.1-2.33,2.38-5.24,3.38-4.48,1.55-9.71,1.84-11.68.64s.1-3.42,4.6-5,9.74-1.85,11.69-.65l.24.17c-2-.86-6.38-.56-10.19.76-3.43,1.18-5.28,2.79-4.72,3.92a13.55,13.55,0,0,1,4.37-2.35C974.78,817.59,980,816.68,982.81,817.7Z" transform="translate(-749.4 -534.89)"/><path class="cls-2" d="M1013.16,833.15a31.1,31.1,0,0,0,9.75-5.06c-1.73,1.95-5,4-9.6,5.76-9.76,3.76-21.55,4.75-26.36,2.2a3.66,3.66,0,0,1-.62-.39,2.44,2.44,0,0,0,.75,1.45,4,4,0,0,0,1.1.79c5.71,3,18.78.18,25-2.21,11.77-4.48,15.93-10.39,10.39-13.77-4.41-2.7-16.22-2-26.38,1.46s-14.8,8.53-10.4,11.23,16.25,2,26.41-1.46Zm-13.55-8.55c17.34-5.91,31-2.1,14.66,6.54,10-8.12,2-10.59-14.66-6.54Zm14.2,2c-.48,1.17-2.5,2.53-5.58,3.6-4.79,1.66-10.37,2-12.47.69s.12-3.65,4.91-5.3,10.37-2,12.47-.69c.09,0,.17.12.27.18-2.12-.92-6.82-.59-10.9.81-3.63,1.26-5.61,3-5,4.18a15,15,0,0,1,4.68-2.51C1005.25,826.45,1010.79,825.48,1013.81,826.57Z" transform="translate(-749.4 -534.89)"/><path class="cls-2" d="M1027.51,811.21a29.14,29.14,0,0,0,8.49-4c-1.49,1.49-4.35,3.08-8.33,4.49-8.53,3-19,4-23.33,2.23a6.28,6.28,0,0,1-.58-.27,1.87,1.87,0,0,0,.72,1,4.24,4.24,0,0,0,1,.57c5.19,2.12,16.7-.3,22.11-2.21,10.29-3.59,13.78-8.08,8.75-10.46-4-1.9-14.49-1.14-23.38,1.69s-12.87,6.67-8.85,8.57,14.49,1.15,23.4-1.69Zm-12.33-6c15.2-4.78,27.49-2.27,13.24,4.52,8.63-6.25,1.4-7.91-13.24-4.52Zm12.68,1.13c-.39.89-2.12,1.94-4.83,2.8-4.2,1.35-9.14,1.7-11,.8s0-2.71,4.18-4,9.16-1.7,11-.8a2,2,0,0,1,.25.13c-1.9-.63-6.08-.28-9.64.85-3.19,1-4.89,2.34-4.33,3.21a13.84,13.84,0,0,1,4.06-2C1020.26,806.43,1025.14,805.58,1027.86,806.31Z" transform="translate(-749.4 -534.89)"/><path class="cls-2" d="M1066.25,811.07a29.09,29.09,0,0,0,9.14-4.74c-1.62,1.82-4.74,3.75-9,5.4-9.16,3.52-20.22,4.44-24.73,2.06q-.32-.18-.57-.36a2.26,2.26,0,0,0,.69,1.35,4,4,0,0,0,1,.74c5.37,2.85,17.61.17,23.4-2.07,11-4.2,14.93-9.75,9.75-12.92-4.15-2.53-15.22-1.92-24.74,1.37s-13.9,8-9.74,10.54,15.22,1.91,24.75-1.37Zm-12.72-8c16.26-5.54,29.13-2,13.76,6.13,9.39-7.61,1.86-9.93-13.76-6.13Zm13.33,1.84c-.46,1.11-2.34,2.39-5.23,3.38-4.5,1.56-9.74,1.85-11.68.66s.09-3.43,4.6-5,9.71-1.84,11.68-.64a2.79,2.79,0,0,1,.25.17c-2-.87-6.39-.56-10.2.76-3.43,1.18-5.29,2.79-4.73,3.91a14,14,0,0,1,4.36-2.35C1058.84,804.79,1064,803.88,1066.86,804.89Z" transform="translate(-749.4 -534.89)"/><path class="cls-2" d="M1104.54,791.26a28.79,28.79,0,0,0,9.14-4.74c-1.61,1.83-4.73,3.75-9,5.4-9.15,3.53-20.22,4.45-24.72,2.06a4.08,4.08,0,0,1-.58-.36,2.34,2.34,0,0,0,.69,1.36,4.54,4.54,0,0,0,1,.74c5.39,2.85,17.63.16,23.42-2.07,11-4.2,14.93-9.75,9.74-12.92-4.14-2.53-15.2-1.92-24.73,1.37s-13.89,8-9.76,10.54,15.25,1.91,24.77-1.38Zm-12.72-8c16.26-5.54,29.12-2,13.76,6.13,9.39-7.61,1.87-9.93-13.76-6.13Zm13.34,1.84c-.47,1.1-2.35,2.38-5.24,3.38-4.5,1.55-9.73,1.85-11.68.65s.1-3.42,4.6-5,9.72-1.84,11.68-.64l.25.17c-2-.87-6.39-.56-10.2.76-3.42,1.18-5.29,2.79-4.73,3.92a13.78,13.78,0,0,1,4.37-2.35C1097.13,785,1102.31,784.08,1105.16,785.09Z" transform="translate(-749.4 -534.89)"/><path class="cls-2" d="M1171.66,558.05a23.29,23.29,0,0,1-6.73-4.42c.88,1.37,3,3.06,6.38,4.78,7.12,3.69,16.82,6.15,21.65,5.5l.64-.11a2.14,2.14,0,0,1-1.06.68,5.47,5.47,0,0,1-1.17.27c-5.78.78-16-2.94-20.48-5.28-8.6-4.42-10.33-8.41-4.62-9.41,4.56-.8,14.36,1.48,21.9,5.09s9.95,7.18,5.39,8-14.36-1.49-21.9-5.09Zm14.07-2.61c-12.9-6.12-25.65-6.2-14.4,1.3-6-6.18,1.52-6.27,14.4-1.3Zm-12.63-1.2c0,.74,1.33,1.84,3.62,2.93,3.56,1.71,8.2,2.78,10.35,2.4s1-2.06-2.54-3.77-8.19-2.78-10.35-2.4l-.27.06c2.06-.18,5.95.77,9,2.22,2.69,1.29,3.85,2.58,3,3.15a10.67,10.67,0,0,0-3.17-2.16C1180.38,555.56,1176,554.13,1173.1,554.24Z" transform="translate(-749.4 -534.89)"/><path class="cls-2" d="M1133.37,549.84a26.75,26.75,0,0,1-7.85-3.23c1.25,1.2,3.86,2.5,7.62,3.64,8,2.46,18.18,3.31,22.72,1.89l.6-.21a1.89,1.89,0,0,1-.85.84,4.82,4.82,0,0,1-1.06.45c-5.4,1.69-16.43-.31-21.51-1.86-9.68-2.93-12.53-6.55-7.26-8.45,4.22-1.51,14.46-.86,22.87,1.45s11.79,5.42,7.58,6.93-14.45.86-22.86-1.45Zm13-4.81c-14.36-3.9-26.85-1.92-13.69,3.58-7.67-5.06-.32-6.36,13.69-3.58Zm-12.68.87c.26.71,1.84,1.57,4.4,2.27,4,1.09,8.8,1.4,10.8.68s.38-2.18-3.58-3.27-8.81-1.39-10.8-.68l-.25.1c2-.5,6-.21,9.39.73,3,.83,4.52,1.9,3.85,2.6a12.36,12.36,0,0,0-3.75-1.6C1141.16,546,1136.45,545.32,1133.66,545.9Z" transform="translate(-749.4 -534.89)"/><path class="cls-2" d="M1092,546a30,30,0,0,1-8.58-1.93c1.56,1,4.5,1.84,8.49,2.37,8.52,1.14,18.72.36,22.74-1.73a6,6,0,0,0,.52-.31,1.5,1.5,0,0,1-.57,1,4.48,4.48,0,0,1-.91.6c-4.81,2.51-16.16,2.29-21.57,1.57-10.3-1.34-14.11-4.43-9.49-7.12,3.7-2.14,13.9-3.11,22.77-2.18s13.06,3.44,9.37,5.59S1100.9,547,1092,546Zm11.34-6.74c-15.16-1.56-26.81,2.34-12.38,5.65-8.92-3.74-2.11-6.16,12.38-5.65Zm-12.16,2.83c.46.66,2.25,1.25,4.94,1.54,4.2.44,9,0,10.76-1s-.25-2.19-4.43-2.63-9,0-10.75,1a2.11,2.11,0,0,0-.22.14c1.78-.8,5.83-1.15,9.4-.77,3.17.34,4.94,1.15,4.48,1.94a13.86,13.86,0,0,0-4.1-1C1098.56,541.05,1093.74,541.11,1091.19,542.11Z" transform="translate(-749.4 -534.89)"/><path class="cls-2" d="M1053,547.78a31.6,31.6,0,0,1-9-.28c1.85.66,5,1,9,.73,8.64-.47,18.26-3.1,21.45-5.87.16-.13.29-.26.43-.39a1.42,1.42,0,0,1-.27,1,3.49,3.49,0,0,1-.68.75c-3.83,3.31-14.89,5.19-20.36,5.49-10.42.6-15.14-1.69-11.56-5.15,2.87-2.75,12.41-5.58,21.32-6.3s13.82.92,11,3.68-12.41,5.57-21.32,6.3Zm8.72-8.61c-15.21,1.28-25.17,7.2-10.09,7.75-9.91-2-4.11-5.58,10.09-7.75Zm-10.82,5c.66.55,2.58.79,5.29.57,4.2-.34,8.72-1.68,10.07-3s-1-2.08-5.16-1.73-8.72,1.67-10.08,3a1.29,1.29,0,0,0-.16.18c1.45-1.1,5.28-2.19,8.84-2.48,3.19-.26,5.17.2,5,1a15,15,0,0,0-4.31-.19C1057.63,541.77,1053,542.71,1050.87,544.16Z" transform="translate(-749.4 -534.89)"/><path class="cls-2" d="M1013.94,555.36a31.27,31.27,0,0,1-8.81,1.19,25.43,25.43,0,0,0,9-.76c8.31-1.88,16.91-6,19.22-9.24.1-.16.19-.3.27-.45a1.33,1.33,0,0,1,.06,1,2.91,2.91,0,0,1-.42.85c-2.78,3.85-13,7.5-18.27,8.69-10,2.29-15.28.82-12.79-3.13,2-3.16,10.46-7.48,18.93-9.64s13.74-1.36,11.78,1.79-10.47,7.48-19,9.65Zm6-9.83c-14.43,3.73-22.44,11.14-7.54,9.21-10.24-.31-5.66-4.77,7.54-9.21Zm-9.08,6.63c.83.43,2.77.35,5.35-.31,4-1,8-3.06,8.93-4.55s-1.54-1.87-5.55-.85-8,3.06-8.94,4.56l-.12.2c1.1-1.32,4.5-3,7.89-3.87,3.06-.78,5.12-.65,5.19.2a14.87,14.87,0,0,0-4.25.53C1016.74,548.73,1012.5,550.4,1010.83,552.16Z" transform="translate(-749.4 -534.89)"/><path class="cls-2" d="M981.87,565.71a40.25,40.25,0,0,1-7.59,2.81,34,34,0,0,0,7.86-2.61c6.92-3.08,13.51-7.53,14.68-9.93a1.28,1.28,0,0,0,.11-.33.63.63,0,0,1,.35.59,1.1,1.1,0,0,1-.15.59c-1.41,2.88-9.57,7.43-14,9.39-8.33,3.72-13.48,4.16-12.35,1.3.89-2.29,7.29-6.81,14.3-10.1s12-4.1,11.06-1.81-7.31,6.81-14.31,10.1Zm2.61-7.07c-11.91,5.62-17,11.8-4.21,7.1-9.28,2.3-6.41-1.37,4.21-7.1Zm-6.29,6a12.5,12.5,0,0,0,4.7-1.47c3.31-1.55,6.33-3.69,6.75-4.76s-1.9-.7-5.21.85-6.34,3.69-6.76,4.77a.43.43,0,0,0,0,.14c.6-1,3.2-2.8,6-4.12,2.5-1.18,4.4-1.61,4.71-1.14a18.37,18.37,0,0,0-3.67,1.33C982.52,561.24,979.19,563.22,978.19,564.63Z" transform="translate(-749.4 -534.89)"/></svg>