<svg id="Layer_1" data-name="Layer 1" xmlns="http://www.w3.org/2000/svg" viewBox="0 0 563.96 1115.26"><defs><style>.cls-1{fill:#1b1b1b;}.cls-2{fill:#fff;fill-rule:evenodd;}</style></defs><path class="cls-1" d="M1185.89,822.22a244.16,244.16,0,0,0-16.25-43.39c12.76,16.78,24.55,29.77,32.51,47.82,1.23,2.8,12.36,6.69,19.22,17.36,2.35,5.11,3.66,12.6.15,17.53,9,19.51,18.15,7.48,22.56,28.11,1.41,6.57.55,16.24-7.15,19.28,2,12.58,9.55,17.52,8.18,28.9-.84,7-5.27,14.72-12.17,18-4.73,11.7-12.69,22.3-24.54,31.5-19.54,15.16-48,19.14-78.49,16.52-57-4.9-119-41.27-157.34-39-50.37,3-83.79,48.51-80.25,94.65a63.16,63.16,0,0,0,18.31,40.24c11.34,11.43,28.23,20.21,51.6,24.17,35.15,6,68.57,8.86,138-12.35,38-11.59,77.23-10.2,118.24,6.35-71.79-17-124.28,8.61-179.5,45.5,114.82-72.41,235.54-48.15,293.21,43-17.68-22.25-42.84-41.92-75.35-58.52,68.47,42.18,120.72,134.74,87.41,223.5,13.16-28.8,19.33-56.25,18.67-81.93,15.29,100-53,214.62-146.84,293.86-54.65,46.14-166.92,34.44-210.06,11.45,97.16-69.26,187.2-156,211.36-211.3-27.11,43.35-112.16,129.31-219.35,206.33-11.3-8.37-13.4-17.69-1.13-26.06,58.09-39.61,149.64-130.44,172.4-155.77,91.22-101.59-7-206.93-122.35-181.77-53.12,11.59-102,6.26-142.32-10.32a202,202,0,0,1-39.87-21.86c27.32,13,53.26,14.4,78.72,9.25-19.44,1.5-39.88-1.63-61.77-11.44-46.11-20.7-73.67-65.82-79.49-111.68-5.14-40.51,7.64-85,33.26-120.56a39,39,0,0,1,18.05-21.36c12.12-12.23,41.45-40.68,58.79-40.87,14.89-.16,26.06-4.56,41.61-5.26a30.11,30.11,0,0,1,14.76.15c62.71,4.7,146.75,69.14,187,33.73,69-60.69-74.52-183.68-118.18-227.89a298.13,298.13,0,0,1-39.35-48.93c13.91,19.79,33.53,37.44,58.79,52.23-64.11-42.92-87.27-122.15-79.54-170.37-7.74,32.59-5.7,63.59,6,91.48-15.79-33.37-21.16-66.11-15.43-93.69,7.5-36.1,29-40.3,24.83-3.08-5.92,53,8.08,90.47,68.85,148.23,48.32,46,104.83,92.18,120.59,156.15,6.32,25.63,3,66.33-13.81,85.57C1192.13,890.22,1194.07,851.49,1185.89,822.22Z" transform="translate(-801.04 -499.74)"/><path class="cls-2" d="M1022.07,1166.46a30.87,30.87,0,0,1-11.27,4.55,30.66,30.66,0,0,0,12.49-4.1c9-5.17,13.46-13.12,10-17.77q-.27-.33-.54-.63a7.58,7.58,0,0,1,2.38,1.23,5.12,5.12,0,0,1,1.17,1.15c4.09,5.55-4,13.5-9.73,16.78-10.71,6.26-22.23,6.39-27,.83-3.79-4.44.12-12.56,8.73-18.14s18.66-6.49,22.44-2-.12,12.57-8.73,18.15ZM1010,1152.7c-14.56,9.55-11,21.16,8.25,13.6-16.8,3.27-19.35-3.65-8.25-13.6Zm.2,11.08a12.68,12.68,0,0,0,7.72-2.26c4.07-2.63,5.93-6.47,4.13-8.57s-6.54-1.66-10.6,1-5.91,6.47-4.12,8.57l.27.28c-1.16-2,.52-5.15,4-7.39,3.09-2,6.61-2.59,8.62-1.59a14.68,14.68,0,0,0-5.56,2.13C1012,1157.62,1009,1161.11,1010.18,1163.78Z" transform="translate(-801.04 -499.74)"/><path class="cls-2" d="M1061.39,1143.83a38.15,38.15,0,0,1-10.57,4.87,39.09,39.09,0,0,0,11.83-4.74c8.2-5,11.63-11.22,7.66-14a5.06,5.06,0,0,0-.6-.37,9.63,9.63,0,0,1,2.52.51,5.28,5.28,0,0,1,1.28.64c4.73,3.29-2.29,10.08-7.49,13.23-9.8,6-21.13,7.8-26.52,4.6-4.3-2.56-1.46-8.85,6.33-14s17.6-7.34,21.9-4.78,1.45,8.85-6.34,14Zm-13.67-7.87c-13.18,8.87-8.14,16.49,9.86,8.32-16.17,4.8-19.56.32-9.86-8.32Zm1.6,7.75a16.41,16.41,0,0,0,7.33-2.73c3.69-2.46,5-5.43,3-6.63s-6.66-.21-10.34,2.25-5,5.42-3,6.63l.3.16c-1.39-1.2-.13-3.7,3-5.78,2.8-1.86,6.2-2.81,8.3-2.41a19,19,0,0,0-5.22,2.33C1050.31,1139.12,1047.76,1142,1049.32,1143.71Z" transform="translate(-801.04 -499.74)"/><path class="cls-2" d="M1100.93,1124a32.54,32.54,0,0,1-10.06,3.6,33.84,33.84,0,0,0,11.26-3.35c7.79-3.92,11.06-9.53,7.3-12.54l-.58-.41a9.64,9.64,0,0,1,2.39.73,6.37,6.37,0,0,1,1.23.74c4.5,3.59-2.19,9.37-7.13,11.85-9.33,4.74-20.12,5.35-25.24,1.77-4.1-2.86-1.38-8.57,6-12.74s16.74-5.25,20.84-2.4,1.39,8.57-6,12.75Zm-13-8.83c-12.53,7.15-7.75,14.89,9.38,8.89-15.38,3-18.6-1.62-9.38-8.89Zm1.53,7.53a14.15,14.15,0,0,0,7-1.88c3.51-2,4.78-4.66,2.85-6s-6.33-.85-9.84,1.13-4.78,4.66-2.84,6l.28.18c-1.32-1.27-.12-3.53,2.85-5.2,2.67-1.5,5.9-2.06,7.9-1.47a15.61,15.61,0,0,0-5,1.69C1090.38,1118.41,1088,1120.92,1089.45,1122.68Z" transform="translate(-801.04 -499.74)"/><path class="cls-2" d="M975.54,1184.49a32.09,32.09,0,0,1-12.21,1.49,31.31,31.31,0,0,0,13.23-.75c10.18-2.68,16.9-9.18,15-14.51a5,5,0,0,0-.33-.75,7.34,7.34,0,0,1,1.93,1.79,4.87,4.87,0,0,1,.77,1.41c2.26,6.37-8,11.94-14.41,13.63-12.19,3.28-23.29.48-26.17-6.07-2.29-5.24,3.9-12,13.85-15.21s19.89-1.48,22.18,3.76-3.9,12-13.85,15.21Zm-7.48-16.31c-16.87,5.46-16.9,17.55,3.84,15.16-17.13-1.13-17.49-8.42-3.84-15.16Zm-3.14,10.71a13.08,13.08,0,0,0,8.11-.21c4.7-1.5,7.63-4.71,6.53-7.18s-5.77-3.27-10.46-1.77-7.63,4.71-6.55,7.18c.06.11.11.22.18.33-.53-2.16,2-4.81,6-6.08,3.57-1.13,7.13-.8,8.75.66a15.49,15.49,0,0,0-6,.63C968.5,1173.42,964.54,1176,964.92,1178.89Z" transform="translate(-801.04 -499.74)"/><path class="cls-2" d="M913.61,1185.74A51.24,51.24,0,0,1,894,1184.6a50,50,0,0,0,21,2.6c16.84-1.3,29.55-9.57,28.4-18.47a9.12,9.12,0,0,0-.27-1.26,11.41,11.41,0,0,1,2.43,3.36,8.11,8.11,0,0,1,.72,2.42c1.39,10.63-16.49,16.44-27.17,17.26-20.21,1.66-36.66-5.89-39-17-1.84-8.85,10.18-17.76,26.83-19.87s31.67,3.34,33.49,12.2-10.17,17.76-26.84,19.88Zm-6.21-27.68c-28.28,3.76-32.4,22.68.89,24.85-26.45-6.66-24.56-18.19-.89-24.85Zm-8.53,15.87c3,1.8,7.7,2.64,12.76,2,7.87-1,13.54-5.2,12.67-9.38s-7.94-6.77-15.81-5.76-13.54,5.2-12.67,9.39a5,5,0,0,0,.16.57c-.09-3.54,4.83-7,11.51-7.81,6-.76,11.46.77,13.51,3.53a25,25,0,0,0-9.59-.72C906.31,1166.39,899.25,1169.3,898.87,1173.93Z" transform="translate(-801.04 -499.74)"/><path class="cls-2" d="M1028.89,1139.19a41.33,41.33,0,0,1-11.42,2.58,42.86,42.86,0,0,0,12.62-2.23c9.14-3.08,13.9-8.16,10.63-11.35a5.83,5.83,0,0,0-.53-.43,9.56,9.56,0,0,1,2.36.89,4.68,4.68,0,0,1,1.12.81c3.9,3.81-4.5,8.75-10.28,10.7-10.91,3.72-22.43,3.39-27-.45-3.64-3.07.54-8.28,9.32-11.64s18.86-3.59,22.5-.52-.55,8.29-9.34,11.64Zm-11.61-9.52c-14.87,5.76-11.65,13.55,7.79,9.27-16.89,1.54-19.22-3.12-7.79-9.27Zm-.17,7.32a18.09,18.09,0,0,0,7.79-1.21c4.16-1.58,6.12-4,4.4-5.49s-6.46-1.35-10.62.24-6.11,4-4.4,5.5a1.57,1.57,0,0,0,.27.19c-1.1-1.33.69-3.37,4.21-4.72,3.15-1.2,6.68-1.46,8.65-.73a19.72,19.72,0,0,0-5.62,1.2C1019.09,1133,1016,1135.18,1017.11,1137Z" transform="translate(-801.04 -499.74)"/><path class="cls-2" d="M997.52,1115.1a41.54,41.54,0,0,1-11.44,2.58,42.13,42.13,0,0,0,12.62-2.24c9.15-3.07,13.9-8.15,10.63-11.34a5.73,5.73,0,0,0-.52-.44,9.49,9.49,0,0,1,2.35.9,5,5,0,0,1,1.12.81c3.9,3.8-4.49,8.75-10.28,10.7-10.91,3.73-22.42,3.39-27-.45-3.63-3.07.54-8.28,9.32-11.64s18.86-3.59,22.5-.52-.54,8.28-9.32,11.64Zm-11.63-9.51c-14.87,5.75-11.65,13.54,7.79,9.26-16.89,1.54-19.21-3.11-7.79-9.26Zm-.17,7.31a18.27,18.27,0,0,0,7.8-1.2c4.15-1.59,6.11-4,4.4-5.5s-6.47-1.34-10.62.24-6.12,4-4.4,5.5l.25.19c-1.09-1.32.7-3.38,4.22-4.72,3.15-1.2,6.69-1.47,8.65-.74a20.59,20.59,0,0,0-5.62,1.2C987.71,1108.9,984.58,1111.09,985.72,1112.9Z" transform="translate(-801.04 -499.74)"/><path class="cls-2" d="M969.35,1153a39.26,39.26,0,0,1-15-1.4,38.42,38.42,0,0,0,16,2.54c12.83-.53,22.51-6.49,21.63-13.3a7.79,7.79,0,0,0-.2-1,9.21,9.21,0,0,1,1.85,2.61,6.87,6.87,0,0,1,.55,1.87c1,8.13-12.56,12.07-20.7,12.42-15.38.72-27.91-5.46-29.66-14-1.4-6.8,7.75-13.25,20.43-14.41s24.12,3.39,25.51,10.19S982,1151.8,969.35,1153Zm-4.73-21.25c-21.54,2.11-24.68,16.4.69,19-20.15-5.78-18.71-14.51-.69-19Zm-6.49,11.87a16,16,0,0,0,9.71,1.85c6-.55,10.32-3.6,9.65-6.81s-6-5.36-12-4.81-10.32,3.6-9.66,6.81c0,.15.08.3.12.44-.06-2.7,3.69-5.17,8.77-5.63,4.56-.42,8.73.89,10.28,3a19.27,19.27,0,0,0-7.29-.8C963.79,1138,958.42,1140.07,958.13,1143.59Z" transform="translate(-801.04 -499.74)"/><path class="cls-2" d="M913.15,1138.35a36.69,36.69,0,0,1-14-4.34,36.07,36.07,0,0,0,14.78,5.69c12.4,2,23-2,23.56-9a8.32,8.32,0,0,0,0-1,9.5,9.5,0,0,1,1.21,3,6.66,6.66,0,0,1,.13,2c-.72,8.34-14.61,9.59-22.47,8.33-14.9-2.31-25.58-11-25.44-19.82.1-7.07,10.24-11.72,22.64-10.39s22.38,8.15,22.27,15.22-10.26,11.72-22.66,10.39Zm0-22.18c-21.09-2.14-27.14,11.54-3.39,19.09-18.07-9.75-14.83-18.2,3.39-19.09Zm-8.76,10.58c1.85,1.9,5.15,3.37,8.91,3.78,5.87.63,10.65-1.57,10.71-4.91s-4.66-6.56-10.51-7.19-10.65,1.58-10.7,4.91a3.77,3.77,0,0,0,0,.47c.51-2.71,4.63-4.44,9.6-3.91,4.45.48,8.17,2.62,9.2,5.07a17.91,17.91,0,0,0-6.82-2.23C911,1122.32,905.42,1123.3,904.39,1126.75Z" transform="translate(-801.04 -499.74)"/><path class="cls-2" d="M847.64,1146.36a37.74,37.74,0,0,1-15.94-8.86c3.39,4.34,9,8.23,16.09,10.78,15.26,5.44,31.84,2.65,37.05-6.24a14.16,14.16,0,0,0,.65-1.29,10.6,10.6,0,0,1-.27,4.13,10,10,0,0,1-1.07,2.58c-6.22,10.62-25.49,9-35.16,5.58-18.37-6.42-27.14-20.08-21.37-31.5,4.59-9.11,21-12.79,36.69-8.19s24.64,15.7,20,24.82-21,12.78-36.71,8.19Zm14-28.67c-26.7-7.64-43.38,8.64-16.53,23.89-17.91-16.78-8.27-26.95,16.53-23.89Zm-18.31,11.65c1.27,2.87,4.73,5.55,9.48,6.94,7.4,2.17,15.16.44,17.34-3.87s-2.06-9.55-9.47-11.71-15.15-.44-17.33,3.87c-.09.19-.18.4-.26.6,2.39-3.39,9-4.66,15.24-2.83,5.63,1.65,9.22,5.27,9.05,8.69a18.1,18.1,0,0,0-7.67-4.47C854.89,1125.15,846.85,1125.11,843.3,1129.34Z" transform="translate(-801.04 -499.74)"/><path class="cls-2" d="M823.62,1097.11a27.79,27.79,0,0,1-11.78-10.17,29.45,29.45,0,0,0,11.89,12.39c11.28,6.25,23.54,3,27.39-7.18.18-.48.34-1,.48-1.48a18.63,18.63,0,0,1-.2,4.75,16.22,16.22,0,0,1-.79,3c-4.6,12.19-18.84,10.37-26,6.4-13.58-7.37-20.06-23.07-15.8-36.18,3.4-10.47,15.55-14.68,27.12-9.41s18.22,18,14.82,28.5-15.55,14.69-27.14,9.41ZM834,1064.19c-19.74-8.78-32.07,9.93-12.22,27.43-13.24-19.27-6.11-30.95,12.22-27.43Zm-13.54,13.38a12.84,12.84,0,0,0,7,8c5.47,2.5,11.21.5,12.82-4.44s-1.53-11-7-13.47-11.2-.49-12.81,4.46c-.07.22-.14.46-.19.69,1.76-3.89,6.62-5.37,11.26-3.25,4.16,1.89,6.82,6,6.69,10a13.78,13.78,0,0,0-5.66-5.14C829,1072.75,823,1072.71,820.41,1077.57Z" transform="translate(-801.04 -499.74)"/><path class="cls-2" d="M871.47,1096.37a30.53,30.53,0,0,1-10.71-10.47,34.58,34.58,0,0,0,11.11,12.74c9.75,6.44,18.9,3.14,20.45-7.37.07-.51.13-1,.16-1.53a25.34,25.34,0,0,1,.53,4.89,19,19,0,0,1-.19,3c-1.85,12.53-13.29,10.67-19.46,6.59-11.72-7.59-19.06-23.74-17.61-37.22,1.16-10.77,10.08-15.11,19.92-9.69s16.89,18.56,15.72,29.33-10.08,15.1-19.92,9.68Zm3.36-33.87c-16.76-9-23.73,10.2-5.64,28.22-13.16-19.83-9.25-31.84,5.64-28.22Zm-8.7,13.76a15.46,15.46,0,0,0,6.65,8.2c4.65,2.57,8.86.52,9.41-4.57s-2.78-11.29-7.42-13.85-8.87-.51-9.41,4.58c0,.23,0,.47-.05.72.82-4,4.42-5.52,8.36-3.35a14.16,14.16,0,0,1,6.69,10.27,15.15,15.15,0,0,0-5.19-5.29C872.16,1071.31,867.49,1071.26,866.13,1076.26Z" transform="translate(-801.04 -499.74)"/><path class="cls-2" d="M820.53,1028.33a26.88,26.88,0,0,1-2.42-14.65,29.1,29.1,0,0,0,1.18,16.47c4.38,11.25,15.07,15.51,23.89,9.53.42-.29.83-.6,1.22-.92a20.3,20.3,0,0,1-2.95,3.67,16.72,16.72,0,0,1-2.33,1.92c-10.52,7.15-19.66-2.22-22.43-9.35-5.36-13.42-.7-29.53,10.13-37.59,8.64-6.45,19.84-3,25,7.59s2.36,24.49-6.28,30.93-19.85,3-25-7.6Zm26.92-20.47c-9-18-28.87-9.93-25,15,1.94-22.7,14-28,25-15ZM829.81,1011a12.8,12.8,0,0,0,.3,10.23c2.45,5,7.74,6.64,11.82,3.6s5.42-9.59,3-14.61-7.74-6.63-11.83-3.58q-.27.21-.54.45c3.57-2.13,7.93-.6,10,3.67a11.38,11.38,0,0,1-1.12,11.67,13.29,13.29,0,0,0-1-7.24C838.81,1011.91,834.57,1008.58,829.81,1011Z" transform="translate(-801.04 -499.74)"/><path class="cls-2" d="M863.62,1036.58A21.86,21.86,0,0,1,860,1024.5a24.42,24.42,0,0,0,2.8,13.92c4.94,8.71,14.48,10,21.32,2.85.33-.35.64-.7.94-1.07a21.61,21.61,0,0,1-2.11,3.83,17.91,17.91,0,0,1-1.77,2.18c-8.16,8.52-16.94,2.49-20.08-3-6-10.36-3.8-25.28,4.53-34.66,6.64-7.49,16.53-7.08,22.08.93s4.67,20.57-2,28.06-16.54,7.07-22.09-.93Zm20.65-23.68c-9.56-13.48-25.61-2.08-19.64,18.57-.81-20,8.83-27.29,19.64-18.57Zm-14.65,6.65a10.93,10.93,0,0,0,1.37,8.75c2.62,3.79,7.29,4,10.43.45a11.29,11.29,0,0,0,.94-13.25c-2.63-3.78-7.3-4-10.44-.43-.14.15-.28.33-.42.5a5.65,5.65,0,0,1,8.9.92,10.19,10.19,0,0,1,.31,10.31,10.92,10.92,0,0,0-1.64-6A6.25,6.25,0,0,0,869.62,1019.55Z" transform="translate(-801.04 -499.74)"/><path class="cls-2" d="M884.35,985.84a21.56,21.56,0,0,1,2.26-12.36,24.62,24.62,0,0,0-3.88,13.7c.47,9.81,8.53,14.68,18,10.87q.69-.27,1.35-.6a23.05,23.05,0,0,1-3.68,2.65,19.75,19.75,0,0,1-2.61,1.29c-11.31,4.54-16.49-4.34-16.79-10.56-.68-11.72,8.19-24.38,20-29.64,9.47-4.21,18.24,0,19.58,9.42s-5.23,20.46-14.7,24.66-18.24,0-19.59-9.43ZM914,972.42c-2.46-15.93-22.25-11.85-26.34,9.2,8.46-18.44,20.56-21.3,26.34-9.2Zm-16.33.33a11.11,11.11,0,0,0-2.79,8.46c.63,4.45,4.78,6.44,9.25,4.46s7.58-7.2,6.94-11.64-4.78-6.44-9.25-4.46l-.62.3c3.75-1.29,7.1.52,7.64,4.3.49,3.38-1.43,7.25-4.45,9.45a10.64,10.64,0,0,0,1.26-6.08C905.21,974.65,902.51,971.37,897.63,972.75Z" transform="translate(-801.04 -499.74)"/><path class="cls-2" d="M934.35,957.79a28.69,28.69,0,0,0,13.52.82,31.18,31.18,0,0,1-15.09.25c-10.57-2.57-15.21-10.5-10.38-17.71q.36-.52.75-1a18.55,18.55,0,0,0-3.14,2.55,12.77,12.77,0,0,0-1.58,1.92c-5.78,8.61,3.41,15,10.11,16.62,12.62,3.17,27-1.55,33.56-10.47,5.28-7.11,1.38-15.5-8.69-18.73s-22.5-.08-27.76,7-1.37,15.5,8.7,18.74Zm16.76-22.19c17,5.62,11.09,21.53-11.94,20.34,20.56-3.1,24.58-12.74,11.94-20.34Zm-1.6,13.81a13.72,13.72,0,0,1-9.36.49c-4.76-1.53-6.61-5.49-4.11-8.85s8.36-4.84,13.11-3.32,6.59,5.5,4.1,8.86c-.11.14-.23.3-.37.45,1.68-2.9,0-6.15-4.06-7.44a11.91,11.91,0,0,0-10.55,1.68,14.21,14.21,0,0,1,6.67.28C948,942.54,951.37,945.57,949.51,949.41Z" transform="translate(-801.04 -499.74)"/><path class="cls-2" d="M982.47,951.55a28.46,28.46,0,0,0,10.79,6.51,31.37,31.37,0,0,1-12.59-6.4c-7.52-6.5-7.63-14.33-.25-17.5a10.29,10.29,0,0,1,1.1-.4,18,18,0,0,0-3.79.48,12.54,12.54,0,0,0-2.22.72c-8.8,3.78-4.21,12.45.56,16.57,8.92,7.83,23,10.63,32.62,7,7.69-2.91,8.41-10.75,1.61-17.5s-18.52-9.88-26.21-7-8.41,10.76-1.62,17.51Zm24.25-8.92c11.42,11.54-.94,20.61-19.41,9.67,18.44,6.71,26.28,1.4,19.41-9.67ZM998.93,952a13.85,13.85,0,0,1-8-3.73c-3.22-3.19-2.88-6.89.75-8.27s9.19.1,12.38,3.3,2.86,6.89-.77,8.26a4.91,4.91,0,0,1-.5.17c2.74-1.39,2.86-4.51.13-7.21a12.29,12.29,0,0,0-9.5-3.37,14.09,14.09,0,0,1,5.38,3.11C1000.92,946.37,1002.26,950,998.93,952Z" transform="translate(-801.04 -499.74)"/><path class="cls-2" d="M842.91,964.76a27.09,27.09,0,0,1,3.7-14.43A29.77,29.77,0,0,0,841,966c-.49,11.94,7.7,19.56,18.3,17,.51-.13,1-.27,1.51-.44a21.78,21.78,0,0,1-4.23,2.4,18.49,18.49,0,0,1-2.94,1c-12.66,3-17.34-8.79-17-16.36.46-14.29,11.32-27.64,24.63-31.42,10.64-3,19.66,4,20.15,15.61s-7.74,23.54-18.37,26.56-19.65-4-20.15-15.62ZM876.19,955c-1-19.74-22.76-19.1-29.32,5.39,11-20.41,24.33-21.24,29.32-5.39Zm-17.63-3.14a13.19,13.19,0,0,0-3.87,9.61c.22,5.5,4.49,8.8,9.51,7.37s8.91-7,8.67-12.53-4.49-8.8-9.52-7.37c-.22.06-.45.13-.69.22,4.18-.75,7.6,2.17,7.8,6.84a12,12,0,0,1-5.77,10.44,13.41,13.41,0,0,0,2-7.08C866.54,955.78,864,951.23,858.56,951.84Z" transform="translate(-801.04 -499.74)"/><path class="cls-2" d="M902.36,936.17a33.66,33.66,0,0,0,15.49-4.12A36.1,36.1,0,0,1,901.08,938c-13,1.06-21.64-6.08-19.41-15.94.1-.47.24-.94.39-1.41a19.68,19.68,0,0,0-2.39,4,13.89,13.89,0,0,0-.92,2.75c-2.66,11.77,10.43,15.47,18.63,14.8,15.51-1.15,29.47-11.78,32.9-24.2,2.75-9.91-5.3-17.84-18-17.7s-25.19,8.28-27.93,18.19,5.31,17.84,18,17.71Zm8.95-31c21.5-.06,21.9,19.93-4.38,27.19,21.62-11.13,21.85-23.41,4.38-27.19Zm4.3,16a15.74,15.74,0,0,1-10.25,4c-6,.07-9.79-3.67-8.5-8.35s7.21-8.53,13.2-8.6,9.78,3.68,8.48,8.36a4.88,4.88,0,0,1-.2.65c.59-3.87-2.75-6.86-7.83-6.8-4.55,0-9,2.52-11,5.82a16.62,16.62,0,0,1,7.58-2.19C910.93,914,916,916.17,915.61,921.16Z" transform="translate(-801.04 -499.74)"/><path class="cls-2" d="M950.68,916.89a26.41,26.41,0,0,0,12,4.28,29.18,29.18,0,0,1-13.72-3.72c-8.74-5.09-10.47-13.46-3.88-18.71.32-.25.66-.48,1-.71a18.37,18.37,0,0,0-3.61,1.47,12.8,12.8,0,0,0-2,1.33c-7.87,6.26-1.55,14.41,4,17.63,10.41,6.18,24.84,5.66,33.54-.66,7-5,6-13.64-2-19.19s-20.29-6-27.25-.91-6,13.64,2.06,19.19Zm22-15.64c13.63,9.51,3.36,22.34-17.09,15.24,19.53,2.57,26.14-5.09,17.09-15.24Zm-5.72,12a12.75,12.75,0,0,1-8.6-2c-3.83-2.63-4.27-6.68-1-9.07s9-2.19,12.86.44,4.25,6.67,1,9.06l-.47.32c2.42-2.18,1.88-5.57-1.36-7.78a11.31,11.31,0,0,0-10-1.24,13,13,0,0,1,5.94,2C967.75,906.7,969.83,910.31,967,913.29Z" transform="translate(-801.04 -499.74)"/><path class="cls-2" d="M999.72,924.93a28.47,28.47,0,0,0,10.78,6.5,31.5,31.5,0,0,1-12.59-6.4c-7.51-6.49-7.62-14.33-.24-17.49.36-.15.72-.29,1.09-.41a18.14,18.14,0,0,0-3.79.49,12.88,12.88,0,0,0-2.2.71c-8.82,3.78-4.22,12.46.54,16.58,8.93,7.83,23,10.63,32.63,7,7.69-2.91,8.41-10.74,1.62-17.5s-18.54-9.88-26.23-7-8.41,10.75-1.61,17.51ZM1024,916c11.4,11.53-1,20.6-19.43,9.67,18.44,6.7,26.29,1.4,19.43-9.67Zm-7.81,9.4a13.89,13.89,0,0,1-8-3.72c-3.21-3.19-2.87-6.9.76-8.27s9.17.1,12.38,3.3,2.87,6.88-.76,8.26l-.53.17c2.76-1.39,2.87-4.51.15-7.22a12.32,12.32,0,0,0-9.52-3.37,14,14,0,0,1,5.39,3.11C1018.17,919.75,1019.51,923.42,1016.17,925.41Z" transform="translate(-801.04 -499.74)"/><path class="cls-2" d="M1033.27,966.8a26.15,26.15,0,0,0,10,6,28.88,28.88,0,0,1-11.6-5.91c-6.94-6-7-13.21-.24-16.13.33-.14.67-.26,1-.38a17.94,17.94,0,0,0-3.49.45,11.09,11.09,0,0,0-2,.67c-8.13,3.48-3.9,11.48.49,15.28,8.25,7.22,21.21,9.8,30.09,6.44,7.09-2.68,7.76-9.91,1.5-16.14s-17.09-9.11-24.18-6.43-7.75,9.91-1.5,16.15Zm22.38-8.23c10.52,10.64-.89,19-17.91,8.92,17,6.18,24.23,1.29,17.91-8.92Zm-7.21,8.67a12.78,12.78,0,0,1-7.33-3.43c-3-2.94-2.66-6.35.7-7.62s8.46.09,11.41,3,2.64,6.36-.71,7.62a3.24,3.24,0,0,1-.47.16c2.53-1.28,2.65-4.16.13-6.65a11.36,11.36,0,0,0-8.77-3.11,13,13,0,0,1,5,2.87C1050.3,962,1051.53,965.41,1048.44,967.24Z" transform="translate(-801.04 -499.74)"/><path class="cls-2" d="M1046.56,941.31a26.7,26.7,0,0,0,10.12,6.1,29.56,29.56,0,0,1-11.81-6c-7-6.09-7.13-13.43-.22-16.4.33-.15.67-.27,1-.39a17.7,17.7,0,0,0-3.53.46,12.79,12.79,0,0,0-2.09.67c-8.25,3.54-3.94,11.68.51,15.53,8.38,7.35,21.57,10,30.6,6.56,7.21-2.73,7.88-10.08,1.53-16.41s-17.39-9.26-24.6-6.53-7.89,10.07-1.52,16.41Zm22.74-8.37c10.71,10.82-.88,19.32-18.19,9.07,17.28,6.29,24.64,1.31,18.19-9.07Zm-7.31,8.83a13.07,13.07,0,0,1-7.47-3.5c-3-3-2.68-6.46.72-7.75s8.61.09,11.61,3.08,2.68,6.47-.72,7.76l-.48.16c2.57-1.3,2.68-4.23.13-6.77a11.57,11.57,0,0,0-8.92-3.16,13.14,13.14,0,0,1,5.05,2.92C1063.86,936.45,1065.12,939.89,1062,941.77Z" transform="translate(-801.04 -499.74)"/><path class="cls-2" d="M1092.06,957.22a27.51,27.51,0,0,0,10.79,5,30.17,30.17,0,0,1-12.46-4.76c-7.75-5.32-8.75-12.6-2.23-16.26.31-.18.63-.34,1-.49a16.89,16.89,0,0,0-3.46.82,11.52,11.52,0,0,0-2,.88c-7.78,4.37-2.51,12,2.41,15.38,9.2,6.44,22.64,7.68,31.19,3.36,6.84-3.45,6.61-10.83-.49-16.46s-18.41-7.41-25.23-4-6.61,10.82.5,16.47Zm21.57-10.66c12,9.64,1.48,19.29-17,10.89,18,4.46,24.66-1.24,17-10.89Zm-6.19,9.52a13.27,13.27,0,0,1-7.84-2.7c-3.36-2.67-3.47-6.15-.24-7.78s8.56-.8,11.91,1.87,3.45,6.14.23,7.78l-.47.21c2.42-1.56,2.16-4.48-.69-6.74a11.68,11.68,0,0,0-9.24-2.22,13.65,13.65,0,0,1,5.38,2.37C1108.65,950.6,1110.31,953.9,1107.44,956.08Z" transform="translate(-801.04 -499.74)"/><path class="cls-2" d="M1079.15,982.33a26.11,26.11,0,0,0,9.94,6,29,29,0,0,1-11.6-5.9c-6.94-6-7-13.22-.23-16.14.33-.13.66-.26,1-.38a18.14,18.14,0,0,0-3.5.45,13.06,13.06,0,0,0-2,.67c-8.13,3.48-3.9,11.48.51,15.28,8.22,7.22,21.19,9.81,30.06,6.44,7.09-2.68,7.77-9.91,1.5-16.13s-17.08-9.12-24.18-6.44-7.74,9.92-1.48,16.15Zm22.37-8.23c10.52,10.64-.87,19-17.92,8.92,17,6.18,24.24,1.29,17.92-8.92Zm-7.2,8.68a12.85,12.85,0,0,1-7.34-3.44c-3-2.94-2.66-6.36.7-7.62s8.45.09,11.41,3,2.65,6.36-.71,7.63l-.48.16c2.55-1.29,2.66-4.17.14-6.66a11.32,11.32,0,0,0-8.77-3.1,12.9,12.9,0,0,1,5,2.86C1096.16,977.55,1097.39,980.94,1094.32,982.78Z" transform="translate(-801.04 -499.74)"/><path class="cls-2" d="M1144.89,960.11a28.6,28.6,0,0,0,12.07.8,31.31,31.31,0,0,1-13.49,0c-9.38-2.16-13.35-8.53-8.89-14.22.23-.27.45-.54.69-.8a16.17,16.17,0,0,0-2.85,2,9.89,9.89,0,0,0-1.46,1.52c-5.34,6.79,2.74,12,8.67,13.33,11.22,2.68,24.12-.93,30.19-8,4.86-5.6,1.56-12.33-7.36-15s-20.08-.31-24.94,5.29-1.54,12.33,7.37,15Zm15.44-17.48c15.08,4.65,9.46,17.27-11.1,16.07,18.43-2.25,22.23-9.89,11.1-16.07Zm-1.72,11a13.61,13.61,0,0,1-8.36.3c-4.23-1.27-5.79-4.45-3.5-7.1s7.57-3.77,11.79-2.5,5.77,4.44,3.47,7.1c-.1.11-.22.24-.34.35,1.57-2.29.12-4.89-3.46-6a11.82,11.82,0,0,0-9.46,1.23,14.39,14.39,0,0,1,6,.29C1157.44,948.12,1160.35,950.57,1158.61,953.6Z" transform="translate(-801.04 -499.74)"/><path class="cls-2" d="M1132,993.62a30.73,30.73,0,0,0,12.85,3,33.91,33.91,0,0,1-14.55-2.29c-9.69-3.95-12.67-11.51-6.69-16.87.3-.25.6-.5.91-.74a18.39,18.39,0,0,0-3.47,1.65,12.12,12.12,0,0,0-1.89,1.38c-7.15,6.4.49,13.38,6.62,15.89,11.53,4.81,26.2,3.16,34.19-3.36,6.38-5.21,4.2-13-4.87-17.47s-21.6-3.81-28,1.4-4.18,13,4.88,17.46Zm20.22-16.18c15.31,7.64,6.66,20.26-15.25,15.41,20.32.76,26-6.82,15.25-15.41Zm-4.1,11.54a14.91,14.91,0,0,1-9.09-1.13c-4.28-2.1-5.32-5.8-2.29-8.26s8.92-2.75,13.21-.66,5.3,5.8,2.29,8.25l-.43.34c2.14-2.21,1.1-5.27-2.52-7a13,13,0,0,0-10.47-.31,15.34,15.34,0,0,1,6.37,1.34C1147.94,982.87,1150.59,986,1148.09,989Z" transform="translate(-801.04 -499.74)"/><path class="cls-2" d="M1181.53,970a27.84,27.84,0,0,1,9-8.89,30.53,30.53,0,0,0-10.85,9.19c-5.79,8.15-3.84,16,4.36,17.5.39.07.79.12,1.18.16a18.62,18.62,0,0,1-3.9.36,13.28,13.28,0,0,1-2.39-.22c-9.78-1.81-7.48-11.49-3.83-16.65,6.85-9.8,20.15-15.72,30.7-14.23,8.44,1.19,11.23,8.85,6.24,17.09s-15.89,14-24.32,12.79-11.22-8.85-6.23-17.1Zm26.55,3.5c8.33-14-6.38-20.33-21.92-5.32,16.62-10.8,25.84-7.25,21.92,5.32Zm-10.27-7.65a13.59,13.59,0,0,0-7,5.49c-2.37,3.9-1,7.52,2.94,8.08s9.13-2.14,11.48-6,1-7.51-2.94-8.07a5,5,0,0,0-.57-.06c3.12.78,4,3.86,2.06,7.17a12.11,12.11,0,0,1-8.61,5.47,13.78,13.78,0,0,0,4.56-4.29C1201.3,971,1201.67,967.06,1197.81,965.8Z" transform="translate(-801.04 -499.74)"/><path class="cls-2" d="M1181.08,922.6a22.13,22.13,0,0,1,5.29-10.19,23,23,0,0,0-6.74,10.63c-2.75,9.17.94,17.5,8.22,18.6.35.05.71.09,1.05.11a12.22,12.22,0,0,1-3.17.64,10.36,10.36,0,0,1-2.09-.09c-8.69-1.31-9.28-11.91-7.55-17.72,3.21-11,12.83-18.29,22.09-17.36,7.41.73,11.74,8.81,9.7,18s-9.71,16.13-17.1,15.39-11.74-8.82-9.7-18Zm23.22,2c3.36-15.7-10.65-21.53-19.8-4.32,11.15-12.72,19.83-9.5,19.8,4.32Zm-10.61-7.57a9.9,9.9,0,0,0-4.43,6.37c-1,4.36,1.08,8.17,4.59,8.52s7.11-2.9,8.06-7.26-1.07-8.18-4.57-8.52a4,4,0,0,0-.49,0c2.82.63,4.42,3.91,3.6,7.6-.74,3.32-3.18,5.92-5.81,6.47a10.77,10.77,0,0,0,2.7-4.94C1198,922.46,1197.25,918.16,1193.69,917.07Z" transform="translate(-801.04 -499.74)"/><path class="cls-2" d="M1193,885.11a23,23,0,0,1,2.81-9.78,23.09,23.09,0,0,0-3.82,10.35c-1.06,8.58,2.49,15.66,7.92,15.8a6.87,6.87,0,0,0,.78,0,8.1,8.1,0,0,1-2.27.95,6.07,6.07,0,0,1-1.51.16c-6.49-.18-8-9.65-7.35-15.08,1.2-10.3,7.48-18,14.33-18.19,5.49-.2,9.48,6.57,8.94,15.12s-5.43,15.64-10.9,15.84-9.47-6.58-8.93-15.14Zm17.16-.84c.82-14.53-10-18.16-14.9-1.6,6.83-12.76,13.49-10.85,14.9,1.6Zm-8.53-5.6a9.66,9.66,0,0,0-2.56,6.25c-.27,4,1.62,7.24,4.21,7.15s4.88-3.44,5.14-7.48-1.63-7.23-4.21-7.14l-.36,0c2.11.24,3.61,3,3.4,6.44-.19,3.06-1.71,5.69-3.57,6.49a11.34,11.34,0,0,0,1.47-4.76C1205.35,883,1204.37,879.25,1201.66,878.67Z" transform="translate(-801.04 -499.74)"/><path class="cls-2" d="M1212.86,934.64a19.78,19.78,0,0,1,4.25-10.18,20.14,20.14,0,0,0-5.66,10.63c-1.8,9.16,2.73,17.5,10.13,18.6.35,0,.7.08,1.06.1a11.16,11.16,0,0,1-3.13.64,9.67,9.67,0,0,1-2.08-.09c-8.83-1.31-10.49-11.91-9.35-17.72,2.06-11,11-18.29,20.32-17.36,7.46.73,12.64,8.81,11.53,18s-8.07,16.12-15.53,15.39-12.64-8.83-11.54-18.06Zm23.43,2.05c1.75-15.71-12.85-21.54-20.24-4.32,9.85-12.73,18.86-9.5,20.24,4.32Zm-11.38-7.58a8.71,8.71,0,0,0-3.78,6.37c-.52,4.36,1.92,8.18,5.44,8.53s6.82-2.91,7.35-7.26-1.92-8.18-5.46-8.53a3.7,3.7,0,0,0-.48,0c2.88.62,4.8,3.9,4.36,7.59-.4,3.32-2.56,5.93-5.14,6.48a9.68,9.68,0,0,0,2.2-4.94C1229.75,934.51,1228.58,930.2,1224.91,929.11Z" transform="translate(-801.04 -499.74)"/><path class="cls-2" d="M1221.21,891.21a18.32,18.32,0,0,1,.09-8.85,17.45,17.45,0,0,0-.87,9.37c1.2,7.76,6.19,14.16,11.13,14.29a3.9,3.9,0,0,0,.69,0,5.18,5.18,0,0,1-1.8.86,4.94,4.94,0,0,1-1.33.15c-5.92-.16-9.67-8.73-10.43-13.65-1.5-9.32,2.26-16.24,8.41-16.46,4.9-.18,10.22,6,11.87,13.69s-1,14.15-5.88,14.32-10.22-5.95-11.88-13.69Zm15.3-.76c-2.89-13.15-13.6-16.43-13.87-1.45,3-11.54,9.48-9.82,13.87,1.45Zm-9.11-5.07a7.13,7.13,0,0,0-.75,5.66c.78,3.66,3.28,6.55,5.6,6.47s3.56-3.12,2.78-6.77-3.29-6.55-5.61-6.47l-.31,0c2,.22,4,2.71,4.69,5.81.58,2.78-.12,5.16-1.61,5.88a8.85,8.85,0,0,0,.14-4.3C1231.83,889.33,1230,885.91,1227.4,885.38Z" transform="translate(-801.04 -499.74)"/><path class="cls-2" d="M1199.34,849.86a18.65,18.65,0,0,1-1.91-8.68,17.5,17.5,0,0,0,1.25,9.32c2.9,7.38,9.21,12.7,14.09,11.9a5.43,5.43,0,0,0,.67-.16,4.81,4.81,0,0,1-1.57,1.18,5.15,5.15,0,0,1-1.28.4c-5.81.95-11.4-6.73-13.25-11.4-3.54-8.83-1.41-16.32,4.56-17.69,4.75-1.1,11.33,3.9,14.67,11.16s2.19,14-2.56,15.13-11.33-3.9-14.67-11.16Zm14.81-3.64c-5.77-12.32-17-13.51-13.91,1.2.34-11.85,7.09-11.4,13.91-1.2ZM1204.09,843a7.09,7.09,0,0,0,.52,5.67c1.58,3.43,4.68,5.8,6.93,5.27s2.79-3.71,1.21-7.14-4.69-5.79-6.94-5.27l-.3.09c2-.16,4.56,1.9,5.89,4.82,1.2,2.6,1,5.06-.24,6.05a9,9,0,0,0-.84-4.24C1209.3,846,1206.74,843,1204.09,843Z" transform="translate(-801.04 -499.74)"/></svg>