<?xml version="1.0" encoding="UTF-8" standalone="yes"?>
<!-- Created with sK1/UniConvertor (http://sk1project.org/) -->
<svg xmlns="http://www.w3.org/2000/svg" xmlns:xlink="http://www.w3.org/1999/xlink"
  width="1024pt" height="1024pt" viewBox="0 0 1024 1024"
  fill-rule="evenodd">
<g>
<g>

<path style="stroke:none; fill:#000000" d="M 89.3 437.6C 84.9 439.8 82 444.7 82 450C 82 457.7 88.1 463.2 97.1 463.3C 105.5 463.4 109.6 458.7 108.7 450.1C 108.2 445.2 105.8 441.5 101 438.2C 97.1 435.6 93.7 435.4 89.3 437.6z"/>
<path style="stroke:none; fill:#000000" d="M 930 438.7C 929.2 439 927.3 440.4 925.8 441.8C 921.6 445.7 921.9 450.8 926.5 454.9C 933.8 461.2 943 458 943 449.1C 943 444.5 940.7 441.2 936.4 439.4C 932.8 437.9 932.3 437.9 930 438.7z"/>
<path style="stroke:none; fill:#000000" d="M 387.6 442.4C 384.2 446.9 379.7 448.4 373.9 447.1C 371.5 446.5 369.1 446 368.7 446C 367.2 446 365 453 365 458.1C 365 465.7 367.2 469.6 372.8 471.6C 380.4 474.4 380.7 475.1 376.2 479.2C 370.7 484.2 369 486.9 369 491C 369 495 371.9 501.9 375.6 506.8C 378.7 510.8 380 510.1 383 503.2C 386.5 495.3 389.3 493.4 392.5 496.7C 393.7 497.9 394 499.2 393.5 501.8C 392.1 509.1 389.9 513 385.9 515C 383.8 516.1 381.9 517.4 381.5 518C 380.9 518.9 385.8 532.8 396 559C 405.3 583 405.7 587.2 401 608.2C 398 621.7 396.9 630.5 395 653C 394.5 659.9 392.6 672.2 390.9 680.5C 385.2 707.2 386.5 728.8 395 746.5C 401 759 415.6 776.2 429.1 786.6C 440.6 795.4 464.6 807.4 489.5 816.7C 504 822.1 508.7 823.2 530.8 826.5C 553.4 829.9 565.6 834.3 580.5 844.3C 594.9 854 604.2 865.7 608.5 879.2C 615.2 900.5 613 924 602.4 942.1C 597.9 949.7 584.8 963.1 576.5 968.5C 567 974.7 555.3 978.3 544.5 978.3C 524.4 978.3 510.1 971 497.3 954.5C 492.5 948.4 492.3 951 497 958.4C 507.6 975.2 525.5 984.4 547.5 984.4C 559.6 984.4 567.2 982.5 579.5 976.6C 606.1 963.8 622 938.6 622 909C 622 891.5 618.2 879.8 602 847.5C 589.9 823.4 591.8 824.6 569 825.5C 549.3 826.3 541 825.4 516.5 819.8C 495.5 815.1 493.6 814.4 473 804C 464.5 799.7 454.6 794.9 451 793.5C 442.7 790 430.5 782.1 421.5 774.2C 395.3 751.4 384.5 714.4 395.7 686.3C 398.4 679.6 402.3 675.4 409.3 671.9L 413.5 669.7L 415.5 672.6C 421.3 681 431.2 686.6 445.9 690.2C 469.2 695.8 508 686.5 508 675.3C 508 672.2 506.7 672.4 501.4 676.1C 478.3 692 439.7 689.9 421.6 671.7C 409 659.2 403.1 636.8 407.5 618.3C 411.9 599.4 423.2 586.7 439.3 582.4C 447.3 580.3 466.2 579.5 475 581C 486.6 583 506.1 593.9 522.5 607.7C 536.2 619.2 537.9 625.9 531.7 643.5C 525.6 661 519 682.7 519 685.3C 519 689.7 520.8 689.3 523.6 684.3C 525.1 681.6 529.8 674.3 534 668C 542.4 655.3 545.7 646.8 548.6 630C 552.3 609.1 550.3 589.8 542.8 574.4C 539.2 566.7 527.2 553.6 522.8 552.5C 521 552 514.7 553.8 501.9 558.2L 483.5 564.5L 465.1 564.7L 446.7 564.9L 437.9 569.1C 429.3 573.2 429 573.3 427 571.5C 424.4 569.2 424.4 563.5 426.9 559.3C 428.8 556.3 429.2 556.2 434.4 556.3C 437.4 556.4 440.2 556.1 440.6 555.7C 441 555.3 439.2 553.2 436.6 550.9C 425.7 541.3 415.3 526.1 407.7 508.7C 393.9 477.1 389.6 458.9 392.4 443.7C 393.1 439.8 393 439 391.7 439C 390.9 439 389.1 440.5 387.6 442.4zM 388.4 474.1C 389.8 478.1 388.4 482.2 385.7 481.8C 382.6 481.4 380.9 477.5 382.2 473.8C 383.5 470.1 387 470.3 388.4 474.1zM 403 513.5C 405.6 516.7 403.8 523 400.2 523C 397.9 523 395 520 395 517.7C 395 513.2 400.4 510.4 403 513.5zM 414.1 536.3C 415.5 539.4 413.7 543.7 410.5 545.2C 407.2 546.7 404 544 404 539.6C 404 536 404.7 534.8 407.5 533.2C 409.9 531.9 412.7 533.2 414.1 536.3zM 421.2 559.5C 422 561.3 422.1 563 421.4 564.8C 420.1 568.6 415.2 568.6 413.1 564.9C 411.8 562.5 411.8 562 413.3 559.6C 415.6 556.1 419.6 556.1 421.2 559.5zM 540 587.8C 542.9 590.2 542.1 594.5 538.5 596.2C 533.3 598.5 529.6 590.8 534.2 587.6C 537 585.6 537.3 585.6 540 587.8zM 539 646.8C 539 650.2 535.5 656 533.5 656C 531.2 656 531.7 652.2 534.6 647.3C 537.3 642.6 539 642.5 539 646.8zM 406.6 652.6C 408.7 657.6 408.2 668.4 405.8 668.8C 403.8 669.2 402 663.7 402 656.8C 402 648.4 404.1 646.5 406.6 652.6zM 571.5 831C 571.5 832.8 570.9 833.6 569.2 833.8C 566.5 834.2 565.2 831.6 567 829.4C 568.9 827.2 571.5 828.1 571.5 831zM 588.2 836.5C 589 838.4 589 839.3 588 840.5C 585.6 843.4 580 842 580 838.6C 580 833.7 586.2 832.1 588.2 836.5z"/>
<path style="stroke:none; fill:#000000" d="M 751.5 443.9C 740.5 446.7 736.9 456.4 742.6 467.9C 745.1 472.9 747.8 475.4 758.6 482.8C 761.8 484.9 752.8 483.4 747.6 480.8C 742.2 478.2 740 478.9 740 483C 740 486.7 741.5 487.5 752.4 489.8C 756.6 490.7 760 491.9 759.9 492.5C 759.6 494.3 739.5 499.1 699.3 506.9C 693.3 508.1 690.9 507.4 685.4 502.8C 678.1 496.8 673.9 495 667.3 495C 659.7 495 655.2 497.4 652.3 503C 648.3 510.5 649.5 519.5 655.3 525.8C 658.2 528.9 667 531.3 672.3 530.5C 678.5 529.4 687.5 526.2 696.2 521.9C 713.8 513.1 731.4 507.2 757.5 501.4C 771.3 498.4 773.6 497.4 777.7 492.6C 782.1 487.7 783.4 482.9 783.4 472C 783.5 463.6 783.2 461.8 780.7 456.8C 777.7 450.8 773.6 447 768 445.2C 763 443.6 755 443 751.5 443.9z"/>
<path style="stroke:none; fill:#000000" d="M 787.3 444.5C 784.8 446.3 784.2 450.8 786.2 452.8C 788.1 454.7 791.9 454.2 794.5 451.5C 798.4 447.7 797.5 444.4 792.5 443.5C 790.6 443.1 788.7 443.5 787.3 444.5z"/>
<path style="stroke:none; fill:#000000" d="M 401.5 447.5C 398.1 450.8 398.1 456.7 401.5 460.4C 404.1 463.2 405.5 463.5 409.4 462C 412.4 460.9 416 455.5 416 452.2C 416 448.6 411.7 445 407.5 445C 405 445 403.1 445.8 401.5 447.5z"/>
<path style="stroke:none; fill:#000000" d="M 540.2 446.6C 539 447.4 537.3 449.4 536.5 451C 535.2 453.6 535.1 454.4 536.4 457.3C 540.1 466.2 554 463.2 554 453.5C 554 446.5 546 442.5 540.2 446.6z"/>
<path style="stroke:none; fill:#000000" d="M 159.5 452.5C 158.1 453.8 157 456.1 157 457.5C 157 460.9 161.2 465 164.7 465C 168 465 173.5 461.9 174.8 459.3C 176.3 456.5 174.4 453.1 170.5 451.5C 165.5 449.4 162.3 449.7 159.5 452.5z"/>
<path style="stroke:none; fill:#000000" d="M 728 453C 725.5 455.5 725.4 460.4 727.9 465C 730 469 732.8 470 734.7 467.4C 736.2 465.3 736.4 455.7 735 452.9C 733.6 450.4 730.5 450.5 728 453z"/>
<path style="stroke:none; fill:#000000" d="M 956.5 452.9C 944.2 458.4 945.8 474.8 958.9 477.3C 966 478.7 972.9 472.1 973.8 463.1C 974.3 457.2 972.9 454.3 968.5 452.4C 964 450.6 961.4 450.7 956.5 452.9z"/>
<path style="stroke:none; fill:#000000" d="M 49.2 454C 42.3 458.2 41.6 468.2 48 471.5C 51.6 473.4 65.5 473.5 69 471.7C 72.8 469.8 72.7 466.1 68.8 460.9C 65.1 456 58.8 452 55 452C 53.6 452 51 452.9 49.2 454z"/>
<path style="stroke:none; fill:#000000" d="M 182 461.7C 180.6 462.6 179.2 463.9 178.8 464.4C 177.3 466.5 178 471.8 180.1 474.4C 182 476.8 182.8 477 189.3 477C 201 477 206.5 472.5 203 466C 200 460.4 187.6 457.9 182 461.7z"/>
<path style="stroke:none; fill:#000000" d="M 6.5 461.5C 6 461.7 4.2 462.1 2.7 462.4L -0.0999999 463.1L 0.2 474.3L 0.5 485.5L 5.5 485.8C 11.9 486.2 16.6 484.8 21.2 481C 28.2 475.2 28.5 465.9 21.9 462.5C 19.4 461.2 9.3 460.5 6.5 461.5z"/>
<path style="stroke:none; fill:#000000" d="M 981.4 466.3C 978.3 469.1 977.8 470.2 977.8 473.9C 977.9 481 982.3 485.7 989.9 486.7C 995.2 487.4 998.6 485.2 1000.1 480.1C 1001.7 474.8 1000.5 469.3 997 465.8C 994.7 463.5 993.3 463 989.6 463C 985.8 463 984.4 463.6 981.4 466.3z"/>
<path style="stroke:none; fill:#000000" d="M 1020.8 465.3C 1019.3 466.5 1017.3 469.2 1016.5 471.2C 1015.2 474.5 1015.2 475.4 1016.4 478.4C 1017.8 481.7 1022.5 485.9 1023.6 484.8C 1023.8 484.5 1023.9 479.5 1023.8 473.6L 1023.5 463L 1020.8 465.3z"/>
<path style="stroke:none; fill:#000000" d="M 329.5 474C 323.4 492.3 309.4 504 289.2 507.8C 281.7 509.1 278.7 509.2 265.8 508.1C 257.7 507.3 249.3 507.1 247.3 507.5C 242.2 508.4 237.6 511.4 236.1 514.6C 234.5 518.1 237.1 523.5 244.1 531.3C 250.9 539 253.2 538.9 257.5 530.8C 261.6 523.2 265.1 519.6 271.3 517C 275.9 515 277.3 514.9 288.2 515.5L 300 516.2L 306.6 512C 315 506.4 323.8 496.8 328.5 487.8C 334.1 477.2 336.7 466 333.6 466C 332.7 466 331.2 469 329.5 474zM 255.8 512.2C 259 515.4 255 524 250.3 524C 244.5 524 241.6 515.8 246.2 512.6C 248.9 510.7 254.1 510.5 255.8 512.2z"/>
<path style="stroke:none; fill:#000000" d="M 698.3 469.1C 691.8 473.2 690 480.1 693.5 487C 697.7 495.4 704.7 499.2 711.6 497C 715.5 495.7 719.6 490.4 720.6 485.2C 721.5 480.7 718.7 473.8 714.4 470C 711.6 467.6 710.1 467 706.2 467C 703.2 467 700.4 467.8 698.3 469.1z"/>
<path style="stroke:none; fill:#000000" d="M 146.5 471.4C 144.9 472.1 142.6 473.7 141.5 474.9C 139.6 477.1 139.6 477.1 141.9 481.4C 146.6 489.9 143 494.2 116.1 512.2C 80.1 536.3 70.7 544 63.9 554.7C 59.6 561.6 53.2 579.4 52.3 587.2L 51.7 591.8L 56.4 592.5C 61.8 593.3 62.3 593 64 587.5C 66.1 580.8 74.5 563.7 79.2 556.3C 90.8 538.4 107.1 524.7 134.2 510C 139.3 507.2 144.5 503.9 145.8 502.7C 149.3 499.4 160 479.9 160 476.8C 160 473.6 155.8 470 152.1 470C 150.7 470.1 148.2 470.7 146.5 471.4z"/>
<path style="stroke:none; fill:#000000" d="M 539.9 471.3C 532.9 476.7 536.4 489 545 489C 554.8 489 559.6 477.8 552.3 472C 549.4 469.7 542.5 469.3 539.9 471.3z"/>
<path style="stroke:none; fill:#000000" d="M 877 473.8C 872.5 476.2 869.6 481.9 870.4 486.5C 871.2 490.8 875.4 495.9 879.7 497.7C 891.4 502.5 902.7 485.4 894.2 475.9C 891.8 473.2 890.5 472.6 885.9 472.3C 881.9 472 879.6 472.4 877 473.8z"/>
<path style="stroke:none; fill:#000000" d="M 414 475.3C 410.7 476.9 408.8 480.8 409.5 484.4C 410.2 488.5 411.8 490 415.2 490C 422.2 490 425.8 480.3 420.4 476.1C 417.3 473.7 417.3 473.6 414 475.3z"/>
<path style="stroke:none; fill:#000000" d="M 58 478.3C 53.4 479.9 52.6 484 56.5 486.6C 63.6 491.2 78.3 483.7 72.8 478.2C 71.3 476.7 62.6 476.7 58 478.3z"/>
<path style="stroke:none; fill:#000000" d="M 165 483.3C 163.2 487.2 160.5 500.8 161.3 501.6C 162.2 502.6 175.3 500.2 176.1 498.9C 178.2 495.6 175.4 486.2 170.8 481.2C 167.8 478.1 167.2 478.4 165 483.3z"/>
<path style="stroke:none; fill:#000000" d="M 186.1 485.9C 180.7 493.4 178.6 501.6 181.5 504C 183.5 505.7 186 504.6 190.5 500C 193.8 496.6 194.4 495.3 194.4 492C 194.2 487.7 191.8 483 189.5 483C 188.8 483 187.2 484.3 186.1 485.9z"/>
<path style="stroke:none; fill:#000000" d="M 788.7 490.2C 786.2 492.2 784.1 498.1 785.1 500.7C 786 503.3 790.8 506 794.4 506C 797.8 506 799.4 502.8 798.7 497.3C 797.9 490.3 793.2 486.9 788.7 490.2z"/>
<path style="stroke:none; fill:#000000" d="M 25.3 492C 20.6 493.9 19.7 499.8 23.5 503.5C 28.4 508.5 36 505.5 36 498.7C 36 493.4 30.4 489.9 25.3 492z"/>
<path style="stroke:none; fill:#000000" d="M 0 503.4L 0 513L 3.1 513C 5.1 513 7.1 512 9.1 510.1C 13 506.2 13.1 500.9 9.4 497.5C 7.9 496.1 6.2 495 5.6 495C 5 495 3.5 494.7 2.3 494.4C 4.76837e-07 493.8 0 493.9 0 503.4z"/>
<path style="stroke:none; fill:#000000" d="M 525.4 495.9C 518.9 499.9 515.9 512 520.1 517.4C 526.3 525.3 541.1 524.9 545.6 516.8C 547.4 513.6 547.3 505.5 545.5 502C 541.8 494.9 531.9 491.9 525.4 495.9z"/>
<path style="stroke:none; fill:#000000" d="M 918.7 496.2C 913.9 500.4 912.6 515.5 916.6 521.5C 918.4 524.3 926.7 528.6 932.2 529.5C 937.1 530.4 942.4 528.5 945.6 524.7C 947.8 522.1 948.1 520.9 947.7 517.2C 947.3 513.4 946.3 511.9 940.9 506.4C 929.3 494.7 923.4 492 918.7 496.2z"/>
<path style="stroke:none; fill:#000000" d="M 1018 497.5C 1014.4 501.3 1014.7 506.5 1018.8 510.1C 1020.6 511.7 1022.5 513 1023 513C 1023.6 513 1024 509.2 1024 504C 1024 496 1023.8 495 1022.2 495C 1021.2 495 1019.3 496.1 1018 497.5z"/>
<path style="stroke:none; fill:#000000" d="M 54.4 497.6C 52.7 498.4 50.7 500.3 49.9 501.7C 48.2 505 48.2 517.5 50 525.1C 51.5 531.3 55.3 540.4 56.8 541.4C 58.3 542.3 83 517.9 83 515.4C 83 510.1 74.3 501.1 65.8 497.5C 61.1 495.6 58.4 495.6 54.4 497.6z"/>
<path style="stroke:none; fill:#000000" d="M 199 498.7C 196.3 499.7 193 503.3 193 505.2C 193 509.1 195.3 511.1 205 516C 216 521.5 218.5 522 219.5 519C 220 517.4 219.2 515.8 216.3 512.7C 214.2 510.4 211.2 506.8 209.6 504.7C 207.2 501.6 202.1 497.7 200.8 498.1C 200.6 498.1 199.8 498.4 199 498.7z"/>
<path style="stroke:none; fill:#000000" d="M 428.6 501.1C 422.3 502.8 420.3 507.9 423.5 514.1C 427.7 522.1 439 517.9 439 508.3C 439 502.5 434.7 499.5 428.6 501.1z"/>
<path style="stroke:none; fill:#000000" d="M 618.3 509.6C 613.3 512.1 610.5 517.4 610.5 524.2C 610.5 530.6 612.4 533.9 618 537.7C 621.8 540.4 628.6 540.8 632.8 538.6C 636.6 536.6 640.5 532.1 641.8 528.3C 644 521.8 639.3 513.4 631.5 509.9C 626.6 507.6 622.5 507.6 618.3 509.6z"/>
<path style="stroke:none; fill:#000000" d="M 578.6 513.3C 565.2 520.9 570.9 540 586.6 540C 593.2 540 597.4 536.9 599.1 530.7C 602.8 516.9 590.5 506.4 578.6 513.3z"/>
<path style="stroke:none; fill:#000000" d="M 156.7 512.7C 156.3 513.3 159.3 513.9 164.8 514.3C 175.4 515 183.2 517 192.7 521.5C 203.2 526.4 208.2 530.1 219.8 541.4C 225.4 546.9 230 551 230 550.6C 230 549.1 223.7 540.4 219.1 535.7C 210.1 526.2 198.4 519.6 183.1 515.4C 173.5 512.7 157.7 511.1 156.7 512.7z"/>
<path style="stroke:none; fill:#000000" d="M 28.3 515C 26.5 516.1 25 517.8 25 518.8C 25 521.9 41.4 548.4 45.6 552.2C 47.4 553.7 47.6 553.6 50.1 549.6L 52.7 545.3L 49 539.7C 46.9 536.6 44.4 531.9 43.4 529.3C 37.7 513.6 37.7 513.5 34.5 513.2C 32.8 513.1 30.1 513.8 28.3 515z"/>
<path style="stroke:none; fill:#000000" d="M 750.5 517C 742.8 519.2 718.1 527.2 695.5 534.8C 673 542.5 653.8 548.9 653 549.2C 652 549.5 652.8 550.3 655.4 551.5C 659.7 553.6 662.4 558.5 661.4 562.5C 661.1 563.9 659.4 566.2 657.7 567.6C 649.1 574.9 635.3 563.8 641.9 554.9C 643.1 553.3 643.7 552 643.3 552C 642.9 552 637.8 553.3 632 554.9C 622.7 557.4 621.8 557.8 623.8 558.9C 626.3 560.2 629 564.9 629 568C 629 571.6 626.2 575.7 622.5 577.5C 618.1 579.5 614.6 578.9 610.8 575.2C 607.3 571.9 606.9 565.6 610.1 561.6L 612.1 559L 610 559C 608.8 559 599.9 560.3 590.2 561.9C 580.4 563.5 567.4 565.4 561.2 566.1C 555 566.9 549.5 567.7 549 568C 548.4 568.4 549 571 550.4 574.6C 556.5 589.5 557.6 608.3 553.6 626C 549.9 642.1 542.3 665.6 537.9 674.4C 533.4 683.4 533.3 684.1 535.9 686.4C 539.7 689.8 547.3 686.2 545.1 682.1C 543.4 679.1 543.8 677.4 546.6 674.1C 550.1 669.9 555 669.8 559.1 673.9C 562.6 677.5 562.7 679.1 559.5 685.5C 556.2 692.2 556.3 693.6 560.3 694.9C 566.5 696.9 573.2 698.1 575.1 697.5C 577.9 696.6 577.5 693.7 573.3 684C 569.8 675.8 569.6 675 568.8 658.5C 567.9 639.8 568.2 634.4 571.1 623.2C 573.9 612.7 578.1 604.1 582.6 599.7C 590.3 592 616.7 580.9 634 578C 643.4 576.4 687.2 565.7 710.5 559.3C 744.5 550 772.3 542.1 776.9 540.4L 781.2 538.7L 780.5 530.9C 779.7 521.5 778.7 517.4 776.4 514.9C 773.8 512 766.4 512.6 750.5 517zM 764 520.5C 767.1 522.1 770 526.6 770 529.9C 770 531 768.8 533.2 767.4 534.9C 762.7 540.6 753.7 539.9 749.9 533.6C 747.2 529.1 747.5 526.3 751.4 522.4C 755.2 518.6 759.1 518 764 520.5zM 744.2 530.6C 749.3 535.6 747.5 543.7 740.6 546C 733 548.5 726.4 541.4 729 533.5C 731.3 526.5 738.4 525.2 744.2 530.6zM 715.4 538.1C 719.2 541.1 720.3 544.5 719 548.6C 717.5 553.1 714.5 555 709.2 555C 705.5 555 704.2 554.4 701.3 551.5C 698.1 548.3 697.8 547.5 698.3 544.2C 699.6 536.6 709.2 533.2 715.4 538.1zM 681.3 545.2C 686.7 548 687.7 554.5 683.4 557.9C 677.6 562.5 669.6 559.3 669.6 552.5C 669.6 546.2 675.8 542.2 681.3 545.2zM 582.8 567.4C 594.3 573.3 590.3 590 577.3 590C 573.5 590 572.3 589.5 569.4 586.6C 566.5 583.7 566 582.5 566 578.5C 566 572.8 567.2 570.5 571.3 568C 575.1 565.7 579.1 565.5 582.8 567.4z"/>
<path style="stroke:none; fill:#000000" d="M 320.5 516C 319.4 516.4 316.4 518.8 313.8 521.2C 308.2 526.4 307.3 530.7 311.2 533.4C 317.9 538.1 331 531.6 331 523.5C 331 518.8 324.8 514.4 320.5 516z"/>
<path style="stroke:none; fill:#000000" d="M 791.3 516C 786.7 517.9 785.7 523.4 789.3 527.6C 792.1 530.8 796.9 531.3 799.9 528.6C 803.7 525.2 802.8 518.1 798.4 516.1C 795.5 514.8 794.3 514.8 791.3 516z"/>
<path style="stroke:none; fill:#000000" d="M 819.1 518C 810.4 519.3 806.7 525.2 811.3 530.6L 813.7 533.4L 831.1 534.2C 853.9 535.2 867.5 536.6 878.5 539.2C 902.8 544.8 920.2 556.4 935.9 577.4C 953.7 601.3 961.9 618 967 640.5C 969.5 651.7 971.1 655.5 973.9 657C 976.5 658.3 980.1 658.2 982 656.7C 988.5 651.6 988.8 642 983 624.7C 967.9 579.7 934.8 543.6 894.9 528.6C 874.6 521 835.2 515.5 819.1 518z"/>
<path style="stroke:none; fill:#000000" d="M 451.5 519.4C 447.7 521.1 446 524 445.4 529.8C 444.5 538 449.6 544.6 457.8 545.7C 467.7 547 473.8 539.2 470.5 529.7C 468.8 524.7 466.4 522.1 461.5 519.9C 456.8 517.7 455.5 517.6 451.5 519.4z"/>
<path style="stroke:none; fill:#000000" d="M 486.8 519.7C 482.7 522.3 479.6 528.8 480.4 533.1C 481.9 541.4 488.1 546.2 497.3 546.2C 503.5 546.2 507 543.8 509 538.2C 510.3 534.4 510.2 533.7 508.4 529.3C 504.5 519.9 494 515.2 486.8 519.7z"/>
<path style="stroke:none; fill:#000000" d="M 1011 521.7C 1008.2 525.3 1008.9 530.2 1012.7 534.2C 1015 536.6 1016.1 537 1019.5 536.8L 1023.5 536.5L 1023.8 529.6C 1024.2 521.3 1022.7 519 1016.9 519C 1014 519 1012.7 519.6 1011 521.7z"/>
<path style="stroke:none; fill:#000000" d="M 145 521.4C 119.5 527.1 96.7 542.9 87 561.7C 83.1 569.3 85.3 568.2 93 558.9C 97.1 553.9 103.1 547.4 106.2 544.4C 115.3 536 134.5 527.5 134.5 531.8C 134.5 532.6 131.5 534.2 127.8 535.5C 115 540 107.3 545.8 98.4 557.8C 95.2 562 90.9 567.5 88.8 569.9C 82.4 577.3 85.5 575.8 94.3 567.4C 114 548.3 126.1 543.3 155 542.3C 171.5 541.7 183.3 542.8 191.6 545.6C 198.1 547.7 211.4 555.6 216.2 560.1C 220.5 564.1 221 567 217.9 570.1C 215.4 572.6 211.8 572 208 568.6C 203.1 564.1 200 562.7 194.5 562.6C 188.4 562.6 185.1 564.4 181.3 570C 178.5 574.1 178.4 579.1 181 584.5C 184 590.7 187.2 593.2 192.7 593.7C 198.6 594.3 203.5 591.4 206.6 585.5C 208.3 582.1 209.2 581.5 212.2 581.2C 216.6 580.8 219 583 219 587.3C 219 591.6 214.9 596.5 204.9 604.1L 196.9 610.1L 200 613C 203.6 616.3 203.9 619.6 200.9 623.4C 196.2 629.3 190 628.7 187.2 622.1L 185.5 618.2L 178.8 621.6C 154.6 633.8 140.8 636.6 119 634C 106.7 632.4 103.4 631.3 98.9 627.3C 93 622 90.8 617 90.9 609.3C 91 603 91 603 87.5 601.6C 84.8 600.5 84 599.5 84 597.6C 84 592.5 89.8 589.8 94.9 592.4C 98 594 98 594 102 590C 106.6 585.4 106.7 585 104 585C 101.7 585 99.3 581.7 98.4 577.3L 97.8 574.2L 90.3 581.6C 84 587.9 82.4 589 79.8 588.7C 77.1 588.5 76.6 588.9 75.4 592C 70.7 604.8 79.5 652.2 90.7 674.3C 93.8 680.6 100.2 687.4 105.9 690.8C 110.1 693.3 111.3 693.5 121 693.4C 139 693.2 168.5 687.9 187.9 681.3C 199.2 677.5 215.3 669.7 222.4 664.6C 230.2 659 237.5 651.2 242.3 643.1C 246.1 636.6 246.7 634.6 245 633.5C 243.2 632.4 244 628.4 246.4 626.1C 249.7 623 253.3 623.6 254 627.4L 254.5 630.3L 259.8 624.6C 270.9 612.4 275 602 275.7 584C 276.3 570.2 275.2 563.7 271.9 562C 269.2 560.5 253.7 563.4 248.5 566.3C 241.6 570.2 240.6 573.1 240.5 590.9L 240.5 606.5L 236.1 619.3C 229.4 638.8 222.3 648.3 206.3 659.1C 197.9 664.8 193.3 666.1 190.7 663.5C 186.8 659.7 188.7 657.3 202.4 648.5C 213.8 641.2 222.4 633.1 224.6 627.5C 225.9 623.9 226 622.1 225.1 616.2C 223.1 603.2 223.6 595.8 227.5 583.9C 231.3 572.3 231.6 569.7 229.9 565.4C 228.1 560.6 217.9 548.1 209 539.8C 199.2 530.6 186.9 523.9 175.5 521.5C 167.2 519.8 152.7 519.7 145 521.4zM 267.2 574.7C 268.2 575.6 269 577.2 269 578.3C 269 580.8 266.2 584 264.1 584C 261.3 584 258 581 258 578.5C 258 573.6 263.5 571.3 267.2 574.7zM 265 593C 267.4 595.4 267.5 597.7 265.3 600.2C 263.3 602.4 260.2 602.5 257.8 600.3C 255.4 598.1 255.5 596.4 258.5 593.5C 261.4 590.5 262.4 590.4 265 593zM 219.2 603.7C 221.3 605.6 221.6 610.8 219.6 613.5C 216.7 617.5 208 614.5 208 609.4C 208 607 213.2 602 215.7 602C 216.6 602 218.2 602.7 219.2 603.7zM 261.3 609.2C 262.1 610.4 262 611.6 261.2 613.5C 260.2 615.7 259.4 616.1 256.8 615.8C 252.9 615.4 252.1 613.1 254.5 609.4C 256.3 606.6 259.6 606.5 261.3 609.2zM 219 623C 221.6 625.6 221.5 627.2 218.5 630.8C 212.6 637.8 202.8 634.7 206.1 626.9C 208.3 621.5 215.4 619.4 219 623zM 199.5 635.5C 203.3 639.2 202.8 643.4 198.1 648.1C 193.6 652.6 189.8 653.2 185.6 649.9C 183.7 648.4 183 646.9 183 644.4C 183 635.4 193.7 629.6 199.5 635.5zM 103.7 639.9C 105 641.8 106 643.8 106 644.4C 105.9 648.9 97.8 650 93.6 646.1C 90.5 643.1 90.3 640.7 93.1 637.9C 96.2 634.8 100.9 635.7 103.7 639.9zM 172.8 638.6C 176 640.8 175.6 644.6 171.6 648.6C 166 654.2 158 652.6 158 645.8C 158 639.1 167.2 634.6 172.8 638.6zM 121.3 640.2C 126.6 643 127.6 648.6 123.5 652.4L 121 654.8L 124.3 655.4C 126.1 655.7 129.2 657.4 131.3 659.1C 138.4 665 138.6 674.7 131.6 680.8C 120.1 690.9 102.5 679.6 106.9 665C 107.9 661.5 112.2 656.8 115.2 655.8C 116 655.5 115.3 654.3 113.3 652.4C 108.8 648.3 108.1 644.8 111.4 641.6C 114.1 638.8 117.8 638.3 121.3 640.2zM 140 643.5C 143.4 645.3 144.7 648.8 143.1 651.9C 139.7 658.2 130 656.1 130 649.1C 130 645.9 132.6 643.2 136.8 642.1C 137 642 138.4 642.7 140 643.5zM 168.1 657.3C 177.4 663.5 173.5 677 162.4 677C 156 677 152 673 152 666.7C 152 661.7 153.8 658.9 158.5 656.5C 162.5 654.5 164.1 654.6 168.1 657.3z"/>
<path style="stroke:none; fill:#000000" d="M 221.7 521.7C 220.3 523 221.1 525.7 223.6 528.1C 226.1 530.5 226.2 530.5 227.6 528.6C 229.3 526.2 229.4 523.8 227.8 522.2C 226.5 520.9 222.8 520.6 221.7 521.7z"/>
<path style="stroke:none; fill:#000000" d="M 0.1 529C 0 533.5 0.3 535 1 534C 2.2 532.2 2.2 527.2 1 524.5C 0.4 523.1 0.1 524.5 0.1 529z"/>
<path style="stroke:none; fill:#000000" d="M 273 525.7C 268.8 528.6 267.1 531.3 267 535.1C 267 539.5 270.3 544.7 274.8 547.3C 277.8 549 278.6 549.1 282.3 548C 287 546.6 292.6 541.5 293.5 537.8C 294.4 534.1 291.6 528.4 287.8 526C 283.7 523.5 276.4 523.3 273 525.7z"/>
<path style="stroke:none; fill:#000000" d="M 548 531.9L 539.8 540.1L 540.2 545C 540.5 548.1 541.7 551.5 543.4 554C 545.8 557.6 546.4 558 550.1 558C 553.6 558 554.9 557.4 558.1 554.1C 560.7 551.5 562 549.3 562 547.5C 562 544.4 558.2 527.3 557 525.1C 556.4 524 554.2 525.7 548 531.9zM 555.6 540.5C 559.5 546.4 552.7 554.1 547.8 549.3C 545.4 546.8 545.8 543.7 549 540.2C 551.7 537.3 553.6 537.4 555.6 540.5z"/>
<path style="stroke:none; fill:#000000" d="M 961 525.5C 954 528.7 948 536.7 948 543C 948 550.3 954.4 557.9 962.1 560C 974.7 563.4 988.7 551.3 986.4 538.9C 985.5 534.2 982.4 528.9 979.2 526.5C 975.7 523.9 965.8 523.4 961 525.5z"/>
<path style="stroke:none; fill:#000000" d="M 10.8 534C 3.8 539.5 9.5 552 19 552C 23.3 552 26.6 549 27.6 544.3C 29.3 535.6 17.7 528.5 10.8 534z"/>
<path style="stroke:none; fill:#000000" d="M 230.2 534.2C 228.3 536.1 228.8 538.1 233.4 545.5C 238.2 553.4 240.3 554.4 240.8 548.8C 241.6 538.8 234.9 529.5 230.2 534.2z"/>
<path style="stroke:none; fill:#000000" d="M 999.5 536.7C 996.3 537.3 991.6 541.5 992.4 542.9C 992.8 543.5 997.1 546 1002 548.5C 1006.8 550.9 1013.7 555.2 1017.4 557.9L 1024 562.9L 1024 556L 1024 549.2L 1018.8 544.7C 1012.9 539.7 1006 535.9 1003.3 536.1C 1002.3 536.2 1000.6 536.5 999.5 536.7z"/>
<path style="stroke:none; fill:#000000" d="M 317.5 541.5C 317 541.7 314.4 542.1 311.9 542.5C 303.7 543.6 303.5 543.9 305.6 556.6C 308.1 571.6 308.1 595.6 305.6 607C 304.7 611.7 300.9 624.7 297.3 636C 288.4 663.7 286.2 671.9 284.8 682.7C 283 697.5 284.1 698.3 311.7 703.1C 321.5 704.7 333.8 707.2 339 708.4C 355 712.4 354.9 712.4 356.1 709.2C 357.2 706.3 358.9 658.6 359.1 627C 359.1 605.9 358.8 603.1 352.4 579.5C 348.2 563.6 345.7 557.1 341.3 550.3C 336.5 543.1 332.9 541 324.9 541.1C 321.4 541.1 318.1 541.3 317.5 541.5zM 337.4 558.7C 342.3 561 344.6 566 343.1 570.9C 340.8 578.9 332 583.1 325.2 579.6C 316.9 575.3 317.1 562.7 325.4 558.6C 329.4 556.6 333.1 556.6 337.4 558.7zM 339.7 595.1C 351.1 600.6 353.3 614 344.1 622.3C 337.3 628.4 326.4 628.6 320.4 622.6C 313.9 616.1 313.7 607.1 319.7 599.9C 325.7 592.9 331.9 591.3 339.7 595.1zM 337.4 638.4C 350.2 645.9 350.8 668.8 338.8 682.5C 333.3 688.7 326.4 692 318.7 692C 307.8 692 300 686.1 297.4 675.9C 293.9 662.3 304.4 641.3 317.3 636.6C 323.3 634.4 331.9 635.1 337.4 638.4z"/>
<path style="stroke:none; fill:#000000" d="M 319.5 650.2C 313.6 653.4 308 662.4 308 668.7C 308 674.6 314.9 679.6 321 678C 326.6 676.7 333.3 660.7 331 654.5C 329.1 649.4 324.2 647.6 319.5 650.2z"/>
<path style="stroke:none; fill:#000000" d="M 833.5 543.7C 827.1 545.3 824.8 553.1 829.5 556.9C 833.6 560 837.5 560.5 841.8 558.2C 847.5 555.3 848.8 548.2 844.2 545.3C 841.8 543.9 836.2 543 833.5 543.7z"/>
<path style="stroke:none; fill:#000000" d="M 253.2 546.5C 247.4 549 246.4 556 251.8 556C 254.9 556 260.8 552.7 261.6 550.5C 263 546.9 258 544.6 253.2 546.5z"/>
<path style="stroke:none; fill:#000000" d="M 786.2 549C 782.3 551.4 779 556.5 779 560.1C 779 566.3 786.2 570.6 795.2 569.8C 801.9 569.1 806 565.2 806.7 558.6C 807.2 554.4 807 553.8 803.7 550.5C 800.6 547.4 799.6 547 794.9 547C 791.3 547 788.4 547.7 786.2 549z"/>
<path style="stroke:none; fill:#000000" d="M 0 556.5C 0 563.1 0.3 563.8 4.4 569.8C 13.8 583.2 17 596.8 17 622.9L 17 639.5L 13.4 645.3C 9.3 651.9 9.7 653.2 16 655.1C 21.4 656.7 26.4 655.5 29.4 651.9C 32.4 648.4 32.6 646.4 30.4 643.9C 29.1 642.5 28.3 642.4 25.4 643.3C 23.6 643.9 21.7 644 21.3 643.7C 21 643.3 22.1 638.4 23.9 632.7C 29 616.2 28 600.2 20.8 581.7C 17.7 573.8 9.3 560.2 3 553L 0 549.6L 0 556.5z"/>
<path style="stroke:none; fill:#000000" d="M 143 552.1C 134.1 552.8 132.9 553.2 121.5 558.9C 114.9 562.2 108.4 565.8 107.1 566.8L 104.8 568.7L 108.3 570.8C 110.3 571.9 112.8 574.7 113.9 576.8L 115.9 580.8L 123.2 578.5C 127.2 577.2 135.8 575.2 142.3 574L 154.1 571.8L 150.6 569.3C 148.6 568 147 566.4 147 565.8C 147 565.1 145.6 566.1 143.9 567.8C 139.7 572.1 135.2 572.4 131.3 568.7C 128.5 566.2 128.4 563.1 131 559.8C 133.6 556.4 137.3 555.8 141.7 558.1C 145.3 559.9 145.3 559.9 148.2 557.5C 151.9 554.4 158.8 554 161.3 556.8C 164 559.8 163.5 565.6 160.3 568.7L 157.5 571.3L 160.5 570.6C 164.9 569.5 168 567.3 169.8 563.7C 170.8 561.9 173.3 558.6 175.6 556.3C 177.9 553.9 179.5 551.8 179.2 551.5C 178.4 550.8 154.3 551.1 143 552.1z"/>
<path style="stroke:none; fill:#000000" d="M 289.3 553.5C 285.6 555.1 285.4 555.9 284.5 571.5C 282.7 601.7 279.2 618.7 271.6 633.7C 264.1 648.7 256 678.7 256 691.5C 256 698.4 258.5 700.6 265.4 699.6C 271.6 698.6 272.6 697 273.4 686.5C 274.6 671.4 277.8 657.5 285.1 636.1C 292.5 614.1 294.5 606.1 295.5 593.5C 296.2 585.6 294.4 555.6 293.2 553.3C 292.7 552.5 291.7 552.5 289.3 553.5z"/>
<path style="stroke:none; fill:#000000" d="M 750.5 556C 745.6 557.8 743.4 563.5 745.5 568.6C 749.4 577.9 762 574.6 760.7 564.7C 759.9 558.5 754.9 554.4 750.5 556z"/>
<path style="stroke:none; fill:#000000" d="M 29.9 558.5C 24.3 561.5 22.3 568.9 25.5 575C 27.4 578.6 29.8 580 34.5 580C 38.9 580 42.4 576.9 44 571.3C 45 567.9 45 566.7 43.6 563.8C 41.9 560.2 37.5 557 34.3 557C 33.3 557.1 31.3 557.7 29.9 558.5z"/>
<path style="stroke:none; fill:#000000" d="M 854.3 562C 831.8 567.9 817.1 579.5 803.5 602C 791.7 621.6 788.4 632.2 789.2 647.2C 789.8 656.9 792.4 664.3 798.3 673.2C 807.2 686.8 821.7 697.9 835.4 701.7C 840.1 703 865.4 705.3 876.2 705.4C 881.6 705.5 883 704.5 890.6 694.5C 893.6 690.6 898.6 684.5 901.7 680.8C 908.4 673.1 913.1 665.7 916.9 656.8C 919.2 651.3 919.5 649.1 919.5 639.5C 919.5 630.1 919.2 627.7 917.1 623C 910.4 607.9 900 596.6 886.5 589.9C 870.3 582 854.5 582.1 840.1 590.2C 831.4 595.1 819.2 608 814.5 617.4C 810.6 625.1 810.5 625.5 810.5 635.9C 810.5 645.7 810.7 647 813.5 652.5C 819.7 664.8 834.3 675.5 849.2 678.6C 860.8 681 873.2 678.3 884 671C 896.1 662.8 902.1 648.9 899.9 634.6C 898.7 627.4 897 624.1 891.7 618.2C 883.9 609.7 872.4 606.8 863.5 610.9C 851.9 616.3 843.1 635 847.3 645.2C 850.5 652.8 860 655.4 866.1 650.3C 874.3 643.4 874 630 865.6 631.3C 859.5 632.2 857.4 628.9 860.5 623.1C 863.1 618 867.6 615 872.8 615C 877 615 877.8 615.4 882 619.8C 894.9 633.2 891.1 653.4 874.2 661.7C 869.1 664.2 867.4 664.5 858.5 664.5C 850 664.5 847.9 664.2 844.3 662.2C 838.9 659.4 833.6 654.1 830.8 648.7C 827.5 642.5 827.6 630.4 830.9 623.6C 836.9 611.4 854.7 599.5 868.7 598.3C 885 597 899.3 605.8 906.8 621.8C 908.9 626.4 909.5 629.3 909.8 636.7C 910.4 651.3 906 663.2 896.6 672.4C 890.2 678.8 883.9 682.2 872.1 685.6C 864 687.9 861.6 688.2 852.2 687.8C 839.4 687.3 832.7 685.1 823.7 678.7C 808.2 667.5 799.8 653 799.8 637.4C 799.8 611.9 819.9 586.2 847 576.9C 856.8 573.6 871.9 573.7 881.8 577.2C 913.9 588.6 935.4 620.4 929.7 648.1C 927.2 660.8 917.8 678 905.8 692.1C 899.1 700 898 702 898 706C 898 710.3 900.7 714.7 905 717.3C 908 719.2 909.9 719.5 919.1 719.5C 929.2 719.5 929.9 719.4 937.1 715.8C 945.2 711.8 953.6 704.2 957.7 697.1C 961.4 691 963 683 962.9 672C 962.8 661 962.1 657.6 959.8 657.2C 957.2 656.7 955.3 660.9 954.7 668.5C 953.2 687 943.2 701.6 929.3 705.6C 923.3 707.3 919.3 706.8 915.5 703.9C 910.9 700.2 912 696.9 920.9 687.4C 925.3 682.8 930.5 676.4 932.5 673.1C 944.2 653.8 945.8 625.5 936.3 606.6C 928 590.2 908.9 571.6 893.6 565C 881.2 559.7 867.2 558.6 854.3 562z"/>
<path style="stroke:none; fill:#000000" d="M 992.5 562.3C 984.3 566.2 979.2 573.4 978.3 582.6C 977.5 589.9 979.9 595.9 985.5 600.8C 997.9 611.7 1014.5 607.4 1020.5 591.6C 1025.6 578.2 1016.2 561.9 1002.5 560.4C 998.5 560 996.5 560.4 992.5 562.3z"/>
<path style="stroke:none; fill:#000000" d="M 717.4 565.4C 712 567.8 710.8 576.2 715.2 580.9C 719.2 585.2 725.6 582.5 728 575.3C 729.4 571.4 727.2 566.4 723.4 565C 722 564.4 720.8 564 720.7 564C 720.6 564.1 719.1 564.7 717.4 565.4z"/>
<path style="stroke:none; fill:#000000" d="M 779.7 579.1C 777.4 580.5 774.1 587.6 774 591.2C 774 592.8 775.2 595.3 776.8 597.1C 779.1 599.6 780.6 600.3 784.6 600.7C 790.8 601.2 795.1 598.8 798 593C 800.8 587.5 799.4 584.4 792.1 580.7C 786.3 577.8 782.7 577.4 779.7 579.1z"/>
<path style="stroke:none; fill:#000000" d="M 689.3 582.4C 684.6 584.5 682.5 589.4 683.9 594.6C 686.3 603.6 695.1 607.1 701 601.5C 704.5 598.1 705.5 594.1 704 589.7C 701.8 582.8 695.4 579.7 689.3 582.4z"/>
<path style="stroke:none; fill:#000000" d="M 745.4 586C 738.7 589.8 736 593.3 736 598C 736 606.4 746 609.5 756.6 604.6C 764.7 600.8 768.4 594.7 766 588.9C 763.3 582.4 753.9 581.1 745.4 586z"/>
<path style="stroke:none; fill:#000000" d="M 154.6 587.1C 148 592.3 145.5 604.6 149.8 610.7C 152.6 614.6 159.6 617.5 164.3 616.6C 168 615.9 173.3 611 174.9 606.7C 176.5 602.6 176.2 595.4 174.5 592C 171.3 585.7 159.9 582.9 154.6 587.1z"/>
<path style="stroke:none; fill:#000000" d="M 447.7 591.1C 431.8 593.4 422 603.1 418.4 619.9C 417.7 623.5 417 628.5 417 631C 417 637.6 419.5 648 422.5 654.4C 432.9 676.5 463.3 683.3 491.9 670C 505.4 663.7 511.1 656.3 516.9 637.3C 520.4 625.9 520.6 623.8 518.5 622C 515.5 619.5 513.6 621.3 510.5 630.1C 508.8 634.8 506.4 640.3 505.2 642.2C 498.7 652.7 485.2 659 469.2 659.1C 459.2 659.1 452.6 656.5 445.1 649.5C 438.4 643.2 435.6 637.3 435.7 629.5C 435.8 618.1 443.1 605.1 451.8 600.9C 462.5 595.6 476.2 599.9 481.6 610.2C 484.9 616.5 482.7 625.7 476.9 629.8C 474 631.8 464.9 632 462.6 630.1C 459.8 627.8 459.8 629.5 462.6 632.1C 464.8 634.1 466.2 634.5 471.5 634.5C 477.4 634.5 478.2 634.2 481.4 631.1C 485.4 627.2 488 620.6 488 614.4C 488 607 493 606 495.1 613.1C 496.1 616.2 496 618.2 494.6 623.7C 492.7 631.7 489.1 637.3 483.1 641.5C 479.2 644.2 478.1 644.5 470.6 644.5C 463.1 644.5 462 644.2 458.7 641.7C 453.6 637.8 451.7 633.7 452.3 628.1C 452.7 624.6 453.5 622.9 456 620.7C 459.3 617.8 462.5 617.5 468.7 619.5C 473.9 621.2 472.2 613.2 466.9 611C 458.5 607.5 446.1 618.2 446 629C 446 637.1 453.6 647.5 461.6 650.6C 467.7 652.9 478.9 652.1 485.5 649C 504 640 511.2 614.3 498.4 603C 493.3 598.6 481.7 593.1 474.1 591.4C 466.9 589.9 456.7 589.8 447.7 591.1zM 434.6 642.1C 439.2 650.6 445.1 656.1 452.9 659.2C 457.9 661.2 460.2 661.4 476.2 661.5C 485.9 661.5 493.6 661.8 493.4 662.1C 493.2 662.5 489.8 663.6 485.8 664.6C 480.6 665.9 474.8 666.5 465.5 666.5C 453.5 666.5 452.1 666.3 446.9 663.9C 440.1 660.7 435 655.8 432 649.5C 429.6 644.4 428.1 635 429.7 635C 430.2 635 432.4 638.2 434.6 642.1z"/>
<path style="stroke:none; fill:#000000" d="M 110.5 592.9C 101.3 598.4 98.3 608.2 102.9 616.9C 105.6 621.8 114.5 623.3 121.6 620.1C 132.8 615 134.8 600.5 125.4 593.1C 122 590.4 114.7 590.3 110.5 592.9z"/>
<path style="stroke:none; fill:#000000" d="M 624 594.2C 617.9 598.4 617.5 605.5 623.3 609C 628.1 612 632.6 611.6 636.1 607.9C 642.5 601 640.3 592.8 631.9 592.2C 628.6 592 626.6 592.5 624 594.2z"/>
<path style="stroke:none; fill:#000000" d="M 39.6 596.6C 37.2 598.9 37.6 605.6 41 620.4C 45.7 640.3 45.2 639.5 53.2 644.7C 60.8 649.7 66.6 656.3 71 664.9C 74.3 671.5 77.5 674.9 79.1 673.3C 79.8 672.6 79 670.3 76.6 665.9C 70.9 655.2 69 647.4 67.6 628C 66.3 608.7 65.5 606.2 59.5 601.3C 56 598.4 47.2 595 43.2 595C 42.1 595 40.4 595.7 39.6 596.6zM 55.8 625.2C 58.9 628.3 55.4 634.5 50.8 633.8C 49.1 633.6 48.4 632.8 48.2 630.7C 47.6 625.8 52.7 622.1 55.8 625.2z"/>
<path style="stroke:none; fill:#000000" d="M 711.9 602.9C 707.9 607 707.9 611.8 712.1 615.9C 716.3 620.1 720.2 620 724.6 615.6C 731.3 608.9 728.2 600 719.1 600C 715.7 600 714.2 600.6 711.9 602.9z"/>
<path style="stroke:none; fill:#000000" d="M 766.9 610C 764.4 611.3 762.5 613.5 761 616.6C 759 620.6 758.9 621.6 759.9 625.1C 762.1 632.3 770.9 635.2 777.8 631C 788.9 624.2 786.8 607.9 774.8 608C 772.4 608.1 768.9 609 766.9 610z"/>
<path style="stroke:none; fill:#000000" d="M 1009.6 612C 1003.4 613.9 999 620.3 999 627.5C 999 635.3 1003.3 641 1010.6 642.9C 1014.7 644 1015.6 643.9 1021.3 641.8L 1024 640.8L 1024 627.3L 1024 613.9L 1020.5 612.4C 1016.7 610.8 1013.9 610.7 1009.6 612z"/>
<path style="stroke:none; fill:#000000" d="M 602.9 614.9C 597.7 620.1 600.1 629.2 607.5 632.7C 610.7 634.2 611.5 634.3 615.3 633C 619.8 631.4 624 626.3 624 622.4C 624 616 618.8 612 610.5 612C 606.7 612 605.3 612.5 602.9 614.9z"/>
<path style="stroke:none; fill:#000000" d="M 662 613C 645.5 615.9 630.9 628.1 621.9 646.6C 611.1 668.9 611.9 684.3 624.7 698.9C 645.1 722.2 675 724.9 694.6 705.3C 704 695.9 708.7 682.3 707.8 666.8C 707.2 656.6 704.2 648.6 699.4 643.7C 697.3 641.6 696 639.4 696.2 638.3C 697.3 632.4 704.6 641.8 708.5 654.1C 714.6 673.7 709.4 694.6 694.5 709.6C 683.8 720.4 673.1 725 658.5 725C 644.2 725 629.5 719.9 614.5 709.6C 607.8 705.1 603 704.4 598.5 707.4C 594.7 709.9 595.3 713.3 600.4 718.8C 609.4 728.4 632.7 739.5 650 742.6C 666.9 745.5 686.7 742.9 696.9 736.4C 709.7 728.2 720.5 715.7 724.6 704.5C 730.6 687.9 729.4 657 722.1 640.4C 718.1 631.4 707.2 623 699.4 623C 697.7 623 694.2 621.6 691.4 619.8C 682.3 614 671.2 611.4 662 613zM 678.9 641.2C 691.6 647.4 699.7 663.5 697 677.3C 692.9 698.5 674.2 711.6 657 705.5C 642.8 700.5 634.2 686.1 635.2 668.9C 635.4 664.4 636.3 659.9 637.5 657.5C 640.4 651.6 647.2 645.3 654.3 641.9C 662.3 638.1 672 637.8 678.9 641.2z"/>
<path style="stroke:none; fill:#000000" d="M 656.5 651.4C 644.8 656.9 640.2 668.4 644.6 681.3C 646.5 686.8 652.7 694.1 657.4 696.4C 673.2 703.9 691.5 683.6 685.8 664.8C 684.5 660.3 678.1 652.6 673.9 650.5C 669.7 648.3 662.3 648.7 656.5 651.4zM 673 661.8C 678.7 666 680.6 674.6 677.1 681C 670.4 693.7 653.2 690.5 650.5 676C 650.1 673.4 650.5 671.4 652.2 668C 656.4 659.8 666.3 656.9 673 661.8z"/>
<path style="stroke:none; fill:#000000" d="M 0 626.8C 0 641.2 0.7 642.4 4.8 635.1C 8.5 628.5 7.4 620.4 2.1 615.6L 0 613.7L 0 626.8z"/>
<path style="stroke:none; fill:#000000" d="M 733.7 619.9C 728 623.6 726.1 629 728.5 634.7C 730.6 639.7 732.6 641.7 736.7 643.1C 739.5 644 741 643.9 744.7 642.5C 755.6 638.3 756 623.8 745.4 619.4C 740.9 617.5 737 617.7 733.7 619.9z"/>
<path style="stroke:none; fill:#000000" d="M 253.2 640.5C 252 641.4 248.1 646.5 244.5 651.9C 237.3 662.9 232.2 667.9 222.2 673.8C 211.8 679.9 200.6 684.6 178.2 692.2C 152.9 700.7 141.4 706.1 133.7 713.1C 128.5 717.7 127 720.1 120.7 732.9C 114.6 745.6 112.7 748.5 106.3 755.2C 93.1 769.1 88.4 785.3 92.5 802.7C 93.3 806.1 96 820.5 98.5 834.7C 104.6 869.7 109.9 888.1 117.6 901.8C 124.4 913.7 131.5 924.7 133.9 927.3C 140 933.9 155.2 939.1 168.5 939.1C 186 939 208 930.6 208 923.9C 208 920.7 205.8 920.7 198.7 924C 188.9 928.4 181.3 929.9 164.4 930.6C 147.1 931.4 147.9 931.8 146.9 922.4C 146.4 917.1 145.4 914.8 139.5 905.4C 126.3 884.5 116.1 860 112.9 842C 112.2 837.9 111.6 828.9 111.6 822C 111.9 787 127.1 752.5 153.3 727.3C 170.6 710.7 188.7 699.6 204 696.4C 209.6 695.2 214.2 695 222.2 695.5C 231.6 696 233.3 695.9 236.7 694.1C 241.5 691.7 242.8 688.9 247.5 671.9C 249.6 664.5 252.7 654.4 254.5 649.3C 258.3 638.8 258.1 637.1 253.2 640.5z"/>
<path style="stroke:none; fill:#000000" d="M 582.5 641.9C 578 643.9 575.5 647.7 576.4 651.2C 578.2 658.4 584.1 662.9 593.7 664.5C 607.9 666.8 613.7 647.9 600.7 641.9C 595.4 639.5 587.7 639.5 582.5 641.9z"/>
<path style="stroke:none; fill:#000000" d="M 765.5 650C 761.8 653.8 761.3 660.3 764.5 662.6C 769.7 666.4 774.6 665.2 778.7 659.1C 781.6 654.8 781.6 653.8 778.4 650.1C 774.8 645.8 769.6 645.8 765.5 650z"/>
<path style="stroke:none; fill:#000000" d="M 740.7 652.1C 739.8 652.6 738.3 654.4 737.5 656C 734 662.7 737.2 670 743.6 670C 748.6 670 750.5 668.7 752.4 664C 754.5 658.7 754.4 656.8 751.9 653.6C 750.3 651.6 749 651 746.2 651C 744.2 651 741.7 651.5 740.7 652.1z"/>
<path style="stroke:none; fill:#000000" d="M 45.1 658.5C 39.8 664.6 41.3 669.7 49.6 674.6C 55.5 678.1 61.6 678.2 64.2 675C 67.3 671.2 66.5 668.6 59.9 661.5C 52.5 653.6 49.9 653.1 45.1 658.5z"/>
<path style="stroke:none; fill:#000000" d="M 1008.9 662C 1006.4 664.4 1005.9 665.7 1006.2 668.7C 1006.4 671.7 1007.2 672.9 1009.9 674.7C 1014.1 677.5 1016.5 677.6 1020.8 675C 1023.7 673.2 1024 672.6 1024 668C 1024 661.6 1021.7 659 1015.9 659C 1012.7 659 1011.2 659.6 1008.9 662z"/>
<path style="stroke:none; fill:#000000" d="M 977.2 661.8C 973.7 662.9 971.4 675 974.2 677.8C 977.6 681.2 983.3 677.1 984.6 670.4C 985.6 665.1 981.5 660.3 977.2 661.8z"/>
<path style="stroke:none; fill:#000000" d="M 0.2 667.5C 0.2 669.1 0.4 669.7 0.7 668.7C 0.9 667.8 0.9 666.4 0.7 665.7C 0.4 665.1 0.2 665.8 0.2 667.5z"/>
<path style="stroke:none; fill:#000000" d="M 21 665.7C 18.2 666.7 14 671.3 12.9 674.7C 12.1 677.1 12.1 678.9 13 681.4C 14.3 685.3 17.7 688.8 18.9 687.4C 28.8 676 31.2 669.7 26.8 666.6C 24.5 664.9 23.5 664.8 21 665.7z"/>
<path style="stroke:none; fill:#000000" d="M 773.5 675.5C 772.1 676.8 771 679.1 771 680.5C 771 684 776 689 779.5 689C 783.2 689 788 684 788 680.3C 788 673.5 778.5 670.4 773.5 675.5z"/>
<path style="stroke:none; fill:#000000" d="M 590.7 678C 587.8 680.3 586 685.4 586.7 689.3C 587.5 693.3 591.3 696.2 596 696.4C 606.1 696.6 609.8 682.1 600.9 677.4C 597 675.4 593.7 675.6 590.7 678z"/>
<path style="stroke:none; fill:#000000" d="M 32 679.7C 26.7 681.6 21.9 690.4 21.7 698.5C 21.5 708.6 27.5 714.9 39.4 717.1C 46.6 718.4 50.2 717.6 54.5 713.9C 64.9 704.7 62.2 688.6 49.1 681.8C 43.9 679.1 36.3 678.1 32 679.7zM 43.1 694.9C 46.4 698.2 46.7 700.5 44.4 703.8C 42.9 706 39 706.7 35.5 705.4C 33.3 704.5 30.9 699.5 31.7 697.3C 33.7 691.4 38.6 690.4 43.1 694.9z"/>
<path style="stroke:none; fill:#000000" d="M 412.2 680.9C 411.4 681.4 411 683 411.2 684.6C 411.4 686.7 412.3 687.7 414.3 688.4C 418.1 689.8 419.2 688.4 417.9 683.7C 416.9 680 415 679.1 412.2 680.9z"/>
<path style="stroke:none; fill:#000000" d="M 739.9 683.9C 734.3 689.5 736.8 697.8 744.6 699.4C 754.1 701.4 761.2 690.1 754.5 683.5C 750.8 679.8 743.9 680 739.9 683.9z"/>
<path style="stroke:none; fill:#000000" d="M 68.7 682.6C 68.3 683 68 687.5 68 692.6C 68 700.2 67.5 703.2 65.5 708.7C 62.5 716.7 62.7 717 72.1 717C 77.9 717 79.1 716.7 81.3 714.5C 82.6 713.1 84.3 709.9 84.9 707.3C 85.6 704.7 87.5 701.1 89.1 699.2C 93 694.8 92.7 693.1 86.1 683.1C 85.3 681.9 84.9 681.9 83.6 682.9C 82.1 684.2 77.8 684 72 682.5C 70.6 682.2 69.1 682.2 68.7 682.6zM 79.8 695.2C 81.5 696.9 81.3 702.5 79.6 704C 78.8 704.6 77.1 705 75.8 704.8C 74 704.6 73.4 703.8 73.2 700.9C 72.8 695.6 76.7 692.1 79.8 695.2z"/>
<path style="stroke:none; fill:#000000" d="M 1001.4 686.9C 996 690.2 993.7 694.4 994.2 700.1C 995 707.6 1001.1 713 1008.9 713C 1014.7 713 1020 704.7 1020 695.7C 1020 693.1 1019.1 691.1 1016.9 688.5C 1014.2 685.4 1013.2 685 1009.1 685C 1006.3 685 1003.3 685.8 1001.4 686.9z"/>
<path style="stroke:none; fill:#000000" d="M 974.3 689.2C 973.7 689.9 972.9 692.3 972.6 694.5C 971.5 700.4 967.7 708 963.9 711.8C 959.2 716.6 954.3 719.2 938.5 725.5C 930.8 728.5 920.8 733.3 916.3 736.1C 907.1 741.7 906.9 741.6 901 735.5C 892.1 726.1 880.4 719 869.8 716.5C 862 714.6 830.8 712.7 815.9 713.2C 806.3 713.5 804.6 713.8 803.4 715.4C 802.6 716.5 802 718.3 802 719.3C 802 721.2 802.6 721.2 817.3 720.6C 838 719.7 859.6 721.1 868 724C 881.1 728.4 893.8 738.3 903.4 751.7C 905.5 754.6 907.4 757 907.6 757C 907.8 757 909.1 754.7 910.5 752C 913.4 746.2 920.2 740.8 927 738.8C 933.6 737 946.5 737.2 952.8 739.4C 959.8 741.8 969.5 748.4 972.5 752.8C 975.2 756.7 975.8 762.8 973.8 764.8C 971.4 767.2 967.8 766.1 963.8 762C 961.7 759.7 960 757.1 960 756.2C 960 750.7 952.6 747.4 938 746.3C 928.6 745.7 918.4 747.8 917.3 750.6C 917 751.5 919.1 755.6 922.3 760.4C 929.5 771.3 933.7 779.6 935.6 787.1C 937.3 793.8 936.9 798 934 804.8L 932.1 809.1L 934.8 807.1C 936.3 806.1 943.1 800.2 950 794C 956.9 787.9 964 781.7 965.7 780.3C 968.8 777.9 972 777.7 972 779.9C 972 780.4 966.3 785.6 959.3 791.4C 952.2 797.2 943.7 804.3 940.3 807.2C 936.9 810.1 929.4 815.2 923.6 818.4C 912.5 824.6 907.2 829.2 895.6 842.4C 886.7 852.5 879.6 857.7 864.6 865C 851 871.7 846 875.4 841.9 881.9C 837.5 888.8 837.9 891.4 844.3 895.3C 852.1 900.2 854.5 901 861.4 901C 866.6 901 868 900.6 869.8 898.7C 871.1 897.4 872 895.1 872 893.3C 872 888.8 873.9 884.3 876.5 882.6C 879.4 880.7 880.1 880.6 882.4 882.3C 884.1 883.6 884.1 883.8 882.1 887.8C 880.2 891.5 880.1 892.6 881 896C 882 899.9 884.1 901.2 885.5 898.9C 885.9 898.3 886.6 895 887 891.4C 887.6 886.4 888.6 884 891.5 880C 897.4 871.9 915.6 857.9 942 841.1C 982 815.6 997.8 796.9 1013.5 757.1C 1019.8 741.1 1022.9 730.1 1022.2 726.4C 1021.2 721.2 1014.2 720.8 1011.6 725.8C 1010.9 727.3 1009.7 731.2 1009 734.5C 1006.8 745.1 1001.4 763.3 998 771.3C 988.5 794.1 969 812.3 932 833C 919.6 840 914.3 843.5 909.7 848.3C 905 852.9 900.7 853.2 900.2 848.9C 899.7 844.4 912.1 834.2 939.2 816.9C 968.7 798 978.1 789.3 987 772.7C 995.2 757.5 1000.5 736.8 998.1 729C 994.8 717.8 985.6 718.5 973.7 730.8C 968 736.8 965.5 737.5 956.8 735.7C 952.8 734.8 947.8 733.9 945.8 733.5C 940.8 732.7 941 731.3 946.3 730C 953.5 728.1 957.4 726.8 961.1 724.9C 965.6 722.7 974.8 712.7 978.3 706.2C 981.1 701 984.3 690.3 983.4 688.9C 982.6 687.5 975.4 687.8 974.3 689.2zM 989.2 734.4C 990 738.2 987.8 743.5 985.3 743.8C 982.8 744.2 979 740.5 979 737.8C 979 732.7 988.3 729.6 989.2 734.4zM 981.8 749.2C 983.6 751 983.2 754.8 981.1 755.9C 979.3 756.9 977.6 755.8 975.6 752.2C 973.9 749.2 979.2 746.6 981.8 749.2zM 955.1 759.9C 961.7 766.5 956.6 777 946.9 777C 939.9 777 935.1 768.6 938.4 762.2C 940.5 758.2 942.5 757.1 947.8 757C 951.3 757 952.7 757.6 955.1 759.9zM 895.5 859.5C 897.7 862.9 895.7 866 891.5 866C 888.7 866 887.7 865.5 886.8 863.5C 884.4 858.3 892.4 854.6 895.5 859.5zM 878.8 867.6C 882 869.8 881.4 874.1 877.8 875.4C 875.5 876.2 874.6 876 872.5 874C 869.6 871.2 869.4 870.3 871.7 867.8C 873.7 865.6 875.9 865.5 878.8 867.6zM 863.7 883.4C 866.1 885.5 866.3 886 865.2 888.4C 863.8 891.5 859.7 891.9 856.8 889.3C 854.4 887.1 854.5 884.4 857.2 882.6C 860.1 880.5 860.4 880.6 863.7 883.4z"/>
<path style="stroke:none; fill:#000000" d="M 505.3 691.7C 503 692.6 503.9 694.8 507 695.9C 510.8 697.2 511.7 699.3 509.6 702.5C 507 706.5 504.1 706.5 492.7 702.6C 479.5 698 471.2 697.3 455.6 699.4C 449 700.3 443.5 701.2 443.2 701.5C 442.9 701.7 444.5 706.3 446.7 711.7C 448.9 717.1 451 722.7 451.4 724.2C 451.7 725.7 453.1 728.1 454.4 729.6L 456.7 732.3L 462.7 730.7C 470.6 728.4 472.8 728.6 477.5 731.5C 479.7 732.8 481.8 734 482.2 734C 482.6 734 484.3 732 486 729.5C 489.1 725 491.6 723.8 492.6 726.4C 492.9 727.1 492 730.5 490.6 733.9C 489.2 737.2 488 741.1 488 742.4C 488 746.9 489.8 746.1 491.6 740.8C 495.5 728.9 505.7 711.4 512.8 704.7C 514.4 703.1 517.4 701.3 519.4 700.6L 523.1 699.3L 516.9 695.2C 511.1 691.3 508.3 690.4 505.3 691.7zM 478.2 710.7C 480.4 712.7 480.5 714.8 478.3 717.2C 476.5 719.2 471 719.6 469.2 717.8C 467.3 715.9 467.8 712.3 470.2 710.6C 473.1 708.5 475.9 708.6 478.2 710.7zM 499.8 713.2C 504.1 717.5 494.2 726.9 489.5 723C 487.4 721.2 487.7 716.3 490 714C 492.2 711.8 497.9 711.3 499.8 713.2zM 462.2 717.7C 464.2 719.5 464.6 725 462.8 726.8C 459.3 730.3 452.2 726.3 453.4 721.6C 454.7 716.4 458.8 714.6 462.2 717.7zM 479.8 721.2C 481.7 723.1 481.2 726.8 478.9 728.1C 477.2 729 476.4 728.8 474.4 726.9C 473.1 725.7 472 724.1 472 723.5C 472 721.7 474.2 720 476.5 720C 477.7 720 479.1 720.5 479.8 721.2z"/>
<path style="stroke:none; fill:#000000" d="M 774 698C 770.9 701.1 771.3 707.3 774.6 709.9C 780.2 714.3 788 710.7 788 703.7C 788 697 778.8 693.2 774 698z"/>
<path style="stroke:none; fill:#000000" d="M 94.3 700.5C 90.5 703.2 91.2 707.6 96.3 712.3C 98.6 714.5 101.3 717.5 102.2 718.9C 104.6 722.3 104.5 728.2 102.2 730.3C 97.9 734.2 94 730.8 94 723.2C 94 717.5 93.7 717.3 88.3 719.5C 83.8 721.4 81 723.8 81 725.8C 81 726.6 85.3 731.5 90.7 736.7L 100.3 746L 102.7 743.8C 104.1 742.5 107 737.8 109.3 733.2C 116.4 718.8 115.4 709.4 106 702.7C 101 699.2 97.1 698.4 94.3 700.5z"/>
<path style="stroke:none; fill:#000000" d="M 419.9 701.6C 419 702.7 417.6 703 415.3 702.7L 412 702.1L 412 708.3C 412 722.4 418.2 741.6 427.3 756.3C 432.8 765 446 778.1 455.6 784.3C 497.5 811.4 547 821.9 588.5 812.5C 603.5 809.1 634.7 798.9 650.6 792C 662.9 786.8 672.6 780.5 672.4 777.9C 672.2 775.6 659.9 759.9 657.4 758.8C 655.5 757.9 652 758.8 637.3 764C 601.6 776.5 576.8 783.8 556.5 787.6C 540.2 790.6 522.2 788.6 508.5 782.1C 498.9 777.6 477.4 764.4 467.3 756.9C 453.4 746.4 449.1 741 439.9 722.3C 430.1 702.4 424.3 696.4 419.9 701.6zM 433.4 723.6C 435.4 725.6 435.4 726.6 433.1 731.6C 429.9 738.6 424 741.9 420.6 738.4C 417.5 735.4 419.7 726 423.4 726C 424.1 726 425.7 725.1 427 724C 429.8 721.6 431.3 721.5 433.4 723.6zM 444.7 747C 450.7 750.6 451.7 756.7 446.8 760.3C 442.7 763.4 438.2 763 434.8 759.2C 430.6 754.4 431.2 749.2 436.5 746.2C 439.3 744.6 441.1 744.7 444.7 747zM 466.4 760C 469.4 761.1 473 766.5 473 769.8C 473 771.1 471.8 773.2 470.4 774.7C 468.3 776.8 467.2 777.1 464.3 776.7C 458 775.6 453.6 769.3 455.9 764.4C 456.7 762.5 460.9 759.6 463.7 759C 463.8 759 465 759.4 466.4 760zM 659.8 767.2C 661.5 768.9 661.3 774.5 659.5 776C 655.6 779.2 648.1 775.5 649.5 771.1C 650.9 766.5 656.8 764.2 659.8 767.2zM 454.5 774.4C 457.4 778.2 457.6 779 455.5 779C 452.5 779 448 776 447.4 773.5C 446 767.9 449.9 768.3 454.5 774.4zM 644.4 773.3C 645.5 777.8 644.4 780.3 641.1 780.8C 637.6 781.3 635.7 779.1 636.4 775.2C 637.5 767.9 642.8 766.7 644.4 773.3zM 629.5 776.4C 633 781.6 629.6 790.2 625.3 787.4C 622 785.3 623.6 774 627.1 774C 627.6 774 628.7 775.1 629.5 776.4zM 489.3 777C 492.6 779.6 493.4 783.3 491.6 786.9C 488.9 792.1 482.5 792.6 477.9 788.1C 474.3 784.5 474.2 780.8 477.5 777.5C 480.5 774.4 485.7 774.2 489.3 777zM 613.5 783.5C 617.8 787.8 616.2 796 611 796C 607 796 604.2 790.4 605.5 785.3C 606.7 780.4 609.8 779.7 613.5 783.5zM 509.8 789.6C 511 790.4 512.5 792 513.1 793.1C 515.4 797.4 510.6 803 504.7 803C 500.7 802.9 496 797.6 496 793.1C 496 788.6 505.1 786.3 509.8 789.6zM 576.1 790.9C 578.4 793.3 579 794.7 579 798.4C 579 802 578.5 803.2 576.4 804.9C 573.1 807.5 570.9 807.5 567.9 805.1C 565.7 803.3 565.6 803 566.8 797C 568.6 787.3 570.9 785.8 576.1 790.9zM 597.2 789.7C 599.4 791.7 599.6 796.3 597.5 798.4C 591.3 804.5 583.1 796.6 589 790.2C 591.5 787.6 594.7 787.4 597.2 789.7zM 532.9 794.6C 537.1 799.9 534.1 807 527.8 807C 523.7 807 521.5 803.2 523 798.5C 524.1 795.1 527.3 792 529.6 792C 530.3 792 531.8 793.2 532.9 794.6zM 556.5 797.3C 559.7 801.9 557 808 551.8 808C 547.6 808 545 805.5 545 801.5C 545 794.9 552.9 792.1 556.5 797.3z"/>
<path style="stroke:none; fill:#000000" d="M 571.6 705.5C 564.1 709.4 564.3 716.8 572 723.4C 580.2 730.3 590.3 722.6 587.1 712C 585 704.9 578.2 702.1 571.6 705.5z"/>
<path style="stroke:none; fill:#000000" d="M 530.5 711.2C 525.6 713 517.2 718.9 513.4 723.4C 505 733.2 500.8 748.8 504 758.5C 507.3 768.5 520.8 777.3 533 777.4C 548.5 777.6 564.4 763.3 566.9 747.1C 569.7 728.2 555.9 709.9 539 710.1C 536 710.1 532.2 710.6 530.5 711.2zM 545 721.5C 551.4 724.8 555.8 734.3 554.6 742.3C 552.1 759.1 530.8 767.1 519.8 755.4C 516.3 751.6 515 748 515 741.8C 515 733.6 519.9 726.3 528.3 721.8C 532.3 719.7 541.1 719.5 545 721.5z"/>
<path style="stroke:none; fill:#000000" d="M 529.4 733.4C 523.7 739.1 525 747.1 532.1 750C 534.8 751.2 535.7 751.1 538.4 749.6C 545.3 745.9 547.1 737.9 542.1 732.9C 538 728.8 533.8 729 529.4 733.4z"/>
<path style="stroke:none; fill:#000000" d="M 735.2 715.6C 729.7 719.4 728.3 728.4 732.5 732.5C 734.3 734.4 736 735 739.5 735C 746 735 749 731.9 749 725.1C 749 716.1 741.7 711 735.2 715.6z"/>
<path style="stroke:none; fill:#000000" d="M 775.2 724.5C 772.1 728.4 772.3 733.3 775.7 736C 778.9 738.5 781.5 738.1 788 734.2C 796.3 729.1 793.8 723 783.1 722.2C 777.7 721.8 777.2 722 775.2 724.5z"/>
<path style="stroke:none; fill:#000000" d="M 9.2 730.2C 7.1 732.3 7.8 735.9 10.5 737.2C 11.9 737.8 13 739 13 739.9C 13 742.9 16 746 18.8 746C 22.5 745.9 29.9 742.5 30.7 740.4C 31.7 737.9 29.9 735.9 23.4 732.3C 17.3 728.9 11.4 728 9.2 730.2z"/>
<path style="stroke:none; fill:#000000" d="M 50.7 730.4C 45.6 732.3 43.1 734.6 40.8 739.8C 38.6 744.7 38.2 753.5 40 759.9C 43.1 771.4 53.5 779.4 65.3 779.4C 76.5 779.3 83.2 773.7 86.1 761.8C 88.2 752.8 87.8 746.8 84.7 742.2C 78.8 733.2 60.4 726.8 50.7 730.4zM 74.1 748.9C 77.5 752.4 77.8 755.7 75 759.3C 70.9 764.5 62.6 763.5 59.8 757.5C 56 749 67.3 742.2 74.1 748.9z"/>
<path style="stroke:none; fill:#000000" d="M 808 732C 805 732.4 801.8 733.1 801 733.4C 800.2 733.7 793.9 740.2 787 747.8C 756.6 781.2 733.8 802.9 719 812.6C 709.9 818.6 681.9 833.1 669.5 838.3C 666.2 839.7 655.4 843.6 645.5 846.9C 626 853.6 622 856.1 622 861.2C 622 865.1 624.7 870 626.7 870C 630.6 870 681.6 848 698 839.3C 734.8 819.7 761.8 796.2 778.6 769.2C 781.9 763.9 785.3 759.5 786.1 759.5C 788.9 759.5 788.2 765.6 783.9 777.1C 776.9 796.2 772.7 803.3 762.6 813.2C 742.8 832.7 706.3 854.2 672.3 866.5C 667.3 868.4 655.6 871.5 646.3 873.6C 637.1 875.7 629.3 877.5 629.1 877.6C 628.9 877.8 629.4 879.4 630.2 881.2C 631.1 883 632.5 886.7 633.4 889.5C 635.5 896.1 638.7 901.3 640.2 900.4C 640.8 900 644.2 897.5 647.9 894.7C 661.7 884.2 681.8 877.1 708.3 873.3C 719.2 871.8 720.8 871.8 731.9 873.3C 744.2 875.1 763.9 880.6 776.9 885.9C 781 887.6 784.9 889 785.6 889C 787.4 889 802 872.2 803.7 868.2C 805.7 863.5 804 859.2 798.3 854C 793.8 849.7 793.8 849.7 787.4 850.3C 781.9 850.7 778.5 852 764.7 858.8C 750.3 866 737.1 871 732.8 871C 730.7 871 728.8 868.6 729.5 866.9C 729.8 866.1 736.4 862.6 744.3 859C 777.5 844 780 842.5 782.7 836.3C 783.9 833.4 783.8 831.2 782.4 820.2C 777.9 785.1 787.6 763.2 813.6 749.8C 835.2 738.7 854.4 737.1 870.3 745.2C 884.2 752.1 896.9 770.1 899 785.8C 902.4 810.8 886.3 833 861.7 837.3C 849.2 839.4 836.3 835 826.3 825.3C 814 813.4 813.9 800.8 826 789C 832.1 783 845.6 776 851 776C 855.6 776 861.1 779.5 862.4 783.3C 864 787.7 861 792 852.4 797.6C 844.8 802.6 843.3 805.2 847.9 805.8C 851.9 806.4 854.6 805.2 858.8 800.8C 872.9 786.4 870.7 770.1 854.4 767.4C 845.9 766.1 830.1 772 822.1 779.5C 814.6 786.5 812.5 792.2 812.5 805C 812.6 814.6 812.8 816.1 815.6 822C 817.3 825.6 819.9 829.9 821.4 831.7C 827.1 838.4 838.9 843 850.7 843C 857.2 843 859.9 844.5 855.5 845.6C 851.9 846.5 834.3 845.5 829.8 844.1C 819.4 840.9 810.7 830.9 806.4 817.2C 804 809.9 803.8 807.7 804.2 799C 804.6 790.4 805.1 788.2 807.9 782.6C 812 774.3 820.2 766.6 830.6 761.5C 837.3 758.2 839.6 757.6 846.6 757.2C 854.2 756.8 855.4 757 861.2 759.7C 877.7 767.5 885.8 785 879.1 798C 876 803.8 867.4 812.1 861.4 815C 858.8 816.3 854.6 817.5 852 817.8C 847.7 818.2 847.1 818 844.9 815.1C 843.6 813.4 841 810.1 839.3 807.9C 834.1 801.5 835.1 798.6 844 793.2C 850.4 789.4 851.8 784.4 846 786C 835.6 789 829.1 803.1 833.3 813.3C 835.3 818 839.7 822.8 844.1 825C 856.3 831.3 876.2 821.4 884.3 805.1C 887.2 799.2 887.5 797.7 887.5 789.5C 887.5 781.4 887.2 779.8 884.3 773.6C 879.8 764.2 874.3 758 866.8 753.9C 860.8 750.7 860 750.5 850.5 750.5C 838.5 750.6 830.2 753.2 818.6 760.4C 803.9 769.5 797.4 779.4 794.9 796C 791.2 820.5 802.6 843.8 821.2 849.9C 839.8 856 858.3 855.2 872.4 847.7C 883 842.1 899 824.6 904.7 812.5C 907.3 806.9 907.5 805.6 907.5 793.5C 907.5 773.4 903.2 763.2 888.5 748.5C 874.1 734.1 863.9 730.9 832.8 731.1C 822.2 731.2 811 731.6 808 732zM 776 818C 776 826.6 762.7 839.8 740 853.5C 719.8 865.8 706.6 871.3 685.5 876.2C 670.2 879.7 668.5 879.9 668.5 878.1C 668.5 877.4 673.7 874.5 680.5 871.5C 728.7 850.2 737.2 846 751.6 836.4C 763.2 828.6 768.5 824.2 771.7 819.5C 774.4 815.6 776 815 776 818zM 792.2 859.7C 796 863.1 793.5 870 788.5 870C 784.2 870 781.1 862.3 784.2 859.2C 785.9 857.5 790 857.7 792.2 859.7zM 768 870C 769.6 871.6 769.8 872.5 769 874C 768.2 875.6 766.9 876 763.2 876C 753.2 876 753.7 868.4 763.8 868.1C 765 868 766.9 868.9 768 870zM 658.3 879.6C 659.6 880.9 656.8 884.1 651.7 887C 645.3 890.7 641.3 890.9 640.1 887.7C 638.4 883.2 640.9 881.4 650.5 880C 657.6 878.9 657.6 878.9 658.3 879.6z"/>
<path style="stroke:none; fill:#000000" d="M 225 735.5C 214 737.4 209.4 738.8 201.5 742.7C 186.9 750.1 173.5 763.1 165.2 778C 151.2 803.1 151 836.4 164.9 863.8C 172.8 879.5 190.8 901.1 203.1 909.6L 206.9 912.2L 219.2 906.2C 233.3 899.3 237.3 898 256.2 894.5C 278.9 890.4 294.3 884.5 310 874.2C 329.3 861.6 341.7 840.5 343.6 817C 344.8 802.8 340.3 789.7 331.4 780.7C 322.5 771.9 299.7 761.9 271.5 754.5C 239.9 746.2 222.5 748.1 205.2 761.8C 192.9 771.5 186.6 781.3 181.5 798.5C 177.8 810.8 177.6 827.6 180.9 839.5C 185.8 857 194.9 869 208 875.3C 217.7 879.9 226.6 881.4 239.4 880.6C 251.5 879.8 262.2 877.4 275.4 872.5C 285.3 868.7 288.5 868.6 284 872.1C 273.8 879.9 249.6 887 233 887C 224.9 887 212.7 884 205.7 880.3C 192.9 873.5 180.3 856.1 176 839.4C 173.6 830.1 173.4 813.7 175.4 803.9C 178.7 788.3 188.1 771.6 199.5 761.2C 215.2 746.9 233.5 742.6 262.1 746.6C 302.4 752.2 337.6 770.7 347.4 791.4C 352.3 801.6 353.4 807.5 352.7 819.4C 351.8 833.9 346.5 850.5 337.5 866.6C 329.8 880.4 321 886.3 302.9 889.9C 297 891.1 287.2 894.1 281 896.6C 269.3 901.3 261.4 903.4 251.5 904.4C 238.1 905.8 229.4 909 222.5 915.1C 217.2 919.8 217.9 921.6 228.9 930.9L 238.4 938.8L 243.3 934.5C 250 928.6 256.4 925.4 265.7 922.9C 273.9 920.7 289.3 919.9 296.2 921.3L 300 922.1L 313.5 908.9C 335.7 887.2 339.7 881.5 351.9 853.7C 359.1 837.4 361.8 828.3 362.6 818C 363.3 809.1 361.3 798.1 357.6 790.5C 351.2 777.5 336.6 764.7 316.1 754.2C 284.1 737.7 251.3 731 225 735.5zM 257.5 759.1C 264.9 761.4 270.7 765.2 278.3 772.7C 299.9 793.9 306.4 818.2 296.3 839.8C 289.2 854.9 265.7 868.7 243.9 870.5C 216.9 872.8 191.1 854.2 184.9 828C 183.2 820.6 183.4 807.8 185.4 800.1C 190 782.3 204.2 766.2 220.8 760C 232.1 755.7 245.6 755.4 257.5 759.1zM 303.4 772.6C 308.1 774.4 307.1 780.9 301.8 783.1C 295.5 785.7 290.5 779.3 295.1 774.4C 297.3 772 300.3 771.4 303.4 772.6zM 324 782C 331.4 786 325.8 796.2 318.1 793C 312.9 790.9 312.8 785.3 317.8 782.5C 321.1 780.8 321.6 780.7 324 782zM 330.4 801.6C 333.9 805.1 330.5 811 325.1 811C 319.8 811 317.7 804.6 321.8 801.2C 324 799.5 328.5 799.7 330.4 801.6zM 327 820C 332.5 822.9 331 830 324.9 830C 318 830 315.6 825 320.6 821.1C 323.6 818.7 324.4 818.6 327 820zM 320.5 837.2C 323.4 838.5 324.8 842.5 323.3 844.9C 319.1 851.6 308.5 848.9 310.4 841.7C 310.7 840.2 312.3 838.4 313.8 837.6C 317.1 835.7 317.3 835.7 320.5 837.2zM 304.1 855.9C 305.7 857.5 307 859.5 307 860.2C 307 862.7 302.2 866.3 299 866.3C 292.4 866.3 289.6 859 294.6 855.1C 298.2 852.3 300.6 852.5 304.1 855.9zM 307.2 899.4C 308.7 901.6 307.9 902.9 302.8 907.5C 298.7 911.2 297.1 912 294.6 911.8C 292.2 911.6 291.4 911 291.2 909.2C 290.8 906.5 292.8 904 298.4 899.8C 302.3 897 305.5 896.8 307.2 899.4z"/>
<path style="stroke:none; fill:#000000" d="M 233.9 783.4C 222.9 786.5 215.5 792.4 210.2 802.3C 207.8 807 207.5 808.5 207.5 817.5C 207.6 825.6 208 828.4 209.7 832.2C 214.5 842.6 223.7 849.1 234.8 849.8C 240 850.2 241.9 849.8 246.4 847.6C 256.6 842.6 262 833.7 262.8 820.8C 263.2 813.9 263 812.4 260.6 807.6C 255.1 796.4 242.6 793.7 234 801.9C 227 808.6 226.8 818 233.5 824.7C 236 827.2 237.7 828 240.3 828C 244.9 828 250.4 824.2 250.8 820.7C 251.2 817.8 250.2 817.2 248.2 819.2C 247.3 820.1 246.4 819.9 244.3 818.3C 241.1 816 240.3 813.5 242 811.5C 244.3 808.7 247.7 809.8 251 814.2C 253.6 817.8 254.1 819.2 253.7 822.7C 252.8 830.9 245.6 836.7 237.7 835.7C 228.7 834.5 220 824.5 219.2 814.5C 218.1 800.7 229.5 789.7 245 789.7C 255.6 789.7 263.4 794.3 268.3 803.5C 270.2 806.9 270.5 809.1 270.5 818C 270.5 829.7 269 834.1 262.4 841.8C 258.2 846.7 258.2 847.4 262 846.6C 270.4 845 280.3 835.2 283.7 825.4C 285.8 819.2 285.1 808.9 282.2 802.8C 274.6 787.3 252.3 778.4 233.9 783.4z"/>
<path style="stroke:none; fill:#000000" d="M 594.3 734.7C 591.6 735.2 587 740.5 587 743C 587 745.8 591.7 750.8 595.1 751.5C 600.7 752.8 607.1 745.5 605.6 739.5C 605 737.1 599.7 733.7 597.3 734.1C 596.9 734.2 595.5 734.5 594.3 734.7z"/>
<path style="stroke:none; fill:#000000" d="M 466.4 736.9C 463.8 738 459.8 742.9 460.6 744.1C 460.9 744.6 462.9 744.1 465 743C 469.6 740.6 474.3 740.4 476 742.5C 476.9 743.6 476.9 744.7 475.9 747.3C 475.2 749.2 475 751.4 475.3 752.3C 476.1 754.3 483.6 758.6 487.9 759.5C 490.8 760.1 491.2 760 490.7 758.5C 490.3 757.6 490 755.3 490 753.4C 490 750 489.9 750 487.7 751.5C 485.7 752.8 485.1 752.8 482 751.2C 478.7 749.6 478.6 749.2 478.8 745C 479.1 741.5 478.7 740 477.2 738.7C 474.9 736.6 469.3 735.7 466.4 736.9z"/>
<path style="stroke:none; fill:#000000" d="M 717.4 738.4C 710.6 741.4 709 748.1 714.1 752.4C 718.4 756 724.1 756 726.9 752.4C 730 748.5 729.7 743.5 726.1 739.9C 722.8 736.7 721.9 736.5 717.4 738.4z"/>
<path style="stroke:none; fill:#000000" d="M 742.9 749.3C 738.9 751.9 734 760.9 734 765.7C 734 768 734.8 769.9 736.6 771.7C 738.8 773.9 739.8 774.2 743.7 773.7C 751.3 772.9 756.9 767.3 757.7 759.8C 758.9 749.4 751.1 743.8 742.9 749.3z"/>
<path style="stroke:none; fill:#000000" d="M 2.1 751.6C 0.5 753.6 0 755.7 0 759.9L 0.1 765.5L 1.9 760.5C 2.9 757.7 4.2 754.5 4.8 753.3C 7.4 748.6 5.4 747.4 2.1 751.6z"/>
<path style="stroke:none; fill:#000000" d="M 681.3 751C 674.5 755.1 674.2 760.5 680.3 766.5C 686 772.2 690.6 773.2 696.7 770C 701.5 767.4 705 762.6 705 758.5C 705 756.8 703.8 754.6 701.6 752.4C 698.4 749.2 697.8 749 691.4 749C 686.3 749 683.6 749.5 681.3 751z"/>
<path style="stroke:none; fill:#000000" d="M 611.4 750.9C 606.8 752.9 604.4 759.5 607.4 761.9C 608.2 762.6 611.3 763.4 614.3 763.7C 619.3 764.2 620.1 764 622.4 761.7C 625.5 758.6 625.7 755 623.1 752.6C 620.8 750.5 614.4 749.6 611.4 750.9z"/>
<path style="stroke:none; fill:#000000" d="M 15.5 753.8C 9.5 757.6 6.4 763.1 5.8 771L 5.5 775.5L 12.5 776.9C 21.7 778.7 28.1 777.8 32.3 774C 35.2 771.4 35.5 770.7 35.5 764.6C 35.5 758.8 35.2 757.7 32.8 755.3C 29.2 751.7 20.1 750.9 15.5 753.8zM 26 761C 28.5 763.5 28.5 766.1 26.2 769C 22.8 773.2 15 770.5 15 765.1C 15 759.7 22 757 26 761z"/>
<path style="stroke:none; fill:#000000" d="M 1023.2 756.9C 1022.1 764.9 1005.5 800.6 998.6 809.7C 988.5 823 972.3 836.2 949.4 849.8C 934.9 858.3 925.5 865.7 913.9 877.6C 903.8 888 900 893.4 900 897.3C 900 900.4 902.4 901.9 904.8 900.4C 905.6 899.8 908.7 895.4 911.6 890.6C 917.6 880.5 921.2 876.4 924.8 875.5C 929.4 874.4 929.2 876.5 923.9 883.6C 917.7 891.9 914.9 897.7 911.5 909.5C 906.2 927.9 903.6 953.1 905.9 964.1C 907.2 970.2 919.1 993 927.1 1004.5C 929.8 1008.3 934.6 1014.3 937.8 1017.8L 943.6 1024L 952 1024L 960.4 1024L 951.4 1014.8C 946.4 1009.7 940.5 1003 938.3 1000C 925 982.2 917.2 953.9 920 933.2C 922 918 928.3 901.6 937.5 887.5C 943.4 878.4 959.2 863.1 969.5 856.4C 984.3 846.8 1001.7 840.4 1018.3 838.4L 1024 837.8L 1024 831.9L 1024 826L 1018.7 826C 1015.4 826 1010 827.2 1004.5 829C 999.6 830.7 994.8 832 993.8 832C 990.5 832 991.9 828.6 998.5 821C 1012.8 804.5 1024.7 776.2 1023.7 761.1C 1023.5 758 1023.3 756.1 1023.2 756.9z"/>
<path style="stroke:none; fill:#000000" d="M 572.3 757.6C 565.8 759.1 562.4 770.3 567.5 773.6C 572.8 777 591.3 773.4 596.5 768C 598.8 765.6 599 764.9 598 763C 597.4 761.8 595.3 760.2 593.4 759.4C 589.8 757.9 576.2 756.8 572.3 757.6z"/>
<path style="stroke:none; fill:#000000" d="M 712.3 775.6C 704 781 703 788.1 709.6 793.9C 711.5 795.6 714 797 715.1 797C 718.5 797 722.9 794.1 726 789.8C 734.4 778.2 724.4 767.8 712.3 775.6z"/>
<path style="stroke:none; fill:#000000" d="M 34 783.3C 28.3 786.1 26.5 786.5 19.4 786.5C 12.2 786.5 10.9 786.2 7.1 783.7C 4 781.6 2.5 781.1 1.7 781.9C 1.1 782.5 0.399999 787.4 0.199999 792.8L -0.100001 802.5L 1.8 799.5C 2.8 797.8 4.4 795.9 5.3 795.2C 6.6 794 7 794.6 8 799.7C 11.5 817.3 13.2 819.6 23.5 819.4C 39.5 819.2 51.3 809.6 52.7 795.6C 53.4 788.7 51.3 783.9 46.7 781.7C 42.2 779.5 41.7 779.6 34 783.3zM 35 795C 39.3 799.3 38.4 804.7 32.9 807.6C 30.3 808.9 29.3 808.9 26.9 807.9C 20.9 805.5 19.3 799.6 23.5 795.5C 26.6 792.4 32.1 792.1 35 795z"/>
</g>
</g>
</svg>